<?xml version="1.0" encoding="UTF-8"?><svg xmlns="http://www.w3.org/2000/svg" viewBox="0 0 320 340"><defs><style>.e{fill:#727d83;}.f{fill:#215a36;}</style></defs><g id="a"/><g id="b"><g><g><path class="f" d="M84.53,252.72v.61h-1c-1.72,0-3.12,1.2-3.23,2.88v24.13c0,9.57-6.59,15.95-16.48,15.95s-16.96-6.34-16.96-15.84v-24.1c-.03-1.75-1.47-3.02-3.23-3.02h-1v-.61h12.42v.61h-1c-1.73,0-3.15,1.22-3.22,2.93v23.29c0,8.89,5.19,14.82,12.98,14.82s13.61-5.61,13.63-14.03v-24.07c-.08-1.71-1.49-2.94-3.23-2.94h-1v-.61h11.31Z"/><path class="f" d="M135.48,252.72v.61h-1.14c-2.05,0-3.71,1.62-3.77,3.65v31.53c0,3.93,.56,7.79,.56,7.79h-.55l-33.35-35.5v30.38c.06,2.03,1.73,3.65,3.77,3.65h1.13v.61h-12.59v-.61h1.14c2.06,0,3.73-1.65,3.78-3.7v-31.7c0-4.17-.56-7.62-.56-7.62h.6l33.3,35.48v-30.26c-.04-2.05-1.71-3.7-3.77-3.7h-1.13v-.61h12.59Z"/><path class="f" d="M154.66,295.43h-13.38v-.61h.78c2.14,0,3.88-1.71,3.92-3.84v-33.85c-.05-2.11-1.78-3.81-3.92-3.81h-.77v-.61h13.37v.61h-.78c-2.13,0-3.86,1.69-3.92,3.8v33.86c.04,2.12,1.78,3.84,3.92,3.84h.77v.61Z"/><path class="f" d="M187.13,253.39v5.1h-.61v-.91c0-1.64-1.32-2.98-2.96-3.01h-12.93v18.86h10.33c1.64-.03,2.96-1.36,2.96-3.01v-.9h.6v9.65h-.6v-.91c0-1.62-1.28-2.94-2.89-3h-10.4v15.7c.04,2.13,1.78,3.84,3.92,3.84h.77v.61h-13.37v-.61h.78c2.14,0,3.88-1.71,3.92-3.84v-34.17c0-1.96-1.87-3.49-3.9-3.49h-.77v-.61h17.86c2.64-.02,6.16-.63,7.29-1.11v1.79Z"/><path class="f" d="M220.38,295.43h-25.35v-.61h.78c2.14,0,3.88-1.71,3.92-3.84v-34.17c-.21-1.96-1.87-3.5-3.9-3.5h-.77v-.61h17.86c2.64-.03,6.16-.63,7.29-1.11v7.7h-.62v-1.1c0-1.93-1.51-3.52-3.42-3.63h-12.47v18.86h10.33c1.64-.03,2.96-1.36,2.96-3v-.9h.6v9.65h-.6v-.91c0-1.62-1.28-2.94-2.89-3h-10.4v18.28h8.77c6.48,0,8.97-3.35,10.85-7.99h.61l-3.56,9.86Z"/><path class="f" d="M249.13,277.44c2.44,2.25,3.07,4.97,3.07,7.44,0,6.75-4.42,11.41-11.45,11.41-3,0-7.95-.85-10.35-3.33-.46-1.88-.22-5.77,.71-8.51h.54c-.61,6.29,3.37,10.31,8.82,10.01,4.46-.25,8.19-3.3,8.19-8.18,0-2.38-.87-4.27-2.4-5.69l-11.71-10.85c-2.47-2.25-3.31-5.2-3.31-7.56,0-5.14,3.78-10.31,10.75-10.31,1.61,0,3.62,.27,5.24,.63h2.42v7.49h-.59c.01-3.9-3.07-6.28-6.88-6.28-4.51,0-7.52,3.3-7.52,7.02,0,1.59,.54,3.84,2.46,5.63l12.02,11.1Z"/><path class="f" d="M275.32,252.72c7.82,0,12.61,4.48,12.61,11.78,0,9.3-10.12,14.25-17.79,10.22v-.58s10.05,2.17,12.81-6.57c.27-.86,.43-2.33,.39-3.68-.15-5.6-3.04-9.34-8.24-9.34h-7.05v36.44c.04,2.13,1.78,3.84,3.92,3.84h.77v.61h-13.38v-.61h.78c2.14,0,3.88-1.71,3.92-3.84v-34.14c-.2-1.97-1.87-3.52-3.9-3.52h-.77v-.61h15.92Z"/></g><g><path class="f" d="M77.04,137.43c9.96,1.12,18.11,4.75,24.44,10.88,6.74,6.54,10.11,14.56,10.11,24.06v.23c0,9.71-3.32,17.85-9.96,24.44-6.69,6.64-14.84,9.96-24.44,9.96s-17.85-3.32-24.44-9.96c-6.74-6.85-10.11-14.89-10.11-24.14v-1l12.26-5.36v6.59c0,6.13,2.2,11.34,6.59,15.63,4.39,4.34,9.63,6.51,15.71,6.51s11.44-2.17,15.79-6.51c4.34-4.39,6.51-9.63,6.51-15.71,0-6.39-2.09-11.57-6.28-15.56-4.8-4.55-10.04-7.02-15.71-7.43-9.71-.77-17.32-3.91-22.83-9.42-5.72-5.67-8.58-12.52-8.58-20.54s2.81-14.89,8.43-20.46c5.62-5.62,12.41-8.43,20.38-8.43s14.89,2.81,20.46,8.43c5.67,5.72,8.51,12.52,8.51,20.38v.77l-12.26,5.52v-6.05c-.1-4.75-1.74-8.68-4.9-11.8-3.32-3.27-7.25-4.9-11.8-4.9s-8.4,1.58-11.57,4.75c-3.27,3.32-4.9,7.25-4.9,11.8s1.63,8.46,4.9,11.72c3.07,3.07,7.64,4.93,13.72,5.59Z"/><path class="f" d="M130.68,172.91V96.59l12.26-5.36v81.92c.05,6.13,2.25,11.34,6.59,15.63,4.39,4.34,9.63,6.51,15.71,6.51s11.39-2.17,15.79-6.51c4.34-4.29,6.51-9.43,6.51-15.4V96.59l12.26-5.36v81.69c0,9.4-3.37,17.43-10.11,24.1-6.74,6.67-14.89,10-24.44,10s-17.7-3.33-24.44-10c-6.74-6.67-10.11-14.7-10.11-24.1Z"/><path class="f" d="M218.81,207.01V125.32c0-9.4,3.37-17.43,10.11-24.1,6.74-6.67,14.89-10,24.44-10s17.7,3.33,24.44,10c6.74,6.67,10.11,14.7,10.11,24.1v76.32l-12.26,5.36v-51.72h-44.6v46.36l-12.26,5.36Zm12.26-63.99h44.6v-17.93c-.05-6.13-2.25-11.34-6.59-15.63-4.39-4.34-9.63-6.51-15.71-6.51s-11.39,2.17-15.79,6.51c-4.34,4.29-6.51,9.42-6.51,15.4v18.16Z"/></g><polygon class="f" points="295.8 236.91 31.49 236.91 34.74 229.61 299.07 229.61 295.8 236.91"/><polygon class="e" points="252.21 307.43 181.61 307.43 149.98 307.43 146.03 307.43 43.8 307.43 42.5 310.37 144.72 310.37 148.66 310.37 180.3 310.37 250.89 310.37 286.47 310.37 287.78 307.43 252.21 307.43"/><g><path class="e" d="M48.03,322.84c.6,.56,.76,1.23,.76,1.83,0,1.66-1.09,2.81-2.82,2.81-.74,0-1.96-.21-2.55-.82-.11-.46-.06-1.42,.17-2.1h.13c-.15,1.55,.83,2.54,2.17,2.47,1.1-.06,2.02-.81,2.02-2.02,0-.59-.21-1.05-.59-1.4l-2.88-2.68c-.61-.56-.82-1.28-.82-1.86,0-1.27,.93-2.54,2.64-2.54,.4,0,.89,.07,1.29,.15h.6v1.85h-.14c0-.96-.76-1.55-1.69-1.55-1.11,0-1.85,.81-1.85,1.73,0,.39,.13,.95,.61,1.39l2.96,2.74Z"/><path class="e" d="M56.58,327.28h-6.11v-.15h.21c.49,0,.85-.35,.87-.8v-7.14c0-.45-.38-.79-.87-.79h-.21v-.15h4.39c.61,0,1.42-.13,1.68-.24v1.7h-.16v-.23c0-.42-.3-.76-.75-.77h-3.12v3.83h2.57c.42,0,.61-.29,.61-.64v-.19h.16v2.11h-.16v-.19c0-.34-.18-.61-.57-.64h-2.61v3.83h2.35c1.45-.02,1.96-.72,2.39-1.7h.16l-.83,2.16Z"/><path class="e" d="M62.31,318.25c1.9,0,3.06,.92,3.06,2.44,0,1.28-.99,2.34-2.34,2.48,.33,.15,.84,.72,1.16,1.18,0,0,.69,.94,1.32,1.64,.61,.69,1.03,1.14,1.87,1.14v.15h-.47c-1.66,0-2.32-.76-2.79-1.32-.17-.2-1.36-1.91-1.47-2.06-.41-.51-.93-1.01-1.52-1.01v-.14s.37,0,.86,0c.83-.02,1.78-.03,2.21-1.29,.07-.21,.11-.53,.11-.86-.03-1.13-.79-1.79-2-1.85-.85-.04-1.59,0-1.73-.01v7.59c0,.45,.37,.82,.85,.82h.2v.15h-3.07v-.15h.21c.48,0,.84-.35,.85-.8v-7.15c-.02-.45-.38-.78-.85-.78h-.2v-.15h3.77Z"/><path class="e" d="M76.59,318.25v.15h-.12c-.4,0-.87,.26-1.18,.88l-3.11,6.66s-.55,1.16-.58,1.55h-.14l-3.71-8.21c-.31-.62-.76-.88-1.16-.88h-.11v-.15h3.09v.15h-.12c-.35,0-.72,.33-.53,.92l2.69,6.56,2.76-6.53c.23-.6-.17-.94-.52-.94h-.12v-.15h2.87Z"/><path class="e" d="M77.35,327.28v-.15h.2c.56,0,1.01-.36,1.02-.81v-7.1c-.01-.45-.46-.82-1.02-.82h-.2v-.15h3.41v.15h-.2c-.55,0-.99,.35-1.02,.79v7.14c.02,.45,.47,.8,1.02,.8h.2v.15h-3.41Z"/><path class="e" d="M91.36,323.49l-.16,2.06c-.74,1.15-2.22,1.87-3.89,1.94l-.61,.71c.53-.18,1.54-.17,1.58,.87,.03,.95-1.11,1.41-2.12,1.1v-.15c.63,0,1.39-.24,1.37-.96-.02-.63-.72-.72-1.26-.5l-.08-.15,.7-.92c-2.95-.08-4.8-1.86-4.8-4.72s1.92-4.72,4.96-4.72c1.25,0,2.6,.35,3.52,.91l.33,2.13h-.13c-.46-1.84-1.87-2.59-3.73-2.59-2.38,0-3.87,1.62-3.87,4.27s1.49,4.24,3.88,4.26c2.24,.02,4-1.07,4.17-3.53h.13Z"/><path class="e" d="M103.16,322.77c0,2.8-2.27,4.72-5.08,4.72s-5.08-1.93-5.08-4.72,2.27-4.72,5.08-4.72,5.08,1.93,5.08,4.72Zm-1.11,0c0-2.54-1.75-4.27-3.96-4.27s-3.96,1.73-3.96,4.27,1.75,4.27,3.96,4.27,3.96-1.73,3.96-4.27Z"/><path class="e" d="M109.36,323.45c.46,.39,.68,1.03,.68,1.62,.01,1.34-1.18,2.42-2.66,2.42-.89,0-2.05-.22-2.6-.71-.09-.4-.06-1.29,.15-1.87h.17c-.13,1.36,.78,2.16,2.11,2.13,1.24-.04,2-.68,2-1.66,0-.47-.16-.85-.55-1.19l-3.01-2.32c-.56-.48-.71-1.1-.72-1.63-.02-1.22,1.09-2.2,2.49-2.2,.69,0,1.15,.06,1.49,.14h.5l.02,1.64h-.17c0-.83-.56-1.33-1.74-1.33-1,0-1.81,.64-1.81,1.44,0,.39,.12,.81,.59,1.18l3.05,2.34Z"/><path class="e" d="M125.68,316.75v.15h-.25c-.42,0-.77,.3-.79,.71v5.95c0,2.36-1.62,3.93-4.06,3.93s-4.17-1.56-4.17-3.91v-5.94c0-.43-.36-.74-.8-.74h-.24v-.15h3.06v.15h-.25c-.43,0-.77,.3-.79,.72v5.74c0,2.19,1.28,3.65,3.19,3.65s3.35-1.38,3.35-3.46v-5.94c-.02-.42-.37-.72-.79-.72h-.25v-.15h2.78Z"/><path class="e" d="M137.4,318.25v.15h-.25c-.45,0-.81,.33-.84,.75v6.42c0,.97,.14,1.92,.14,1.92h-.14l-7.83-7.43v6.28c0,.44,.38,.79,.84,.79h.25v.15h-2.84v-.15h.25c.46,0,.83-.35,.84-.79v-6.44c0-1.03-.14-1.88-.14-1.88h.16l7.81,7.37v-6.24c-.03-.42-.39-.75-.84-.75h-.25v-.15h2.84Z"/><path class="e" d="M138.75,327.28v-.15h.2c.56,0,1.01-.36,1.02-.81v-7.1c-.01-.45-.46-.82-1.02-.82h-.2v-.15h3.41v.15h-.2c-.55,0-.99,.35-1.02,.79v7.14c.02,.45,.47,.8,1.02,.8h.2v.15h-3.41Z"/><path class="e" d="M148.25,318.25c.61,0,1.44-.13,1.7-.24v1.7h-.17v-.23c0-.42-.3-.76-.76-.77h-3.17v3.83h2.61c.42,0,.61-.29,.61-.64v-.19h.17v2.11h-.17v-.19c0-.34-.18-.61-.58-.64h-2.64v3.33c.01,.45,.38,.81,.88,.81h.21v.15h-3.14v-.15h.21c.49,0,.86-.35,.88-.8v-7.14c-.01-.45-.38-.79-.88-.79h-.21v-.15h4.44Z"/><path class="e" d="M151.68,327.28v-.15h.2c.56,0,1.01-.36,1.02-.81v-7.1c-.01-.45-.46-.82-1.02-.82h-.2v-.15h3.41v.15h-.2c-.55,0-.99,.35-1.02,.79v7.14c.02,.45,.47,.8,1.02,.8h.2v.15h-3.41Z"/><path class="e" d="M165.7,323.49l-.16,2.06c-.78,1.2-2.37,1.94-4.14,1.94-3.05-.02-4.96-1.81-4.96-4.72s1.92-4.72,4.96-4.72c1.25,0,2.6,.35,3.52,.91l.33,2.13h-.13c-.46-1.84-1.87-2.59-3.73-2.59-2.38,0-3.87,1.62-3.87,4.27s1.49,4.24,3.88,4.26c2.24,.02,4-1.07,4.17-3.53h.13Z"/><path class="e" d="M175.07,326.25c.31,.62,.76,.88,1.16,.88h.11v.15h-3.09v-.15h.12c.34,0,.73-.33,.53-.9l-.82-2h-3.81l-.83,1.96c-.23,.6,.17,.94,.52,.94h.12v.15h-2.87v-.15h.12c.4,0,.87-.26,1.18-.87l3.12-6.67s.55-1.16,.58-1.55h.14l3.72,8.21Zm-2.17-2.48l-1.69-4.12-1.74,4.12h3.43Z"/><path class="e" d="M182.11,318.26c2.97,0,4.84,1.72,4.84,4.52s-1.87,4.51-4.84,4.51h-5.02v-.15h.2c.47,0,.83-.37,.84-.82v-7.1c-.02-.47-.39-.81-.86-.81h-.18v-.15h5.02Zm-2.99,8.57h3c2.31,0,3.74-1.54,3.74-4.05s-1.43-4.07-3.74-4.07h-3v8.12Z"/><path class="e" d="M198.61,322.77c0,2.8-2.27,4.72-5.08,4.72s-5.08-1.93-5.08-4.72,2.27-4.72,5.08-4.72,5.08,1.93,5.08,4.72Zm-1.11,0c0-2.54-1.75-4.27-3.96-4.27s-3.96,1.73-3.96,4.27,1.75,4.27,3.96,4.27,3.96-1.73,3.96-4.27Z"/><path class="e" d="M204.8,323.45c.46,.39,.68,1.03,.68,1.62,.01,1.34-1.18,2.42-2.66,2.42-.89,0-2.05-.22-2.6-.71-.09-.4-.06-1.29,.15-1.87h.17c-.13,1.36,.78,2.16,2.11,2.13,1.24-.04,2-.68,2-1.66,0-.47-.16-.85-.55-1.19l-3.01-2.32c-.56-.48-.71-1.1-.72-1.63-.02-1.22,1.09-2.2,2.49-2.2,.69,0,1.15,.06,1.49,.14h.5l.02,1.64h-.17c0-.83-.56-1.33-1.74-1.33-1,0-1.81,.64-1.81,1.44,0,.39,.12,.81,.59,1.18l3.05,2.34Z"/><path class="e" d="M219.49,326.18c.3,.67,.86,.95,1.32,.95h.13v.15h-3.39v-.15h.13c.39,0,.79-.34,.57-.94l-.96-2.56h-4.05l-1.01,2.57c-.21,.6,.19,.94,.58,.94h.13v.15h-3.03v-.15h.14c.46,0,1.01-.28,1.32-.95l3.41-8.1s.56-1.22,.56-1.55h.14l4.02,9.65Zm-2.37-3.01l-1.81-4.83-1.89,4.83h3.71Z"/><path class="e" d="M230.42,323.49l-.16,2.06c-.78,1.2-2.37,1.94-4.14,1.94-3.05-.02-4.96-1.81-4.96-4.72s1.92-4.72,4.96-4.72c1.25,0,2.6,.35,3.52,.91l.33,2.13h-.13c-.46-1.84-1.86-2.59-3.73-2.59-2.38,0-3.87,1.62-3.87,4.27s1.49,4.24,3.88,4.26c2.24,.02,4-1.07,4.17-3.53h.13Z"/><path class="e" d="M237.95,327.28h-6.11v-.15h.21c.49,0,.85-.35,.87-.8v-7.14c0-.45-.38-.79-.87-.79h-.21v-.15h4.39c.61,0,1.42-.13,1.68-.24v1.7h-.16v-.23c0-.42-.3-.76-.75-.77h-3.12v3.83h2.57c.42,0,.61-.29,.61-.64v-.19h.16v2.11h-.16v-.19c0-.34-.18-.61-.57-.64h-2.61v3.83h2.35c1.45-.02,1.96-.72,2.39-1.7h.16l-.83,2.16Z"/><path class="e" d="M244.68,323.45c.46,.39,.68,1.03,.68,1.62,.01,1.34-1.18,2.42-2.66,2.42-.89,0-2.05-.22-2.6-.71-.09-.4-.06-1.29,.15-1.87h.17c-.13,1.36,.78,2.16,2.11,2.13,1.24-.04,2-.68,2-1.66,0-.47-.16-.85-.55-1.19l-3.01-2.32c-.56-.48-.71-1.1-.72-1.63-.02-1.22,1.09-2.2,2.49-2.2,.69,0,1.15,.06,1.49,.14h.5l.02,1.64h-.17c0-.83-.56-1.33-1.74-1.33-1,0-1.81,.64-1.81,1.44,0,.39,.12,.81,.59,1.18l3.05,2.34Z"/><path class="e" d="M251.63,323.45c.46,.39,.68,1.03,.68,1.62,.01,1.34-1.18,2.42-2.66,2.42-.89,0-2.05-.22-2.6-.71-.09-.4-.06-1.29,.15-1.87h.17c-.13,1.36,.78,2.16,2.11,2.13,1.24-.04,2-.68,2-1.66,0-.47-.16-.85-.55-1.19l-3.01-2.32c-.56-.48-.71-1.1-.72-1.63-.02-1.22,1.09-2.2,2.49-2.2,.69,0,1.15,.06,1.49,.14h.5l.02,1.64h-.17c0-.83-.56-1.33-1.74-1.33-1,0-1.81,.64-1.81,1.44,0,.39,.12,.81,.59,1.18l3.05,2.34Z"/><path class="e" d="M256.91,327.28h-2.96v-.15h.17c.45,0,.82-.36,.83-.81v-7.1c0-.45-.38-.82-.83-.82h-.16v-.15h2.96v.15h-.17c-.45,0-.81,.35-.83,.79v7.13c.01,.45,.38,.8,.83,.8h.16v.15Zm-1.58-10.1c.64-.69,1.27-1.36,1.91-1.97,.23,.23,.46,.5,.62,.79-.81,.47-1.61,.89-2.42,1.28l-.11-.11Z"/><path class="e" d="M267.78,318.25v.15h-.12c-.4,0-.87,.26-1.18,.88l-3.11,6.66s-.55,1.16-.58,1.55h-.14l-3.71-8.21c-.31-.62-.76-.88-1.16-.88h-.11v-.15h3.09v.15h-.12c-.35,0-.72,.33-.53,.92l2.69,6.56,2.76-6.53c.23-.6-.17-.94-.52-.94h-.12v-.15h2.87Z"/><path class="e" d="M274.65,327.28h-6.11v-.15h.21c.49,0,.85-.35,.87-.8v-7.14c0-.45-.38-.79-.87-.79h-.21v-.15h4.39c.61,0,1.42-.13,1.68-.24v1.7h-.16v-.23c0-.42-.3-.76-.75-.77h-3.12v3.83h2.57c.42,0,.61-.29,.61-.64v-.19h.16v2.11h-.16v-.19c0-.34-.18-.61-.57-.64h-2.61v3.83h2.35c1.45-.02,1.96-.72,2.39-1.7h.16l-.83,2.16Z"/><path class="e" d="M276.6,327.28v-.15h.2c.56,0,1.01-.36,1.02-.81v-7.1c-.01-.45-.46-.82-1.02-.82h-.2v-.15h3.41v.15h-.2c-.55,0-.99,.35-1.02,.79v7.14c.02,.45,.47,.8,1.02,.8h.2v.15h-3.41Z"/><path class="e" d="M286.28,323.45c.46,.39,.68,1.03,.68,1.62,.01,1.34-1.18,2.42-2.66,2.42-.89,0-2.05-.22-2.6-.71-.09-.4-.06-1.29,.15-1.87h.17c-.13,1.36,.78,2.16,2.11,2.13,1.24-.04,2-.68,2-1.66,0-.47-.16-.85-.55-1.19l-3.01-2.32c-.56-.48-.71-1.1-.72-1.63-.02-1.22,1.09-2.2,2.49-2.2,.69,0,1.15,.06,1.49,.14h.5l.02,1.64h-.17c0-.83-.56-1.33-1.74-1.33-1,0-1.81,.64-1.81,1.44,0,.39,.12,.81,.59,1.18l3.05,2.34Z"/></g><path class="f" d="M310.22,78.32l-28.41-11.37L165.28,20.34,20.34,78.32l-10.12-9.75L162.9,7.46c1.53-.61,3.24-.61,4.77,0l135.05,54.02,7.51,16.84Z"/><text/></g></g><g id="c"/><g id="d"/></svg>