<?xml version="1.0" encoding="UTF-8"?><svg xmlns="http://www.w3.org/2000/svg" viewBox="0 0 80 80"><defs><style>.g{fill:#fff;}.h{fill:#215a36;}</style></defs><g id="a"><g id="b"><g><path class="g" d="M19.7,42.03c2.42,.27,4.39,1.15,5.93,2.64,1.64,1.59,2.45,3.53,2.45,5.84v.06c0,2.36-.81,4.33-2.42,5.93-1.62,1.61-3.6,2.42-5.93,2.42s-4.33-.81-5.93-2.42c-1.64-1.66-2.45-3.61-2.45-5.86v-.24l2.98-1.3v1.6c0,1.49,.53,2.75,1.6,3.79,1.07,1.05,2.34,1.58,3.81,1.58s2.78-.53,3.83-1.58c1.05-1.07,1.58-2.34,1.58-3.81,0-1.55-.51-2.81-1.52-3.78-1.17-1.1-2.44-1.7-3.81-1.8-2.36-.19-4.2-.95-5.54-2.29-1.39-1.38-2.08-3.04-2.08-4.98s.68-3.61,2.05-4.97c1.36-1.36,3.01-2.05,4.95-2.05s3.61,.68,4.97,2.05c1.38,1.39,2.06,3.04,2.06,4.95v.19l-2.98,1.34v-1.47c-.02-1.15-.42-2.11-1.19-2.86-.81-.79-1.76-1.19-2.86-1.19s-2.04,.38-2.81,1.15c-.79,.81-1.19,1.76-1.19,2.86s.4,2.05,1.19,2.85c.74,.74,1.85,1.2,3.33,1.36Z"/><path class="g" d="M32.72,50.64v-18.52l2.98-1.3v19.88c.01,1.49,.55,2.75,1.6,3.79,1.07,1.05,2.34,1.58,3.81,1.58s2.76-.53,3.83-1.58c1.05-1.04,1.58-2.29,1.58-3.74v-18.63l2.98-1.3v19.83c0,2.28-.82,4.23-2.45,5.85-1.64,1.62-3.61,2.43-5.93,2.43s-4.3-.81-5.93-2.43c-1.64-1.62-2.45-3.57-2.45-5.85Z"/><path class="g" d="M54.11,58.92v-19.83c0-2.28,.82-4.23,2.45-5.85,1.64-1.62,3.61-2.43,5.93-2.43s4.3,.81,5.93,2.43c1.64,1.62,2.45,3.57,2.45,5.85v18.52l-2.98,1.3v-12.55h-10.82v11.25l-2.98,1.3Zm2.98-15.53h10.82v-4.35c-.01-1.49-.55-2.75-1.6-3.79-1.07-1.05-2.34-1.58-3.81-1.58s-2.76,.53-3.83,1.58c-1.05,1.04-1.58,2.29-1.58,3.74v4.41Z"/></g><polygon class="g" points="72.79 69.71 8.64 69.71 9.43 67.94 73.58 67.94 72.79 69.71"/><path class="g" d="M76.21,27.6l-6.9-2.76-28.28-11.31L5.86,27.6l-2.46-2.37L40.46,10.4c.37-.15,.79-.15,1.16,0l32.78,13.11,1.82,4.09Z"/></g><g id="c"><g><path class="h" d="M19.7,42.03c2.42,.27,4.39,1.15,5.93,2.64,1.64,1.59,2.45,3.53,2.45,5.84v.06c0,2.36-.81,4.33-2.42,5.93-1.62,1.61-3.6,2.42-5.93,2.42s-4.33-.81-5.93-2.42c-1.64-1.66-2.45-3.61-2.45-5.86v-.24l2.98-1.3v1.6c0,1.49,.53,2.75,1.6,3.79,1.07,1.05,2.34,1.58,3.81,1.58s2.78-.53,3.83-1.58c1.05-1.07,1.58-2.34,1.58-3.81,0-1.55-.51-2.81-1.52-3.78-1.17-1.1-2.44-1.7-3.81-1.8-2.36-.19-4.2-.95-5.54-2.29-1.39-1.38-2.08-3.04-2.08-4.98s.68-3.61,2.05-4.97c1.36-1.36,3.01-2.05,4.95-2.05s3.61,.68,4.97,2.05c1.38,1.39,2.06,3.04,2.06,4.95v.19l-2.98,1.34v-1.47c-.02-1.15-.42-2.11-1.19-2.86-.81-.79-1.76-1.19-2.86-1.19s-2.04,.38-2.81,1.15c-.79,.81-1.19,1.76-1.19,2.86s.4,2.05,1.19,2.85c.74,.74,1.85,1.2,3.33,1.36Z"/><path class="h" d="M32.72,50.64v-18.52l2.98-1.3v19.88c.01,1.49,.55,2.75,1.6,3.79,1.07,1.05,2.34,1.58,3.81,1.58s2.76-.53,3.83-1.58c1.05-1.04,1.58-2.29,1.58-3.74v-18.63l2.98-1.3v19.83c0,2.28-.82,4.23-2.45,5.85-1.64,1.62-3.61,2.43-5.93,2.43s-4.3-.81-5.93-2.43c-1.64-1.62-2.45-3.57-2.45-5.85Z"/><path class="h" d="M54.11,58.92v-19.83c0-2.28,.82-4.23,2.45-5.85,1.64-1.62,3.61-2.43,5.93-2.43s4.3,.81,5.93,2.43c1.64,1.62,2.45,3.57,2.45,5.85v18.52l-2.98,1.3v-12.55h-10.82v11.25l-2.98,1.3Zm2.98-15.53h10.82v-4.35c-.01-1.49-.55-2.75-1.6-3.79-1.07-1.05-2.34-1.58-3.81-1.58s-2.76,.53-3.83,1.58c-1.05,1.04-1.58,2.29-1.58,3.74v4.41Z"/></g><polygon class="h" points="72.79 69.71 8.64 69.71 9.43 67.94 73.58 67.94 72.79 69.71"/><path class="h" d="M76.21,27.6l-6.9-2.76-28.28-11.31L5.86,27.6l-2.46-2.37L40.46,10.4c.37-.15,.79-.15,1.16,0l32.78,13.11,1.82,4.09Z"/></g></g><g id="d"/><g id="e"/><g id="f"/></svg>