<?xml version="1.0" encoding="UTF-8"?><svg xmlns="http://www.w3.org/2000/svg" xmlns:xlink="http://www.w3.org/1999/xlink" viewBox="0 0 340 520"><defs><style>.h{fill:#965450;}.i{stroke:#fdedee;stroke-width:3.06px;}.i,.j,.k,.l{fill:none;}.i,.j,.l{stroke-miterlimit:10;}.m{fill:#fff;}.j,.l{stroke:#f99787;}.n{fill:#85b7e0;}.o{opacity:.9;}.p,.q{fill:#2a242d;}.r{fill:#fc6a5a;}.s{fill:#fddec0;}.q{opacity:.3;}.t{fill:#f99787;}.u{fill:#cc887f;}.v{fill:#6f96bd;}.w{fill:#76413b;}.x{clip-path:url(#f);}.y{fill:#ffac9d;}.a`{fill:#352c38;}.aa{fill:#e2c6af;}.ab{fill:#727d83;}.ac{fill:#215a36;}.l{stroke-width:3px;}.ad{fill:#bc7068;}.ae{clip-path:url(#g);}</style><clipPath id="f"><path class="k" d="M270,177.81c-2.11-1.13-3.19-3.94-3.71-6.96-2.94,.66-6.13,1.02-9.46,1.02s-6.39-.35-9.28-.98c-.53,3.01-1.6,5.79-3.7,6.92-5.48,2.94-37.88,4.41-34.39,37.26h94.93c3.49-32.84-28.91-34.32-34.39-37.26Z"/></clipPath><clipPath id="g"><path class="k" d="M223.46,191.82c-4.44-11.93-30.07-17.83-36.26-21.45-.42,.24-.85,.47-1.29,.69l-13.59,15.32-18.79-14.51c-9.3,3.71-30.64,9.53-34.52,19.94-4.59,12.34-5.55,23.24-5.55,23.24h117.07s-2.49-10.9-7.08-23.24Z"/></clipPath></defs><g id="a"/><g id="b"/><g id="c"/><g id="d"><g id="e"><path class="ab" d="M43.79,498.86c.65,.6,.82,1.33,.82,1.99,0,1.81-1.18,3.06-3.06,3.06-.8,0-2.12-.23-2.77-.89-.12-.5-.06-1.55,.19-2.28h.14c-.16,1.68,.9,2.76,2.36,2.68,1.19-.07,2.19-.88,2.19-2.19,0-.64-.23-1.14-.64-1.52l-3.13-2.91c-.66-.6-.89-1.39-.89-2.02,0-1.38,1.01-2.76,2.87-2.76,.43,0,.97,.07,1.4,.17h.65v2.01h-.16c0-1.05-.82-1.68-1.84-1.68-1.2,0-2.01,.88-2.01,1.88,0,.43,.14,1.03,.66,1.51l3.21,2.97Z"/><path class="ab" d="M53.08,503.68h-6.64v-.16h.23c.53,0,.92-.39,.94-.87v-7.76c0-.49-.41-.86-.94-.86h-.22v-.16h4.77c.66,0,1.54-.15,1.83-.26v1.85h-.18v-.25c0-.46-.32-.83-.82-.84h-3.39v4.16h2.79c.45,0,.66-.32,.66-.69v-.21h.18v2.29h-.18v-.21c0-.37-.2-.67-.62-.69h-2.83v4.16h2.56c1.57-.02,2.13-.79,2.59-1.84h.18l-.9,2.35Z"/><path class="ab" d="M59.3,493.88c2.06,0,3.32,1,3.32,2.65,0,1.39-1.07,2.54-2.54,2.69,.36,.16,.91,.78,1.26,1.28,0,0,.75,1.02,1.43,1.78,.67,.75,1.12,1.23,2.03,1.24v.16h-.51c-1.81,0-2.52-.82-3.03-1.44-.18-.22-1.47-2.08-1.6-2.24-.44-.55-1.01-1.1-1.66-1.1v-.15s.4,0,.94,0c.9-.02,1.93-.03,2.4-1.41,.08-.23,.12-.57,.11-.93-.03-1.22-.86-1.94-2.17-2.01-.92-.05-1.72,0-1.88-.01v8.25c0,.49,.4,.89,.93,.89h.22v.16h-3.34v-.16h.22c.52,0,.91-.38,.93-.86v-7.76c-.02-.48-.41-.85-.93-.85h-.22v-.16h4.09Z"/><path class="ab" d="M74.81,493.88v.16h-.13c-.44,0-.95,.28-1.29,.95l-3.38,7.23s-.6,1.26-.63,1.68h-.15l-4.03-8.91c-.33-.67-.83-.96-1.26-.96h-.12v-.16h3.36v.16h-.13c-.38,0-.78,.36-.57,.99l2.92,7.12,3-7.09c.25-.65-.18-1.03-.56-1.03h-.13v-.16h3.11Z"/><path class="ab" d="M75.63,503.68v-.16h.22c.61,0,1.1-.39,1.11-.88v-7.71c-.01-.49-.5-.89-1.11-.89h-.22v-.16h3.7v.16h-.22c-.59,0-1.08,.38-1.11,.86v7.75c.02,.48,.51,.87,1.11,.87h.22v.16h-3.7Z"/><path class="ab" d="M90.85,499.57l-.17,2.24c-.81,1.24-2.41,2.03-4.23,2.1l-.66,.77c.57-.2,1.68-.18,1.71,.95,.03,1.03-1.21,1.54-2.3,1.19v-.16c.68,0,1.51-.26,1.48-1.05-.02-.69-.79-.78-1.37-.54l-.08-.16,.76-1c-3.21-.08-5.21-2.02-5.21-5.13s2.08-5.13,5.39-5.13c1.36,0,2.82,.38,3.83,.99l.36,2.31h-.14c-.5-2-2.03-2.81-4.05-2.81-2.59,0-4.2,1.76-4.2,4.64s1.62,4.6,4.22,4.62c2.44,.02,4.35-1.16,4.52-3.84h.14Z"/><path class="ab" d="M103.67,498.78c0,3.04-2.47,5.13-5.51,5.13s-5.51-2.09-5.51-5.13,2.47-5.13,5.51-5.13,5.51,2.09,5.51,5.13Zm-1.21,0c0-2.76-1.9-4.64-4.3-4.64s-4.3,1.88-4.3,4.64,1.9,4.64,4.3,4.64,4.3-1.88,4.3-4.64Z"/><path class="ab" d="M110.4,499.52c.5,.42,.73,1.12,.74,1.76,.01,1.46-1.28,2.63-2.89,2.63-.97,0-2.22-.24-2.82-.77-.1-.44-.06-1.4,.16-2.03h.19c-.14,1.47,.85,2.35,2.29,2.31,1.35-.04,2.18-.74,2.18-1.8,0-.51-.17-.92-.6-1.29l-3.27-2.52c-.61-.52-.77-1.2-.78-1.77-.02-1.33,1.19-2.39,2.7-2.39,.75,0,1.25,.07,1.62,.15h.55l.02,1.78h-.19c0-.91-.61-1.44-1.89-1.44-1.09,0-1.97,.69-1.96,1.56,0,.42,.13,.88,.64,1.29l3.31,2.55Z"/><path class="ab" d="M128.12,492.24v.16h-.27c-.46,0-.83,.32-.86,.77v6.46c0,2.56-1.76,4.27-4.4,4.27s-4.53-1.7-4.53-4.24v-6.45c0-.47-.39-.81-.86-.81h-.27v-.16h3.32v.16h-.27c-.46,0-.84,.33-.86,.78v6.24c0,2.38,1.39,3.97,3.47,3.97s3.64-1.5,3.64-3.76v-6.45c-.02-.46-.4-.79-.86-.79h-.27v-.16h3.02Z"/><path class="ab" d="M140.85,493.88v.16h-.27c-.48,0-.88,.36-.91,.82v6.97c0,1.05,.16,2.08,.16,2.08h-.16l-8.5-8.06v6.82c0,.47,.41,.85,.91,.85h.27v.16h-3.09v-.16h.27c.5,0,.9-.38,.91-.85v-6.99c0-1.12-.16-2.04-.16-2.04h.18l8.48,8v-6.78c-.03-.46-.42-.82-.91-.82h-.27v-.16h3.08Z"/><path class="ab" d="M142.32,503.68v-.16h.22c.61,0,1.1-.39,1.11-.88v-7.71c-.01-.49-.5-.89-1.11-.89h-.22v-.16h3.7v.16h-.22c-.59,0-1.08,.38-1.11,.86v7.75c.02,.48,.51,.87,1.11,.87h.22v.16h-3.7Z"/><path class="ab" d="M152.63,493.88c.67,0,1.56-.15,1.85-.26v1.85h-.18v-.25c0-.46-.32-.83-.82-.84h-3.44v4.16h2.83c.46,0,.66-.32,.66-.69v-.21h.18v2.29h-.18v-.21c0-.37-.2-.67-.63-.69h-2.87v3.61c.01,.49,.42,.88,.95,.88h.23v.16h-3.41v-.16h.23c.53,0,.93-.39,.95-.87v-7.76c-.01-.49-.42-.86-.96-.86h-.23v-.16h4.82Z"/><path class="ab" d="M156.36,503.68v-.16h.22c.61,0,1.1-.39,1.11-.88v-7.71c-.01-.49-.5-.89-1.11-.89h-.22v-.16h3.7v.16h-.22c-.59,0-1.08,.38-1.11,.86v7.75c.02,.48,.51,.87,1.11,.87h.22v.16h-3.7Z"/><path class="ab" d="M171.58,499.57l-.17,2.24c-.85,1.31-2.57,2.11-4.5,2.11-3.31-.02-5.39-1.96-5.39-5.13s2.08-5.13,5.39-5.13c1.36,0,2.82,.38,3.83,.99l.36,2.31h-.14c-.5-2-2.03-2.81-4.05-2.81-2.59,0-4.2,1.76-4.2,4.64s1.62,4.6,4.22,4.62c2.44,.02,4.35-1.16,4.52-3.84h.14Z"/><path class="ab" d="M181.76,502.57c.33,.67,.82,.95,1.26,.95h.12v.16h-3.36v-.16h.13c.37,0,.79-.35,.58-.98l-.89-2.17h-4.13l-.9,2.13c-.25,.65,.18,1.03,.56,1.03h.13v.16h-3.11v-.16h.13c.43,0,.95-.28,1.28-.94l3.38-7.24s.6-1.26,.63-1.68h.15l4.04,8.92Zm-2.36-2.69l-1.84-4.47-1.89,4.47h3.73Z"/><path class="ab" d="M189.41,493.88c3.22,0,5.25,1.86,5.25,4.91s-2.03,4.9-5.25,4.9h-5.45v-.16h.22c.52,0,.9-.4,.92-.89v-7.71c-.02-.52-.42-.88-.93-.88h-.2v-.16h5.45Zm-3.25,9.31h3.26c2.51,0,4.06-1.67,4.06-4.4s-1.56-4.42-4.06-4.42h-3.26v8.82Z"/><path class="ab" d="M207.33,498.78c0,3.04-2.47,5.13-5.51,5.13s-5.51-2.09-5.51-5.13,2.47-5.13,5.51-5.13,5.51,2.09,5.51,5.13Zm-1.21,0c0-2.76-1.9-4.64-4.3-4.64s-4.3,1.88-4.3,4.64,1.9,4.64,4.3,4.64,4.3-1.88,4.3-4.64Z"/><path class="ab" d="M214.05,499.52c.5,.42,.73,1.12,.74,1.76,.01,1.46-1.28,2.63-2.89,2.63-.97,0-2.22-.24-2.82-.77-.1-.44-.06-1.4,.16-2.03h.19c-.14,1.47,.85,2.35,2.29,2.31,1.35-.04,2.18-.74,2.18-1.8,0-.51-.17-.92-.6-1.29l-3.27-2.52c-.61-.52-.77-1.2-.78-1.77-.02-1.33,1.19-2.39,2.7-2.39,.75,0,1.25,.07,1.62,.15h.55l.02,1.78h-.19c0-.91-.61-1.44-1.89-1.44-1.09,0-1.97,.69-1.96,1.56,0,.42,.13,.88,.64,1.29l3.31,2.55Z"/><path class="ab" d="M230.01,502.49c.33,.73,.93,1.03,1.44,1.03h.14v.16h-3.68v-.16h.14c.42,0,.86-.37,.62-1.03l-1.05-2.78h-4.4l-1.09,2.79c-.23,.65,.21,1.02,.62,1.02h.14v.16h-3.29v-.16h.15c.5,0,1.1-.3,1.43-1.03l3.71-8.79s.6-1.32,.6-1.68h.15l4.37,10.48Zm-2.57-3.27l-1.97-5.24-2.06,5.24h4.03Z"/><path class="ab" d="M241.87,499.57l-.17,2.24c-.85,1.31-2.57,2.11-4.5,2.11-3.31-.02-5.39-1.96-5.39-5.13s2.08-5.13,5.39-5.13c1.36,0,2.82,.38,3.83,.99l.36,2.31h-.14c-.5-2-2.03-2.81-4.05-2.81-2.59,0-4.2,1.76-4.2,4.64s1.62,4.6,4.22,4.62c2.44,.02,4.35-1.16,4.52-3.84h.14Z"/><path class="ab" d="M250.05,503.68h-6.64v-.16h.23c.53,0,.92-.39,.94-.87v-7.76c0-.49-.41-.86-.94-.86h-.22v-.16h4.77c.66,0,1.54-.15,1.83-.26v1.85h-.18v-.25c0-.46-.32-.83-.82-.84h-3.39v4.16h2.79c.45,0,.66-.32,.66-.69v-.21h.18v2.29h-.18v-.21c0-.37-.2-.67-.62-.69h-2.83v4.16h2.56c1.57-.02,2.13-.79,2.59-1.84h.18l-.9,2.35Z"/><path class="ab" d="M257.36,499.52c.5,.42,.73,1.12,.74,1.76,.01,1.46-1.28,2.63-2.89,2.63-.97,0-2.22-.24-2.82-.77-.1-.44-.06-1.4,.16-2.03h.19c-.14,1.47,.85,2.35,2.29,2.31,1.35-.04,2.18-.74,2.18-1.8,0-.51-.17-.92-.6-1.29l-3.27-2.52c-.61-.52-.77-1.2-.78-1.77-.02-1.33,1.19-2.39,2.7-2.39,.75,0,1.25,.07,1.62,.15h.55l.02,1.78h-.19c0-.91-.61-1.44-1.89-1.44-1.09,0-1.97,.69-1.96,1.56,0,.42,.13,.88,.64,1.29l3.31,2.55Z"/><path class="ab" d="M264.91,499.52c.5,.42,.73,1.12,.74,1.76,.01,1.46-1.28,2.63-2.89,2.63-.97,0-2.22-.24-2.82-.77-.1-.44-.06-1.4,.16-2.03h.19c-.14,1.47,.85,2.35,2.29,2.31,1.35-.04,2.18-.74,2.18-1.8,0-.51-.17-.92-.6-1.29l-3.27-2.52c-.61-.52-.77-1.2-.78-1.77-.02-1.33,1.19-2.39,2.7-2.39,.75,0,1.25,.07,1.62,.15h.55l.02,1.78h-.19c0-.91-.61-1.44-1.89-1.44-1.09,0-1.97,.69-1.96,1.56,0,.42,.13,.88,.64,1.29l3.31,2.55Z"/><path class="ab" d="M270.65,503.68h-3.21v-.16h.18c.49,0,.89-.39,.9-.88v-7.71c0-.49-.41-.89-.9-.89h-.18v-.16h3.21v.16h-.18c-.48,0-.88,.38-.9,.86v7.75c.02,.48,.41,.87,.9,.87h.18v.16Zm-1.72-10.96c.69-.75,1.38-1.48,2.08-2.14,.25,.25,.49,.54,.67,.86-.88,.51-1.75,.96-2.63,1.39l-.11-.11Z"/><path class="ab" d="M282.45,493.88v.16h-.13c-.44,0-.95,.28-1.28,.95l-3.38,7.23s-.6,1.26-.63,1.68h-.15l-4.03-8.91c-.33-.67-.83-.96-1.26-.96h-.12v-.16h3.36v.16h-.13c-.38,0-.78,.36-.57,.99l2.92,7.12,3-7.09c.25-.65-.18-1.03-.56-1.03h-.13v-.16h3.11Z"/><path class="ab" d="M289.91,503.68h-6.64v-.16h.23c.53,0,.92-.39,.94-.87v-7.76c0-.49-.41-.86-.94-.86h-.22v-.16h4.77c.66,0,1.54-.15,1.83-.26v1.85h-.18v-.25c0-.46-.32-.83-.82-.84h-3.39v4.16h2.79c.45,0,.66-.32,.66-.69v-.21h.18v2.29h-.18v-.21c0-.37-.2-.67-.62-.69h-2.83v4.16h2.56c1.57-.02,2.13-.79,2.59-1.84h.18l-.9,2.35Z"/><path class="ab" d="M292.03,503.68v-.16h.22c.61,0,1.1-.39,1.11-.88v-7.71c-.01-.49-.5-.89-1.11-.89h-.22v-.16h3.7v.16h-.22c-.59,0-1.08,.38-1.11,.86v7.75c.02,.48,.51,.87,1.11,.87h.22v.16h-3.7Z"/><path class="ab" d="M302.55,499.52c.5,.42,.73,1.12,.74,1.76,.01,1.46-1.28,2.63-2.89,2.63-.97,0-2.22-.24-2.82-.77-.1-.44-.06-1.4,.16-2.03h.19c-.14,1.47,.85,2.35,2.29,2.31,1.35-.04,2.18-.74,2.18-1.8,0-.51-.17-.92-.6-1.29l-3.27-2.52c-.61-.52-.77-1.2-.78-1.77-.02-1.33,1.19-2.39,2.7-2.39,.75,0,1.25,.07,1.62,.15h.55l.02,1.78h-.19c0-.91-.61-1.44-1.89-1.44-1.09,0-1.97,.69-1.96,1.56,0,.42,.13,.88,.64,1.29l3.31,2.55Z"/></g><g><path class="ac" d="M83.28,422.7v.66h-1.08c-1.87,0-3.39,1.3-3.51,3.13v26.21c0,10.39-7.16,17.32-17.9,17.32s-18.42-6.88-18.42-17.2v-26.17c-.04-1.91-1.59-3.28-3.51-3.28h-1.08v-.66h13.49v.66h-1.08c-1.88,0-3.42,1.33-3.5,3.18v25.29c0,9.66,5.64,16.09,14.1,16.09s14.79-6.09,14.8-15.24v-26.14c-.08-1.86-1.62-3.19-3.51-3.19h-1.08v-.66h12.28Z"/><path class="ac" d="M138.61,422.7v.66h-1.24c-2.22,0-4.03,1.76-4.1,3.96v34.24c0,4.27,.61,8.46,.61,8.46h-.6l-36.22-38.55v33c.07,2.2,1.88,3.97,4.1,3.97h1.23v.66h-13.67v-.66h1.24c2.24,0,4.06-1.79,4.1-4.01v-34.43c0-4.52-.61-8.28-.61-8.28h.66l36.16,38.53v-32.86c-.04-2.23-1.86-4.02-4.1-4.02h-1.23v-.66h13.68Z"/><path class="ac" d="M159.44,469.09h-14.53v-.66h.85c2.32,0,4.21-1.86,4.25-4.17v-36.76c-.06-2.3-1.94-4.14-4.25-4.14h-.84v-.66h14.52v.66h-.85c-2.31,0-4.19,1.84-4.25,4.13v36.77c.04,2.31,1.93,4.17,4.25,4.17h.84v.66Z"/><path class="ac" d="M194.7,423.44v5.54h-.66v-.98c0-1.78-1.43-3.23-3.21-3.27h-14.05v20.49h11.22c1.78-.03,3.21-1.48,3.21-3.27v-.98h.65v10.48h-.65v-.98c0-1.76-1.4-3.2-3.14-3.26h-11.29v17.05c.04,2.31,1.93,4.17,4.25,4.17h.84v.66h-14.52v-.66h.85c2.32,0,4.21-1.86,4.25-4.17v-37.11c0-2.13-2.03-3.79-4.23-3.79h-.84v-.66h19.4c2.86-.03,6.69-.69,7.92-1.21v1.94Z"/><path class="ac" d="M230.82,469.09h-27.53v-.66h.85c2.32,0,4.21-1.86,4.25-4.17v-37.11c-.23-2.13-2.03-3.8-4.23-3.8h-.84v-.66h19.4c2.86-.03,6.69-.69,7.92-1.21v8.37h-.67v-1.19c0-2.1-1.64-3.82-3.72-3.94h-13.54v20.49h11.22c1.78-.03,3.21-1.48,3.21-3.26v-.98h.65v10.48h-.65v-.98c0-1.76-1.4-3.19-3.14-3.26h-11.29v19.86h9.52c7.04,0,9.74-3.63,11.79-8.68h.66l-3.87,10.71Z"/><path class="ac" d="M262.04,449.55c2.65,2.45,3.34,5.4,3.34,8.08,0,7.33-4.8,12.39-12.43,12.39-3.25,0-8.63-.93-11.24-3.62-.49-2.05-.24-6.27,.77-9.24h.58c-.67,6.83,3.66,11.2,9.57,10.87,4.85-.27,8.9-3.58,8.9-8.88,0-2.59-.95-4.64-2.61-6.18l-12.72-11.79c-2.69-2.45-3.6-5.65-3.6-8.21,0-5.59,4.1-11.2,11.67-11.2,1.74,0,3.93,.3,5.7,.68h2.63v8.13h-.64c.02-4.24-3.33-6.82-7.47-6.82-4.89,0-8.17,3.58-8.17,7.62,0,1.73,.58,4.18,2.67,6.11l13.05,12.06Z"/><path class="ac" d="M290.48,422.7c8.49,0,13.69,4.86,13.69,12.8,0,10.1-10.99,15.48-19.32,11.1v-.63s10.92,2.35,13.91-7.14c.3-.93,.46-2.53,.42-4-.17-6.09-3.3-10.14-8.95-10.14h-7.66v39.57c.04,2.31,1.93,4.17,4.25,4.17h.84v.66h-14.53v-.66h.85c2.32,0,4.21-1.86,4.26-4.17v-37.08c-.22-2.14-2.03-3.82-4.23-3.82h-.84v-.66h17.29Z"/></g><g><path class="ac" d="M75.15,297.5c10.82,1.22,19.67,5.16,26.55,11.82,7.32,7.1,10.99,15.81,10.99,26.13v.25c0,10.54-3.61,19.39-10.82,26.55-7.27,7.21-16.12,10.82-26.55,10.82s-19.39-3.61-26.55-10.82c-7.32-7.43-10.99-16.17-10.99-26.21v-1.08l13.32-5.83v7.16c0,6.66,2.38,12.32,7.16,16.98,4.77,4.72,10.46,7.07,17.06,7.07s12.43-2.36,17.14-7.07c4.71-4.77,7.07-10.46,7.07-17.06,0-6.94-2.27-12.57-6.82-16.89-5.22-4.94-10.9-7.63-17.06-8.07-10.54-.83-18.81-4.24-24.8-10.24-6.21-6.16-9.32-13.59-9.32-22.3s3.05-16.17,9.15-22.22c6.1-6.1,13.48-9.15,22.14-9.15s16.17,3.05,22.22,9.15c6.16,6.21,9.24,13.59,9.24,22.14v.83l-13.32,5.99v-6.57c-.11-5.16-1.89-9.43-5.33-12.82-3.61-3.55-7.88-5.33-12.82-5.33s-9.13,1.72-12.57,5.16c-3.55,3.61-5.33,7.88-5.33,12.82s1.77,9.18,5.33,12.73c3.33,3.33,8.29,5.35,14.9,6.07Z"/><path class="ac" d="M133.4,336.03v-82.89l13.32-5.83v88.96c.05,6.66,2.44,12.32,7.16,16.98,4.77,4.72,10.46,7.07,17.06,7.07s12.37-2.36,17.14-7.07c4.71-4.66,7.07-10.24,7.07-16.73v-83.39l13.32-5.83v88.71c0,10.21-3.66,18.93-10.99,26.17-7.32,7.24-16.17,10.86-26.55,10.86s-19.22-3.62-26.55-10.86c-7.32-7.24-10.99-15.96-10.99-26.17Z"/><path class="ac" d="M229.11,373.06v-88.71c0-10.21,3.66-18.93,10.99-26.17,7.32-7.24,16.17-10.86,26.55-10.86s19.22,3.62,26.55,10.86c7.32,7.24,10.99,15.97,10.99,26.17v82.89l-13.32,5.83v-56.17h-48.43v50.35l-13.32,5.83Zm13.32-69.49h48.43v-19.47c-.06-6.66-2.44-12.32-7.16-16.98-4.77-4.71-10.46-7.07-17.06-7.07s-12.37,2.36-17.14,7.07c-4.72,4.66-7.07,10.24-7.07,16.73v19.72Z"/></g><path class="ac" d="M328.39,84.38l-30.86-12.34L170.98,21.42,13.56,84.38l-10.99-10.59L168.39,7.42c1.66-.67,3.52-.67,5.18,0l146.67,58.67,8.15,18.29Z"/><polygon class="ac" points="312.72 405.54 25.67 405.54 29.21 397.61 316.28 397.61 312.72 405.54"/><polygon class="ac" points="312.72 223.1 25.67 223.1 29.21 215.17 316.28 215.17 312.72 223.1"/><polygon class="ab" points="265.53 482.13 188.86 482.13 154.51 482.13 150.22 482.13 39.2 482.13 37.78 485.31 148.8 485.31 153.08 485.31 187.44 485.31 264.1 485.31 302.74 485.31 304.17 482.13 265.53 482.13"/><g><g><g><path class="y" d="M136.06,194.34c-4.09-11-29.13-16.26-33.52-19.44-5.63-4.09-3.84-17.65-3.84-17.65l-9.21,.24-9.21-.24s1.79,13.56-3.84,17.65c-4.38,3.19-29.42,8.44-33.52,19.44-4.09,11-5.63,20.72-5.63,20.72h104.38s-1.54-9.72-5.63-20.72Z"/><path class="u" d="M78.58,172.37c4.31-.44,8.65-1.31,12.4-3.41,2.74-1.53,5.2-3.34,7.49-5.37-.14-3.48,.24-6.34,.24-6.34l-9.21,.24-9.21-.24s1.27,9.65-1.71,15.13Z"/></g><g><path class="v" d="M136.79,194.19c-3.19-8.57-18.98-13.67-28.02-17.03-3.93,4.54-10.92,7.56-18.88,7.56s-14.95-3.02-18.88-7.56c-9.05,3.36-24.83,8.47-28.02,17.03-4.12,11.08-5.67,20.88-5.67,20.88h105.15s-1.55-9.79-5.67-20.88Z"/><path class="n" d="M89.85,188.23c10.1,0,18.78-4.02,22.49-9.76-1.27-.46-2.47-.9-3.58-1.31-3.93,4.54-10.92,7.56-18.88,7.56s-14.95-3.02-18.88-7.56c-1.12,.42-2.34,.86-3.63,1.33,3.72,5.73,12.39,9.74,22.48,9.74Z"/></g><g><path class="u" d="M74.03,136.11c-1.49-4.61-5.01-3.55-5.34-3.44-.35,.04-3.99,.58-3.36,5.39,.63,4.84,3.44,7.46,6.07,6.69,2.71-.43,4.12-4,2.63-8.64Z"/><path class="u" d="M103.81,136.11c1.49-4.61,5.01-3.55,5.34-3.44,.35,.04,3.99,.58,3.36,5.39-.63,4.84-3.44,7.46-6.07,6.69-2.71-.43-4.12-4-2.63-8.64Z"/><path class="y" d="M107.57,128.85c-1.84-20.23-17.22-19.1-18.67-18.95-1.45-.15-16.83-1.29-18.67,18.95-1.85,20.35,7.21,33.64,18.67,32.91,11.46,.73,20.53-12.56,18.67-32.91Z"/></g><g><path class="h" d="M69.78,139.7s-4.82-19.97-2.07-25.7c2.75-5.74,5.97-3.9,5.97-3.9,0,0,4.36-11.93,13.54-9.64,9.18,2.29,14.46,6.43,19.28,2.29,0,0,0,3.67-2.75,5.28,0,0,5.74,0,8.03-5.51,0,0,3.43,11.77-4.14,15.9,0,0,.57,14.71,.01,20.13l-2.07-.23s-1.15-7.8-1.84-17.67c0,0-11.93,6.43-26.39-4.82,0,0,2.07,7.57-6.2,12.39l.69,10.56-2.07,.92Z"/><path class="w" d="M99.18,122.09c-3.42-.23-6.83-.99-9.61-2.05-6.21-2.38-11.54-9.45-11.96-16.3-2.64,2.85-3.92,6.35-3.92,6.35,0,0-3.21-1.84-5.97,3.9-2.75,5.74,2.07,25.7,2.07,25.7l2.07-.92-.69-10.56c8.26-4.82,6.2-12.39,6.2-12.39,9.02,7.01,17.05,7.15,21.82,6.26Z"/></g><path class="m" d="M97.17,150.52c-4.24,4.12-11.41,3.89-16.84,.22"/><path class="a`" d="M76.35,130.86c-.55,.13-.88-.59-.43-.93,.34-.26,.71-.49,1.09-.7,.94-.49,1.99-.81,3.07-.91,1.08-.11,2.21,.07,3.22,.49,.42,.16,.82,.39,1.18,.65,.46,.34,.15,1.06-.41,.94-.39-.09-.77-.15-1.16-.18-.9-.1-1.78-.14-2.68-.05-.89,.08-1.79,.22-2.72,.42-.39,.08-.77,.17-1.17,.26Z"/><path class="a`" d="M101.94,130.86c.55,.13,.88-.59,.43-.93-.34-.26-.71-.49-1.09-.7-.94-.49-1.99-.81-3.07-.91-1.08-.11-2.21,.07-3.22,.49-.42,.16-.82,.39-1.18,.65-.46,.34-.15,1.06,.41,.94,.39-.09,.77-.15,1.16-.18,.9-.1,1.78-.14,2.68-.05,.89,.08,1.79,.22,2.72,.42,.39,.08,.77,.17,1.17,.26Z"/><ellipse class="a`" cx="80.96" cy="136.86" rx="1.45" ry="2.15"/><ellipse class="a`" cx="96.76" cy="136.86" rx="1.45" ry="2.15"/><ellipse class="w" cx="89.18" cy="146.15" rx="2.77" ry="1.12"/><path class="m" d="M97.17,150.52c-4.24,4.12-11.41,3.89-16.84,.22"/><path class="a`" d="M76.35,130.86c-.55,.13-.88-.59-.43-.93,.34-.26,.71-.49,1.09-.7,.94-.49,1.99-.81,3.07-.91,1.08-.11,2.21,.07,3.22,.49,.42,.16,.82,.39,1.18,.65,.46,.34,.15,1.06-.41,.94-.39-.09-.77-.15-1.16-.18-.9-.1-1.78-.14-2.68-.05-.89,.08-1.79,.22-2.72,.42-.39,.08-.77,.17-1.17,.26Z"/><path class="a`" d="M101.94,130.86c.55,.13,.88-.59,.43-.93-.34-.26-.71-.49-1.09-.7-.94-.49-1.99-.81-3.07-.91-1.08-.11-2.21,.07-3.22,.49-.42,.16-.82,.39-1.18,.65-.46,.34-.15,1.06,.41,.94,.39-.09,.77-.15,1.16-.18,.9-.1,1.78-.14,2.68-.05,.89,.08,1.79,.22,2.72,.42,.39,.08,.77,.17,1.17,.26Z"/><ellipse class="a`" cx="80.96" cy="136.86" rx="1.45" ry="2.15"/><ellipse class="a`" cx="96.76" cy="136.86" rx="1.45" ry="2.15"/><ellipse class="u" cx="89.18" cy="146.15" rx="2.77" ry="1.12"/></g><g><g><path class="a`" d="M239.35,147.59s-5.09-1.13-5.85,3.21c-.75,4.34,2.26,5.28,2.26,5.28,0,0-4.53-5.09-7.73-1.51-3.21,3.58,2.07,6.6,2.07,6.6,0,0-5.85-3.21-6.98,.75-1.13,3.96,3.58,6.41,3.58,6.41,0,0-5.09-.38-4.9,1.89,.19,2.26,5.09,.38,5.09,.38,0,0-7.17,1.32-6.04,6.98,1.13,5.66,6.79,2.45,6.79,2.45,0,0-4.34,2.26-3.21,9.43,1.13,7.17,33.39-7.36,33.39-7.36l.57-19.43-19.05-15.09Z"/><path class="a`" d="M276.57,147.59s5.09-1.13,5.85,3.21c.75,4.34-2.26,5.28-2.26,5.28,0,0,4.53-5.09,7.73-1.51,3.21,3.58-2.07,6.6-2.07,6.6,0,0,5.85-3.21,6.98,.75,1.13,3.96-3.58,6.41-3.58,6.41,0,0,5.09-.38,4.9,1.89-.19,2.26-5.09,.38-5.09,.38,0,0,7.17,1.32,6.04,6.98-1.13,5.66-6.79,2.45-6.79,2.45,0,0,4.34,2.26,3.21,9.43-1.13,7.17-33.39-7.36-33.39-7.36l-.57-19.43,19.05-15.09Z"/><path class="p" d="M239.35,147.59s-5.09-1.13-5.85,3.21c-.75,4.34,2.26,5.28,2.26,5.28,0,0-4.53-5.09-7.73-1.51-3.21,3.58,2.07,6.6,2.07,6.6,0,0-5.85-3.21-6.98,.75-1.13,3.96,3.58,6.41,3.58,6.41,0,0-5.09-.38-4.9,1.89,.19,2.26,5.09,.38,5.09,.38,0,0-7.17,1.32-6.04,6.98,1.13,5.66,6.79,2.45,6.79,2.45,0,0-4.34,2.26-3.21,9.43,1.13,7.17,33.39-7.36,33.39-7.36l.57-19.43-19.05-15.09Z"/><path class="p" d="M276.57,147.59s5.09-1.13,5.85,3.21c.75,4.34-2.26,5.28-2.26,5.28,0,0,4.53-5.09,7.73-1.51,3.21,3.58-2.07,6.6-2.07,6.6,0,0,5.85-3.21,6.98,.75,1.13,3.96-3.58,6.41-3.58,6.41,0,0,5.09-.38,4.9,1.89-.19,2.26-5.09,.38-5.09,.38,0,0,7.17,1.32,6.04,6.98-1.13,5.66-6.79,2.45-6.79,2.45,0,0,4.34,2.26,3.21,9.43-1.13,7.17-33.39-7.36-33.39-7.36l-.57-19.43,19.05-15.09Z"/></g><g><g><path class="h" d="M269.72,178.34c-5.32-2.9-3.87-16.92-3.87-16.92l-7.96,.51v-.51l-.85,.26-.85-.26v.51l-7.96-.51s1.45,14.02-3.87,16.92c-5.32,2.9-36.73,4.35-33.35,36.73h92.05c3.38-32.38-28.03-33.83-33.35-36.73Z"/><path class="w" d="M247.11,174.72c6.36-.95,12.71-1.93,19.07-2.93-.89-4.83-.32-10.37-.32-10.37l-7.96,.51v-.51l-.85,.26-.85-.26v.51l-7.96-.51s.84,8.14-1.12,13.3Z"/></g><g><path class="r" d="M270,177.81c-2.11-1.13-3.19-3.94-3.71-6.96-2.94,.66-6.13,1.02-9.46,1.02s-6.39-.35-9.28-.98c-.53,3.01-1.6,5.79-3.7,6.92-5.48,2.94-37.88,4.41-34.39,37.26h94.93c3.49-32.84-28.91-34.32-34.39-37.26Z"/><g class="o"><g class="x"><g><line class="i" x1="203.81" y1="175.25" x2="308.05" y2="175.25"/><line class="i" x1="203.81" y1="180.34" x2="308.05" y2="180.34"/><line class="i" x1="203.81" y1="185.42" x2="308.05" y2="185.42"/><line class="i" x1="203.81" y1="190.5" x2="308.05" y2="190.5"/><line class="i" x1="203.81" y1="195.58" x2="308.05" y2="195.58"/><line class="i" x1="203.81" y1="200.67" x2="308.05" y2="200.67"/><line class="i" x1="203.81" y1="205.75" x2="308.05" y2="205.75"/><line class="i" x1="203.81" y1="210.83" x2="308.05" y2="210.83"/></g></g></g><path class="q" d="M212.54,215.06h91.85c1.14-10.78-1.57-18.18-5.94-23.36-28.82,7.06-57.19,15.89-85.91,23.36Z"/></g></g><g><path class="w" d="M241.47,140.9c-1.57-4.86-5.28-3.73-5.62-3.62-.36,.04-4.2,.61-3.54,5.67,.67,5.09,3.62,7.85,6.39,7.04,2.85-.45,4.34-4.21,2.77-9.1Z"/><path class="w" d="M272.75,140.9c1.57-4.86,5.28-3.73,5.62-3.62,.36,.04,4.2,.61,3.54,5.67-.67,5.09-3.62,7.85-6.39,7.04-2.85-.45-4.34-4.21-2.77-9.1Z"/><path class="h" d="M237.67,133.54c1.94-21.3,18.14-20.11,19.66-19.95,1.53-.16,17.72-1.35,19.66,19.95,1.95,21.43-7.59,35.43-19.66,34.66-12.07,.77-21.62-13.23-19.66-34.66Z"/></g><g><path class="a`" d="M257.96,113.59s1,13.06-18.8,18.53c0,0,.57,6.6-1.13,12.83,0,0-6.41-9.24-3.4-20.18,3.02-10.94,18.31-19.7,23.33-11.17Z"/><path class="a`" d="M256.4,113.59s-.37,13.06,19.43,18.53c0,0-.94,8.3,.75,14.52,0,0,6.79-10.94,3.77-21.88-3.02-10.94-18.94-19.7-23.96-11.17Z"/><path class="p" d="M242.15,131.18c-2.89-2.01-5.46-4.61-7.19-7.47-.12,.35-.24,.7-.33,1.06-3.02,10.94,3.4,20.18,3.4,20.18,1.7-6.22,1.13-12.83,1.13-12.83,1.06-.29,2.05-.61,2.99-.94Z"/></g><path class="m" d="M265.13,155.53c-4.25,3.75-11.44,3.54-16.89,.2"/><path class="a`" d="M244.24,137.63c-.56,.12-.88-.53-.43-.85,.34-.24,.71-.45,1.09-.63,.94-.45,1.99-.74,3.08-.82,1.09-.1,2.22,.07,3.23,.44,.42,.15,.82,.35,1.18,.59,.46,.31,.15,.97-.41,.85-.39-.08-.77-.14-1.16-.16-.91-.09-1.79-.12-2.69-.04-.89,.07-1.8,.2-2.72,.38-.39,.07-.78,.15-1.17,.24Z"/><path class="a`" d="M269.92,137.63c.56,.12,.88-.53,.43-.85-.34-.24-.71-.45-1.09-.63-.94-.45-1.99-.74-3.08-.82-1.09-.1-2.22,.07-3.23,.44-.42,.15-.82,.35-1.18,.59-.46,.31-.15,.97,.41,.85,.39-.08,.77-.14,1.16-.16,.91-.09,1.79-.12,2.69-.04,.89,.07,1.8,.2,2.72,.38,.39,.07,.78,.15,1.17,.24Z"/><ellipse class="a`" cx="248.88" cy="143.1" rx="1.45" ry="1.96"/><ellipse class="a`" cx="264.72" cy="143.1" rx="1.45" ry="1.96"/><ellipse class="w" cx="257.12" cy="151.55" rx="2.78" ry="1.02"/></g><g><g><g><path class="s" d="M222.65,191.99c-4.56-12.25-31.67-18.1-36.55-21.65-6.27-4.56-5.04-19.65-5.04-19.65l-10.25,.27-10.25-.27s2.76,15.1-3.51,19.65c-4.88,3.55-33.52,9.4-38.08,21.65-4.56,12.25-6.27,23.07-6.27,23.07h116.22s-1.71-10.82-6.27-23.07Z"/><path class="aa" d="M158.65,167.53c4.8-.49,9.63-1.46,13.81-3.8,3.05-1.7,5.79-3.72,8.34-5.98-.15-3.88,.27-7.06,.27-7.06l-10.25,.27-10.25-.27s1.42,10.74-1.9,16.84Z"/></g><g><g><path class="r" d="M223.46,191.82c-4.44-11.93-30.07-17.83-36.26-21.45-.42,.24-.85,.47-1.29,.69l-13.59,15.32-18.79-14.51c-9.3,3.71-30.64,9.53-34.52,19.94-4.59,12.34-5.55,23.24-5.55,23.24h117.07s-2.49-10.9-7.08-23.24Z"/><g class="ae"><line class="l" x1="114.33" y1="206.19" x2="230.07" y2="206.19"/><line class="j" x1="114.33" y1="209.76" x2="230.07" y2="209.76"/></g></g><g><polygon class="ad" points="167.98 177.95 172.32 186.39 175.39 176.93 177.69 181.53 172.07 187.41 165.68 181.79 167.98 177.95"/><polygon class="t" points="152.39 172.08 163.89 188.69 167.98 177.95 155.2 165.95 152.39 172.08"/><polygon class="t" points="190.21 170.8 179.48 187.66 175.39 176.93 186.63 164.92 190.21 170.8"/></g></g></g><g><path class="aa" d="M155.89,128.69c-1.66-5.14-5.58-3.95-5.95-3.82-.39,.04-4.44,.65-3.74,6,.7,5.38,3.83,8.3,6.76,7.45,3.01-.48,4.59-4.45,2.92-9.62Z"/><path class="aa" d="M188.03,128.18c1.66-5.14,5.58-3.95,5.95-3.82,.38,.04,4.44,.65,3.74,6-.7,5.38-3.83,8.3-6.76,7.45-3.01-.48-4.59-4.45-2.92-9.62Z"/><path class="s" d="M193.23,120.6c-2.05-22.53-19.18-21.26-20.79-21.09-1.61-.17-18.74-1.43-20.79,21.09-2.06,22.66,8.03,37.46,20.79,36.64,12.76,.81,22.86-13.98,20.79-36.64Z"/></g><g><path class="a`" d="M158.17,112.81s6.18,8.12,15.89,9.4l-2.3-3.32s3.83,2.81,10.48,4.09c0,0,1.28-4.6-1.79-9.45,0,0,4.34,9.45,9.45,13.03,0,0,2.04-6.64-.51-10.48,0,0,1.63,1.81,6.48,7.68,0,0,5.44-16.49-7.85-25.43s-27.47-.87-32.07,3.98c0,0-8.18-2.76-10.06,8.18-1.56,9.07,1.88,16.03,1.88,16.03,0,0,2.87-1.9,2.87,3.98l.67,6.01h1.79l.26-12.01s4.55-1.73,4.8-11.7Z"/><path class="a`" d="M190.47,136.18c.64-.02,1.29-.04,1.93-.06,1.76-6.31,.57-17.74,.57-17.74,0,0-5.97-11.87-3.58-2.3,1.98,7.9,1.3,17.65,1.08,20.11Z"/></g><path class="m" d="M180.8,146.35c-4.72,4.58-12.7,4.33-18.75,.24"/><path class="a`" d="M157.61,124.46c-.62,.15-.98-.65-.48-1.04,.38-.29,.79-.55,1.21-.78,1.04-.55,2.21-.9,3.42-1.01,1.21-.13,2.46,.08,3.58,.54,.47,.18,.91,.43,1.31,.72,.51,.38,.17,1.18-.46,1.05-.43-.1-.86-.17-1.29-.2-1.01-.11-1.99-.15-2.98-.05-.99,.09-1.99,.25-3.02,.47-.43,.09-.86,.19-1.3,.29Z"/><path class="a`" d="M186.11,124.46c.62,.15,.98-.65,.48-1.04-.38-.29-.79-.55-1.21-.78-1.04-.55-2.21-.9-3.42-1.01-1.21-.13-2.46,.08-3.58,.54-.47,.18-.91,.43-1.31,.72-.51,.38-.17,1.18,.46,1.05,.43-.1,.86-.17,1.29-.2,1.01-.11,1.99-.15,2.98-.05,.99,.09,1.99,.25,3.02,.47,.43,.09,.86,.19,1.3,.29Z"/><ellipse class="a`" cx="162.76" cy="131.15" rx="1.61" ry="2.4"/><ellipse class="a`" cx="180.34" cy="131.15" rx="1.61" ry="2.4"/><ellipse class="aa" cx="171.9" cy="141.49" rx="3.08" ry="1.25"/></g></g></g></svg>