<svg id="prancheta_3" data-name="prancheta 3" xmlns="http://www.w3.org/2000/svg" viewBox="0 0 300 100"><defs><style>.cls-1,.cls-2{fill:none;stroke-linecap:round;}.cls-1{stroke:#a7cce3;stroke-miterlimit:10;}.cls-2{stroke:#2c5379;stroke-linejoin:round;}</style></defs><rect class="cls-1" x="92.91" y="79.44" width="12.83" height="12.83"/><rect class="cls-1" x="105.76" y="40.89" width="12.83" height="12.83" rx="6.41"/><rect class="cls-1" x="92.91" y="79.44" width="12.83" height="12.83" rx="6.41"/><rect class="cls-1" x="54.28" y="15.23" width="12.83" height="12.83" rx="6.41"/><rect class="cls-1" x="144.19" y="40.95" width="12.83" height="12.83" rx="6.41"/><rect class="cls-1" x="221.62" y="65.46" width="12.83" height="12.83" rx="6.41"/><rect class="cls-1" x="131.41" y="79.38" width="12.83" height="12.83"/><rect class="cls-1" x="182.68" y="79.36" width="12.83" height="12.83"/><rect class="cls-1" x="234.44" y="78.23" width="12.83" height="12.83"/><rect class="cls-2" x="144.19" y="40.95" width="38.49" height="38.49"/><rect class="cls-2" x="54.28" y="40.89" width="0.01" height="38.49" transform="translate(108.56 120.27) rotate(180)"/><rect class="cls-2" x="234.44" y="14.15" width="0.01" height="38.49" transform="translate(468.88 66.78) rotate(180)"/><rect class="cls-2" x="266.54" y="14.15" width="0.01" height="38.49" transform="translate(533.09 66.78) rotate(180)"/><rect class="cls-2" x="266.54" y="14.15" width="0.01" height="38.49" transform="translate(299.94 -233.16) rotate(90)"/><path class="cls-1" d="M27.63,53.72H40.46a0,0,0,0,1,0,0V79.38a0,0,0,0,1,0,0H27.63A12.83,12.83,0,0,1,14.8,66.55v0A12.83,12.83,0,0,1,27.63,53.72Z"/><path class="cls-1" d="M27,15.23H39.87a0,0,0,0,1,0,0V40.89a0,0,0,0,1,0,0H27A12.83,12.83,0,0,1,14.21,28.06v0A12.83,12.83,0,0,1,27,15.23Z"/><path class="cls-1" d="M118.59,7.74h12.83a0,0,0,0,1,0,0V33.39a0,0,0,0,1,0,0H118.59a12.83,12.83,0,0,1-12.83-12.83v0A12.83,12.83,0,0,1,118.59,7.74Z" transform="translate(139.15 -98.02) rotate(90)"/><path class="cls-2" d="M54.28,15.23H73.52A19.24,19.24,0,0,1,92.77,34.47v0A19.24,19.24,0,0,1,73.52,53.72H54.28a0,0,0,0,1,0,0V15.23A0,0,0,0,1,54.28,15.23Z"/><path class="cls-2" d="M215.2,39.8h0A19.24,19.24,0,0,1,234.45,59V78.29a0,0,0,0,1,0,0H196a0,0,0,0,1,0,0V59A19.24,19.24,0,0,1,215.2,39.8Z" transform="translate(156.15 274.25) rotate(-90)"/><polyline class="cls-2" points="131.41 40.95 105.76 40.95 105.76 79.44"/></svg>