<svg id="Pranhceta_4" data-name="Pranhceta 4" xmlns="http://www.w3.org/2000/svg" viewBox="0 0 450 250"><defs><style>.cls-1{fill:#0088b4;}</style></defs><path class="cls-1" d="M227.35,151.22H203.92a1.83,1.83,0,0,1-1.82-1.82V127.73a25.28,25.28,0,0,1-23.36-23.36H157.07a25.25,25.25,0,0,1-1.79-50.44,48.67,48.67,0,0,1,73.85-39.88,36.55,36.55,0,0,1,21.65-7,37,37,0,0,1,34.36,23.43h.78a37,37,0,0,1,0,73.93h-34L229,150.21A1.82,1.82,0,0,1,227.35,151.22Zm-21.6-3.65h20.47l22.92-45.84a1.83,1.83,0,0,1,1.64-1h35.14a33.32,33.32,0,0,0,0-66.63h-2.05a1.83,1.83,0,0,1-1.72-1.22,33.36,33.36,0,0,0-31.37-22.21,33,33,0,0,0-20.44,7.05,1.82,1.82,0,0,1-2.1.09A45,45,0,0,0,158.9,55.69a1.83,1.83,0,0,1-1.83,1.83,21.6,21.6,0,1,0,0,43.2H180.5a1.81,1.81,0,0,1,1.82,1.82,21.62,21.62,0,0,0,21.6,21.6,1.83,1.83,0,0,1,1.83,1.83Z"/><path class="cls-1" d="M227.35,126.88H203.92a24.34,24.34,0,0,1,0-48.68h23.43a.91.91,0,0,1,.91.92V126A.91.91,0,0,1,227.35,126.88ZM203.92,80a22.52,22.52,0,0,0,0,45h22.52V80Z"/><path class="cls-1" d="M250.78,103.46H157.07a.92.92,0,0,1-.91-.92V55.69a47.77,47.77,0,1,1,95.53,0v46.85A.92.92,0,0,1,250.78,103.46ZM158,101.63h91.88V55.69a45.94,45.94,0,0,0-91.88,0Z"/><path class="cls-1" d="M227.35,150.31H203.92a.91.91,0,0,1-.91-.91V102.54a.91.91,0,0,1,.91-.91h46.86a.9.9,0,0,1,.77.43.91.91,0,0,1,0,.89L228.17,149.8A.92.92,0,0,1,227.35,150.31Zm-22.51-1.83h21.95l22.51-45H204.84Z"/><path class="cls-1" d="M180.5,103.46H157.07a24.34,24.34,0,0,1,0-48.68H180.5a.91.91,0,0,1,.91.91v46.85A.92.92,0,0,1,180.5,103.46ZM157.07,56.6a22.52,22.52,0,0,0,0,45h22.52v-45Z"/><path class="cls-1" d="M285.92,103.46H250.78a.92.92,0,0,1-.92-.92V32.26a.92.92,0,0,1,.92-.91h35.14a36.06,36.06,0,0,1,0,72.11Zm-34.23-1.83h34.23a34.23,34.23,0,0,0,0-68.45H251.69Z"/><path class="cls-1" d="M285.92,80H215.64a.92.92,0,0,1-.92-.91V44a36.06,36.06,0,1,1,72.11,0V79.12A.91.91,0,0,1,285.92,80ZM216.55,78.2H285V44a34.23,34.23,0,1,0-68.45,0Z"/><path class="cls-1" d="M238.49,246.09H192.12a17.45,17.45,0,0,1-17.43-17.43V182.29a17.45,17.45,0,0,1,17.43-17.43h46.37a17.45,17.45,0,0,1,17.43,17.43v46.37A17.45,17.45,0,0,1,238.49,246.09Zm-46.37-70.27a6.48,6.48,0,0,0-6.48,6.47v46.37a6.49,6.49,0,0,0,6.48,6.48h46.37a6.48,6.48,0,0,0,6.47-6.48V182.29a6.47,6.47,0,0,0-6.47-6.47Z"/><path class="cls-1" d="M16,246a5.5,5.5,0,0,1-5.49-5.48V170.23a5.49,5.49,0,0,1,11,0v70.28A5.48,5.48,0,0,1,16,246Z"/><path class="cls-1" d="M345,197.15a5.49,5.49,0,0,1-5.5-5.47V121.4a5.49,5.49,0,0,1,11,0v70.28A5.48,5.48,0,0,1,345,197.15Z"/><path class="cls-1" d="M403.59,197.15a5.49,5.49,0,0,1-5.49-5.47V121.4a5.49,5.49,0,0,1,11,0v70.28A5.47,5.47,0,0,1,403.59,197.15Z"/><path class="cls-1" d="M438.72,162H368.44a5.49,5.49,0,0,1,0-11h70.28a5.49,5.49,0,0,1,0,11Z"/><path class="cls-1" d="M51.13,199.13H16a5.47,5.47,0,0,1-5.48-5.47V134.79A16.91,16.91,0,0,1,27.4,117.9H51.13a40.62,40.62,0,0,1,0,81.23ZM21.46,188.18H51.13a29.67,29.67,0,0,0,0-59.33H27.4a6,6,0,0,0-5.94,5.94Z"/><path class="cls-1" d="M333.79,244h-24a40.62,40.62,0,1,1,0-81.23H345a5.48,5.48,0,0,1,5.48,5.48v59.1A16.68,16.68,0,0,1,333.79,244Zm-24-70.27a29.66,29.66,0,1,0,0,59.32h24a5.71,5.71,0,0,0,5.7-5.7V173.73Z"/><path class="cls-1" d="M110,246.09a5.47,5.47,0,0,1-5.48-5.47V181.88a17,17,0,0,1,17-17h35.31a5.48,5.48,0,0,1,0,11H121.52a6.06,6.06,0,0,0-6.06,6.06v58.74A5.47,5.47,0,0,1,110,246.09Z"/></svg>