<svg xmlns="http://www.w3.org/2000/svg" viewBox="0 0 120 100"><defs><style>.cls-1{fill:none;stroke:#0088b4;stroke-linecap:round;stroke-linejoin:round;}</style></defs><g id="prancheta_1" data-name="prancheta 1"><path class="cls-1" d="M47.17,51.34H60a0,0,0,0,1,0,0V77a0,0,0,0,1,0,0H47.17A12.83,12.83,0,0,1,34.34,64.17v0A12.83,12.83,0,0,1,47.17,51.34Z"/><path class="cls-1" d="M47.17,12.85h0A25.66,25.66,0,0,1,72.83,38.51V64.17a0,0,0,0,1,0,0H21.51a0,0,0,0,1,0,0V38.51A25.66,25.66,0,0,1,47.17,12.85Z"/><polygon class="cls-1" points="60 89.83 47.17 89.83 47.17 64.17 72.83 64.17 60 89.83"/><path class="cls-1" d="M21.51,38.51H34.34a0,0,0,0,1,0,0V64.17a0,0,0,0,1,0,0H21.51A12.83,12.83,0,0,1,8.68,51.34v0A12.83,12.83,0,0,1,21.51,38.51Z"/><path class="cls-1" d="M72.83,25.68H92.07a19.24,19.24,0,0,1,19.24,19.24v0A19.24,19.24,0,0,1,92.07,64.17H72.83a0,0,0,0,1,0,0V25.68A0,0,0,0,1,72.83,25.68Z"/><path class="cls-1" d="M72.83,12.85h0A19.24,19.24,0,0,1,92.07,32.09V51.34a0,0,0,0,1,0,0H53.59a0,0,0,0,1,0,0V32.09A19.24,19.24,0,0,1,72.83,12.85Z"/></g></svg>