<svg xmlns="http://www.w3.org/2000/svg" viewBox="0 0 100 100"><g fill='#1C9AD1' id="prancheta_1" data-name="prancheta 1"><path d="M86.4,50.89c-.34,1.11-.67,2.22-1,3.32a3.78,3.78,0,0,1-.63,1.23,11.74,11.74,0,0,0-1.79,3.78,15.79,15.79,0,0,1-6.81,8.41l-.49.31s0,0,0,0c.78,1.5,1.65,2.91,2.29,4.42a28.94,28.94,0,0,1,2.13,9.8A2.47,2.47,0,0,1,77.31,85q-1.75,0-3.51,0a2.4,2.4,0,0,1-2.46-1.9c-.79-3.65-3.22-5.65-6.56-6.92A37.82,37.82,0,0,1,59,73.52a7.89,7.89,0,0,1-3.83-6.84c0-.12,0-.24,0-.38A25.31,25.31,0,0,1,52,65.67a2.58,2.58,0,0,0-2.71.58,11.76,11.76,0,0,1-17.6-3.63c-.28-.51-.5-.66-1.11-.51A15.6,15.6,0,0,1,11.63,49.47,15.26,15.26,0,0,1,13.79,38.6,1.82,1.82,0,0,0,14,37.46a7.34,7.34,0,0,1,4.35-8,.82.82,0,0,0,.57-.78A9.36,9.36,0,0,1,28.7,20a10.71,10.71,0,0,1,2.16.36.7.7,0,0,0,.85-.3,13,13,0,0,1,11.29-5,12.1,12.1,0,0,1,6,2c.48.32.74.36,1.21-.07a7.42,7.42,0,0,1,11,1.08,1.74,1.74,0,0,0,1.59.77A15.93,15.93,0,0,1,77.28,28,20.38,20.38,0,0,1,78.59,32c.13.45.28.65.71.75A7.34,7.34,0,0,1,85,38.54a7.17,7.17,0,0,1-.25,3.89c-.07.24-.18.58-.08.76A15.08,15.08,0,0,1,86.4,48ZM30.1,56.33,29,56.15a6.34,6.34,0,0,1-5.06-6,1.34,1.34,0,0,1,1.18-1.43A1.29,1.29,0,0,1,26.44,50a4.38,4.38,0,0,1,0,.51,3.62,3.62,0,0,0,3.6,3.27.64.64,0,0,0,.68-.5,22.43,22.43,0,0,1,1.11-2.45,1.17,1.17,0,0,1,1.64-.47A1.25,1.25,0,0,1,34.05,52a4.92,4.92,0,0,1-.24.45,9.36,9.36,0,0,0,5.28,13.28,8.91,8.91,0,0,0,9.71-2.42A1.85,1.85,0,0,1,51,62.79a13.92,13.92,0,0,0,6.67.86c1.21-.15,2.39-.42,3.59-.62a1.25,1.25,0,0,1,1.52.92,1.29,1.29,0,0,1-.87,1.5,2,2,0,0,1-.35.09l-3.83.79A5.83,5.83,0,0,0,61,71.81a44.47,44.47,0,0,0,4.82,2.06c3.92,1.49,6.77,4,7.86,8.18,0,.18.29.43.44.44,1.14,0,2.28,0,3.55,0-.27-1.78-.46-3.48-.8-5.14a18.59,18.59,0,0,0-3.16-7.55,1.08,1.08,0,0,0-1.45-.5,9,9,0,0,1-2.13.45,1.2,1.2,0,0,1-1.28-1.06,1.31,1.31,0,0,1,.88-1.37c.25-.08.52-.12.78-.18a13,13,0,0,0,7.09-4,36.34,36.34,0,0,0,2.26-2.94l-.19-.15-.32.12a11.62,11.62,0,0,1-12.41-1.72.81.81,0,0,0-.91-.13,6.22,6.22,0,0,1-7.67-3,1.27,1.27,0,1,1,2.22-1.24c.09.15.16.3.26.44a3.73,3.73,0,0,0,6.6-1,3.87,3.87,0,0,0-.21-2.91,1.21,1.21,0,0,1,.65-1.64,1.17,1.17,0,0,1,1.64.64,9.08,9.08,0,0,1,.6,2.23,6.06,6.06,0,0,1-1.44,4.59,9.25,9.25,0,0,0,11.81,0,9.15,9.15,0,0,0,2.42-11.12c-.6.4-1.18.84-1.81,1.2a1.26,1.26,0,0,1-1.9-.36c-.39-.69-.13-1.39.71-1.86a5,5,0,1,0-5.09-8.52c-.81.52-1.55.43-2-.23a1.24,1.24,0,0,1,.57-1.85c.85-.5,1.77-.88,2.69-1.32A13.51,13.51,0,0,0,62.67,21.37c0,.41,0,.82,0,1.23a1.27,1.27,0,0,1-1.25,1.19,1.24,1.24,0,0,1-1.23-1.12c0-.26-.07-.53-.1-.79a4.93,4.93,0,0,0-6.35-4.11,4.87,4.87,0,0,0-3.52,4.53c-.07.95-.6,1.53-1.36,1.49a1.34,1.34,0,0,1-1.19-1.69,7.81,7.81,0,0,1,.4-1.92c.22-.56,0-.79-.41-1a10.4,10.4,0,0,0-11.53.23,9.94,9.94,0,0,0-4.22,5.69c-.32,1.06-.92,1.5-1.69,1.26s-1.08-1-.73-2c.16-.49.35-1,.52-1.44-4.09-1.37-8.44,2.17-8.42,5.9l.57,0a7.29,7.29,0,0,1,5.21,2.89,1.25,1.25,0,0,1-.15,1.83,1.29,1.29,0,0,1-1.82-.25c-.12-.12-.21-.27-.33-.39a4.78,4.78,0,0,0-4.23-1.54,5,5,0,0,0-2.1,9.12c.77.55,1,1.22.53,1.87a1.3,1.3,0,0,1-2,.19c-.65-.49-1.23-1.06-1.84-1.59-2.61,4.53-1.71,10.91,2.05,14.92S27,60.7,30.38,59.46Z"/></g></svg>