<svg xmlns="http://www.w3.org/2000/svg" viewBox="0 0 100 100"><g fill='#1C9AD1' id="prancheta_1" data-name="prancheta 1"><path d="M91.88,57.68A19.26,19.26,0,0,0,77.76,42a1.72,1.72,0,0,1-1.45-1.09A23.3,23.3,0,0,0,52,26.19,23,23,0,0,0,34.82,36.61c-.79,1.16-1.42,2.44-2.13,3.68a13.26,13.26,0,0,0-18.63,11A2.19,2.19,0,0,1,13.23,53a13.18,13.18,0,0,0-3.94,5.37c-.56,1.43-.9,3-1.34,4.44v3.45a2,2,0,0,1,.16.45A15.38,15.38,0,0,0,22.79,79.89c4.66.08,30.86,0,39.37,0,3.72,0,7.44,0,11.16,0a18.16,18.16,0,0,0,3.81-.49A19.31,19.31,0,0,0,91.88,57.68ZM88.73,65A16.54,16.54,0,0,1,73.32,77.13c-3,.05-6.08,0-9.12,0h0c-.22,0-.44,0-.66,0-4.6,0-35.18,0-39.78,0a14.94,14.94,0,0,1-3.4-.36A12.56,12.56,0,0,1,12.56,58,13,13,0,0,1,16,54.29c.41-.32.85-.61.81-1.3A10.4,10.4,0,0,1,31,42.6a35.15,35.15,0,0,1,3.31,1.65l.47-1.32A20.71,20.71,0,0,1,58.36,29.18,19.86,19.86,0,0,1,73.72,41.86a3.88,3.88,0,0,0,3.1,2.75A16.39,16.39,0,0,1,88.73,65Z"/></g></svg>