<svg id="Pranhceta_4" data-name="Pranhceta 4" xmlns="http://www.w3.org/2000/svg" viewBox="0 0 600 200"><defs><style>.cls-1{fill:#0088b4;}</style></defs><path class="cls-1" d="M233,191H192.46a15.28,15.28,0,0,1-15.26-15.26V135.2a15.28,15.28,0,0,1,15.26-15.26H233a15.27,15.27,0,0,1,15.25,15.26v40.57A15.27,15.27,0,0,1,233,191Zm-40.58-61.5a5.68,5.68,0,0,0-5.67,5.67v40.57a5.68,5.68,0,0,0,5.67,5.67H233a5.68,5.68,0,0,0,5.67-5.67V135.2a5.68,5.68,0,0,0-5.67-5.67Z"/><path class="cls-1" d="M38.33,190.94a4.81,4.81,0,0,1-4.81-4.8v-61.5a4.8,4.8,0,0,1,9.6,0v61.5A4.79,4.79,0,0,1,38.33,190.94Z"/><path class="cls-1" d="M326.22,148.2a4.8,4.8,0,0,1-4.81-4.79V81.9a4.81,4.81,0,0,1,9.61,0v61.51A4.79,4.79,0,0,1,326.22,148.2Z"/><path class="cls-1" d="M377.53,148.2a4.8,4.8,0,0,1-4.81-4.79V81.9a4.8,4.8,0,0,1,9.6,0v61.51A4.78,4.78,0,0,1,377.53,148.2Z"/><path class="cls-1" d="M408.27,117.46h-61.5a4.81,4.81,0,0,1,0-9.61h61.5a4.81,4.81,0,0,1,0,9.61Z"/><path class="cls-1" d="M69.07,149.94H38.32a4.79,4.79,0,0,1-4.79-4.8V93.63A14.8,14.8,0,0,1,48.31,78.84H69.07a35.55,35.55,0,1,1,0,71.1Zm-25.95-9.59H69.07a26,26,0,1,0,0-51.92H48.31a5.2,5.2,0,0,0-5.19,5.2Z"/><path class="cls-1" d="M316.44,189.2h-21a35.55,35.55,0,1,1,0-71.09h30.75a4.8,4.8,0,0,1,4.8,4.8v51.71A14.6,14.6,0,0,1,316.44,189.2Zm-21-61.5a26,26,0,0,0,0,51.92h21a5,5,0,0,0,5-5V127.7Z"/><path class="cls-1" d="M120.58,191a4.8,4.8,0,0,1-4.8-4.79V134.83a14.92,14.92,0,0,1,14.9-14.89h30.9a4.8,4.8,0,0,1,0,9.59h-30.9a5.31,5.31,0,0,0-5.31,5.3v51.41A4.79,4.79,0,0,1,120.58,191Z"/><path class="cls-1" d="M482.64,134.4H462.13a1.59,1.59,0,0,1-1.59-1.59v-19A22.15,22.15,0,0,1,440.09,93.4h-19a22.1,22.1,0,0,1-1.57-44.14,42.59,42.59,0,0,1,64.63-34.9A32,32,0,0,1,503.14,8.2a32.4,32.4,0,0,1,30.07,20.5h.68a32.35,32.35,0,1,1,0,64.7H504.12l-20.06,40.12A1.59,1.59,0,0,1,482.64,134.4Zm-18.91-3.19h17.92l20.06-40.12a1.59,1.59,0,0,1,1.43-.88h30.75a29.16,29.16,0,0,0,0-58.31H532.1a1.61,1.61,0,0,1-1.51-1.07A29.19,29.19,0,0,0,503.14,11.4a28.85,28.85,0,0,0-17.88,6.16,1.61,1.61,0,0,1-1.85.08A39.4,39.4,0,0,0,422.73,50.8a1.6,1.6,0,0,1-1.6,1.6,18.91,18.91,0,0,0,0,37.81h20.5a1.59,1.59,0,0,1,1.6,1.59,18.93,18.93,0,0,0,18.9,18.91,1.59,1.59,0,0,1,1.6,1.59Z"/><path class="cls-1" d="M482.64,113.1H462.13a21.3,21.3,0,0,1,0-42.6h20.51a.79.79,0,0,1,.79.8v41A.79.79,0,0,1,482.64,113.1Zm-20.51-41a19.71,19.71,0,0,0,0,39.41h19.71V72.1Z"/><path class="cls-1" d="M503.14,92.6h-82a.8.8,0,0,1-.8-.8v-41a41.8,41.8,0,1,1,83.6,0v41A.79.79,0,0,1,503.14,92.6ZM421.93,91h80.41V50.8a40.21,40.21,0,0,0-80.41,0Z"/><path class="cls-1" d="M482.64,133.6H462.13a.79.79,0,0,1-.79-.79v-41a.79.79,0,0,1,.79-.79h41a.82.82,0,0,1,.68.37.83.83,0,0,1,0,.78l-20.5,41A.8.8,0,0,1,482.64,133.6ZM462.93,132h19.21l19.7-39.41H462.93Z"/><path class="cls-1" d="M441.63,92.6h-20.5a21.3,21.3,0,0,1,0-42.6h20.5a.8.8,0,0,1,.8.8v41A.79.79,0,0,1,441.63,92.6Zm-20.5-41a19.71,19.71,0,0,0,0,39.41h19.7V51.6Z"/><path class="cls-1" d="M533.89,92.6H503.14a.79.79,0,0,1-.8-.8V30.3a.8.8,0,0,1,.8-.8h30.75a31.55,31.55,0,1,1,0,63.1Zm-30-1.59h30a30,30,0,0,0,0-59.91h-30Z"/><path class="cls-1" d="M533.89,72.1H472.38a.79.79,0,0,1-.79-.8V40.55a31.55,31.55,0,0,1,63.1,0V71.3A.8.8,0,0,1,533.89,72.1Zm-60.71-1.6h59.91V40.55a30,30,0,0,0-59.91,0Z"/></svg>