<svg xmlns="http://www.w3.org/2000/svg" viewBox="0 0 100 100"><g fill='#1C9AD1' id="prancheta_1" data-name="prancheta 1"><path d="M43.8,16.49a1.89,1.89,0,0,1,.56,1.58c0,2.39,0,4.78,0,7.17v.82h3a5.24,5.24,0,0,1,5.23,4.54,5.14,5.14,0,0,1-4.24,5.64,9,9,0,0,1-1.56.07H44.35V44.6c0,.94-.34,1.28-1.27,1.28H34c-.92,0-1.26-.34-1.26-1.28,0-1.23,0-2.46,0-3.69a3.07,3.07,0,1,0-6.14,0c0,1.25,0,2.5,0,3.76,0,.8-.36,1.17-1.15,1.18-3.1,0-6.2,0-9.29,0-.4,0-.79-.34-1.18-.52V19.49a4.24,4.24,0,0,1,3-3ZM24.52,43.8c0-.49,0-.9,0-1.31a16.55,16.55,0,0,1,.24-3.24,5,5,0,0,1,5.64-3.59,5.14,5.14,0,0,1,4.37,5.08v3H42.3V35.52c0-.93.34-1.26,1.28-1.26,1.21,0,2.42,0,3.62,0a4.4,4.4,0,0,0,1.52-.32,3,3,0,0,0,1.71-3.25,3.13,3.13,0,0,0-3.09-2.57c-1.26,0-2.51,0-3.76,0-.94,0-1.28-.33-1.28-1.26,0-2,0-4,0-6V18.54H19.14c-1.51,0-2.14.64-2.14,2.18V43.8Z"/><path d="M37.79,57.09c0-1.06,0-2.06,0-3.06A5.13,5.13,0,1,1,48,54v3h7.52V48.77c0-.9.34-1.24,1.22-1.25h3.69a3.08,3.08,0,1,0,.05-6.15c-1.26,0-2.51,0-3.76,0-.84,0-1.2-.37-1.2-1.21V30.93c0-.81.36-1.18,1.15-1.18q12.34,0,24.68,0a3.67,3.67,0,0,1,3.55,3.61c0,3.63,0,7.25,0,10.87V82.45a3.74,3.74,0,0,1-4,4H32.25a3.73,3.73,0,0,1-4-4V58.58c0-1.25.24-1.49,1.52-1.49h8.05Zm19.84,0h8.28c.93,0,1.26.34,1.27,1.28,0,1.21,0,2.42,0,3.62a3.08,3.08,0,1,0,6.15,0c0-1.21,0-2.42,0-3.62,0-1,.33-1.31,1.31-1.31H82.9V34c0-1.61-.62-2.23-2.22-2.23H57.61v7.52H60a8.18,8.18,0,0,1,1.49.07,5.12,5.12,0,0,1-1,10.18H57.61v7C57.61,56.75,57.62,56.89,57.63,57.09Zm-2.1,19.82h-3a5.13,5.13,0,1,1,0-10.25h3V59.14H47.35c-1.06,0-1.36-.31-1.36-1.39s0-2.37,0-3.55a3.08,3.08,0,1,0-6.15,0c0,1.23,0,2.46,0,3.69,0,.93-.34,1.27-1.27,1.27h-8.3v.74q0,11.17,0,22.34c0,1.6.62,2.21,2.24,2.21h23Zm2.08-17.74v8.24c0,1-.33,1.3-1.32,1.3H52.74a3.08,3.08,0,1,0,0,6.15c1.2,0,2.41,0,3.62,0,.93,0,1.27.35,1.27,1.28v8.29h23.1c1.56,0,2.19-.63,2.19-2.2V59.18H75.38v3a5.13,5.13,0,1,1-10.25,0v-3Z"/></g></svg>