<svg id="prancheta_3" data-name="prancheta 3" xmlns="http://www.w3.org/2000/svg" viewBox="0 0 300 100"><defs><style>.cls-1{fill:none;stroke:#0088b4;stroke-linecap:round;stroke-linejoin:round;stroke-width:4px;}</style></defs><rect class="cls-1" x="132.9" y="46.79" width="38.49" height="38.49" rx="6.55"/><rect class="cls-1" x="42.99" y="46.73" width="0.01" height="38.49" transform="translate(85.99 131.95) rotate(180)"/><rect class="cls-1" x="223.15" y="19.99" width="0.01" height="38.49" transform="translate(446.31 78.46) rotate(180)"/><rect class="cls-1" x="255.25" y="19.99" width="0.01" height="38.49" transform="translate(510.52 78.46) rotate(180)"/><rect class="cls-1" x="255.25" y="19.99" width="0.01" height="38.49" transform="translate(294.49 -216.03) rotate(90)"/><path class="cls-1" d="M49.24,21.07h13A19.24,19.24,0,0,1,81.48,40.32v0A19.24,19.24,0,0,1,62.24,59.56H43a0,0,0,0,1,0,0V27.32A6.25,6.25,0,0,1,49.24,21.07Z"/><path class="cls-1" d="M203.91,45.65h0a19.24,19.24,0,0,1,19.24,19.24V84.13a0,0,0,0,1,0,0H190.79A6.12,6.12,0,0,1,184.67,78V64.89A19.24,19.24,0,0,1,203.91,45.65Z" transform="translate(139.02 268.8) rotate(-90)"/><path class="cls-1" d="M120.13,46.79H100.79a6.32,6.32,0,0,0-6.32,6.32V85.28"/></svg>