<svg id="Pranhceta_4" data-name="Pranhceta 4" xmlns="http://www.w3.org/2000/svg" viewBox="0 0 600 150"><defs><style>.cls-1{fill:#0088b4;}</style></defs><path class="cls-1" d="M407.86,134.1H366.73a15.48,15.48,0,0,1-15.47-15.46V77.5A15.49,15.49,0,0,1,366.73,62h41.13A15.49,15.49,0,0,1,423.33,77.5v41.14A15.48,15.48,0,0,1,407.86,134.1ZM366.73,71.75A5.76,5.76,0,0,0,361,77.5v41.14a5.75,5.75,0,0,0,5.75,5.74h41.13a5.75,5.75,0,0,0,5.75-5.74V77.5a5.76,5.76,0,0,0-5.75-5.75Z"/><path class="cls-1" d="M210.46,134a4.87,4.87,0,0,1-4.87-4.86V66.8a4.87,4.87,0,0,1,9.73,0v62.35A4.86,4.86,0,0,1,210.46,134Z"/><path class="cls-1" d="M502.33,90.68a4.87,4.87,0,0,1-4.87-4.86V23.47a4.87,4.87,0,0,1,9.73,0V85.82A4.85,4.85,0,0,1,502.33,90.68Z"/><path class="cls-1" d="M554.35,90.68a4.87,4.87,0,0,1-4.88-4.86V23.47a4.87,4.87,0,0,1,9.74,0V85.82A4.86,4.86,0,0,1,554.35,90.68Z"/><path class="cls-1" d="M585.52,59.52H523.16a4.87,4.87,0,0,1,0-9.74h62.36a4.87,4.87,0,0,1,0,9.74Z"/><path class="cls-1" d="M241.63,92.44H210.46a4.86,4.86,0,0,1-4.87-4.86V35.36a15,15,0,0,1,15-15h21a36,36,0,1,1,0,72.07Zm-26.31-9.72h26.31a26.32,26.32,0,1,0,0-52.63h-21a5.27,5.27,0,0,0-5.26,5.27Z"/><path class="cls-1" d="M492.42,132.25H471.16a36,36,0,1,1,0-72.07h31.17A4.86,4.86,0,0,1,507.19,65v52.43A14.79,14.79,0,0,1,492.42,132.25ZM471.16,69.9a26.32,26.32,0,1,0,0,52.63h21.26a5.06,5.06,0,0,0,5.05-5.06V69.9Z"/><path class="cls-1" d="M293.85,134.1a4.85,4.85,0,0,1-4.86-4.86V77.13A15.12,15.12,0,0,1,304.09,62h31.33a4.86,4.86,0,0,1,0,9.72H304.09a5.39,5.39,0,0,0-5.38,5.38v52.11A4.86,4.86,0,0,1,293.85,134.1Z"/><path class="cls-1" d="M96.46,140.33H75.68a1.61,1.61,0,0,1-1.62-1.62V119.49A22.43,22.43,0,0,1,53.33,98.76H34.11A22.4,22.4,0,0,1,32.51,54,43.18,43.18,0,0,1,98,18.63a32.41,32.41,0,0,1,19.2-6.25,32.83,32.83,0,0,1,30.49,20.79h.69a32.8,32.8,0,1,1,0,65.59H118.25L97.91,139.44A1.64,1.64,0,0,1,96.46,140.33ZM77.3,137.09H95.46l20.33-40.67a1.63,1.63,0,0,1,1.45-.9h31.18a29.56,29.56,0,1,0,0-59.11h-1.81a1.62,1.62,0,0,1-1.53-1.08,29.59,29.59,0,0,0-27.84-19.71,29.28,29.28,0,0,0-18.12,6.25,1.64,1.64,0,0,1-1.88.09A39.92,39.92,0,0,0,35.73,55.57a1.62,1.62,0,0,1-1.62,1.62,19.17,19.17,0,1,0,0,38.33H54.89a1.62,1.62,0,0,1,1.62,1.62,19.19,19.19,0,0,0,19.17,19.17,1.62,1.62,0,0,1,1.62,1.62Z"/><path class="cls-1" d="M96.46,118.74H75.68a21.6,21.6,0,1,1,0-43.19H96.46a.81.81,0,0,1,.81.81v41.57A.81.81,0,0,1,96.46,118.74ZM75.68,77.17a20,20,0,1,0,0,40h20V77.17Z"/><path class="cls-1" d="M117.24,98H34.11a.81.81,0,0,1-.81-.81V55.57a42.38,42.38,0,1,1,84.75,0V97.14A.81.81,0,0,1,117.24,98ZM34.92,96.33h81.51V55.57a40.76,40.76,0,1,0-81.51,0Z"/><path class="cls-1" d="M96.46,139.52H75.68a.81.81,0,0,1-.81-.81V97.14a.81.81,0,0,1,.81-.81h41.56A.82.82,0,0,1,118,97.5L97.18,139.07A.78.78,0,0,1,96.46,139.52Zm-20-1.62H96l20-39.95H76.49Z"/><path class="cls-1" d="M54.89,98H34.11a21.6,21.6,0,1,1,0-43.19H54.89a.81.81,0,0,1,.81.81V97.14A.81.81,0,0,1,54.89,98ZM34.11,56.38a20,20,0,1,0,0,39.95h20V56.38Z"/><path class="cls-1" d="M148.42,98H117.24a.81.81,0,0,1-.81-.81V34.79a.81.81,0,0,1,.81-.81h31.18a32,32,0,1,1,0,64Zm-30.37-1.62h30.37a30.37,30.37,0,1,0,0-60.73H118.05Z"/><path class="cls-1" d="M148.42,77.17H86.07a.81.81,0,0,1-.81-.81V45.18a32,32,0,1,1,64,0V76.36A.81.81,0,0,1,148.42,77.17ZM86.88,75.55h60.73V45.18a30.37,30.37,0,1,0-60.73,0Z"/></svg>