<svg id="Pranhceta_4" data-name="Pranhceta 4" xmlns="http://www.w3.org/2000/svg" viewBox="0 0 191.06 145.15"><defs><style>.cls-1{fill:#fff;}</style></defs><path class="cls-1" d="M95.53,145.15H72.11a1.82,1.82,0,0,1-1.83-1.82V121.66A25.28,25.28,0,0,1,46.92,98.3H25.25a25.25,25.25,0,0,1-1.79-50.44A48.67,48.67,0,0,1,97.31,8,36.55,36.55,0,0,1,119,.94a37,37,0,0,1,34.36,23.43h.78a37,37,0,0,1,0,73.93h-34L97.17,144.14A1.85,1.85,0,0,1,95.53,145.15Zm-21.6-3.65H94.4l22.92-45.84a1.84,1.84,0,0,1,1.64-1H154.1a33.32,33.32,0,0,0,0-66.63h-2a1.84,1.84,0,0,1-1.73-1.21A33.34,33.34,0,0,0,119,4.6a32.94,32.94,0,0,0-20.43,7,1.84,1.84,0,0,1-2.11.09A45,45,0,0,0,27.08,49.62a1.83,1.83,0,0,1-1.83,1.83,21.6,21.6,0,0,0,0,43.2H48.68a1.83,1.83,0,0,1,1.83,1.83,21.62,21.62,0,0,0,21.6,21.6,1.82,1.82,0,0,1,1.82,1.82Z"/><path class="cls-1" d="M95.53,120.81H72.11a24.34,24.34,0,1,1,0-48.67H95.53a.9.9,0,0,1,.91.91V119.9A.9.9,0,0,1,95.53,120.81ZM72.11,74a22.52,22.52,0,1,0,0,45H94.62V74Z"/><path class="cls-1" d="M119,97.39H25.25a.91.91,0,0,1-.91-.91V49.62a47.77,47.77,0,0,1,95.53,0V96.48A.91.91,0,0,1,119,97.39Zm-92.8-1.83H118V49.62a45.94,45.94,0,1,0-91.88,0Z"/><path class="cls-1" d="M95.53,144.24H72.11a.92.92,0,0,1-.92-.91V96.48a.92.92,0,0,1,.92-.92H119a.94.94,0,0,1,.78.44.89.89,0,0,1,0,.88L96.35,143.74A.93.93,0,0,1,95.53,144.24ZM73,142.41H95l22.51-45H73Z"/><path class="cls-1" d="M48.68,97.39H25.25a24.34,24.34,0,0,1,0-48.68H48.68a.91.91,0,0,1,.91.91V96.48A.91.91,0,0,1,48.68,97.39ZM25.25,50.53a22.52,22.52,0,0,0,0,45H47.77v-45Z"/><path class="cls-1" d="M154.1,97.39H119a.92.92,0,0,1-.92-.91V26.2a.92.92,0,0,1,.92-.92H154.1a36.06,36.06,0,0,1,0,72.11Zm-34.23-1.83H154.1a34.23,34.23,0,0,0,0-68.45H119.87Z"/><path class="cls-1" d="M154.1,74H83.82a.92.92,0,0,1-.92-.91V37.91a36.06,36.06,0,0,1,72.11,0V73.05A.91.91,0,0,1,154.1,74ZM84.73,72.14h68.45V37.91a34.23,34.23,0,1,0-68.45,0Z"/></svg>