<svg width="42" height="42" viewBox="0 0 42 42" xmlns="http://www.w3.org/2000/svg"> <path d="m 0.4436686,26.882133 v -8.585011 l 3.1430664,2.002453 c 1.728686,1.10135 4.2697713,2.721157 5.6468567,3.599571 l 2.5037913,1.597118 -5.5299413,4.962413 C 3.1659744,33.188004 0.6248891,35.431452 0.56058501,35.444116 0.45858439,35.464201 0.4436686,34.371835 0.4436686,26.882133 Z M 35.613568,30.53555 c -3.091589,-2.706633 -5.619412,-4.941987 -5.617385,-4.967455 0.002,-0.02546 2.439406,-1.584611 5.416395,-3.464766 2.976989,-1.880154 5.551843,-3.509367 5.721899,-3.620472 l 0.309192,-0.20201 v 8.587925 c 0,7.016484 -0.01912,8.587926 -0.104516,8.587926 -0.05748,0 -2.633996,-2.214517 -5.725585,-4.921148 z M 8.4062157,30.307883 c 3.1094513,-2.792678 5.9052163,-5.268393 6.2128103,-5.501588 3.312754,-2.511483 8.112573,-2.697085 11.689461,-0.452016 0.575187,0.361022 2.727212,2.208803 9.769949,8.388717 l 3.002929,2.635034 -18.164348,0.0037 -18.1643484,0.0037 z M 33.445093,21.164176 c -0.08839,-0.266863 -0.886008,-2.744277 -1.772488,-5.505365 -0.886481,-2.761089 -1.623085,-5.03021 -1.636896,-5.042494 -0.03371,-0.02998 -25.0535673,6.332085 -25.1188732,6.387249 -0.028186,0.02381 0.174586,0.741691 0.4506034,1.595294 0.2760162,0.853604 0.4752733,1.542638 0.4427907,1.531187 -0.032481,-0.01145 -1.2299708,-0.768412 -2.6610853,-1.682135 L 0.54711717,16.786598 0.80955113,15.812847 C 0.95388919,15.277284 1.1929719,14.410488 1.3408447,13.886633 L 1.6097055,12.934171 2.8484647,12.295902 C 8.3829863,9.4442421 14.089333,7.0025363 17.429568,6.0567504 c 2.676469,-0.757841 3.740916,-0.7846486 6.156679,-0.1550517 3.331839,0.8683441 8.564115,3.0625207 14.614258,6.1285503 0.836817,0.424074 1.585911,0.81338 1.664653,0.865128 0.09252,0.0608 0.368521,0.748742 0.780215,1.944737 0.350375,1.017856 0.636666,1.882698 0.6362,1.921867 -7.46e-4,0.05808 -7.407334,4.790786 -7.613845,4.865112 -0.03406,0.01226 -0.134247,-0.196054 -0.222635,-0.462917 z"/> </svg>