<?xml version="1.0" encoding="UTF-8" standalone="no"?>
<!-- Created with Inkscape (http://www.inkscape.org/) -->

<svg
   version="1.1"
   id="svg22584"
   xml:space="preserve"
   width="500"
   height="500"
   viewBox="0 0 499.99999 500.00001"
   sodipodi:docname="logo_variant.svg"
   inkscape:version="1.1.2 (0a00cf5339, 2022-02-04)"
   xmlns:inkscape="http://www.inkscape.org/namespaces/inkscape"
   xmlns:sodipodi="http://sodipodi.sourceforge.net/DTD/sodipodi-0.dtd"
   xmlns="http://www.w3.org/2000/svg"
   xmlns:svg="http://www.w3.org/2000/svg"><defs
     id="defs22588"><clipPath
       clipPathUnits="userSpaceOnUse"
       id="clipPath22606"><path
         d="M 0,1540 H 2720 V 0 H 0 Z"
         id="path22604" /></clipPath></defs><sodipodi:namedview
     id="namedview22586"
     pagecolor="#505050"
     bordercolor="#eeeeee"
     borderopacity="1"
     inkscape:pageshadow="0"
     inkscape:pageopacity="0"
     inkscape:pagecheckerboard="0"
     showgrid="false"
     inkscape:zoom="0.32921791"
     inkscape:cx="291.60017"
     inkscape:cy="-323.49394"
     inkscape:window-width="1536"
     inkscape:window-height="795"
     inkscape:window-x="0"
     inkscape:window-y="32"
     inkscape:window-maximized="1"
     inkscape:current-layer="g22590" /><g
     id="g22590"
     inkscape:groupmode="layer"
     inkscape:label="_prancheta_v7b"
     transform="matrix(1.3333333,0,0,-1.3333333,0,2053.3333)"><g
       id="g22600"
       transform="matrix(0.79724835,0,0,0.79724835,-887.69031,727.32382)"><g
         id="g22602"
         clip-path="url(#clipPath22606)"><g
           id="g22608"
           transform="translate(1147.6327,570.2713)"><path
             d="m 0,0 c 1.665,0 2.944,0.493 3.838,1.48 0.893,0.985 1.341,2.589 1.341,4.809 v 33.663 c 0,2.22 -0.448,3.822 -1.341,4.809 C 2.944,45.747 1.665,46.241 0,46.241 H -5.179 V 0 Z M -15.352,55.489 H 0.185 c 5.055,0 8.846,-1.357 11.375,-4.069 2.528,-2.714 3.792,-6.691 3.792,-11.93 V 6.751 C 15.352,1.51 14.088,-2.466 11.56,-5.179 9.031,-7.893 5.24,-9.248 0.185,-9.248 h -15.537 z"
             style="fill:#79b78b;fill-opacity:1;fill-rule:nonzero;stroke:none"
             id="path22610" /></g><g
           id="g22612"
           transform="translate(1188.6018,582.4789)"><path
             d="M 0,0 -4.532,31.999 H -4.717 L -9.156,0 Z M -11.098,43.281 H 2.682 L 13.225,-21.456 H 3.052 l -1.85,12.855 v -0.185 h -11.561 l -1.849,-12.67 h -9.433 z"
             style="fill:#79b78b;fill-opacity:1;fill-rule:nonzero;stroke:none"
             id="path22614" /></g><g
           id="g22616"
           transform="translate(1222.0781,570.2713)"><path
             d="M 0,0 C 1.665,0 2.944,0.493 3.838,1.48 4.731,2.465 5.18,4.069 5.18,6.289 v 33.663 c 0,2.22 -0.449,3.822 -1.342,4.809 C 2.944,45.747 1.665,46.241 0,46.241 H -5.179 V 0 Z M -15.351,55.489 H 0.185 c 5.055,0 8.846,-1.357 11.375,-4.069 2.528,-2.714 3.792,-6.691 3.792,-11.93 V 6.751 C 15.352,1.51 14.088,-2.466 11.56,-5.179 9.031,-7.893 5.24,-9.248 0.185,-9.248 h -15.536 z"
             style="fill:#79b78b;fill-opacity:1;fill-rule:nonzero;stroke:none"
             id="path22618" /></g><g
           id="g22620"
           transform="translate(1264.2491,575.7277)"><path
             d="m 0,0 v 35.328 c 0,4.254 -1.758,6.381 -5.272,6.381 -3.514,0 -5.271,-2.127 -5.271,-6.381 V 0 c 0,-4.254 1.757,-6.381 5.271,-6.381 C -1.758,-6.381 0,-4.254 0,0 m -16.739,-11.375 c -2.652,2.835 -3.977,6.843 -3.977,12.022 v 34.034 c 0,5.179 1.325,9.186 3.977,12.022 2.65,2.836 6.473,4.254 11.467,4.254 4.994,0 8.817,-1.418 11.468,-4.254 2.65,-2.836 3.976,-6.843 3.976,-12.022 V 0.647 c 0,-5.179 -1.326,-9.187 -3.976,-12.022 -2.651,-2.837 -6.474,-4.254 -11.468,-4.254 -4.994,0 -8.817,1.417 -11.467,4.254"
             style="fill:#79b78b;fill-opacity:1;fill-rule:nonzero;stroke:none"
             id="path22622" /></g><g
           id="g22624"
           transform="translate(1283.2996,564.3063)"><path
             d="m 0,0 c -2.529,2.805 -3.792,6.828 -3.792,12.069 v 3.699 h 9.618 v -4.439 c 0,-4.194 1.758,-6.289 5.272,-6.289 1.725,0 3.036,0.509 3.93,1.526 0.893,1.018 1.341,2.666 1.341,4.948 0,2.713 -0.617,5.101 -1.849,7.167 -1.234,2.065 -3.515,4.546 -6.844,7.445 -4.193,3.7 -7.121,7.043 -8.785,10.034 -1.666,2.99 -2.498,6.366 -2.498,10.127 0,5.117 1.295,9.078 3.884,11.884 2.59,2.805 6.35,4.208 11.283,4.208 4.87,0 8.555,-1.403 11.052,-4.208 2.497,-2.806 3.745,-6.829 3.745,-12.069 V 43.42 h -9.618 v 3.33 c 0,2.219 -0.432,3.838 -1.295,4.855 -0.864,1.017 -2.127,1.526 -3.792,1.526 -3.391,0 -5.086,-2.067 -5.086,-6.197 0,-2.343 0.632,-4.531 1.896,-6.566 1.263,-2.034 3.56,-4.501 6.89,-7.398 4.254,-3.7 7.182,-7.061 8.786,-10.081 1.602,-3.021 2.404,-6.566 2.404,-10.635 0,-5.303 -1.311,-9.372 -3.93,-12.208 C 19.99,-2.79 16.184,-4.208 11.19,-4.208 6.257,-4.208 2.527,-2.806 0,0"
             style="fill:#79b78b;fill-opacity:1;fill-rule:nonzero;stroke:none"
             id="path22626" /></g><g
           id="g22628"
           transform="translate(1349.4229,582.4789)"><path
             d="M 0,0 -4.531,31.999 H -4.717 L -9.156,0 Z M -11.098,43.281 H 2.682 L 13.225,-21.456 H 3.052 l -1.85,12.855 v -0.185 h -11.56 l -1.85,-12.67 h -9.433 z"
             style="fill:#79b78b;fill-opacity:1;fill-rule:nonzero;stroke:none"
             id="path22630" /></g><g
           id="g22632"
           transform="translate(1383.5466,570.2713)"><path
             d="m 0,0 c 1.788,0 3.113,0.477 3.977,1.433 0.862,0.956 1.295,2.604 1.295,4.948 v 5.642 c 0,2.959 -0.509,5.008 -1.526,6.15 -1.017,1.14 -2.698,1.711 -5.041,1.711 H -5.826 V 0 Z m -1.849,29.132 c 2.034,0 3.56,0.523 4.578,1.572 1.017,1.048 1.526,2.805 1.526,5.271 v 3.607 c 0,2.343 -0.417,4.038 -1.249,5.087 -0.833,1.047 -2.143,1.572 -3.93,1.572 H -5.826 V 29.132 Z m -14.15,26.357 h 15.352 c 5.24,0 9.063,-1.218 11.468,-3.653 2.404,-2.436 3.606,-6.182 3.606,-11.236 v -2.59 c 0,-3.329 -0.54,-6.043 -1.618,-8.138 C 11.73,27.775 10.081,26.265 7.861,25.34 v -0.185 c 5.055,-1.727 7.583,-6.228 7.583,-13.502 V 6.104 c 0,-4.994 -1.31,-8.802 -3.93,-11.422 C 8.893,-7.939 5.055,-9.248 0,-9.248 h -15.999 z"
             style="fill:#79b78b;fill-opacity:1;fill-rule:nonzero;stroke:none"
             id="path22634" /></g><g
           id="g22636"
           transform="translate(1404.9097,625.7603)"><path
             d="M 0,0 H 27.744 V -9.248 H 10.173 v -17.109 h 13.965 v -9.248 H 10.173 v -19.884 h 17.571 v -9.248 H 0 Z"
             style="fill:#79b78b;fill-opacity:1;fill-rule:nonzero;stroke:none"
             id="path22638" /></g><g
           id="g22640"
           transform="translate(1452.3518,598.0159)"><path
             d="M 0,0 C 2.034,0 3.56,0.523 4.578,1.572 5.595,2.62 6.104,4.377 6.104,6.843 v 4.994 c 0,2.343 -0.416,4.038 -1.249,5.087 -0.832,1.048 -2.143,1.572 -3.93,1.572 H -3.7 V 0 Z M -13.872,27.744 H 1.202 c 5.24,0 9.064,-1.218 11.468,-3.652 2.405,-2.437 3.606,-6.182 3.606,-11.237 V 8.878 c 0,-6.721 -2.219,-10.975 -6.658,-12.762 v -0.185 c 2.465,-0.74 4.208,-2.252 5.225,-4.532 1.017,-2.282 1.526,-5.333 1.526,-9.155 v -11.376 c 0,-1.849 0.061,-3.345 0.185,-4.485 0.123,-1.141 0.43,-2.266 0.925,-3.376 H 7.121 c -0.37,1.048 -0.617,2.035 -0.74,2.96 -0.124,0.925 -0.185,2.589 -0.185,4.994 v 11.837 c 0,2.96 -0.478,5.025 -1.433,6.197 -0.957,1.17 -2.606,1.757 -4.948,1.757 H -3.7 v -27.745 h -10.172 z"
             style="fill:#79b78b;fill-opacity:1;fill-rule:nonzero;stroke:none"
             id="path22642" /></g><g
           id="g22644"
           transform="translate(1483.5176,616.5123)"><path
             d="M 0,0 H -10.635 V 9.248 H 20.808 V 0 H 10.173 V -55.489 H 0 Z"
             style="fill:#79b78b;fill-opacity:1;fill-rule:nonzero;stroke:none"
             id="path22646" /></g><g
           id="g22648"
           transform="translate(1528.8336,575.7277)"><path
             d="m 0,0 v 35.328 c 0,4.254 -1.757,6.381 -5.272,6.381 -3.514,0 -5.271,-2.127 -5.271,-6.381 V 0 c 0,-4.254 1.757,-6.381 5.271,-6.381 C -1.757,-6.381 0,-4.254 0,0 m -16.739,-11.375 c -2.652,2.835 -3.977,6.843 -3.977,12.022 v 34.034 c 0,5.179 1.325,9.186 3.977,12.022 2.65,2.836 6.473,4.254 11.467,4.254 4.994,0 8.817,-1.418 11.468,-4.254 2.65,-2.836 3.977,-6.843 3.977,-12.022 V 0.647 c 0,-5.179 -1.327,-9.187 -3.977,-12.022 -2.651,-2.837 -6.474,-4.254 -11.468,-4.254 -4.994,0 -8.817,1.417 -11.467,4.254"
             style="fill:#79b78b;fill-opacity:1;fill-rule:nonzero;stroke:none"
             id="path22650" /></g><g
           id="g22652"
           transform="translate(1547.884,564.3063)"><path
             d="m 0,0 c -2.529,2.805 -3.792,6.828 -3.792,12.069 v 3.699 h 9.618 v -4.439 c 0,-4.194 1.758,-6.289 5.272,-6.289 1.725,0 3.036,0.509 3.93,1.526 0.893,1.018 1.341,2.666 1.341,4.948 0,2.713 -0.617,5.101 -1.849,7.167 -1.234,2.065 -3.515,4.546 -6.844,7.445 -4.193,3.7 -7.121,7.043 -8.785,10.034 -1.666,2.99 -2.498,6.366 -2.498,10.127 0,5.117 1.295,9.078 3.885,11.884 2.589,2.805 6.349,4.208 11.282,4.208 4.87,0 8.555,-1.403 11.052,-4.208 2.497,-2.806 3.745,-6.829 3.745,-12.069 V 43.42 h -9.618 v 3.33 c 0,2.219 -0.432,3.838 -1.295,4.855 -0.864,1.017 -2.127,1.526 -3.791,1.526 -3.392,0 -5.087,-2.067 -5.087,-6.197 0,-2.343 0.632,-4.531 1.896,-6.566 1.263,-2.034 3.56,-4.501 6.89,-7.398 4.254,-3.7 7.182,-7.061 8.786,-10.081 1.602,-3.021 2.404,-6.566 2.404,-10.635 0,-5.303 -1.311,-9.372 -3.93,-12.208 C 19.99,-2.79 16.184,-4.208 11.19,-4.208 6.257,-4.208 2.527,-2.806 0,0"
             style="fill:#79b78b;fill-opacity:1;fill-rule:nonzero;stroke:none"
             id="path22654" /></g><path
           d="m 1210.209,946.978 h -26.392 v 52.784 h 26.392 z"
           style="fill:#5b9970;fill-opacity:1;fill-rule:nonzero;stroke:none"
           id="path22656" /><path
           d="m 1460.63,712.399 h -75.507 v 52.784 h 75.507 z"
           style="fill:#5b9970;fill-opacity:1;fill-rule:nonzero;stroke:none"
           id="path22658" /><g
           id="g22660"
           transform="translate(1574.4265,676.6968)"><path
             d="m 0,0 -50.986,-13.662 -13.661,50.986 50.986,13.662 z"
             style="fill:#79b78b;fill-opacity:1;fill-rule:nonzero;stroke:none"
             id="path22662" /></g><path
           d="m 1210.209,663.851 h -26.392 v 52.784 h 26.392 z"
           style="fill:#5b9970;fill-opacity:1;fill-rule:nonzero;stroke:none"
           id="path22664" /><path
           d="m 1262.993,946.978 h -52.784 v 52.784 h 52.784 z"
           style="fill:#5b9970;fill-opacity:1;fill-rule:nonzero;stroke:none"
           id="path22666" /><path
           d="m 1237.85,892.054 h -52.784 v 14.266 h 52.784 z"
           style="fill:#5b9970;fill-opacity:1;fill-rule:nonzero;stroke:none"
           id="path22668" /><path
           d="m 1237.85,851.396 h -52.784 v 14.266 h 52.784 z"
           style="fill:#5b9970;fill-opacity:1;fill-rule:nonzero;stroke:none"
           id="path22670" /><path
           d="m 1237.85,810.738 h -52.784 v 14.266 h 52.784 z"
           style="fill:#5b9970;fill-opacity:1;fill-rule:nonzero;stroke:none"
           id="path22672" /><path
           d="m 1237.85,770.08 h -52.784 v 14.266 h 52.784 z"
           style="fill:#5b9970;fill-opacity:1;fill-rule:nonzero;stroke:none"
           id="path22674" /><path
           d="m 1262.993,663.851 h -52.784 v 52.784 h 52.784 z"
           style="fill:#5b9970;fill-opacity:1;fill-rule:nonzero;stroke:none"
           id="path22676" /><g
           id="g22678"
           transform="translate(1285.2229,663.8506)"><path
             d="M 0,0 H -22.23 V 52.784 H 30.554 V 30.554 C 30.554,13.68 16.875,0 0,0"
             style="fill:#5b9970;fill-opacity:1;fill-rule:nonzero;stroke:none"
             id="path22680" /></g><g
           id="g22682"
           transform="translate(1315.7772,946.9781)"><path
             d="m 0,0 h -52.784 v 52.784 h 22.23 C -13.68,52.784 0,39.105 0,22.23 Z"
             style="fill:#5b9970;fill-opacity:1;fill-rule:nonzero;stroke:none"
             id="path22684" /></g><path
           d="m 1315.777,716.635 h -52.784 v 230.343 h 52.784 z"
           style="fill:#5b9970;fill-opacity:1;fill-rule:nonzero;stroke:none"
           id="path22686" /><path
           d="m 1185.065,663.851 h -52.784 v 335.912 h 52.784 z"
           style="fill:#79b78b;fill-opacity:1;fill-rule:nonzero;stroke:none"
           id="path22688" /><g
           id="g22690"
           transform="translate(1343.3877,663.8611)"><path
             d="M 0,0 89.927,335.901 140.912,322.24 54.347,-0.826 Z"
             style="fill:#5b9970;fill-opacity:1;fill-rule:nonzero;stroke:none"
             id="path22692" /></g><g
           id="g22694"
           transform="translate(1496.0704,765.1835)"><path
             d="M 0,0 -62.756,234.579 H -8.209 L 51.18,12.936 Z"
             style="fill:#5b9970;fill-opacity:1;fill-rule:nonzero;stroke:none"
             id="path22696" /></g></g></g></g></svg>
