<?xml version="1.0" encoding="UTF-8" standalone="no"?>
<!-- Created with Inkscape (http://www.inkscape.org/) -->

<svg
   version="1.1"
   id="svg21117"
   xml:space="preserve"
   width="1000"
   height="200"
   viewBox="0 0 1000 200"
   sodipodi:docname="logo_colors_variants.svg"
   inkscape:version="1.1.2 (0a00cf5339, 2022-02-04)"
   xmlns:inkscape="http://www.inkscape.org/namespaces/inkscape"
   xmlns:sodipodi="http://sodipodi.sourceforge.net/DTD/sodipodi-0.dtd"
   xmlns="http://www.w3.org/2000/svg"
   xmlns:svg="http://www.w3.org/2000/svg"><defs
     id="defs21121"><clipPath
       clipPathUnits="userSpaceOnUse"
       id="clipPath21139"><path
         d="M 0,1540 H 2720 V 0 H 0 Z"
         id="path21137" /></clipPath></defs><sodipodi:namedview
     id="namedview21119"
     pagecolor="#505050"
     bordercolor="#eeeeee"
     borderopacity="1"
     inkscape:pageshadow="0"
     inkscape:pageopacity="0"
     inkscape:pagecheckerboard="0"
     showgrid="false"
     inkscape:snap-page="true"
     width="3624.6667px"
     inkscape:snap-grids="false"
     inkscape:zoom="1.2915097"
     inkscape:cx="264.03208"
     inkscape:cy="21.29291"
     inkscape:window-width="1536"
     inkscape:window-height="795"
     inkscape:window-x="0"
     inkscape:window-y="32"
     inkscape:window-maximized="1"
     inkscape:current-layer="g21123" /><g
     id="g21123"
     inkscape:groupmode="layer"
     inkscape:label="_prancheta_v7b"
     transform="matrix(1.3333333,0,0,-1.3333333,0,2053.3333)"><g
       id="g21133"
       transform="matrix(0.41663927,0,0,0.41663927,-170.62968,1156.5216)"><g
         id="g21135"
         clip-path="url(#clipPath21139)"><g
           id="g21141"
           transform="translate(425.075,575.6016)"><path
             d="m 0,0 c 1.295,0 2.29,0.383 2.985,1.151 0.694,0.766 1.043,2.014 1.043,3.74 V 31.07 c 0,1.726 -0.349,2.972 -1.043,3.74 C 2.29,35.576 1.295,35.961 0,35.961 H -4.028 V 0 Z M -11.939,43.153 H 0.144 c 3.931,0 6.88,-1.055 8.846,-3.165 1.966,-2.11 2.949,-5.203 2.949,-9.278 V 5.25 c 0,-4.075 -0.983,-7.168 -2.949,-9.278 -1.966,-2.11 -4.915,-3.164 -8.846,-3.164 h -12.083 z"
             style="fill:#7894ae;fill-opacity:1;fill-rule:nonzero;stroke:none"
             id="path21143" /></g><g
           id="g21145"
           transform="translate(456.9359,585.0952)"><path
             d="M 0,0 -3.524,24.885 H -3.668 L -7.12,0 Z M -8.631,33.659 H 2.086 l 8.199,-50.345 H 2.373 l -1.438,9.997 v -0.143 h -8.991 l -1.438,-9.854 h -7.336 z"
             style="fill:#7894ae;fill-opacity:1;fill-rule:nonzero;stroke:none"
             id="path21147" /></g><g
           id="g21149"
           transform="translate(482.9698,575.6016)"><path
             d="m 0,0 c 1.295,0 2.29,0.383 2.985,1.151 0.694,0.766 1.043,2.014 1.043,3.74 V 31.07 c 0,1.726 -0.349,2.972 -1.043,3.74 C 2.29,35.576 1.295,35.961 0,35.961 H -4.028 V 0 Z M -11.939,43.153 H 0.144 c 3.931,0 6.88,-1.055 8.846,-3.165 1.966,-2.11 2.949,-5.203 2.949,-9.278 V 5.25 c 0,-4.075 -0.983,-7.168 -2.949,-9.278 -1.966,-2.11 -4.915,-3.164 -8.846,-3.164 h -12.083 z"
             style="fill:#7894ae;fill-opacity:1;fill-rule:nonzero;stroke:none"
             id="path21151" /></g><g
           id="g21153"
           transform="translate(515.7653,579.845)"><path
             d="m 0,0 v 27.474 c 0,3.308 -1.367,4.962 -4.1,4.962 -2.732,0 -4.099,-1.654 -4.099,-4.962 V 0 c 0,-3.308 1.367,-4.962 4.099,-4.962 2.733,0 4.1,1.654 4.1,4.962 m -13.018,-8.846 c -2.062,2.205 -3.093,5.322 -3.093,9.349 v 26.468 c 0,4.027 1.031,7.143 3.093,9.349 2.061,2.205 5.035,3.309 8.918,3.309 3.884,0 6.857,-1.104 8.919,-3.309 2.061,-2.206 3.092,-5.322 3.092,-9.349 V 0.503 c 0,-4.027 -1.031,-7.144 -3.092,-9.349 -2.062,-2.206 -5.035,-3.309 -8.919,-3.309 -3.883,0 -6.857,1.103 -8.918,3.309"
             style="fill:#7894ae;fill-opacity:1;fill-rule:nonzero;stroke:none"
             id="path21155" /></g><g
           id="g21157"
           transform="translate(530.5804,570.9628)"><path
             d="m 0,0 c -1.967,2.181 -2.949,5.31 -2.949,9.386 v 2.877 h 7.48 V 8.81 c 0,-3.261 1.367,-4.89 4.1,-4.89 1.341,0 2.361,0.395 3.056,1.186 0.694,0.792 1.043,2.074 1.043,3.848 0,2.11 -0.48,3.967 -1.438,5.574 -0.96,1.606 -2.734,3.535 -5.323,5.79 -3.261,2.877 -5.537,5.477 -6.832,7.803 -1.295,2.325 -1.942,4.95 -1.942,7.876 0,3.979 1.007,7.059 3.021,9.241 2.014,2.182 4.937,3.273 8.774,3.273 3.787,0 6.653,-1.091 8.595,-3.273 1.942,-2.182 2.912,-5.311 2.912,-9.385 v -2.086 h -7.479 v 2.589 c 0,1.726 -0.336,2.985 -1.007,3.776 -0.672,0.791 -1.655,1.187 -2.949,1.187 -2.637,0 -3.956,-1.607 -3.956,-4.819 0,-1.823 0.491,-3.524 1.475,-5.107 0.982,-1.582 2.769,-3.5 5.358,-5.753 3.308,-2.877 5.585,-5.491 6.832,-7.839 1.247,-2.35 1.871,-5.107 1.871,-8.271 0,-4.125 -1.02,-7.289 -3.057,-9.494 C 15.546,-2.17 12.586,-3.272 8.703,-3.272 4.866,-3.272 1.966,-2.182 0,0"
             style="fill:#7894ae;fill-opacity:1;fill-rule:nonzero;stroke:none"
             id="path21159" /></g><g
           id="g21161"
           transform="translate(582.0032,585.0952)"><path
             d="M 0,0 -3.524,24.885 H -3.668 L -7.12,0 Z M -8.631,33.659 H 2.086 l 8.199,-50.345 H 2.373 l -1.438,9.997 v -0.143 h -8.991 l -1.438,-9.854 h -7.336 z"
             style="fill:#7894ae;fill-opacity:1;fill-rule:nonzero;stroke:none"
             id="path21163" /></g><g
           id="g21165"
           transform="translate(608.5405,575.6016)"><path
             d="M 0,0 C 1.39,0 2.421,0.371 3.093,1.115 3.763,1.858 4.1,3.14 4.1,4.963 V 9.35 c 0,2.301 -0.396,3.895 -1.187,4.783 -0.791,0.886 -2.098,1.33 -3.92,1.33 H -4.531 V 0 Z m -1.438,22.655 c 1.582,0 2.769,0.407 3.56,1.223 0.791,0.815 1.187,2.181 1.187,4.099 v 2.805 c 0,1.822 -0.324,3.14 -0.971,3.956 -0.648,0.815 -1.667,1.223 -3.057,1.223 H -4.531 V 22.655 Z m -11.004,20.498 h 11.939 c 4.075,0 7.048,-0.948 8.918,-2.841 1.87,-1.895 2.805,-4.808 2.805,-8.739 V 29.56 c 0,-2.589 -0.421,-4.7 -1.259,-6.329 C 9.122,21.6 7.84,20.426 6.114,19.706 v -0.143 c 3.93,-1.343 5.897,-4.844 5.897,-10.501 V 4.747 c 0,-3.884 -1.019,-6.845 -3.057,-8.882 C 6.916,-6.174 3.931,-7.192 0,-7.192 h -12.442 z"
             style="fill:#7894ae;fill-opacity:1;fill-rule:nonzero;stroke:none"
             id="path21167" /></g><g
           id="g21169"
           transform="translate(625.1541,618.7543)"><path
             d="M 0,0 H 21.576 V -7.192 H 7.911 v -13.306 h 10.86 V -27.69 H 7.911 v -15.463 h 13.665 v -7.192 H 0 Z"
             style="fill:#7894ae;fill-opacity:1;fill-rule:nonzero;stroke:none"
             id="path21171" /></g><g
           id="g21173"
           transform="translate(662.0488,597.1781)"><path
             d="m 0,0 c 1.582,0 2.769,0.407 3.56,1.223 0.791,0.814 1.187,2.181 1.187,4.099 v 3.884 c 0,1.822 -0.324,3.14 -0.971,3.955 -0.648,0.815 -1.667,1.223 -3.057,1.223 H -2.877 V 0 Z M -10.788,21.576 H 0.935 c 4.075,0 7.048,-0.947 8.918,-2.841 1.87,-1.894 2.805,-4.807 2.805,-8.738 V 6.904 c 0,-5.226 -1.726,-8.535 -5.178,-9.925 v -0.143 c 1.917,-0.576 3.272,-1.751 4.063,-3.525 0.791,-1.774 1.187,-4.148 1.187,-7.12 v -8.846 c 0,-1.439 0.047,-2.602 0.144,-3.488 0.095,-0.888 0.334,-1.762 0.719,-2.625 H 5.538 c -0.288,0.814 -0.48,1.582 -0.575,2.301 -0.097,0.719 -0.144,2.014 -0.144,3.884 v 9.206 c 0,2.301 -0.372,3.907 -1.115,4.818 -0.744,0.911 -2.027,1.367 -3.848,1.367 h -2.733 v -21.576 h -7.911 z"
             style="fill:#7894ae;fill-opacity:1;fill-rule:nonzero;stroke:none"
             id="path21175" /></g><g
           id="g21177"
           transform="translate(686.2858,611.5623)"><path
             d="M 0,0 H -8.271 V 7.192 H 16.182 V 0 H 7.911 V -43.153 H 0 Z"
             style="fill:#7894ae;fill-opacity:1;fill-rule:nonzero;stroke:none"
             id="path21179" /></g><g
           id="g21181"
           transform="translate(721.5272,579.845)"><path
             d="m 0,0 v 27.474 c 0,3.308 -1.367,4.962 -4.1,4.962 -2.732,0 -4.099,-1.654 -4.099,-4.962 V 0 c 0,-3.308 1.367,-4.962 4.099,-4.962 2.733,0 4.1,1.654 4.1,4.962 m -13.018,-8.846 c -2.062,2.205 -3.093,5.322 -3.093,9.349 v 26.468 c 0,4.027 1.031,7.143 3.093,9.349 2.061,2.205 5.035,3.309 8.918,3.309 3.884,0 6.857,-1.104 8.919,-3.309 2.061,-2.206 3.092,-5.322 3.092,-9.349 V 0.503 c 0,-4.027 -1.031,-7.144 -3.092,-9.349 -2.062,-2.206 -5.035,-3.309 -8.919,-3.309 -3.883,0 -6.857,1.103 -8.918,3.309"
             style="fill:#7894ae;fill-opacity:1;fill-rule:nonzero;stroke:none"
             id="path21183" /></g><g
           id="g21185"
           transform="translate(736.3423,570.9628)"><path
             d="m 0,0 c -1.967,2.181 -2.949,5.31 -2.949,9.386 v 2.877 h 7.48 V 8.81 c 0,-3.261 1.367,-4.89 4.1,-4.89 1.341,0 2.361,0.395 3.056,1.186 0.695,0.792 1.043,2.074 1.043,3.848 0,2.11 -0.48,3.967 -1.438,5.574 -0.96,1.606 -2.733,3.535 -5.322,5.79 -3.262,2.877 -5.538,5.477 -6.833,7.803 -1.295,2.325 -1.942,4.95 -1.942,7.876 0,3.979 1.007,7.059 3.021,9.241 2.014,2.182 4.937,3.273 8.774,3.273 3.787,0 6.653,-1.091 8.595,-3.273 1.942,-2.182 2.913,-5.311 2.913,-9.385 v -2.086 h -7.48 v 2.589 c 0,1.726 -0.336,2.985 -1.007,3.776 -0.672,0.791 -1.655,1.187 -2.949,1.187 -2.637,0 -3.956,-1.607 -3.956,-4.819 0,-1.823 0.491,-3.524 1.475,-5.107 0.982,-1.582 2.769,-3.5 5.358,-5.753 3.308,-2.877 5.585,-5.491 6.832,-7.839 1.247,-2.35 1.871,-5.107 1.871,-8.271 0,-4.125 -1.02,-7.289 -3.057,-9.494 C 15.546,-2.17 12.586,-3.272 8.703,-3.272 4.866,-3.272 1.966,-2.182 0,0"
             style="fill:#7894ae;fill-opacity:1;fill-rule:nonzero;stroke:none"
             id="path21187" /></g><g
           id="g21189"
           transform="translate(756.9839,658.3666)"><path
             d="m 0,0 -39.651,-10.624 -10.624,39.65 39.651,10.624 z"
             style="fill:#7894ae;fill-opacity:1;fill-rule:nonzero;stroke:none"
             id="path21191" /></g><g
           id="g21193"
           transform="translate(525.2833,909.6079)"><path
             d="m 0,0 h -10.495 -41.049 -20.525 v -41.049 h 20.525 41.049 v -179.133 h -41.049 -20.525 v -41.05 H -51.544 -10.495 0 c 16.875,0 30.554,13.68 30.554,30.555 v 10.495 179.133 10.495 C 30.554,-13.68 16.875,0 0,0"
             style="fill:#355e85;fill-opacity:1;fill-rule:nonzero;stroke:none"
             id="path21195" /></g><path
           d="m 454.186,648.376 h -41.049 v 261.232 h 41.049 z"
           style="fill:#7894ae;fill-opacity:1;fill-rule:nonzero;stroke:none"
           id="path21197" /><g
           id="g21199"
           transform="translate(696.0479,727.1809)"><path
             d="M 0,0 39.802,10.06 -6.384,182.427 h -42.42 l -69.934,-261.223 42.264,-0.643 10.287,38.39 h 38.626 V 0 h -27.627 l 27.616,103.064 z"
             style="fill:#355e85;fill-opacity:1;fill-rule:nonzero;stroke:none"
             id="path21201" /></g><g
           id="g21203"
           transform="translate(1149.4722,575.6016)"><path
             d="m 0,0 c 1.295,0 2.29,0.383 2.985,1.151 0.694,0.766 1.043,2.014 1.043,3.74 V 31.07 c 0,1.726 -0.349,2.972 -1.043,3.74 C 2.29,35.576 1.295,35.961 0,35.961 H -4.027 V 0 Z M -11.938,43.153 H 0.144 c 3.931,0 6.88,-1.055 8.846,-3.165 1.966,-2.11 2.949,-5.203 2.949,-9.278 V 5.25 c 0,-4.075 -0.983,-7.168 -2.949,-9.278 -1.966,-2.11 -4.915,-3.164 -8.846,-3.164 h -12.082 z"
             style="fill:#7894ae;fill-opacity:1;fill-rule:nonzero;stroke:none"
             id="path21205" /></g><g
           id="g21207"
           transform="translate(1181.333,585.0952)"><path
             d="M 0,0 -3.524,24.885 H -3.668 L -7.12,0 Z M -8.631,33.659 H 2.086 l 8.199,-50.345 H 2.373 l -1.438,9.997 v -0.143 h -8.991 l -1.438,-9.854 h -7.336 z"
             style="fill:#7894ae;fill-opacity:1;fill-rule:nonzero;stroke:none"
             id="path21209" /></g><g
           id="g21211"
           transform="translate(1207.3669,575.6016)"><path
             d="m 0,0 c 1.295,0 2.29,0.383 2.985,1.151 0.694,0.766 1.043,2.014 1.043,3.74 V 31.07 c 0,1.726 -0.349,2.972 -1.043,3.74 C 2.29,35.576 1.295,35.961 0,35.961 H -4.028 V 0 Z M -11.939,43.153 H 0.144 c 3.931,0 6.88,-1.055 8.846,-3.165 1.966,-2.11 2.949,-5.203 2.949,-9.278 V 5.25 c 0,-4.075 -0.983,-7.168 -2.949,-9.278 -1.966,-2.11 -4.915,-3.164 -8.846,-3.164 h -12.083 z"
             style="fill:#7894ae;fill-opacity:1;fill-rule:nonzero;stroke:none"
             id="path21213" /></g><g
           id="g21215"
           transform="translate(1240.1624,579.845)"><path
             d="m 0,0 v 27.474 c 0,3.308 -1.367,4.962 -4.1,4.962 -2.732,0 -4.099,-1.654 -4.099,-4.962 V 0 c 0,-3.308 1.367,-4.962 4.099,-4.962 2.733,0 4.1,1.654 4.1,4.962 m -13.018,-8.846 c -2.062,2.205 -3.093,5.322 -3.093,9.349 v 26.468 c 0,4.027 1.031,7.143 3.093,9.349 2.061,2.205 5.035,3.309 8.918,3.309 3.884,0 6.857,-1.104 8.919,-3.309 2.061,-2.206 3.092,-5.322 3.092,-9.349 V 0.503 c 0,-4.027 -1.031,-7.144 -3.092,-9.349 -2.062,-2.206 -5.035,-3.309 -8.919,-3.309 -3.883,0 -6.857,1.103 -8.918,3.309"
             style="fill:#7894ae;fill-opacity:1;fill-rule:nonzero;stroke:none"
             id="path21217" /></g><g
           id="g21219"
           transform="translate(1254.9775,570.9628)"><path
             d="m 0,0 c -1.967,2.181 -2.949,5.31 -2.949,9.386 v 2.877 h 7.48 V 8.81 c 0,-3.261 1.367,-4.89 4.1,-4.89 1.341,0 2.361,0.395 3.056,1.186 0.694,0.792 1.043,2.074 1.043,3.848 0,2.11 -0.48,3.967 -1.438,5.574 -0.96,1.606 -2.734,3.535 -5.323,5.79 -3.261,2.877 -5.537,5.477 -6.832,7.803 -1.295,2.325 -1.942,4.95 -1.942,7.876 0,3.979 1.007,7.059 3.021,9.241 2.014,2.182 4.937,3.273 8.774,3.273 3.787,0 6.653,-1.091 8.595,-3.273 1.941,-2.182 2.913,-5.311 2.913,-9.385 v -2.086 h -7.48 v 2.589 c 0,1.726 -0.336,2.985 -1.007,3.776 -0.672,0.791 -1.655,1.187 -2.949,1.187 -2.637,0 -3.956,-1.607 -3.956,-4.819 0,-1.823 0.491,-3.524 1.475,-5.107 0.982,-1.582 2.768,-3.5 5.358,-5.753 3.308,-2.877 5.585,-5.491 6.832,-7.839 1.247,-2.35 1.871,-5.107 1.871,-8.271 0,-4.125 -1.02,-7.289 -3.057,-9.494 C 15.546,-2.17 12.586,-3.272 8.703,-3.272 4.866,-3.272 1.966,-2.182 0,0"
             style="fill:#7894ae;fill-opacity:1;fill-rule:nonzero;stroke:none"
             id="path21221" /></g><g
           id="g21223"
           transform="translate(1306.4003,585.0952)"><path
             d="M 0,0 -3.524,24.885 H -3.668 L -7.12,0 Z M -8.631,33.659 H 2.086 l 8.199,-50.345 H 2.373 l -1.438,9.997 v -0.143 h -8.991 l -1.438,-9.854 h -7.336 z"
             style="fill:#7894ae;fill-opacity:1;fill-rule:nonzero;stroke:none"
             id="path21225" /></g><g
           id="g21227"
           transform="translate(1332.9376,575.6016)"><path
             d="M 0,0 C 1.39,0 2.421,0.371 3.093,1.115 3.764,1.858 4.1,3.14 4.1,4.963 V 9.35 c 0,2.301 -0.396,3.895 -1.187,4.783 -0.791,0.886 -2.098,1.33 -3.92,1.33 H -4.531 V 0 Z m -1.438,22.655 c 1.582,0 2.769,0.407 3.56,1.223 0.791,0.815 1.187,2.181 1.187,4.099 v 2.805 c 0,1.822 -0.324,3.14 -0.971,3.956 -0.648,0.815 -1.667,1.223 -3.057,1.223 H -4.531 V 22.655 Z m -11.004,20.498 h 11.939 c 4.075,0 7.048,-0.948 8.918,-2.841 1.87,-1.895 2.805,-4.808 2.805,-8.739 V 29.56 c 0,-2.589 -0.421,-4.7 -1.259,-6.329 C 9.122,21.6 7.84,20.426 6.114,19.706 v -0.143 c 3.93,-1.343 5.897,-4.844 5.897,-10.501 V 4.747 c 0,-3.884 -1.019,-6.845 -3.057,-8.882 C 6.916,-6.174 3.931,-7.192 0,-7.192 h -12.442 z"
             style="fill:#7894ae;fill-opacity:1;fill-rule:nonzero;stroke:none"
             id="path21229" /></g><g
           id="g21231"
           transform="translate(1349.5513,618.7543)"><path
             d="M 0,0 H 21.576 V -7.192 H 7.911 v -13.306 h 10.86 V -27.69 H 7.911 v -15.463 h 13.665 v -7.192 H 0 Z"
             style="fill:#7894ae;fill-opacity:1;fill-rule:nonzero;stroke:none"
             id="path21233" /></g><g
           id="g21235"
           transform="translate(1386.446,597.1781)"><path
             d="m 0,0 c 1.582,0 2.769,0.407 3.56,1.223 0.791,0.814 1.187,2.181 1.187,4.099 v 3.884 c 0,1.822 -0.324,3.14 -0.971,3.955 -0.648,0.815 -1.667,1.223 -3.057,1.223 H -2.877 V 0 Z M -10.788,21.576 H 0.935 c 4.075,0 7.048,-0.947 8.918,-2.841 1.87,-1.894 2.805,-4.807 2.805,-8.738 V 6.904 c 0,-5.226 -1.726,-8.535 -5.178,-9.925 v -0.143 c 1.917,-0.576 3.272,-1.751 4.063,-3.525 0.791,-1.774 1.187,-4.148 1.187,-7.12 v -8.846 c 0,-1.439 0.047,-2.602 0.144,-3.488 0.095,-0.888 0.334,-1.762 0.719,-2.625 H 5.538 c -0.288,0.814 -0.48,1.582 -0.575,2.301 -0.097,0.719 -0.145,2.014 -0.145,3.884 v 9.206 c 0,2.301 -0.371,3.907 -1.114,4.818 -0.744,0.911 -2.027,1.367 -3.848,1.367 h -2.733 v -21.576 h -7.911 z"
             style="fill:#7894ae;fill-opacity:1;fill-rule:nonzero;stroke:none"
             id="path21237" /></g><g
           id="g21239"
           transform="translate(1410.683,611.5623)"><path
             d="M 0,0 H -8.271 V 7.192 H 16.182 V 0 H 7.911 V -43.153 H 0 Z"
             style="fill:#7894ae;fill-opacity:1;fill-rule:nonzero;stroke:none"
             id="path21241" /></g><g
           id="g21243"
           transform="translate(1445.9243,579.845)"><path
             d="m 0,0 v 27.474 c 0,3.308 -1.367,4.962 -4.1,4.962 -2.732,0 -4.099,-1.654 -4.099,-4.962 V 0 c 0,-3.308 1.367,-4.962 4.099,-4.962 2.733,0 4.1,1.654 4.1,4.962 m -13.018,-8.846 c -2.062,2.205 -3.093,5.322 -3.093,9.349 v 26.468 c 0,4.027 1.031,7.143 3.093,9.349 2.061,2.205 5.035,3.309 8.918,3.309 3.884,0 6.857,-1.104 8.919,-3.309 2.061,-2.206 3.092,-5.322 3.092,-9.349 V 0.503 c 0,-4.027 -1.031,-7.144 -3.092,-9.349 -2.062,-2.206 -5.035,-3.309 -8.919,-3.309 -3.883,0 -6.857,1.103 -8.918,3.309"
             style="fill:#7894ae;fill-opacity:1;fill-rule:nonzero;stroke:none"
             id="path21245" /></g><g
           id="g21247"
           transform="translate(1460.7395,570.9628)"><path
             d="m 0,0 c -1.967,2.181 -2.949,5.31 -2.949,9.386 v 2.877 h 7.48 V 8.81 c 0,-3.261 1.367,-4.89 4.1,-4.89 1.341,0 2.361,0.395 3.056,1.186 0.694,0.792 1.043,2.074 1.043,3.848 0,2.11 -0.48,3.967 -1.438,5.574 -0.96,1.606 -2.734,3.535 -5.323,5.79 -3.261,2.877 -5.537,5.477 -6.832,7.803 -1.295,2.325 -1.942,4.95 -1.942,7.876 0,3.979 1.007,7.059 3.021,9.241 2.014,2.182 4.937,3.273 8.774,3.273 3.787,0 6.653,-1.091 8.594,-3.273 1.942,-2.182 2.913,-5.311 2.913,-9.385 v -2.086 h -7.479 v 2.589 c 0,1.726 -0.336,2.985 -1.007,3.776 -0.672,0.791 -1.655,1.187 -2.949,1.187 -2.637,0 -3.956,-1.607 -3.956,-4.819 0,-1.823 0.491,-3.524 1.475,-5.107 0.982,-1.582 2.768,-3.5 5.358,-5.753 3.308,-2.877 5.585,-5.491 6.832,-7.839 1.247,-2.35 1.87,-5.107 1.87,-8.271 0,-4.125 -1.019,-7.289 -3.057,-9.494 C 15.546,-2.17 12.586,-3.272 8.703,-3.272 4.866,-3.272 1.966,-2.182 0,0"
             style="fill:#7894ae;fill-opacity:1;fill-rule:nonzero;stroke:none"
             id="path21249" /></g><g
           id="g21251"
           transform="translate(1481.381,658.3666)"><path
             d="m 0,0 -39.65,-10.624 -10.625,39.65 39.651,10.624 z"
             style="fill:#7894ae;fill-opacity:1;fill-rule:nonzero;stroke:none"
             id="path21253" /></g><g
           id="g21255"
           transform="translate(1249.6804,909.6079)"><path
             d="m 0,0 h -10.495 -41.049 -20.525 v -41.049 h 20.525 41.049 v -179.133 h -41.049 -20.525 v -41.05 H -51.544 -10.495 0 c 16.875,0 30.554,13.68 30.554,30.555 v 10.495 179.133 10.495 C 30.554,-13.68 16.875,0 0,0"
             style="fill:#79b78b;fill-opacity:1;fill-rule:nonzero;stroke:none"
             id="path21257" /></g><path
           d="m 1178.583,648.376 h -41.049 v 261.232 h 41.049 z"
           style="fill:#7894ae;fill-opacity:1;fill-rule:nonzero;stroke:none"
           id="path21259" /><g
           id="g21261"
           transform="translate(1420.4451,727.1809)"><path
             d="M 0,0 39.802,10.06 -6.384,182.427 h -42.42 l -69.934,-261.223 42.264,-0.643 10.287,38.39 h 38.626 V 0 h -27.627 l 27.616,103.064 z"
             style="fill:#79b78b;fill-opacity:1;fill-rule:nonzero;stroke:none"
             id="path21263" /></g><g
           id="g21265"
           transform="translate(1872.3445,575.6016)"><path
             d="m 0,0 c 1.295,0 2.29,0.383 2.985,1.151 0.694,0.766 1.043,2.014 1.043,3.74 V 31.07 c 0,1.726 -0.349,2.972 -1.043,3.74 C 2.29,35.576 1.295,35.961 0,35.961 H -4.027 V 0 Z M -11.938,43.153 H 0.144 c 3.931,0 6.88,-1.055 8.846,-3.165 1.966,-2.11 2.949,-5.203 2.949,-9.278 V 5.25 c 0,-4.075 -0.983,-7.168 -2.949,-9.278 -1.966,-2.11 -4.915,-3.164 -8.846,-3.164 h -12.082 z"
             style="fill:#355e85;fill-opacity:1;fill-rule:nonzero;stroke:none"
             id="path21267" /></g><g
           id="g21269"
           transform="translate(1904.2053,585.0952)"><path
             d="M 0,0 -3.524,24.885 H -3.668 L -7.12,0 Z M -8.631,33.659 H 2.086 l 8.199,-50.345 H 2.373 l -1.438,9.997 v -0.143 h -8.991 l -1.438,-9.854 h -7.336 z"
             style="fill:#355e85;fill-opacity:1;fill-rule:nonzero;stroke:none"
             id="path21271" /></g><g
           id="g21273"
           transform="translate(1930.2393,575.6016)"><path
             d="m 0,0 c 1.295,0 2.29,0.383 2.985,1.151 0.694,0.766 1.043,2.014 1.043,3.74 V 31.07 c 0,1.726 -0.349,2.972 -1.043,3.74 C 2.29,35.576 1.295,35.961 0,35.961 H -4.027 V 0 Z M -11.938,43.153 H 0.144 c 3.931,0 6.88,-1.055 8.846,-3.165 1.966,-2.11 2.949,-5.203 2.949,-9.278 V 5.25 c 0,-4.075 -0.983,-7.168 -2.949,-9.278 -1.966,-2.11 -4.915,-3.164 -8.846,-3.164 h -12.082 z"
             style="fill:#355e85;fill-opacity:1;fill-rule:nonzero;stroke:none"
             id="path21275" /></g><g
           id="g21277"
           transform="translate(1963.0348,579.845)"><path
             d="m 0,0 v 27.474 c 0,3.308 -1.367,4.962 -4.1,4.962 -2.732,0 -4.099,-1.654 -4.099,-4.962 V 0 c 0,-3.308 1.367,-4.962 4.099,-4.962 2.733,0 4.1,1.654 4.1,4.962 m -13.018,-8.846 c -2.062,2.205 -3.093,5.322 -3.093,9.349 v 26.468 c 0,4.027 1.031,7.143 3.093,9.349 2.061,2.205 5.035,3.309 8.918,3.309 3.884,0 6.857,-1.104 8.918,-3.309 2.062,-2.206 3.093,-5.322 3.093,-9.349 V 0.503 c 0,-4.027 -1.031,-7.144 -3.093,-9.349 -2.061,-2.206 -5.034,-3.309 -8.918,-3.309 -3.883,0 -6.857,1.103 -8.918,3.309"
             style="fill:#355e85;fill-opacity:1;fill-rule:nonzero;stroke:none"
             id="path21279" /></g><g
           id="g21281"
           transform="translate(1977.8499,570.9628)"><path
             d="m 0,0 c -1.967,2.181 -2.949,5.31 -2.949,9.386 v 2.877 h 7.48 V 8.81 c 0,-3.261 1.367,-4.89 4.1,-4.89 1.342,0 2.361,0.395 3.056,1.186 0.694,0.792 1.043,2.074 1.043,3.848 0,2.11 -0.48,3.967 -1.438,5.574 -0.96,1.606 -2.734,3.535 -5.323,5.79 -3.261,2.877 -5.537,5.477 -6.832,7.803 -1.295,2.325 -1.942,4.95 -1.942,7.876 0,3.979 1.007,7.059 3.021,9.241 2.014,2.182 4.937,3.273 8.774,3.273 3.787,0 6.653,-1.091 8.595,-3.273 1.942,-2.182 2.913,-5.311 2.913,-9.385 v -2.086 h -7.48 v 2.589 c 0,1.726 -0.336,2.985 -1.007,3.776 -0.672,0.791 -1.655,1.187 -2.949,1.187 -2.637,0 -3.956,-1.607 -3.956,-4.819 0,-1.823 0.491,-3.524 1.475,-5.107 0.982,-1.582 2.769,-3.5 5.358,-5.753 3.308,-2.877 5.585,-5.491 6.832,-7.839 1.247,-2.35 1.871,-5.107 1.871,-8.271 0,-4.125 -1.02,-7.289 -3.057,-9.494 C 15.546,-2.17 12.586,-3.272 8.703,-3.272 4.866,-3.272 1.966,-2.182 0,0"
             style="fill:#355e85;fill-opacity:1;fill-rule:nonzero;stroke:none"
             id="path21283" /></g><g
           id="g21285"
           transform="translate(2029.2727,585.0952)"><path
             d="M 0,0 -3.524,24.885 H -3.668 L -7.12,0 Z M -8.631,33.659 H 2.085 l 8.2,-50.345 H 2.373 l -1.438,9.997 v -0.143 h -8.991 l -1.438,-9.854 h -7.336 z"
             style="fill:#355e85;fill-opacity:1;fill-rule:nonzero;stroke:none"
             id="path21287" /></g><g
           id="g21289"
           transform="translate(2055.8101,575.6016)"><path
             d="M 0,0 C 1.39,0 2.421,0.371 3.093,1.115 3.763,1.858 4.1,3.14 4.1,4.963 V 9.35 c 0,2.301 -0.396,3.895 -1.187,4.783 -0.791,0.886 -2.098,1.33 -3.92,1.33 H -4.531 V 0 Z m -1.438,22.655 c 1.582,0 2.769,0.407 3.56,1.223 0.791,0.815 1.187,2.181 1.187,4.099 v 2.805 c 0,1.822 -0.324,3.14 -0.971,3.956 -0.648,0.815 -1.667,1.223 -3.057,1.223 H -4.531 V 22.655 Z m -11.004,20.498 h 11.939 c 4.075,0 7.048,-0.948 8.918,-2.841 1.87,-1.895 2.805,-4.808 2.805,-8.739 V 29.56 c 0,-2.589 -0.421,-4.7 -1.259,-6.329 C 9.122,21.6 7.84,20.426 6.114,19.706 v -0.143 c 3.93,-1.343 5.897,-4.844 5.897,-10.501 V 4.747 c 0,-3.884 -1.019,-6.845 -3.057,-8.882 C 6.916,-6.174 3.931,-7.192 0,-7.192 h -12.442 z"
             style="fill:#355e85;fill-opacity:1;fill-rule:nonzero;stroke:none"
             id="path21291" /></g><g
           id="g21293"
           transform="translate(2072.4236,618.7543)"><path
             d="M 0,0 H 21.576 V -7.192 H 7.911 v -13.306 h 10.86 V -27.69 H 7.911 v -15.463 h 13.665 v -7.192 H 0 Z"
             style="fill:#355e85;fill-opacity:1;fill-rule:nonzero;stroke:none"
             id="path21295" /></g><g
           id="g21297"
           transform="translate(2109.3184,597.1781)"><path
             d="m 0,0 c 1.582,0 2.769,0.407 3.56,1.223 0.791,0.814 1.187,2.181 1.187,4.099 v 3.884 c 0,1.822 -0.324,3.14 -0.971,3.955 -0.648,0.815 -1.667,1.223 -3.057,1.223 H -2.877 V 0 Z M -10.788,21.576 H 0.935 c 4.075,0 7.048,-0.947 8.918,-2.841 1.87,-1.894 2.805,-4.807 2.805,-8.738 V 6.904 c 0,-5.226 -1.726,-8.535 -5.178,-9.925 v -0.143 c 1.917,-0.576 3.272,-1.751 4.063,-3.525 0.791,-1.774 1.187,-4.148 1.187,-7.12 v -8.846 c 0,-1.439 0.047,-2.602 0.144,-3.488 0.095,-0.888 0.334,-1.762 0.719,-2.625 H 5.538 c -0.288,0.814 -0.48,1.582 -0.575,2.301 -0.097,0.719 -0.144,2.014 -0.144,3.884 v 9.206 c 0,2.301 -0.372,3.907 -1.115,4.818 -0.744,0.911 -2.027,1.367 -3.848,1.367 h -2.733 v -21.576 h -7.911 z"
             style="fill:#355e85;fill-opacity:1;fill-rule:nonzero;stroke:none"
             id="path21299" /></g><g
           id="g21301"
           transform="translate(2133.5552,611.5623)"><path
             d="M 0,0 H -8.271 V 7.192 H 16.183 V 0 H 7.912 V -43.153 H 0 Z"
             style="fill:#355e85;fill-opacity:1;fill-rule:nonzero;stroke:none"
             id="path21303" /></g><g
           id="g21305"
           transform="translate(2168.7966,579.845)"><path
             d="m 0,0 v 27.474 c 0,3.308 -1.367,4.962 -4.1,4.962 -2.732,0 -4.099,-1.654 -4.099,-4.962 V 0 c 0,-3.308 1.367,-4.962 4.099,-4.962 2.733,0 4.1,1.654 4.1,4.962 m -13.018,-8.846 c -2.062,2.205 -3.093,5.322 -3.093,9.349 v 26.468 c 0,4.027 1.031,7.143 3.093,9.349 2.061,2.205 5.035,3.309 8.918,3.309 3.884,0 6.857,-1.104 8.919,-3.309 2.061,-2.206 3.092,-5.322 3.092,-9.349 V 0.503 c 0,-4.027 -1.031,-7.144 -3.092,-9.349 -2.062,-2.206 -5.035,-3.309 -8.919,-3.309 -3.883,0 -6.857,1.103 -8.918,3.309"
             style="fill:#355e85;fill-opacity:1;fill-rule:nonzero;stroke:none"
             id="path21307" /></g><g
           id="g21309"
           transform="translate(2183.6118,570.9628)"><path
             d="m 0,0 c -1.967,2.181 -2.949,5.31 -2.949,9.386 v 2.877 h 7.48 V 8.81 c 0,-3.261 1.367,-4.89 4.1,-4.89 1.341,0 2.361,0.395 3.056,1.186 0.695,0.792 1.043,2.074 1.043,3.848 0,2.11 -0.48,3.967 -1.438,5.574 -0.96,1.606 -2.733,3.535 -5.323,5.79 -3.261,2.877 -5.537,5.477 -6.832,7.803 -1.295,2.325 -1.942,4.95 -1.942,7.876 0,3.979 1.007,7.059 3.021,9.241 2.013,2.182 4.937,3.273 8.774,3.273 3.787,0 6.653,-1.091 8.594,-3.273 1.943,-2.182 2.914,-5.311 2.914,-9.385 v -2.086 h -7.48 v 2.589 c 0,1.726 -0.336,2.985 -1.007,3.776 -0.672,0.791 -1.655,1.187 -2.949,1.187 -2.637,0 -3.956,-1.607 -3.956,-4.819 0,-1.823 0.491,-3.524 1.475,-5.107 0.982,-1.582 2.769,-3.5 5.358,-5.753 3.308,-2.877 5.585,-5.491 6.832,-7.839 1.247,-2.35 1.871,-5.107 1.871,-8.271 0,-4.125 -1.02,-7.289 -3.058,-9.494 C 15.546,-2.17 12.586,-3.272 8.703,-3.272 4.866,-3.272 1.966,-2.182 0,0"
             style="fill:#355e85;fill-opacity:1;fill-rule:nonzero;stroke:none"
             id="path21311" /></g><g
           id="g21313"
           transform="translate(2204.2534,658.3666)"><path
             d="m 0,0 -39.651,-10.624 -10.624,39.65 39.651,10.624 z"
             style="fill:#ad5d49;fill-opacity:1;fill-rule:nonzero;stroke:none"
             id="path21315" /></g><g
           id="g21317"
           transform="translate(1972.5527,909.6079)"><path
             d="m 0,0 h -10.495 -41.049 -20.525 v -41.049 h 20.525 41.049 v -179.133 h -41.049 -20.525 v -41.05 H -51.544 -10.495 0 c 16.875,0 30.554,13.68 30.554,30.555 v 10.495 179.133 10.495 C 30.554,-13.68 16.875,0 0,0"
             style="fill:#355e85;fill-opacity:1;fill-rule:nonzero;stroke:none"
             id="path21319" /></g><path
           d="m 1901.455,648.376 h -41.049 v 261.232 h 41.049 z"
           style="fill:#ad5d49;fill-opacity:1;fill-rule:nonzero;stroke:none"
           id="path21321" /><g
           id="g21323"
           transform="translate(2143.3174,727.1809)"><path
             d="M 0,0 39.802,10.06 -6.384,182.427 h -42.42 l -69.934,-261.223 42.264,-0.643 10.287,38.39 h 38.626 V 0 h -27.627 l 27.616,103.064 z"
             style="fill:#355e85;fill-opacity:1;fill-rule:nonzero;stroke:none"
             id="path21325" /></g></g></g></g></svg>
