<?xml version="1.0" encoding="UTF-8" standalone="no"?>
<!-- Created with Inkscape (http://www.inkscape.org/) -->

<svg
   version="1.1"
   id="svg840"
   xml:space="preserve"
   width="800"
   height="400"
   viewBox="0 0 800 400.00001"
   sodipodi:docname="logo_guidelines.svg"
   inkscape:version="1.1.2 (0a00cf5339, 2022-02-04)"
   xmlns:inkscape="http://www.inkscape.org/namespaces/inkscape"
   xmlns:sodipodi="http://sodipodi.sourceforge.net/DTD/sodipodi-0.dtd"
   xmlns="http://www.w3.org/2000/svg"
   xmlns:svg="http://www.w3.org/2000/svg"><defs
     id="defs844"><clipPath
       clipPathUnits="userSpaceOnUse"
       id="clipPath898"><path
         d="M 0,1540 H 2720 V 0 H 0 Z"
         id="path896" /></clipPath></defs><sodipodi:namedview
     id="namedview842"
     pagecolor="#505050"
     bordercolor="#eeeeee"
     borderopacity="1"
     inkscape:pageshadow="0"
     inkscape:pageopacity="0"
     inkscape:pagecheckerboard="0"
     showgrid="false"
     showguides="true"
     inkscape:guide-bbox="true"
     inkscape:snap-page="false"
     scale-x="1"
     inkscape:zoom="2.5830194"
     inkscape:cx="233.06058"
     inkscape:cy="332.75011"
     inkscape:window-width="1536"
     inkscape:window-height="795"
     inkscape:window-x="0"
     inkscape:window-y="32"
     inkscape:window-maximized="1"
     inkscape:current-layer="text890-2" /><g
     id="g846"
     inkscape:groupmode="layer"
     inkscape:label="_prancheta_v7b"
     transform="matrix(1.3333333,0,0,-1.3333333,0,2053.3333)"><g
       id="g856"
       transform="matrix(0.55290979,0,0,0.50859112,-3.2699287,1467.4086)"><path
         d="M 0,0 H 1085.168"
         style="fill:none;stroke:#939393;stroke-width:1;stroke-linecap:butt;stroke-linejoin:miter;stroke-miterlimit:10;stroke-dasharray:none;stroke-opacity:1"
         id="path858" /></g><g
       id="g860"
       transform="matrix(0.50396717,0,0,0.50396717,460.64034,1533.653)"><path
         d="M 0,0 -150.547,-561.848"
         style="fill:none;stroke:#939393;stroke-width:1;stroke-linecap:butt;stroke-linejoin:miter;stroke-miterlimit:10;stroke-dasharray:none;stroke-opacity:1"
         id="path862" /></g><g
       id="g864"
       transform="matrix(0.50396717,0,0,0.50396717,484.87542,1520.1578)"><path
         d="M 0,0 -143.371,-535.07"
         style="fill:none;stroke:#939393;stroke-width:1;stroke-linecap:butt;stroke-linejoin:miter;stroke-miterlimit:10;stroke-dasharray:none;stroke-opacity:1"
         id="path866" /></g><g
       id="g868"
       transform="matrix(0.50396717,0,0,0.50396717,396.50926,1500.1951)"><path
         d="M 0,0 V -495.459"
         style="fill:none;stroke:#939393;stroke-width:1;stroke-linecap:butt;stroke-linejoin:miter;stroke-miterlimit:10;stroke-dasharray:none;stroke-opacity:1"
         id="path870" /></g><g
       id="g872"
       transform="matrix(0.50396717,0,0,0.50396717,456.7731,1486.9487)"><path
         d="M 0,0 V -469.174"
         style="fill:none;stroke:#939393;stroke-width:1;stroke-linecap:butt;stroke-linejoin:miter;stroke-miterlimit:10;stroke-dasharray:none;stroke-opacity:1"
         id="path874" /></g><g
       id="g876"
       transform="matrix(0.50396717,0,0,0.50396717,437.77772,1486.0074)"><path
         d="M 0,0 125.214,-467.307"
         style="fill:none;stroke:#939393;stroke-width:1;stroke-linecap:butt;stroke-linejoin:miter;stroke-miterlimit:10;stroke-dasharray:none;stroke-opacity:1"
         id="path878" /></g><g
       id="g880"
       transform="matrix(0.50396717,0,0,0.50396717,465.08539,1488.5375)"><path
         d="M 0,0 126.56,-472.327"
         style="fill:none;stroke:#939393;stroke-width:1;stroke-linecap:butt;stroke-linejoin:miter;stroke-miterlimit:10;stroke-dasharray:none;stroke-opacity:1"
         id="path882" /></g><g
       id="g884"
       transform="matrix(0.55185182,0,0,0.50396717,-3.2699287,1295.7975)"><path
         d="M 0,0 H 1085.168"
         style="fill:none;stroke:#939393;stroke-width:1;stroke-linecap:butt;stroke-linejoin:miter;stroke-miterlimit:10;stroke-dasharray:none;stroke-opacity:1"
         id="path886" /></g><g
       aria-label="font: fobebas neue regular"
       transform="matrix(1,0,0,-1,3.4589165,-10.93479)"
       id="text890-2"
       style="font-size:18.9432px;font-family:'Bebas Neue';-inkscape-font-specification:BebasNeue-Regular;fill:#cccccc;stroke-width:0.503967;fill-opacity:1"><path
         d="m 73.064765,-1300.0447 h 5.512471 v 1.8944 h -3.42872 v 3.6939 h 2.689935 v 1.8943 h -2.689935 v 5.7777 h -2.083751 z"
         id="path20203"
         style="fill:#cccccc;fill-opacity:1" /><path
         d="m 82.593191,-1286.595 q -1.534399,0 -2.348956,-0.8714 -0.814558,-0.8714 -0.814558,-2.4626 v -6.9711 q 0,-1.5912 0.814558,-2.4626 0.814557,-0.8714 2.348956,-0.8714 1.534399,0 2.348957,0.8714 0.814558,0.8714 0.814558,2.4626 v 6.9711 q 0,1.5912 -0.814558,2.4626 -0.814558,0.8714 -2.348957,0.8714 z m 0,-1.8943 q 1.079763,0 1.079763,-1.3071 v -7.2363 q 0,-1.3071 -1.079763,-1.3071 -1.079762,0 -1.079762,1.3071 v 7.2363 q 0,1.3071 1.079762,1.3071 z"
         id="path20205"
         style="fill:#cccccc;fill-opacity:1" /><path
         d="m 87.158496,-1300.0447 h 2.614161 l 2.026922,7.9372 h 0.03789 v -7.9372 h 1.856433 v 13.2603 h -2.140581 l -2.500503,-9.68 h -0.03789 v 9.68 h -1.856433 z"
         id="path20207"
         style="fill:#cccccc;fill-opacity:1" /><path
         d="m 96.876321,-1298.1503 h -2.178467 v -1.8944 h 6.440686 v 1.8944 h -2.178468 v 11.3659 h -2.083751 z"
         id="path20209"
         style="fill:#cccccc;fill-opacity:1" /><path
         d="m 101.47945,-1296.0098 h 2.00798 v 2.008 h -2.00798 z m 0,7.2174 h 2.00798 v 2.008 h -2.00798 z"
         id="path20211"
         style="fill:#cccccc;fill-opacity:1" /><path
         d="m 122.16541,-1300.0447 h 3.14457 q 1.61017,0 2.34896,0.7578 0.73878,0.7387 0.73878,2.2921 v 0.5304 q 0,1.0229 -0.34098,1.667 -0.32203,0.6441 -1.00399,0.9282 v 0.038 q 1.55335,0.5304 1.55335,2.7657 v 1.1366 q 0,1.5344 -0.81456,2.349 -0.79561,0.7956 -2.34896,0.7956 h -3.27717 z m 2.89831,5.3988 q 0.62512,0 0.92822,-0.322 0.32203,-0.322 0.32203,-1.0798 v -0.7387 q 0,-0.7199 -0.2652,-1.0419 -0.24627,-0.322 -0.79562,-0.322 h -1.00399 v 3.5044 z m 0.37886,5.9672 q 0.54936,0 0.81456,-0.2842 0.26521,-0.3031 0.26521,-1.0229 v -1.1556 q 0,-0.9092 -0.32204,-1.2502 -0.30309,-0.3599 -1.02293,-0.3599 h -0.92822 v 4.0728 z"
         id="path20217"
         style="fill:#cccccc;fill-opacity:1" /><path
         d="m 129.81845,-1300.0447 h 5.68296 v 1.8944 h -3.59921 v 3.5044 h 2.86042 v 1.8944 h -2.86042 v 4.0728 h 3.59921 v 1.8943 h -5.68296 z"
         id="path20219"
         style="fill:#cccccc;fill-opacity:1" /><path
         d="m 136.69481,-1300.0447 h 3.14457 q 1.61017,0 2.34896,0.7578 0.73878,0.7387 0.73878,2.2921 v 0.5304 q 0,1.0229 -0.34098,1.667 -0.32203,0.6441 -1.00399,0.9282 v 0.038 q 1.55335,0.5304 1.55335,2.7657 v 1.1366 q 0,1.5344 -0.81456,2.349 -0.79561,0.7956 -2.34896,0.7956 h -3.27717 z m 2.89831,5.3988 q 0.62512,0 0.92822,-0.322 0.32203,-0.322 0.32203,-1.0798 v -0.7387 q 0,-0.7199 -0.2652,-1.0419 -0.24627,-0.322 -0.79562,-0.322 h -1.00399 v 3.5044 z m 0.37886,5.9672 q 0.54936,0 0.81456,-0.2842 0.26521,-0.3031 0.26521,-1.0229 v -1.1556 q 0,-0.9092 -0.32204,-1.2502 -0.30309,-0.3599 -1.02293,-0.3599 h -0.92822 v 4.0728 z"
         id="path20221"
         style="fill:#cccccc;fill-opacity:1" /><path
         d="m 145.95802,-1300.0447 h 2.82254 l 2.15952,13.2603 h -2.08375 l -0.37886,-2.6331 v 0.038 h -2.3679 l -0.37887,2.5952 h -1.9322 z m 2.27319,8.8655 -0.92822,-6.5544 h -0.0379 l -0.90927,6.5544 z"
         id="path20223"
         style="fill:#cccccc;fill-opacity:1" /><path
         d="m 154.5961,-1286.595 q -1.51546,0 -2.29213,-0.8524 -0.77667,-0.8714 -0.77667,-2.4816 v -0.7577 h 1.97009 v 0.9092 q 0,1.2882 1.07976,1.2882 0.53041,0 0.79562,-0.3031 0.28415,-0.322 0.28415,-1.0229 0,-0.8335 -0.37887,-1.4587 -0.37886,-0.644 -1.4018,-1.5344 -1.28813,-1.1366 -1.7996,-2.0458 -0.51147,-0.9282 -0.51147,-2.0838 0,-1.5723 0.79562,-2.4247 0.79561,-0.8714 2.31107,-0.8714 1.49651,0 2.25424,0.8714 0.77667,0.8524 0.77667,2.4626 v 0.5494 h -1.97009 v -0.682 q 0,-0.682 -0.26521,-0.985 -0.2652,-0.3221 -0.77667,-0.3221 -1.04187,0 -1.04187,1.2692 0,0.7199 0.37886,1.345 0.39781,0.6251 1.42074,1.5154 1.30708,1.1366 1.7996,2.0648 0.49253,0.9283 0.49253,2.1785 0,1.6291 -0.81456,2.5005 -0.79561,0.8714 -2.33001,0.8714 z"
         id="path20225"
         style="fill:#cccccc;fill-opacity:1" /><path
         d="m 161.96499,-1300.0447 h 2.61416 l 2.02693,7.9372 h 0.0379 v -7.9372 h 1.85644 v 13.2603 h -2.14058 l -2.50051,-9.68 h -0.0379 v 9.68 h -1.85644 z"
         id="path20227"
         style="fill:#cccccc;fill-opacity:1" /><path
         d="m 170.05371,-1300.0447 h 5.68296 v 1.8944 h -3.59921 v 3.5044 h 2.86042 v 1.8944 h -2.86042 v 4.0728 h 3.59921 v 1.8943 h -5.68296 z"
         id="path20229"
         style="fill:#cccccc;fill-opacity:1" /><path
         d="m 179.96098,-1286.595 q -1.51546,0 -2.31107,-0.8524 -0.79562,-0.8714 -0.79562,-2.4816 v -10.1157 h 2.08375 v 10.2672 q 0,0.682 0.26521,0.9851 0.28415,0.3031 0.79561,0.3031 0.51147,0 0.77668,-0.3031 0.28414,-0.3031 0.28414,-0.9851 v -10.2672 h 2.00798 v 10.1157 q 0,1.6102 -0.79561,2.4816 -0.79562,0.8524 -2.31107,0.8524 z"
         id="path20231"
         style="fill:#cccccc;fill-opacity:1" /><path
         d="m 184.54521,-1300.0447 h 5.68296 v 1.8944 h -3.59921 v 3.5044 h 2.86042 v 1.8944 h -2.86042 v 4.0728 h 3.59921 v 1.8943 h -5.68296 z"
         id="path20233"
         style="fill:#cccccc;fill-opacity:1" /><path
         d="m 194.45247,-1300.0447 h 3.08774 q 1.61018,0 2.34896,0.7578 0.73879,0.7387 0.73879,2.2921 v 0.8145 q 0,2.0649 -1.36391,2.6142 v 0.038 q 0.75772,0.2273 1.06081,0.9282 0.32204,0.7009 0.32204,1.8754 v 2.33 q 0,0.5683 0.0379,0.9282 0.0379,0.341 0.18943,0.682 h -2.12164 q -0.11366,-0.3221 -0.15155,-0.6062 -0.0379,-0.2842 -0.0379,-1.0229 v -2.4248 q 0,-0.9092 -0.30309,-1.2692 -0.28415,-0.3599 -1.00399,-0.3599 h -0.71984 v 5.683 h -2.08376 z m 2.84148,5.683 q 0.62513,0 0.92822,-0.322 0.32203,-0.3221 0.32203,-1.0798 v -1.0229 q 0,-0.7199 -0.2652,-1.0419 -0.24626,-0.322 -0.79561,-0.322 h -0.94716 v 3.7886 z"
         id="path20235"
         style="fill:#cccccc;fill-opacity:1" /><path
         d="m 202.08658,-1300.0447 h 5.68296 v 1.8944 h -3.59921 v 3.5044 h 2.86043 v 1.8944 h -2.86043 v 4.0728 h 3.59921 v 1.8943 h -5.68296 z"
         id="path20237"
         style="fill:#cccccc;fill-opacity:1" /><path
         d="m 211.91808,-1286.595 q -1.51546,0 -2.31107,-0.8524 -0.79561,-0.8714 -0.79561,-2.4816 v -6.9711 q 0,-1.6102 0.79561,-2.4626 0.79561,-0.8714 2.31107,-0.8714 1.51546,0 2.31107,0.8714 0.79561,0.8524 0.79561,2.4626 v 1.1366 h -1.97009 v -1.2692 q 0,-1.3071 -1.07976,-1.3071 -1.07976,0 -1.07976,1.3071 v 7.2552 q 0,1.2882 1.07976,1.2882 1.07976,0 1.07976,-1.2882 v -2.5952 h -1.04187 v -1.8943 h 3.01196 v 4.338 q 0,1.6102 -0.79561,2.4816 -0.79561,0.8524 -2.31107,0.8524 z"
         id="path20239"
         style="fill:#cccccc;fill-opacity:1" /><path
         d="m 219.40062,-1286.595 q -1.51545,0 -2.31107,-0.8524 -0.79561,-0.8714 -0.79561,-2.4816 v -10.1157 h 2.08375 v 10.2672 q 0,0.682 0.2652,0.9851 0.28415,0.3031 0.79562,0.3031 0.51146,0 0.77667,-0.3031 0.28415,-0.3031 0.28415,-0.9851 v -10.2672 h 2.00798 v 10.1157 q 0,1.6102 -0.79562,2.4816 -0.79561,0.8524 -2.31107,0.8524 z"
         id="path20241"
         style="fill:#cccccc;fill-opacity:1" /><path
         d="m 223.98485,-1300.0447 h 2.08375 v 11.366 h 3.42872 v 1.8943 h -5.51247 z"
         id="path20243"
         style="fill:#cccccc;fill-opacity:1" /><path
         d="m 232.18725,-1300.0447 h 2.82254 l 2.15952,13.2603 h -2.08375 l -0.37887,-2.6331 v 0.038 h -2.3679 l -0.37886,2.5952 h -1.93221 z m 2.27318,8.8655 -0.92821,-6.5544 h -0.0379 l -0.90927,6.5544 z"
         id="path20245"
         style="fill:#cccccc;fill-opacity:1" /><path
         d="m 238.17328,-1300.0447 h 3.08774 q 1.61018,0 2.34896,0.7578 0.73879,0.7387 0.73879,2.2921 v 0.8145 q 0,2.0649 -1.36391,2.6142 v 0.038 q 0.75772,0.2273 1.06081,0.9282 0.32204,0.7009 0.32204,1.8754 v 2.33 q 0,0.5683 0.0379,0.9282 0.0379,0.341 0.18943,0.682 h -2.12164 q -0.11366,-0.3221 -0.15155,-0.6062 -0.0379,-0.2842 -0.0379,-1.0229 v -2.4248 q 0,-0.9092 -0.30309,-1.2692 -0.28415,-0.3599 -1.00399,-0.3599 h -0.71984 v 5.683 h -2.08376 z m 2.84148,5.683 q 0.62513,0 0.92822,-0.322 0.32203,-0.3221 0.32203,-1.0798 v -1.0229 q 0,-0.7199 -0.2652,-1.0419 -0.24626,-0.322 -0.79562,-0.322 h -0.94715 v 3.7886 z"
         id="path20247"
         style="fill:#cccccc;fill-opacity:1" /></g><g
       id="g900"
       transform="matrix(0.50396717,0,0,0.50396717,117.34028,1320.3086)"
       style="fill:#cccccc;fill-opacity:1"><path
         d="m 0,0 c 8.757,0 15.483,2.592 20.185,7.783 4.697,5.182 7.055,13.618 7.055,25.292 v 177.037 c 0,11.672 -2.358,20.1 -7.055,25.292 C 15.483,240.585 8.757,243.185 0,243.185 H -27.236 V 0 Z M -80.735,291.821 H 0.974 c 26.585,0 46.523,-7.134 59.822,-21.399 C 74.089,256.15 80.738,235.236 80.738,207.68 V 35.505 c 0,-27.562 -6.649,-48.476 -19.942,-62.741 -13.299,-14.272 -33.237,-21.4 -59.822,-21.4 h -81.709 z"
         style="fill:#cccccc;fill-opacity:1;fill-rule:nonzero;stroke:none"
         id="path902" /></g><path
       d="M 103.61382,1404.368 H 76.652083 v 26.9618 h 26.961737 z"
       style="fill:#79b78b;fill-opacity:1;fill-rule:nonzero;stroke:none;stroke-width:0.503967"
       id="path904" /><path
       d="M 316.01784,1480.5941 H 289.0561 v 26.9612 h 26.96174 z"
       style="fill:#cccccc;fill-opacity:1;fill-rule:nonzero;stroke:none;stroke-width:0.503967"
       id="path906" /><g
       id="g908"
       transform="matrix(0.50396717,0,0,0.50396717,477.11896,1491.045)"
       style="fill:#cccccc;fill-opacity:1"><path
         d="M 0,0 -51.676,13.846 -37.829,65.522 13.846,51.676 Z"
         style="fill:#cccccc;fill-opacity:1;fill-rule:nonzero;stroke:none"
         id="path910" /></g><path
       d="m 328.86094,1440.4158 h -13.48062 v 26.9617 h 13.48062 z"
       style="fill:#5b9970;fill-opacity:1;fill-rule:nonzero;stroke:none;stroke-width:0.503967"
       id="path912" /><path
       d="m 396.26453,1352.3425 h -13.48061 v 13.4806 h 13.48061 z"
       style="fill:#cccccc;fill-opacity:1;fill-rule:nonzero;stroke:none;stroke-width:0.503967"
       id="path914" /><path
       d="m 456.77335,1320.5956 h -38.5681 v 26.9617 h 38.5681 z"
       style="fill:#5b9970;fill-opacity:1;fill-rule:nonzero;stroke:none;stroke-width:0.503967"
       id="path916" /><g
       id="g918"
       transform="matrix(0.50396717,0,0,0.50396717,525.94138,1261.1474)"
       style="fill:#cccccc;fill-opacity:1"><path
         d="m 0,0 -51.676,-13.846 -13.846,51.675 51.676,13.847 z"
         style="fill:#cccccc;fill-opacity:1;fill-rule:nonzero;stroke:none"
         id="path920" /></g><g
       id="g922"
       transform="matrix(0.50396717,0,0,0.50396717,514.89866,1302.3593)"><path
         d="m 0,0 -51.676,-13.846 -13.846,51.675 51.676,13.847 z"
         style="fill:#79b78b;fill-opacity:1;fill-rule:nonzero;stroke:none"
         id="path924" /></g><g
       id="g926"
       transform="matrix(0.50396717,0,0,0.50396717,507.89634,1328.4925)"
       style="fill:#cccccc;fill-opacity:1"><path
         d="m 0,0 -51.676,-13.846 -13.846,51.675 51.676,13.847 z"
         style="fill:#cccccc;fill-opacity:1;fill-rule:nonzero;stroke:none"
         id="path928" /></g><path
       d="m 328.86094,1295.7974 h -13.48062 v 26.9617 h 13.48062 z"
       style="fill:#5b9970;fill-opacity:1;fill-rule:nonzero;stroke:none;stroke-width:0.503967"
       id="path930" /><path
       d="m 355.82218,1440.4158 h -26.96174 v 26.9617 h 26.96174 z"
       style="fill:#5b9970;fill-opacity:1;fill-rule:nonzero;stroke:none;stroke-width:0.503967"
       id="path932" /><path
       d="m 355.82218,1295.7974 h -26.96174 v 26.9617 h 26.96174 z"
       style="fill:#5b9970;fill-opacity:1;fill-rule:nonzero;stroke:none;stroke-width:0.503967"
       id="path934" /><g
       id="g936"
       transform="matrix(0.50396717,0,0,0.50396717,367.3855,1295.7976)"><path
         d="M 0,0 H -22.944 V 53.499 H 30.554 V 30.554 C 30.554,13.68 16.875,0 0,0"
         style="fill:#5b9970;fill-opacity:1;fill-rule:nonzero;stroke:none"
         id="path938" /></g><g
       id="g940"
       transform="matrix(0.50396717,0,0,0.50396717,382.78387,1440.4156)"><path
         d="m 0,0 h -53.499 v 53.499 h 22.945 C -13.68,53.499 0,39.819 0,22.944 Z"
         style="fill:#5b9970;fill-opacity:1;fill-rule:nonzero;stroke:none"
         id="path942" /></g><path
       d="m 382.78392,1322.7591 h -26.96174 v 117.6567 h 26.96174 z"
       style="fill:#5b9970;fill-opacity:1;fill-rule:nonzero;stroke:none;stroke-width:0.503967"
       id="path944" /><path
       d="M 316.01784,1295.7974 H 289.0561 v 171.5796 h 26.96174 z"
       style="fill:#79b78b;fill-opacity:1;fill-rule:nonzero;stroke:none;stroke-width:0.503967"
       id="path946" /><g
       id="g948"
       transform="matrix(0.50396717,0,0,0.50396717,396.88698,1295.803)"><path
         d="M 0,0 91.143,340.447 142.819,326.6 55.082,-0.837 Z"
         style="fill:#5b9970;fill-opacity:1;fill-rule:nonzero;stroke:none"
         id="path950" /></g><g
       id="g952"
       transform="matrix(0.50396717,0,0,0.50396717,474.87535,1347.5572)"><path
         d="M 0,0 -63.605,237.753 H -8.32 L 51.873,13.112 Z"
         style="fill:#5b9970;fill-opacity:1;fill-rule:nonzero;stroke:none"
         id="path954" /></g></g></svg>
