<?xml version="1.0" encoding="UTF-8" standalone="no"?>
<!-- Created with Inkscape (http://www.inkscape.org/) -->

<svg
   version="1.1"
   id="svg25"
   xml:space="preserve"
   width="2533.3333"
   height="800"
   viewBox="0 0 2533.3333 800"
   sodipodi:docname="indicadores_const.svg"
   inkscape:version="1.1.2 (0a00cf5339, 2022-02-04)"
   xmlns:inkscape="http://www.inkscape.org/namespaces/inkscape"
   xmlns:sodipodi="http://sodipodi.sourceforge.net/DTD/sodipodi-0.dtd"
   xmlns="http://www.w3.org/2000/svg"
   xmlns:svg="http://www.w3.org/2000/svg"><defs
     id="defs29"><clipPath
       clipPathUnits="userSpaceOnUse"
       id="clipPath55"><path
         d="M 0,600 H 1900 V 0 H 0 Z"
         id="path53" /></clipPath><clipPath
       clipPathUnits="userSpaceOnUse"
       id="clipPath97"><path
         d="M 0,600 H 1900 V 0 H 0 Z"
         id="path95" /></clipPath></defs><sodipodi:namedview
     id="namedview27"
     pagecolor="#505050"
     bordercolor="#eeeeee"
     borderopacity="1"
     inkscape:pageshadow="0"
     inkscape:pageopacity="0"
     inkscape:pagecheckerboard="0"
     showgrid="false"
     inkscape:zoom="0.384908"
     inkscape:cx="1262.6394"
     inkscape:cy="401.39461"
     inkscape:window-width="1536"
     inkscape:window-height="795"
     inkscape:window-x="0"
     inkscape:window-y="32"
     inkscape:window-maximized="1"
     inkscape:current-layer="g31" /><g
     id="g31"
     inkscape:groupmode="layer"
     inkscape:label="indicadores"
     transform="matrix(1.3333333,0,0,-1.3333333,0,800)"><g
       id="g37"
       transform="translate(455.4312,215.7215)"><path
         d="M 0,0 H 923.743"
         style="fill:none;stroke:#6e7e84;stroke-width:1;stroke-linecap:butt;stroke-linejoin:miter;stroke-miterlimit:10;stroke-dasharray:none;stroke-opacity:1"
         id="path39" /></g><g
       id="g41"
       transform="translate(455.4312,45.6427)"><path
         d="M 0,0 H 923.743"
         style="fill:none;stroke:#6e7e84;stroke-width:1;stroke-linecap:butt;stroke-linejoin:miter;stroke-miterlimit:10;stroke-dasharray:none;stroke-opacity:1"
         id="path43" /></g><g
       id="g45"
       transform="translate(117.0453,243.5319)"><path
         d="M 0,0 H 1724.389"
         style="fill:none;stroke:#6e7e84;stroke-width:1;stroke-linecap:butt;stroke-linejoin:miter;stroke-miterlimit:10;stroke-dasharray:none;stroke-opacity:1"
         id="path47" /></g><g
       id="g57"
       transform="translate(455.4312,187.375)"><path
         d="m 0,0 v 0 c -15.655,0 -28.346,12.691 -28.346,28.346 v 0 c 0,15.656 12.691,28.347 28.346,28.347 v 0 c 15.655,0 28.346,-12.691 28.346,-28.347 v 0 C 28.346,12.691 15.655,0 0,0 Z"
         style="fill:none;stroke:#6e7e84;stroke-width:1;stroke-linecap:butt;stroke-linejoin:miter;stroke-miterlimit:10;stroke-dasharray:none;stroke-opacity:1"
         id="path59" /></g><g
       id="g61"
       transform="translate(455.4312,45.6427)"><path
         d="m 0,0 v 0 c -15.655,0 -28.346,12.691 -28.346,28.346 v 113.386 c 0,15.656 12.691,28.347 28.346,28.347 v 0 c 15.655,0 28.346,-12.691 28.346,-28.347 V 28.346 C 28.346,12.691 15.655,0 0,0 Z"
         style="fill:none;stroke:#6e7e84;stroke-width:1;stroke-linecap:butt;stroke-linejoin:miter;stroke-miterlimit:10;stroke-dasharray:none;stroke-opacity:1"
         id="path63" /></g><g
       id="g65"
       transform="translate(367.0423,108.9858)"><path
         d="m 0,0 c 7.95,-3.816 14.819,-11.39 14.819,-11.39 0,0 -5.892,-12.039 -16.085,-15.83"
         style="fill:none;stroke:#93a6ac;stroke-width:4;stroke-linecap:round;stroke-linejoin:miter;stroke-miterlimit:10;stroke-dasharray:none;stroke-opacity:1"
         id="path67" /></g><g
       id="g77"
       transform="translate(404.1057,226.8241)"><path
         d="m 0,0 c 7.448,-4.722 13.382,-13.049 13.382,-13.049 0,0 -7.263,-11.265 -17.83,-13.835"
         style="fill:none;stroke:#93a6ac;stroke-width:4;stroke-linecap:round;stroke-linejoin:miter;stroke-miterlimit:10;stroke-dasharray:none;stroke-opacity:1"
         id="path79" /></g><g
       id="g99"
       transform="translate(222.6387,492.6491)"><path
         d="M 0,0 C -77.504,-78.96 -14.425,-286.176 186.019,-279.209"
         style="fill:none;stroke:#93a6ac;stroke-width:4;stroke-linecap:round;stroke-linejoin:miter;stroke-miterlimit:10;stroke-dasharray:none;stroke-opacity:1"
         id="path101" /></g><g
       id="g111"
       transform="translate(146.4148,225.7141)"><path
         d="M 0,0 C 8.468,-92.081 85.573,-135.089 231.469,-128.913"
         style="fill:none;stroke:#93a6ac;stroke-width:4;stroke-linecap:round;stroke-linejoin:miter;stroke-miterlimit:10;stroke-dasharray:none;stroke-opacity:1"
         id="path113" /></g><g
       id="g115"
       transform="translate(944.7951,542.8617)"><path
         d="M 0,0 V 47"
         style="fill:none;stroke:#6e7e84;stroke-width:1;stroke-linecap:butt;stroke-linejoin:miter;stroke-miterlimit:10;stroke-dasharray:none;stroke-opacity:1"
         id="path117" /></g><path
       d="m 964.295,569.862 h -39 v 7 h 39 z"
       style="fill:#6e7e84;fill-opacity:1;fill-rule:nonzero;stroke:none"
       id="path119" /><path
       d="m 956.974,557.362 h -24.357 v 4.372 h 24.357 z"
       style="fill:#6e7e84;fill-opacity:1;fill-rule:nonzero;stroke:none"
       id="path121" /><g
       id="g123"
       transform="translate(68.9252,357.3314)"
       style="fill:#7cc78a;fill-opacity:1"><path
         d="m 0,0 v 0 c -15.655,0 -28.346,-12.691 -28.346,-28.346 v -56.693 c 0,-15.656 12.691,-28.347 28.346,-28.347 v 0 c 15.655,0 28.346,12.691 28.346,28.347 v 56.693 C 28.346,-12.691 15.655,0 0,0"
         style="fill:#7cc78a;fill-opacity:1;fill-rule:nonzero;stroke:none"
         id="path125" /></g><g
       id="g127"
       transform="translate(153.9646,243.9456)"
       style="fill:#7cc78a;fill-opacity:1"><path
         d="m 0,0 v 0 c -15.655,0 -28.346,12.691 -28.346,28.346 v 113.386 c 0,15.656 12.691,28.347 28.346,28.347 v 0 c 15.655,0 28.346,-12.691 28.346,-28.347 V 28.346 C 28.346,12.691 15.655,0 0,0"
         style="fill:#7cc78a;fill-opacity:1;fill-rule:nonzero;stroke:none"
         id="path129" /></g><g
       id="g131"
       transform="translate(239.0039,470.7172)"
       style="fill:#7cc78a;fill-opacity:1"><path
         d="m 0,0 v 0 c 15.655,0 28.346,-12.691 28.346,-28.346 v -170.079 c 0,-15.656 -12.691,-28.347 -28.346,-28.347 v 0 c -15.655,0 -28.346,12.691 -28.346,28.347 V -28.346 C -28.346,-12.691 -15.655,0 0,0"
         style="fill:#7cc78a;fill-opacity:1;fill-rule:nonzero;stroke:none"
         id="path133" /></g><g
       id="g135"
       transform="translate(239.004,499.0637)"
       style="fill:#7cc78a;fill-opacity:1"><path
         d="m 0,0 v 0 c -15.655,0 -28.346,12.691 -28.346,28.346 v 0 c 0,15.656 12.691,28.347 28.346,28.347 v 0 c 15.655,0 28.346,-12.691 28.346,-28.347 v 0 C 28.346,12.691 15.655,0 0,0"
         style="fill:#7cc78a;fill-opacity:1;fill-rule:nonzero;stroke:none"
         id="path137" /></g><g
       id="g139"
       transform="translate(304.3863,246.0612)"
       style="fill:#7cc78a;fill-opacity:1"><path
         d="m 0,0 v 163.953 h 30.024 c 3.023,0 5.552,-0.686 7.585,-2.055 2.033,-1.371 3.465,-3.426 4.3,-6.166 l 2.816,-9.486 c 3.127,2.949 6.357,5.691 9.695,8.221 3.335,2.53 6.905,4.664 10.712,6.403 3.805,1.739 7.922,3.108 12.353,4.111 4.431,1 9.251,1.502 14.466,1.502 8.86,0 16.705,-1.556 23.535,-4.664 6.827,-3.111 12.588,-7.431 17.28,-12.965 4.691,-5.534 8.234,-12.122 10.633,-19.762 2.398,-7.644 3.597,-15.945 3.597,-24.902 V 0 H 98.519 v 104.19 c 0,8.009 -1.826,14.254 -5.473,18.736 -3.65,4.478 -9.02,6.719 -16.108,6.719 -5.317,0 -10.321,-1.162 -15.012,-3.478 -4.692,-2.32 -9.175,-5.431 -13.448,-9.328 V 0 Z"
         style="fill:#7cc78a;fill-opacity:1;fill-rule:nonzero;stroke:none"
         id="path141" /></g><g
       id="g143"
       transform="translate(550.5229,281.1598)"
       style="fill:#7cc78a;fill-opacity:1"><path
         d="m 0,0 c 3.543,0 6.748,0.341 9.617,1.028 2.866,0.684 5.497,1.66 7.897,2.925 2.397,1.265 4.665,2.846 6.802,4.743 2.136,1.898 4.247,4.111 6.334,6.64 v 69.566 c -3.754,4.111 -7.741,6.981 -11.963,8.617 -4.222,1.632 -8.679,2.45 -13.371,2.45 -4.483,0 -8.6,-0.897 -12.353,-2.688 -3.753,-1.793 -7.013,-4.664 -9.775,-8.616 -2.762,-3.953 -4.925,-9.091 -6.489,-15.415 -1.563,-6.324 -2.345,-13.968 -2.345,-22.926 0,-8.643 0.625,-15.916 1.876,-21.817 1.251,-5.904 2.996,-10.673 5.239,-14.309 2.24,-3.636 4.926,-6.245 8.053,-7.826 C -7.351,0.791 -3.858,0 0,0 m 49.103,-35.099 c -3.025,0 -5.551,0.685 -7.584,2.056 -2.034,1.368 -3.468,3.424 -4.301,6.166 l -3.753,12.49 c -3.233,-3.478 -6.622,-6.64 -10.165,-9.486 -3.545,-2.846 -7.376,-5.297 -11.493,-7.353 -4.12,-2.054 -8.55,-3.635 -13.293,-4.742 -4.745,-1.107 -9.878,-1.66 -15.404,-1.66 -8.444,0 -16.262,1.897 -23.456,5.691 -7.194,3.795 -13.397,9.274 -18.609,16.443 -5.215,7.167 -9.305,15.941 -12.276,26.324 -2.971,10.381 -4.456,22.214 -4.456,35.494 0,12.227 1.666,23.583 5.003,34.072 3.335,10.487 8.054,19.55 14.153,27.194 6.098,7.64 13.422,13.621 21.97,17.945 8.548,4.32 17.985,6.482 28.305,6.482 8.34,0 15.403,-1.241 21.19,-3.716 5.786,-2.477 11.025,-5.718 15.716,-9.723 v 83.004 H 79.128 V -35.099 Z"
         style="fill:#7cc78a;fill-opacity:1;fill-rule:nonzero;stroke:none"
         id="path145" /></g><path
       d="M 717.218,246.061 H 668.74 v 163.953 h 48.478 z m 5.63,208.855 c 0,-3.901 -0.782,-7.564 -2.346,-10.988 -1.563,-3.427 -3.702,-6.431 -6.411,-9.012 -2.713,-2.584 -5.864,-4.64 -9.461,-6.166 -3.596,-1.53 -7.428,-2.293 -11.494,-2.293 -3.964,0 -7.663,0.763 -11.103,2.293 -3.44,1.526 -6.49,3.582 -9.148,6.166 -2.659,2.581 -4.745,5.585 -6.256,9.012 -1.511,3.424 -2.267,7.087 -2.267,10.988 0,4.004 0.756,7.747 2.267,11.225 1.511,3.478 3.597,6.534 6.256,9.17 2.658,2.633 5.708,4.689 9.148,6.166 3.44,1.475 7.139,2.214 11.103,2.214 4.066,0 7.898,-0.739 11.494,-2.214 3.597,-1.477 6.748,-3.533 9.461,-6.166 2.709,-2.636 4.848,-5.692 6.411,-9.17 1.564,-3.478 2.346,-7.221 2.346,-11.225"
       style="fill:#7cc78a;fill-opacity:1;fill-rule:nonzero;stroke:none"
       id="path147" /><g
       id="g149"
       transform="translate(873.2817,371.1207)"
       style="fill:#7cc78a;fill-opacity:1"><path
         d="m 0,0 c -1.461,-1.793 -2.869,-3.216 -4.223,-4.269 -1.355,-1.054 -3.284,-1.581 -5.786,-1.581 -2.399,0 -4.561,0.579 -6.489,1.74 -1.931,1.158 -4.093,2.45 -6.49,3.873 -2.4,1.424 -5.214,2.713 -8.445,3.874 -3.232,1.158 -7.247,1.739 -12.041,1.739 -5.942,0 -11.078,-1.106 -15.403,-3.32 -4.327,-2.214 -7.897,-5.376 -10.712,-9.487 -2.814,-4.11 -4.901,-9.145 -6.255,-15.098 -1.356,-5.956 -2.033,-12.676 -2.033,-20.159 0,-15.707 2.995,-27.774 8.992,-36.206 5.993,-8.433 14.255,-12.648 24.786,-12.648 5.629,0 10.086,0.712 13.37,2.135 3.285,1.423 6.072,3.004 8.367,4.743 2.292,1.739 4.403,3.345 6.333,4.822 1.927,1.475 4.351,2.213 7.271,2.213 3.857,0 6.777,-1.423 8.758,-4.268 l 14.074,-17.55 c -5.004,-5.798 -10.269,-10.514 -15.795,-14.15 -5.526,-3.636 -11.18,-6.482 -16.966,-8.538 -5.787,-2.055 -11.599,-3.478 -17.437,-4.268 -5.84,-0.791 -11.521,-1.186 -17.045,-1.186 -9.906,0 -19.367,1.897 -28.383,5.692 -9.018,3.794 -16.942,9.3 -23.769,16.521 -6.83,7.219 -12.252,16.1 -16.264,26.641 -4.015,10.539 -6.02,22.554 -6.02,36.047 0,11.804 1.744,22.846 5.238,33.123 3.492,10.277 8.652,19.182 15.481,26.719 6.827,7.534 15.272,13.464 25.334,17.787 10.06,4.321 21.71,6.482 34.95,6.482 12.719,0 23.873,-2.055 33.466,-6.166 9.59,-4.111 18.242,-10.118 25.959,-18.024 z"
         style="fill:#7cc78a;fill-opacity:1;fill-rule:nonzero;stroke:none"
         id="path151" /></g><g
       id="g153"
       transform="translate(964.605,275.943)"
       style="fill:#7cc78a;fill-opacity:1"><path
         d="m 0,0 c 6.255,0 11.728,1.106 16.419,3.32 4.691,2.213 9.435,5.795 14.23,10.751 v 22.45 c -9.695,0 -17.67,-0.639 -23.925,-1.914 -6.255,-1.275 -11.208,-2.871 -14.856,-4.785 -3.65,-1.915 -6.178,-4.093 -7.585,-6.539 -1.407,-2.446 -2.111,-5.101 -2.111,-7.971 0,-5.638 1.511,-9.598 4.535,-11.883 C -10.271,1.141 -5.84,0 0,0 m 55.671,-29.882 c -4.589,0 -8.054,0.633 -10.4,1.898 -2.345,1.264 -4.3,3.898 -5.864,7.905 l -3.44,9.012 c -4.067,-3.479 -7.976,-6.537 -11.729,-9.17 -3.753,-2.636 -7.637,-4.877 -11.65,-6.72 -4.015,-1.846 -8.288,-3.214 -12.823,-4.11 -4.536,-0.895 -9.566,-1.344 -15.09,-1.344 -7.404,0 -14.128,0.977 -20.174,2.934 -6.047,1.957 -11.181,4.837 -15.403,8.644 -4.222,3.807 -7.482,8.54 -9.774,14.197 -2.294,5.657 -3.44,12.187 -3.44,19.588 0,5.815 1.459,11.791 4.379,17.925 2.917,6.131 7.975,11.709 15.169,16.734 7.193,5.023 16.888,9.224 29.086,12.609 12.198,3.384 27.574,5.077 46.131,5.077 v 7.02 c 0,9.679 -1.954,16.675 -5.864,20.984 -3.909,4.307 -9.461,6.462 -16.654,6.462 -5.735,0 -10.426,-0.632 -14.074,-1.897 -3.651,-1.265 -6.908,-2.688 -9.774,-4.269 -2.868,-1.581 -5.656,-3.004 -8.366,-4.269 -2.712,-1.265 -5.942,-1.897 -9.695,-1.897 -3.338,0 -6.177,0.815 -8.523,2.451 -2.345,1.633 -4.198,3.661 -5.552,6.087 l -8.756,15.336 c 9.797,8.747 20.666,15.257 32.604,19.525 11.937,4.269 24.733,6.403 38.392,6.403 9.798,0 18.633,-1.608 26.506,-4.822 7.87,-3.216 14.543,-7.695 20.016,-13.438 5.474,-5.746 9.669,-12.57 12.589,-20.475 2.917,-7.905 4.378,-16.549 4.378,-25.929 V -29.882 Z"
         style="fill:#7cc78a;fill-opacity:1;fill-rule:nonzero;stroke:none"
         id="path155" /></g><g
       id="g157"
       transform="translate(1141.6216,281.1598)"
       style="fill:#7cc78a;fill-opacity:1"><path
         d="m 0,0 c 3.543,0 6.748,0.341 9.617,1.028 2.866,0.684 5.497,1.66 7.897,2.925 2.397,1.265 4.665,2.846 6.802,4.743 2.136,1.898 4.247,4.111 6.334,6.64 v 69.566 c -3.754,4.111 -7.741,6.981 -11.963,8.617 -4.222,1.632 -8.679,2.45 -13.371,2.45 -4.483,0 -8.6,-0.897 -12.353,-2.688 -3.753,-1.793 -7.013,-4.664 -9.775,-8.616 -2.762,-3.953 -4.925,-9.091 -6.489,-15.415 -1.563,-6.324 -2.345,-13.968 -2.345,-22.926 0,-8.643 0.625,-15.916 1.876,-21.817 1.251,-5.904 2.996,-10.673 5.239,-14.309 2.24,-3.636 4.926,-6.245 8.053,-7.826 C -7.351,0.791 -3.858,0 0,0 m 49.103,-35.099 c -3.025,0 -5.551,0.685 -7.584,2.056 -2.034,1.368 -3.468,3.424 -4.301,6.166 l -3.753,12.49 c -3.233,-3.478 -6.622,-6.64 -10.165,-9.486 -3.545,-2.846 -7.376,-5.297 -11.493,-7.353 -4.12,-2.054 -8.55,-3.635 -13.293,-4.742 -4.745,-1.107 -9.878,-1.66 -15.404,-1.66 -8.444,0 -16.262,1.897 -23.456,5.691 -7.194,3.795 -13.397,9.274 -18.609,16.443 -5.215,7.167 -9.305,15.941 -12.276,26.324 -2.971,10.381 -4.457,22.214 -4.457,35.494 0,12.227 1.667,23.583 5.004,34.072 3.335,10.487 8.054,19.55 14.153,27.194 6.098,7.64 13.422,13.621 21.97,17.945 8.548,4.32 17.985,6.482 28.305,6.482 8.34,0 15.403,-1.241 21.19,-3.716 5.786,-2.477 11.025,-5.718 15.716,-9.723 v 83.004 H 79.128 V -35.099 Z"
         style="fill:#7cc78a;fill-opacity:1;fill-rule:nonzero;stroke:none"
         id="path159" /></g><g
       id="g161"
       transform="translate(1330.5239,279.8951)"
       style="fill:#7cc78a;fill-opacity:1"><path
         d="m 0,0 c 11.154,0 19.364,3.978 24.63,11.937 5.263,7.957 7.897,20.052 7.897,36.285 0,16.23 -2.634,28.3 -7.897,36.206 C 19.364,92.333 11.154,96.285 0,96.285 c -11.47,0 -19.86,-3.952 -25.177,-11.857 -5.317,-7.906 -7.975,-19.976 -7.975,-36.206 0,-16.233 2.658,-28.328 7.975,-36.285 C -19.86,3.978 -11.47,0 0,0 m 0,132.649 c 12.3,0 23.508,-1.952 33.621,-5.85 10.111,-3.901 18.79,-9.486 26.037,-16.759 7.245,-7.272 12.875,-16.102 16.89,-26.482 4.012,-10.383 6.02,-22.056 6.02,-35.02 0,-13.071 -2.008,-24.85 -6.02,-35.336 C 72.533,2.713 66.903,-6.193 59.658,-13.518 52.411,-20.845 43.732,-26.482 33.621,-30.435 23.508,-34.388 12.3,-36.363 0,-36.363 c -12.407,0 -23.691,1.975 -33.856,5.928 -10.165,3.953 -18.922,9.59 -26.272,16.917 -7.35,7.325 -13.033,16.231 -17.045,26.72 -4.015,10.486 -6.02,22.265 -6.02,35.336 0,12.964 2.005,24.637 6.02,35.02 4.012,10.38 9.695,19.21 17.045,26.482 7.35,7.273 16.107,12.858 26.272,16.759 10.165,3.898 21.449,5.85 33.856,5.85"
         style="fill:#7cc78a;fill-opacity:1;fill-rule:nonzero;stroke:none"
         id="path163" /></g><g
       id="g165"
       transform="translate(1439.6724,246.0612)"
       style="fill:#7cc78a;fill-opacity:1"><path
         d="m 0,0 v 163.953 h 28.773 c 2.398,0 4.404,-0.212 6.021,-0.632 1.615,-0.423 2.972,-1.082 4.066,-1.976 1.095,-0.897 1.928,-2.083 2.502,-3.558 0.572,-1.477 1.068,-3.268 1.486,-5.375 l 2.658,-15.336 c 5.942,9.274 12.613,16.601 20.016,21.976 7.402,5.376 15.482,8.063 24.24,8.063 7.401,0 13.343,-1.793 17.827,-5.375 l -6.255,-36.048 c -0.418,-2.213 -1.251,-3.769 -2.502,-4.664 -1.252,-0.896 -2.92,-1.343 -5.005,-1.343 -1.773,0 -3.858,0.237 -6.255,0.71 -2.399,0.475 -5.422,0.712 -9.07,0.712 -12.72,0 -22.729,-6.852 -30.024,-20.553 L 48.478,0 Z"
         style="fill:#7cc78a;fill-opacity:1;fill-rule:nonzero;stroke:none"
         id="path167" /></g><g
       id="g169"
       transform="translate(1639.2095,378.7096)"
       style="fill:#7cc78a;fill-opacity:1"><path
         d="m 0,0 c -9.279,0 -16.524,-2.663 -21.736,-7.983 -5.214,-5.325 -8.655,-12.993 -10.322,-23.005 h 60.52 c 0,3.898 -0.496,7.693 -1.486,11.384 -0.993,3.688 -2.607,6.981 -4.848,9.881 -2.243,2.898 -5.188,5.243 -8.835,7.035 C 9.643,-0.896 5.212,0 0,0 m -0.937,33.834 c 10.736,0 20.563,-1.687 29.477,-5.059 C 37.453,25.401 45.116,20.5 51.527,14.071 57.938,7.642 62.943,-0.236 66.54,-9.564 c 3.597,-9.329 5.395,-19.897 5.395,-31.701 0,-3.69 -0.157,-6.694 -0.469,-9.011 -0.313,-2.321 -0.887,-4.165 -1.721,-5.535 -0.835,-1.371 -1.954,-2.319 -3.361,-2.845 -1.408,-0.529 -3.206,-0.79 -5.396,-0.79 h -93.514 c 1.563,-13.703 5.68,-23.637 12.353,-29.803 6.671,-6.166 15.272,-9.249 25.803,-9.249 5.63,0 10.477,0.685 14.543,2.056 4.066,1.368 7.687,2.897 10.869,4.585 3.179,1.684 6.099,3.213 8.757,4.585 2.658,1.368 5.446,2.054 8.366,2.054 3.856,0 6.775,-1.423 8.758,-4.268 l 14.073,-17.55 c -5.004,-5.798 -10.398,-10.514 -16.184,-14.15 -5.787,-3.636 -11.729,-6.482 -17.828,-8.538 -6.098,-2.055 -12.198,-3.478 -18.297,-4.268 -6.098,-0.791 -11.911,-1.186 -17.436,-1.186 -11.364,0 -22.024,1.872 -31.98,5.613 -9.957,3.74 -18.662,9.3 -26.115,16.679 -7.454,7.377 -13.345,16.547 -17.671,27.51 -4.327,10.962 -6.489,23.716 -6.489,38.262 0,10.961 1.85,21.343 5.552,31.146 3.699,9.802 9.015,18.392 15.95,25.771 6.932,7.377 15.325,13.226 25.177,17.549 9.852,4.321 20.979,6.482 33.388,6.482"
         style="fill:#7cc78a;fill-opacity:1;fill-rule:nonzero;stroke:none"
         id="path171" /></g><g
       id="g173"
       transform="translate(1838.1226,374.1246)"
       style="fill:#7cc78a;fill-opacity:1"><path
         d="m 0,0 c -1.251,-2.003 -2.58,-3.426 -3.988,-4.269 -1.408,-0.844 -3.205,-1.264 -5.395,-1.264 -2.295,0 -4.589,0.499 -6.881,1.502 -2.294,1 -4.769,2.08 -7.427,3.241 -2.66,1.158 -5.658,2.238 -8.993,3.241 -3.337,1 -7.141,1.502 -11.416,1.502 -6.152,0 -10.868,-1.185 -14.152,-3.557 -3.283,-2.372 -4.926,-5.667 -4.926,-9.882 0,-3.058 1.069,-5.588 3.206,-7.589 2.136,-2.003 4.978,-3.77 8.523,-5.296 3.543,-1.529 7.557,-2.98 12.041,-4.348 4.481,-1.371 9.07,-2.9 13.762,-4.585 4.691,-1.687 9.277,-3.664 13.761,-5.929 4.481,-2.268 8.495,-5.059 12.041,-8.379 3.543,-3.321 6.385,-7.352 8.523,-12.095 2.135,-4.743 3.206,-10.436 3.206,-17.075 0,-8.118 -1.461,-15.601 -4.379,-22.451 -2.92,-6.853 -7.272,-12.755 -13.058,-17.707 -5.786,-4.956 -12.927,-8.803 -21.424,-11.542 -8.498,-2.74 -18.272,-4.111 -29.321,-4.111 -5.527,0 -11.052,0.529 -16.576,1.581 -5.527,1.052 -10.868,2.475 -16.028,4.269 -5.162,1.791 -9.931,3.925 -14.31,6.403 -4.378,2.475 -8.131,5.138 -11.259,7.985 l 11.259,18.023 c 1.355,2.107 2.972,3.768 4.849,4.98 1.876,1.21 4.324,1.819 7.349,1.819 2.815,0 5.341,-0.633 7.584,-1.898 2.241,-1.264 4.665,-2.635 7.272,-4.111 2.605,-1.477 5.654,-2.846 9.148,-4.11 3.492,-1.265 7.898,-1.898 13.214,-1.898 3.753,0 6.933,0.396 9.539,1.187 2.606,0.79 4.692,1.869 6.256,3.24 1.563,1.369 2.709,2.898 3.44,4.585 0.728,1.685 1.094,3.425 1.094,5.218 0,3.265 -1.094,5.954 -3.283,8.063 -2.189,2.108 -5.059,3.926 -8.602,5.454 -3.545,1.528 -7.584,2.95 -12.119,4.27 -4.535,1.316 -9.148,2.818 -13.84,4.506 -4.691,1.684 -9.303,3.714 -13.838,6.087 -4.536,2.371 -8.578,5.375 -12.121,9.011 -3.544,3.637 -6.411,8.088 -8.6,13.36 -2.19,5.269 -3.284,11.645 -3.284,19.131 0,6.957 1.33,13.569 3.988,19.841 2.658,6.27 6.645,11.78 11.963,16.522 5.316,4.743 11.987,8.511 20.016,11.304 8.027,2.792 17.41,4.19 28.149,4.19 5.837,0 11.493,-0.528 16.967,-1.581 5.473,-1.054 10.606,-2.529 15.403,-4.426 4.794,-1.898 9.173,-4.139 13.136,-6.72 3.961,-2.584 7.452,-5.403 10.477,-8.459 z"
         style="fill:#7cc78a;fill-opacity:1;fill-rule:nonzero;stroke:none"
         id="path175" /></g><g
       id="g177"
       transform="translate(691.0146,100.3505)"><path
         d="m 0,0 c 4.116,0 7.792,0.688 11.031,2.065 3.237,1.377 5.976,3.351 8.217,5.921 2.238,2.57 3.949,5.705 5.13,9.408 1.179,3.702 1.77,7.909 1.77,12.622 v 79.216 H 56.835 V 30.016 c 0,-8.201 -1.317,-15.728 -3.95,-22.581 C 50.253,0.581 46.485,-5.324 41.582,-10.281 36.68,-15.237 30.717,-19.093 23.697,-21.847 16.674,-24.6 8.776,-25.977 0,-25.977 c -8.838,0 -16.767,1.377 -23.787,4.13 -7.022,2.754 -12.983,6.61 -17.886,11.566 -4.903,4.957 -8.656,10.862 -11.258,17.716 -2.603,6.853 -3.904,14.38 -3.904,22.581 v 79.216 h 30.687 V 30.107 c 0,-4.712 0.591,-8.919 1.771,-12.621 1.18,-3.703 2.889,-6.854 5.129,-9.454 2.239,-2.602 4.978,-4.59 8.217,-5.967 C -7.794,0.688 -4.117,0 0,0"
         style="fill:#6e7e84;fill-opacity:1;fill-rule:nonzero;stroke:none"
         id="path179" /></g><g
       id="g181"
       transform="translate(767.8235,75.8419)"><path
         d="m 0,0 v 95.188 h 17.432 c 1.754,0 3.223,-0.399 4.403,-1.193 1.18,-0.796 2.012,-1.99 2.497,-3.58 l 1.634,-5.507 c 1.816,1.712 3.691,3.304 5.629,4.773 1.936,1.468 4.009,2.708 6.219,3.717 2.209,1.01 4.6,1.805 7.172,2.387 2.573,0.581 5.371,0.872 8.399,0.872 5.144,0 9.699,-0.904 13.664,-2.708 3.963,-1.806 7.308,-4.314 10.032,-7.527 2.724,-3.213 4.781,-7.038 6.174,-11.474 1.392,-4.438 2.088,-9.257 2.088,-14.457 V 0 H 57.198 v 60.491 c 0,4.65 -1.06,8.275 -3.177,10.877 -2.12,2.6 -5.237,3.901 -9.352,3.901 -3.087,0 -5.992,-0.674 -8.716,-2.019 -2.724,-1.347 -5.327,-3.153 -7.808,-5.416 L 28.145,0 Z"
         style="fill:#6e7e84;fill-opacity:1;fill-rule:nonzero;stroke:none"
         id="path183" /></g><path
       d="m 902.191,75.842 h -28.145 v 95.188 h 28.145 z m 3.269,121.257 c 0,-2.265 -0.455,-4.392 -1.362,-6.379 -0.908,-1.99 -2.15,-3.734 -3.722,-5.233 -1.576,-1.5 -3.405,-2.693 -5.493,-3.58 -2.088,-0.888 -4.313,-1.33 -6.674,-1.33 -2.301,0 -4.449,0.442 -6.446,1.33 -1.997,0.887 -3.768,2.08 -5.311,3.58 -1.544,1.499 -2.755,3.243 -3.632,5.233 -0.878,1.987 -1.316,4.114 -1.316,6.379 0,2.325 0.438,4.497 1.316,6.517 0.877,2.02 2.088,3.794 3.632,5.324 1.543,1.529 3.314,2.723 5.311,3.58 1.997,0.856 4.145,1.285 6.446,1.285 2.361,0 4.586,-0.429 6.674,-1.285 2.088,-0.857 3.917,-2.051 5.493,-3.58 1.572,-1.53 2.814,-3.304 3.722,-5.324 0.907,-2.02 1.362,-4.192 1.362,-6.517"
       style="fill:#6e7e84;fill-opacity:1;fill-rule:nonzero;stroke:none"
       id="path185" /><g
       id="g187"
       transform="translate(929.0632,75.8419)"><path
         d="m 0,0 v 75.636 l -6.174,1.285 c -2.119,0.489 -3.829,1.254 -5.13,2.295 -1.301,1.04 -1.951,2.57 -1.951,4.59 V 95.005 H 0 v 5.415 c 0,5.446 0.862,10.373 2.588,14.779 1.724,4.406 4.206,8.169 7.445,11.29 3.236,3.121 7.186,5.538 11.848,7.252 4.66,1.712 9.955,2.57 15.888,2.57 2.3,0 4.433,-0.138 6.4,-0.413 1.967,-0.276 4.01,-0.72 6.129,-1.331 l -0.545,-13.861 c -0.061,-0.98 -0.318,-1.79 -0.772,-2.432 -0.453,-0.643 -1.014,-1.164 -1.679,-1.561 -0.667,-0.399 -1.407,-0.688 -2.224,-0.872 -0.818,-0.183 -1.621,-0.275 -2.406,-0.275 -2.483,0 -4.692,-0.245 -6.628,-0.734 -1.938,-0.491 -3.556,-1.363 -4.858,-2.617 -1.301,-1.254 -2.285,-2.907 -2.95,-4.956 -0.667,-2.051 -0.999,-4.636 -0.999,-7.756 V 95.005 H 49.39 V 75.545 H 28.145 V 0 Z"
         style="fill:#6e7e84;fill-opacity:1;fill-rule:nonzero;stroke:none"
         id="path189" /></g><g
       id="g191"
       transform="translate(1031.4744,152.855)"><path
         d="m 0,0 c -5.387,0 -9.594,-1.546 -12.62,-4.635 -3.027,-3.091 -5.024,-7.543 -5.992,-13.356 h 35.136 c 0,2.263 -0.288,4.466 -0.863,6.609 -0.576,2.141 -1.513,4.053 -2.814,5.737 C 11.545,-3.963 9.835,-2.601 7.718,-1.56 5.598,-0.52 3.026,0 0,0 m -0.544,19.644 c 6.233,0 11.938,-0.98 17.114,-2.938 5.175,-1.958 9.623,-4.804 13.346,-8.536 3.722,-3.733 6.628,-8.307 8.716,-13.723 2.088,-5.416 3.132,-11.551 3.132,-18.404 0,-2.143 -0.091,-3.887 -0.272,-5.232 -0.182,-1.348 -0.515,-2.419 -0.999,-3.213 -0.485,-0.797 -1.135,-1.347 -1.952,-1.653 -0.817,-0.306 -1.861,-0.458 -3.132,-0.458 h -54.293 c 0.908,-7.956 3.298,-13.723 7.172,-17.303 3.873,-3.58 8.866,-5.37 14.981,-5.37 3.268,0 6.083,0.397 8.443,1.193 2.361,0.795 4.463,1.683 6.31,2.662 1.846,0.978 3.541,1.866 5.084,2.662 1.544,0.795 3.162,1.193 4.858,1.193 2.238,0 3.933,-0.826 5.084,-2.478 l 8.171,-10.189 c -2.905,-3.366 -6.037,-6.104 -9.397,-8.215 -3.359,-2.111 -6.809,-3.763 -10.35,-4.957 -3.54,-1.193 -7.082,-2.02 -10.622,-2.478 -3.541,-0.459 -6.916,-0.688 -10.124,-0.688 -6.598,0 -12.787,1.086 -18.566,3.258 -5.781,2.171 -10.835,5.4 -15.162,9.684 -4.328,4.283 -7.749,9.607 -10.26,15.971 -2.512,6.365 -3.767,13.769 -3.767,22.214 0,6.364 1.074,12.392 3.223,18.083 2.148,5.691 5.234,10.678 9.26,14.962 4.025,4.283 8.898,7.679 14.617,10.189 5.721,2.509 12.181,3.764 19.385,3.764"
         style="fill:#6e7e84;fill-opacity:1;fill-rule:nonzero;stroke:none"
         id="path193" /></g><g
       id="g195"
       transform="translate(1146.9587,150.193)"><path
         d="m 0,0 c -0.726,-1.163 -1.498,-1.989 -2.316,-2.478 -0.817,-0.491 -1.86,-0.734 -3.132,-0.734 -1.332,0 -2.664,0.289 -3.994,0.872 -1.332,0.58 -2.769,1.207 -4.313,1.881 -1.544,0.673 -3.284,1.3 -5.22,1.882 -1.938,0.581 -4.147,0.872 -6.628,0.872 -3.572,0 -6.31,-0.688 -8.217,-2.065 -1.906,-1.377 -2.86,-3.291 -2.86,-5.738 0,-1.775 0.621,-3.244 1.862,-4.406 1.24,-1.162 2.89,-2.188 4.948,-3.074 2.057,-0.888 4.387,-1.73 6.99,-2.524 2.602,-0.796 5.266,-1.684 7.99,-2.662 2.724,-0.98 5.386,-2.128 7.99,-3.443 2.601,-1.316 4.932,-2.937 6.991,-4.865 2.057,-1.927 3.707,-4.268 4.948,-7.022 1.24,-2.753 1.861,-6.058 1.861,-9.913 0,-4.713 -0.848,-9.057 -2.542,-13.035 -1.696,-3.978 -4.222,-7.405 -7.581,-10.28 -3.36,-2.877 -7.506,-5.111 -12.438,-6.701 -4.934,-1.591 -10.609,-2.387 -17.024,-2.387 -3.209,0 -6.416,0.307 -9.624,0.918 -3.209,0.611 -6.31,1.437 -9.305,2.479 -2.997,1.039 -5.766,2.278 -8.308,3.717 -2.542,1.437 -4.721,2.983 -6.537,4.636 l 6.537,10.464 c 0.786,1.223 1.725,2.187 2.815,2.891 1.089,0.703 2.51,1.056 4.267,1.056 1.634,0 3.101,-0.367 4.403,-1.101 1.301,-0.735 2.708,-1.531 4.222,-2.387 1.512,-0.858 3.282,-1.653 5.311,-2.387 2.028,-0.734 4.585,-1.101 7.672,-1.101 2.179,0 4.025,0.229 5.538,0.688 1.513,0.459 2.724,1.086 3.632,1.882 0.908,0.795 1.573,1.682 1.997,2.662 0.423,0.978 0.635,1.988 0.635,3.029 0,1.896 -0.635,3.457 -1.906,4.681 -1.271,1.224 -2.937,2.28 -4.994,3.167 -2.058,0.887 -4.403,1.713 -7.036,2.479 -2.633,0.764 -5.311,1.636 -8.035,2.616 -2.724,0.978 -5.401,2.157 -8.035,3.534 -2.632,1.376 -4.979,3.12 -7.036,5.232 -2.058,2.111 -3.722,4.695 -4.994,7.756 -1.271,3.059 -1.906,6.761 -1.906,11.107 0,4.039 0.772,7.878 2.315,11.52 1.544,3.64 3.859,6.838 6.946,9.592 3.086,2.754 6.959,4.941 11.621,6.563 4.66,1.621 10.107,2.433 16.342,2.433 3.389,0 6.673,-0.307 9.851,-0.918 3.178,-0.612 6.158,-1.469 8.943,-2.57 2.783,-1.102 5.325,-2.403 7.626,-3.902 2.3,-1.5 4.327,-3.137 6.083,-4.911 z"
         style="fill:#6e7e84;fill-opacity:1;fill-rule:nonzero;stroke:none"
         id="path197" /></g><g
       id="g199"
       transform="translate(1215.2313,151.111)"><path
         d="m 0,0 c -2.059,0 -3.92,-0.199 -5.584,-0.596 -1.665,-0.399 -3.209,-0.964 -4.63,-1.699 -1.423,-0.734 -2.74,-1.668 -3.95,-2.799 -1.211,-1.133 -2.421,-2.433 -3.631,-3.902 v -40.388 c 2.118,-2.386 4.417,-4.054 6.9,-5.002 2.481,-0.95 5.084,-1.423 7.808,-1.423 2.602,0 4.994,0.519 7.173,1.561 2.178,1.039 4.069,2.707 5.674,5.002 1.603,2.295 2.86,5.278 3.768,8.95 0.908,3.671 1.362,8.137 1.362,13.401 0,5.017 -0.364,9.239 -1.09,12.667 -0.726,3.427 -1.741,6.196 -3.041,8.308 C 9.457,-3.809 7.898,-2.295 6.083,-1.377 4.267,-0.459 2.238,0 0,0 M -45.94,-105.468 V 19.919 h 17.431 c 1.755,0 3.224,-0.399 4.404,-1.193 1.18,-0.796 2.012,-1.99 2.496,-3.58 L -19.52,8.17 c 1.816,2.019 3.768,3.855 5.856,5.507 2.088,1.653 4.326,3.075 6.719,4.269 2.39,1.193 4.962,2.125 7.717,2.799 2.753,0.673 5.765,1.01 9.033,1.01 4.903,0 9.443,-1.101 13.619,-3.305 4.176,-2.203 7.776,-5.385 10.804,-9.546 3.026,-4.162 5.402,-9.257 7.127,-15.284 1.725,-6.028 2.588,-12.866 2.588,-20.515 0,-7.16 -0.985,-13.768 -2.951,-19.827 -1.968,-6.058 -4.721,-11.322 -8.262,-15.788 -3.541,-4.468 -7.778,-7.956 -12.711,-10.464 -4.934,-2.509 -10.395,-3.763 -16.388,-3.763 -4.902,0 -9.019,0.704 -12.347,2.11 -3.329,1.408 -6.355,3.305 -9.079,5.692 v -36.533 z"
         style="fill:#6e7e84;fill-opacity:1;fill-rule:nonzero;stroke:none"
         id="path201" /></g></g></svg>
