<?xml version="1.0" encoding="UTF-8" standalone="no"?>
<!-- Generator: Adobe Illustrator 26.1.0, SVG Export Plug-In . SVG Version: 6.00 Build 0)  -->

<svg
   version="1.1"
   id="svg2585"
   sodipodi:docname="logo_concept.svg"
   x="0px"
   y="0px"
   viewBox="0 0 1250 300"
   xml:space="preserve"
   width="1250"
   height="300"
   inkscape:version="1.1.2 (0a00cf5339, 2022-02-04)"
   xmlns:inkscape="http://www.inkscape.org/namespaces/inkscape"
   xmlns:sodipodi="http://sodipodi.sourceforge.net/DTD/sodipodi-0.dtd"
   xmlns="http://www.w3.org/2000/svg"
   xmlns:svg="http://www.w3.org/2000/svg"><defs
   id="defs181" />
<style
   type="text/css"
   id="style119">
	.st0{fill:#A4DC9B;}
	.st1{font-family:'ChaparralPro-Italic';}
	.st2{font-size:200px;}
	.st3{opacity:0.6;fill:none;stroke:#AAE29F;stroke-width:2;stroke-miterlimit:10;}
	.st4{fill:#AAE29F;}
</style>
<sodipodi:namedview
   bordercolor="#eeeeee"
   borderopacity="1"
   height="301px"
   id="namedview2587"
   inkscape:current-layer="svg2585"
   inkscape:cx="788.40576"
   inkscape:cy="340.54749"
   inkscape:pagecheckerboard="0"
   inkscape:pageopacity="0"
   inkscape:pageshadow="0"
   inkscape:window-height="795"
   inkscape:window-maximized="1"
   inkscape:window-width="1536"
   inkscape:window-x="0"
   inkscape:window-y="32"
   inkscape:zoom="0.45661767"
   pagecolor="#505050"
   showgrid="false">
	</sodipodi:namedview>
<g
   id="g126"
   style="fill:#628073;fill-opacity:1">
	<g
   id="g124"
   style="fill:#628073;fill-opacity:1">
		<path
   class="st0"
   d="M 65.4,162.3 H 38.9 c -1.5,0 -2.6,1.2 -2.6,2.6 v 63.5 c 0,1.5 1.2,2.6 2.6,2.6 h 26.5 c 1.5,0 2.6,-1.2 2.6,-2.6 V 165 c 0,-1.5 -1.1,-2.7 -2.6,-2.7 z"
   id="path122"
   style="fill:#628073;fill-opacity:1" />
	</g>
</g>
<g
   id="g132"
   style="fill:#628073;fill-opacity:1">
	<g
   id="g130"
   style="fill:#628073;fill-opacity:1">
		<path
   class="st0"
   d="M 112.9,104.1 H 86.4 c -1.5,0 -2.6,1.2 -2.6,2.6 v 121.7 c 0,1.5 1.2,2.6 2.6,2.6 h 26.5 c 1.5,0 2.6,-1.2 2.6,-2.6 V 106.8 c 0.1,-1.5 -1.1,-2.7 -2.6,-2.7 z"
   id="path128"
   style="fill:#628073;fill-opacity:1" />
	</g>
</g>
<g
   id="g138"
   style="fill:#628073;fill-opacity:1">
	<g
   id="g136"
   style="fill:#628073;fill-opacity:1">
		<path
   class="st0"
   d="M 160.5,130.6 H 134 c -1.5,0 -2.6,1.2 -2.6,2.6 v 95.3 c 0,1.5 1.2,2.6 2.6,2.6 h 26.5 c 1.5,0 2.6,-1.2 2.6,-2.6 v -95.3 c 0.1,-1.4 -1.1,-2.6 -2.6,-2.6 z"
   id="path134"
   style="fill:#628073;fill-opacity:1" />
	</g>
</g>
<g
   aria-label="+  i  = "
   transform="translate(236.3245,229.8826)"
   id="text140"
   class="st0 st1 st2"
   style="font-size:200px;font-family:ChaparralPro-Italic;fill:#628073;fill-opacity:1"><path
     d="m 47.4,-13.3 h 15.8 v -38.3 h 38.3 V -67.5 H 63.2 v -38.3 H 47.4 v 38.3 H 9.1 v 15.9 h 38.3 z"
     style="font-family:'Aquawax Pro';-inkscape-font-specification:'Aquawax Pro';fill:#628073;fill-opacity:1"
     id="path20620" /><path
     d="m 246.89904,-131.2 c 0,6.4 5.3,11.9 12,11.9 6.3,0 11.8,-5.5 11.8,-11.9 0,-6.6 -5.5,-12 -11.8,-12 -6.7,0 -12,5.4 -12,12 z m 19.8,29.9 h -15.8 V 0 h 15.8 z"
     style="font-family:'Aquawax Pro';-inkscape-font-specification:'Aquawax Pro';fill:#628073;fill-opacity:1"
     id="path20622" /><path
     d="m 416.29833,-64 h 92.4 v -15.9 h -92.4 z m 0,48 h 92.4 v -15.9 h -92.4 z"
     style="font-family:'Aquawax Pro';-inkscape-font-specification:'Aquawax Pro';fill:#628073;fill-opacity:1"
     id="path20624" /></g>
<g
   id="g168"
   transform="translate(148)"
   style="fill:#628073;fill-opacity:1">
	<circle
   class="st3"
   cx="1004.1"
   cy="156.5"
   r="14.9"
   id="circle142"
   style="fill:#628073;fill-opacity:1" />
	<circle
   class="st3"
   cx="959.40002"
   cy="186.3"
   r="14.9"
   id="circle144"
   style="fill:#628073;fill-opacity:1" />
	<circle
   class="st3"
   cx="1004.1"
   cy="216.10001"
   r="14.9"
   id="circle146"
   style="fill:#628073;fill-opacity:1" />
	<circle
   class="st3"
   cx="1033.9"
   cy="216.10001"
   r="14.9"
   id="circle148"
   style="fill:#628073;fill-opacity:1" />
	<circle
   class="st3"
   cx="1048.8"
   cy="216.10001"
   r="14.9"
   id="circle150"
   style="fill:#628073;fill-opacity:1" />
	<circle
   class="st3"
   cx="1004.1"
   cy="186.3"
   r="14.9"
   id="circle152"
   style="fill:#628073;fill-opacity:1" />
	<circle
   class="st3"
   cx="1048.8"
   cy="186.3"
   r="14.9"
   id="circle154"
   style="fill:#628073;fill-opacity:1" />
	<circle
   class="st3"
   cx="1048.8"
   cy="156.5"
   r="14.9"
   id="circle156"
   style="fill:#628073;fill-opacity:1" />
	<circle
   class="st3"
   cx="1048.8"
   cy="126.7"
   r="14.9"
   id="circle158"
   style="fill:#628073;fill-opacity:1" />
	<circle
   class="st3"
   cx="1048.8"
   cy="111.8"
   r="14.9"
   id="circle160"
   style="fill:#628073;fill-opacity:1" />
	<circle
   class="st3"
   cx="1048.8"
   cy="82"
   r="14.9"
   id="circle162"
   style="fill:#628073;fill-opacity:1" />
	<circle
   class="st3"
   cx="959.40002"
   cy="216.10001"
   r="14.9"
   id="circle164"
   style="fill:#628073;fill-opacity:1" />
	<circle
   class="st3"
   cx="989.20001"
   cy="216.10001"
   r="14.9"
   id="circle166"
   style="fill:#628073;fill-opacity:1" />
</g>
<g
   id="g178"
   transform="translate(122)"
   style="fill:#628073;fill-opacity:1">
	<path
   class="st4"
   d="m 760.1,171.7 v 0 c -8.3,0 -14.9,6.7 -14.9,14.9 v 29.9 c 0,8.3 6.7,14.9 14.9,14.9 v 0 c 8.3,0 14.9,-6.7 14.9,-14.9 v -29.9 c 0,-8.2 -6.7,-14.9 -14.9,-14.9 z"
   id="path170"
   style="fill:#628073;fill-opacity:1" />
	<path
   class="st4"
   d="m 804.9,231.5 v 0 c -8.3,0 -14.9,-6.7 -14.9,-14.9 v -59.8 c 0,-8.3 6.7,-14.9 14.9,-14.9 v 0 c 8.3,0 14.9,6.7 14.9,14.9 v 59.8 c 0.1,8.2 -6.6,14.9 -14.9,14.9 z"
   id="path172"
   style="fill:#628073;fill-opacity:1" />
	<path
   class="st4"
   d="m 849.8,112 v 0 c 8.3,0 14.9,6.7 14.9,14.9 v 89.7 c 0,8.3 -6.7,14.9 -14.9,14.9 v 0 c -8.3,0 -14.9,-6.7 -14.9,-14.9 v -89.7 c -0.1,-8.3 6.6,-14.9 14.9,-14.9 z"
   id="path174"
   style="fill:#628073;fill-opacity:1" />
	<path
   class="st4"
   d="m 849.8,97 v 0 c -8.3,0 -14.9,-6.7 -14.9,-14.9 v 0 c 0,-8.3 6.7,-14.9 14.9,-14.9 v 0 c 8.3,0 14.9,6.7 14.9,14.9 v 0 c 0,8.2 -6.7,14.9 -14.9,14.9 z"
   id="path176"
   style="fill:#628073;fill-opacity:1" />
</g>
</svg>
