<?xml version="1.0" encoding="utf-8"?>
<!-- Generator: Adobe Illustrator 19.0.0, SVG Export Plug-In . SVG Version: 6.00 Build 0)  -->
<svg version="1.1" id="Camada_1" xmlns="http://www.w3.org/2000/svg" xmlns:xlink="http://www.w3.org/1999/xlink" x="0px" y="0px"
	 viewBox="-140 138.4 329.1 516.6" style="enable-background:new -140 138.4 329.1 516.6;" xml:space="preserve">
<style type="text/css">
	.st0{fill:url(#SVGID_1_);}
</style>
<g id="left">
</g>
<linearGradient id="SVGID_1_" gradientUnits="userSpaceOnUse" x1="-38.0873" y1="540.8249" x2="396.2007" y2="106.5368" gradientTransform="matrix(1 0 0 -1 0 794.8)">
	<stop  offset="0" style="stop-color:#2C4C9C"/>
	<stop  offset="0.4924" style="stop-color:#6EC2B5"/>
	<stop  offset="1" style="stop-color:#C0C3E3"/>
</linearGradient>
<path class="st0" d="M170,299c0-2.8-1.9-5.1-4.4-5.8v-29.6c2.5-0.7,4.4-3,4.4-5.8c0-2.8-1.9-5.1-4.4-5.8v-65.4l-14.6-13
	c0-0.2,0.1-0.3,0.1-0.5c0-3.3-2.7-6-6-6c-0.2,0-0.4,0-0.6,0.1l-6.1-7.8l-23.8,2.4c-1-1.9-3-3.3-5.4-3.3c-2.7,0-4.9,1.7-5.7,4.1
	l-18.7,1L3.6,204.5l2.2,30.7C3.6,236,2,238,1.9,240.5l-35.3,7.5L-74,369.1l10.5,16.9c-0.6,0.7-1.1,1.5-1.3,2.4v0.1
	c-0.1,0.5-0.2,1-0.2,1.5c0,1.6,0.6,3,1.6,4.1L-74,411.3l22.7,57c-0.8,0.8-1.4,1.9-1.6,3.1H-53l0.1,0.1c-0.1,0.3-0.1,0.6-0.1,1
	c0,3.3,2.7,6,6,6c1.5,0,2.8-0.5,3.8-1.4l31,17.8c-0.1,0.5-0.2,1-0.2,1.5c0,1.7,0.7,3.2,1.8,4.3l-9.2,16.5l45.1,56l28,12.9
	c0.1,2.4,1.5,4.4,3.5,5.3l0.5,0.2c0.3,0.1,0.6,0.2,0.9,0.2L48,612.6l36,18.7h47.3c0.7,2.5,3,4.4,5.8,4.4s5.1-1.9,5.8-4.4l0.1-0.3
	c0.1-0.4,0.2-0.9,0.2-1.4c0-1.6-0.6-3-1.6-4.1l21.1-36.6c0.5,0.1,1,0.2,1.5,0.2c3.3,0,6-2.7,6-6c0-2.8-1.9-5.1-4.4-5.8v-33.8
	c2.5-0.7,4.4-3,4.4-5.8c0-2.8-1.9-5.1-4.4-5.8v-87c2.5-0.7,4.4-3,4.4-5.8s-1.9-5.1-4.4-5.8v-64.7c2.5-0.7,4.4-3,4.4-5.8
	s-1.9-5.1-4.4-5.8v-51.9C168.1,304.1,170,301.8,170,299z M-53.3,388.1c-0.1-0.2-0.1-0.4-0.2-0.5l43.8-33L42.8,315
	c0.8,0.6,1.8,1,2.9,1.2l10.2,68.1c-1.6,0.7-2.8,2.1-3.3,3.8H-53.3z M42.2,305.9c-1.1,1.1-1.8,2.6-1.8,4.3c0,0.8,0.2,1.5,0.4,2.2
	L-55,384.6l61.9-138c0.3,0,0.6,0.1,0.9,0.1c0.5,0,0.9-0.1,1.4-0.2l11.1,20L42.2,305.9z M62.6,462.9l48.9,28c-0.1,0.5-0.2,1-0.2,1.5
	c0,1.6,0.6,3,1.6,4l-52.2,83.3c-0.2,0-0.4-0.1-0.6-0.1V464.4C61,464.1,61.9,463.6,62.6,462.9z M128.5,577.2c-1.7,0.8-3,2.3-3.4,4.1
	l-59.9,3.1c-0.2-1.2-0.8-2.2-1.6-3.1l52.2-83.2c0.3,0.1,0.6,0.1,0.9,0.2l0.4,2.4L128.5,577.2z M64.3,460.1c0.1-0.5,0.2-0.9,0.2-1.5
	c0-0.5-0.1-1-0.2-1.5l-0.3-0.9c-0.7-1.7-2.2-2.9-3.9-3.4v-56.9l52.8,92L64.3,460.1z M59.4,383.8c-0.1,0-0.1,0-0.2,0L49,315.7
	c2.1-1,3.6-3,3.6-5.5c0-0.5-0.1-0.9-0.2-1.3l44.8-24.5l11.4-6.2c0.1,0.1,0.2,0.2,0.4,0.3l-20.2,43.1L59.4,383.8z M159.5,295
	l-40.7-20c0.1-0.4,0.1-0.7,0.1-1.1c0-0.1,0-0.1,0-0.2l40-12.6c0.8,1.2,2,2.1,3.4,2.5v29.7C161.2,293.6,160.2,294.2,159.5,295z
	 M106.8,273.7c0,0.1,0,0.1,0,0.2c0,0.5,0.1,0.9,0.2,1.3l-6.1,3.3l-50.1,27.4c-1.1-1.1-2.6-1.8-4.3-1.8c-0.5,0-0.9,0.1-1.4,0.2
	l-24-43.3l-9-16.1c0.3-0.3,0.5-0.6,0.8-1l47.2,15L106.8,273.7z M-53,391.4H52.6c0.6,2,2.1,3.6,4.1,4.1v57.3c-1,0.3-1.8,0.8-2.5,1.4
	l-100.3-58.8L-53,391.4z M-41,473l91.5-11.7l-52.6,30.5c-1.1-1.1-2.6-1.7-4.2-1.7c-1.6,0-3.1,0.7-4.2,1.7l-30.8-17.7
	C-41.2,473.8-41.1,473.4-41,473z M137,623.3c-1.6,0-3.1,0.6-4.2,1.7l-64.5-37.1l57.4-2.1c1.1,1.8,3,3,5.2,3c2.4,0,4.4-1.4,5.4-3.4
	l21.9-0.8c0.3,0.9,0.8,1.7,1.4,2.4l-21,36.6C138.1,623.4,137.6,623.3,137,623.3z M158.2,581.1h-21.4c-0.7-2.3-2.6-4-5-4.3l-9.8-64.9
	l-2.1-14c0.2-0.1,0.4-0.2,0.5-0.3l4.3,4.1l34,32.8c-0.5,0.8-0.7,1.8-0.7,2.8c0,2.8,1.9,5.1,4.4,5.8v33.8
	C160.3,577.5,158.7,579.1,158.2,581.1z M160.9,532.1l-38.3-36.9c0.5-0.8,0.7-1.8,0.7-2.8c0-1.2-0.4-2.4-1-3.3l8-9.2l31-35.6
	c0.3,0.1,0.6,0.2,0.9,0.3v87C161.8,531.7,161.4,531.9,160.9,532.1z M157.9,438.8c0,1.2,0.4,2.4,1,3.3l-39,44.8
	c-0.8-0.4-1.6-0.6-2.6-0.6c-0.5,0-1,0.1-1.5,0.2l-53.2-92.6c1-1.1,1.7-2.5,1.7-4.1l94.3-24.3c0.8,1.3,2,2.3,3.5,2.7v64.7
	C159.8,433.7,157.9,436,157.9,438.8z M157.9,362.4l-94.3,24.3c-0.3-0.6-0.8-1.1-1.2-1.5L92,322.1l19.9-42.3c0.3,0.1,0.6,0.1,1,0.1
	c1.8,0,3.4-0.8,4.5-2l40.7,20c-0.1,0.4-0.1,0.7-0.1,1.1c0,2.8,1.9,5.1,4.4,5.8v51.9C159.8,357.5,158,359.7,157.9,362.4z M162.3,188
	v64c-2.5,0.7-4.4,3-4.4,5.8c0,0.1,0,0.1,0,0.2l-40,12.6c-0.5-0.7-1.1-1.3-1.8-1.7l20.2-64.9l7.7-24.9c0.3,0,0.6,0.1,0.9,0.1
	c1.9,0,3.6-0.9,4.7-2.3L162.3,188z M141.2,168.3c-1.4,1.1-2.3,2.8-2.3,4.7c0,1.8,0.8,3.4,2.1,4.5l-8.1,26.1l-20,64.2
	c-0.1,0-0.1,0-0.1,0c-2.1,0-4,1.1-5,2.7l-45-14.2l-49-15.5c0-0.1,0-0.1,0-0.2c0-0.8-0.2-1.5-0.4-2.2l49.9-37.8l41.8-31.7
	c1.1,0.9,2.4,1.5,4,1.5c3.2,0,5.7-2.4,6-5.5l21.7-2.2L141.2,168.3z M85.2,166.7l18-0.9c0,0.1,0.1,0.2,0.1,0.3l-44.2,33.5l-47.8,36.2
	c-0.7-0.5-1.5-0.9-2.4-1.1l-2.1-28.5L85.2,166.7z M-31,250.6l33.5-7.1c0.4,0.7,0.9,1.3,1.4,1.8l-62.1,138.6c-0.3,0-0.6-0.1-0.9-0.1
	c-0.6,0-1.1,0.1-1.7,0.3l-9.7-15.6L-31,250.6z M-60.7,395.5c0.5,0.1,1.1,0.3,1.6,0.3c1.6,0,3.1-0.6,4.2-1.7l4.1,2.4l103.4,60.6
	c-0.1,0.2-0.1,0.4-0.1,0.6l-94,12c-1-2.1-3-3.6-5.5-3.6c-0.5,0-1,0.1-1.5,0.2l-21.9-55L-60.7,395.5z M-15.9,516.6l8.2-14.6
	c0.5,0.1,0.9,0.2,1.4,0.2c3.3,0,6-2.7,6-6c0-0.5-0.1-1-0.2-1.5L54.2,463c0.7,0.7,1.6,1.2,2.5,1.5v115.7c-1.2,0.5-2.1,1.4-2.7,2.5
	l-26.7-12.3L-15.9,516.6z M52.3,610.9l9.8-20c0.7-0.4,1.4-1,1.9-1.6l66.9,38.4H84.7L52.3,610.9z"/>
</svg>
