<?xml version="1.0" encoding="UTF-8" standalone="no"?>
<svg
   width="150"
   height="80"
   viewBox="0 0 150 80"
   version="1.1"
   xml:space="preserve"
   style="clip-rule:evenodd;fill-rule:evenodd;stroke-linejoin:round;stroke-miterlimit:2"
   id="svg894"
   sodipodi:docname="ass.svg"
   inkscape:version="1.1.2 (0a00cf5339, 2022-02-04)"
   xmlns:inkscape="http://www.inkscape.org/namespaces/inkscape"
   xmlns:sodipodi="http://sodipodi.sourceforge.net/DTD/sodipodi-0.dtd"
   xmlns="http://www.w3.org/2000/svg"
   xmlns:svg="http://www.w3.org/2000/svg"><defs
   id="defs898" /><sodipodi:namedview
   id="namedview896"
   pagecolor="#505050"
   bordercolor="#eeeeee"
   borderopacity="1"
   inkscape:pageshadow="0"
   inkscape:pageopacity="0"
   inkscape:pagecheckerboard="0"
   showgrid="false"
   inkscape:zoom="3.015625"
   inkscape:cx="98.487047"
   inkscape:cy="32.663212"
   inkscape:window-width="1536"
   inkscape:window-height="795"
   inkscape:window-x="0"
   inkscape:window-y="32"
   inkscape:window-maximized="1"
   inkscape:current-layer="svg894" />
    
    
    <g
   id="g1285"
   transform="matrix(0.43985454,0,0,0.43985454,-1.2737458,-1.9053773)"><g
     transform="matrix(0.964263,0.0584626,-0.0571422,0.942485,113.72932,-698.51154)"
     id="g880">
        <path
   d="m 116.333,850.648 c 1.856,-16.775 4.099,-34.432 6.682,-50.186 4.271,-26.047 10.317,-47.052 15.82,-53.068 5.853,-6.381 13.289,-7.318 21.356,-3.1 7.244,3.788 15.536,13.086 22.025,24.938 12.536,22.895 17.428,54.363 3.213,68.218 -7.562,7.345 -14.801,12.998 -21.198,17.293 -6.579,4.415 -12.294,7.437 -16.607,9.409 1.858,3.276 4.39,7.09 7.773,10.742 3.842,4.148 8.842,8.125 15.36,10.603 0.303,-0.008 1.009,0.369 1.27,0.458 l -1.27,-0.458 c -0.12,-0.006 -0.177,0.054 -0.117,0.216 2.825,7.614 21.077,-18.081 21.077,-18.081 1.576,-1.742 3.918,-2.529 6.196,-2.081 2.277,0.448 4.168,2.067 5,4.282 0,0 2.012,5.605 5.322,10.636 1.703,2.589 3.504,5.381 5.948,5.971 3.026,0.731 5.144,-0.407 7.1,-2.202 4.553,-4.176 8.545,-10.629 14.547,-15.604 1.893,-1.568 4.894,-2.471 8.758,-1.069 4.452,1.614 11.916,7.491 17.882,11.053 0.9,0.538 2.15,1.122 2.936,1.468 3.086,-3.118 4.657,-8.628 5.964,-15.324 2.782,-14.247 3.299,-33.485 5.66,-51.83 0.31,-2.654 2.668,-4.552 5.262,-4.234 2.594,0.317 4.449,2.729 4.139,5.384 -1.961,18.661 -2.067,38.179 -4.551,52.695 -1.883,11.002 -5.454,19.315 -11.018,23.593 -2.337,1.798 -6.674,2.102 -11.782,-0.396 -4.835,-2.366 -14.199,-8.215 -17.41,-10.244 -6.133,5.977 -10.155,13.185 -15.518,16.793 -4.085,2.749 -8.748,3.989 -14.758,2.692 -4.398,-0.949 -8.624,-4.275 -12.072,-8.589 -1.681,-2.104 -3.18,-4.43 -4.434,-6.646 -4.404,4.435 -10.229,9.877 -15.006,12.933 -4.845,3.099 -9.377,3.679 -12.176,2.788 -9.712,-3.092 -17.148,-8.601 -22.783,-14.457 -6.953,-7.227 -10.968,-15.007 -12.987,-18.853 -3.398,29.861 -5.452,53.94 -5.452,53.94 -0.343,4.447 -4.021,7.846 -8.38,7.746 -4.359,-0.101 -7.883,-3.666 -8.029,-8.125 0,0 -0.572,-27.867 -2.194,-46.009 -31.902,36.184 -52.557,31.573 -70.638,22.399 -15.028,-7.625 -28.02,-21.192 -47.762,-8.354 -10.714,6.967 -23.132,20.925 -38.624,45.888 -1.272,2.129 -3.993,2.801 -6.074,1.5 -2.081,-1.301 -2.737,-4.086 -1.466,-6.215 15.752,-27.408 28.866,-42.658 40.142,-50.528 18.279,-12.758 32.526,-7.828 46.588,-0.591 19.818,10.199 38.984,25.094 75.551,-25.2 1.691,-2.316 3.711,-3.041 5.36,-3.31 1.736,-0.284 3.602,-0.067 5.375,1.116 z m 17.102,2.778 c 0.484,-0.28 1.004,-0.503 1.55,-0.665 0,0 8.536,-2.74 20.622,-11.192 5.662,-3.96 12.051,-9.159 18.707,-15.873 6.534,-6.576 4.58,-18.816 0.753,-30.721 -4.227,-13.147 -11.853,-26.113 -19.373,-32.597 -1.013,-0.873 -2.016,-1.598 -2.998,-2.139 -0.503,-0.278 -0.773,-1.12 -1.13,-0.723 -5.645,6.218 -9.601,32 -13.736,60.478 -1.598,11.003 -3.075,22.416 -4.395,33.432 z"
   id="path878" />
    </g><g
     transform="rotate(3.4695578,19744.274,-7205.7793)"
     id="g888">
        <path
   d="m 747.45,1286.82 c 0.32,-0.08 0.602,-0.19 0.835,-0.33 0.469,-0.39 1.166,-0.32 1.556,0.14 0.389,0.48 0.325,1.17 -0.144,1.56 -1.983,2.24 -8.708,4.23 -12.403,2.76 -2.544,-1.01 -3.88,-3.36 -3.226,-7.19 1.33,-4.57 4.532,-5.25 7.86,-3.55 2.373,1.22 4.682,3.88 5.211,5.28 0.185,0.49 0.284,0.93 0.311,1.33 z m -4.664,0.24 h 0.042 l -0.034,-0.03 z m -2.673,-1.68 c -0.416,1.31 0.815,1.54 2.128,1.64 0.005,-0.14 0.025,-0.28 0.061,-0.42 -0.626,-0.48 -1.521,-1 -2.189,-1.22 z m -0.012,0 c -0.525,-0.17 -0.905,-0.14 -0.891,0.25 0.011,0.32 0.702,0.17 0.891,-0.25 z"
   id="path886" />
    </g></g>
    
</svg>
