<?xml version="1.0" encoding="UTF-8"?><svg xmlns="http://www.w3.org/2000/svg" viewBox="0 0 210 210"><defs><style>.g{fill:#fff;}.h{fill:#215a36;}</style></defs><g id="a"><g id="b"><g><path class="g" d="M47.55,108.14c6.64,.75,12.07,3.17,16.3,7.25,4.5,4.36,6.74,9.71,6.74,16.04v.15c0,6.47-2.21,11.9-6.64,16.3-4.46,4.43-9.89,6.64-16.3,6.64s-11.9-2.21-16.3-6.64c-4.5-4.56-6.74-9.93-6.74-16.09v-.66l8.17-3.58v4.39c0,4.09,1.46,7.56,4.39,10.42,2.93,2.9,6.42,4.34,10.47,4.34s7.63-1.45,10.52-4.34c2.89-2.93,4.34-6.42,4.34-10.47,0-4.26-1.4-7.71-4.19-10.37-3.2-3.03-6.69-4.68-10.47-4.96-6.47-.51-11.55-2.61-15.22-6.28-3.81-3.78-5.72-8.34-5.72-13.69s1.87-9.93,5.62-13.64c3.75-3.75,8.28-5.62,13.59-5.62s9.93,1.87,13.64,5.62c3.78,3.81,5.67,8.34,5.67,13.59v.51l-8.17,3.68v-4.04c-.07-3.17-1.16-5.79-3.27-7.87-2.21-2.18-4.84-3.27-7.87-3.27s-5.6,1.06-7.71,3.17c-2.18,2.21-3.27,4.84-3.27,7.87s1.09,5.64,3.27,7.82c2.04,2.04,5.09,3.29,9.14,3.73Z"/><path class="g" d="M83.31,131.79v-50.88l8.17-3.58v54.61c.03,4.09,1.5,7.56,4.39,10.42,2.93,2.9,6.42,4.34,10.47,4.34s7.59-1.45,10.52-4.34c2.89-2.86,4.34-6.28,4.34-10.27v-51.19l8.17-3.58v54.46c0,6.27-2.25,11.62-6.74,16.07-4.5,4.44-9.93,6.67-16.3,6.67s-11.8-2.22-16.3-6.67c-4.5-4.44-6.74-9.8-6.74-16.07Z"/><path class="g" d="M142.05,154.52v-54.46c0-6.27,2.25-11.62,6.74-16.07,4.5-4.44,9.93-6.67,16.3-6.67s11.8,2.22,16.3,6.67c4.5,4.44,6.74,9.8,6.74,16.07v50.88l-8.17,3.58v-34.48h-29.73v30.91l-8.17,3.58Zm8.17-42.66h29.73v-11.95c-.03-4.09-1.5-7.56-4.39-10.42-2.93-2.89-6.42-4.34-10.47-4.34s-7.59,1.45-10.52,4.34c-2.9,2.86-4.34,6.28-4.34,10.27v12.11Z"/></g><polygon class="g" points="193.36 184.16 17.15 184.16 19.32 179.3 195.54 179.3 193.36 184.16"/><path class="g" d="M202.77,68.5l-18.94-7.58L106.14,29.85,9.51,68.5l-6.74-6.5L104.55,21.26c1.02-.41,2.16-.41,3.18,0l90.03,36.01,5.01,11.23Z"/></g><g id="c"><g><path class="h" d="M47.55,108.14c6.64,.75,12.07,3.17,16.3,7.25,4.5,4.36,6.74,9.71,6.74,16.04v.15c0,6.47-2.21,11.9-6.64,16.3-4.46,4.43-9.89,6.64-16.3,6.64s-11.9-2.21-16.3-6.64c-4.5-4.56-6.74-9.93-6.74-16.09v-.66l8.17-3.58v4.39c0,4.09,1.46,7.56,4.39,10.42,2.93,2.9,6.42,4.34,10.47,4.34s7.63-1.45,10.52-4.34c2.89-2.93,4.34-6.42,4.34-10.47,0-4.26-1.4-7.71-4.19-10.37-3.2-3.03-6.69-4.68-10.47-4.96-6.47-.51-11.55-2.61-15.22-6.28-3.81-3.78-5.72-8.34-5.72-13.69s1.87-9.93,5.62-13.64c3.75-3.75,8.28-5.62,13.59-5.62s9.93,1.87,13.64,5.62c3.78,3.81,5.67,8.34,5.67,13.59v.51l-8.17,3.68v-4.04c-.07-3.17-1.16-5.79-3.27-7.87-2.21-2.18-4.84-3.27-7.87-3.27s-5.6,1.06-7.71,3.17c-2.18,2.21-3.27,4.84-3.27,7.87s1.09,5.64,3.27,7.82c2.04,2.04,5.09,3.29,9.14,3.73Z"/><path class="h" d="M83.31,131.79v-50.88l8.17-3.58v54.61c.03,4.09,1.5,7.56,4.39,10.42,2.93,2.9,6.42,4.34,10.47,4.34s7.59-1.45,10.52-4.34c2.89-2.86,4.34-6.28,4.34-10.27v-51.19l8.17-3.58v54.46c0,6.27-2.25,11.62-6.74,16.07-4.5,4.44-9.93,6.67-16.3,6.67s-11.8-2.22-16.3-6.67c-4.5-4.44-6.74-9.8-6.74-16.07Z"/><path class="h" d="M142.05,154.52v-54.46c0-6.27,2.25-11.62,6.74-16.07,4.5-4.44,9.93-6.67,16.3-6.67s11.8,2.22,16.3,6.67c4.5,4.44,6.74,9.8,6.74,16.07v50.88l-8.17,3.58v-34.48h-29.73v30.91l-8.17,3.58Zm8.17-42.66h29.73v-11.95c-.03-4.09-1.5-7.56-4.39-10.42-2.93-2.89-6.42-4.34-10.47-4.34s-7.59,1.45-10.52,4.34c-2.9,2.86-4.34,6.28-4.34,10.27v12.11Z"/></g><polygon class="h" points="193.36 184.16 17.15 184.16 19.32 179.3 195.54 179.3 193.36 184.16"/><path class="h" d="M202.77,68.5l-18.94-7.58L106.14,29.85,9.51,68.5l-6.74-6.5L104.55,21.26c1.02-.41,2.16-.41,3.18,0l90.03,36.01,5.01,11.23Z"/></g></g><g id="d"/><g id="e"/><g id="f"/></svg>