<?xml version="1.0" encoding="UTF-8"?><svg xmlns="http://www.w3.org/2000/svg" xmlns:xlink="http://www.w3.org/1999/xlink" viewBox="0 0 1000 230"><defs><style>.g{fill:#965450;}.h{stroke:#fdedee;stroke-width:3.06px;}.h,.i,.j,.k{fill:none;}.h,.i,.k{stroke-miterlimit:10;}.l{fill:#fff;}.i,.k{stroke:#f99787;}.m{fill:#85b7e0;}.n{opacity:.9;}.o,.p{fill:#2a242d;}.q{fill:#fc6a5a;}.r{fill:#fddec0;}.p{opacity:.3;}.s{clip-path:url(#e);}.t{fill:#f99787;}.u{fill:#cc887f;}.v{clip-path:url(#d);}.w{fill:#6f96bd;}.x{fill:#76413b;}.y{fill:#ffac9d;}.a`{fill:#352c38;}.aa{fill:#e2c6af;}.ab{fill:#727d83;}.ac{fill:#215a36;}.k{stroke-width:3px;}.ad{fill:#bc7068;}</style><clipPath id="d"><path class="j" d="M411.3,120.03c-1.57-.84-2.36-2.92-2.75-5.16-2.18,.49-4.54,.76-7.01,.76s-4.74-.26-6.88-.73c-.39,2.23-1.19,4.29-2.75,5.13-4.06,2.18-28.08,3.27-25.5,27.62h70.38c2.59-24.35-21.43-25.44-25.5-27.62Z"/></clipPath><clipPath id="e"><path class="j" d="M376.8,130.42c-3.29-8.85-22.3-13.22-26.88-15.9-.31,.18-.63,.35-.96,.51l-10.08,11.36-13.93-10.75c-6.89,2.75-22.72,7.07-25.59,14.78-3.4,9.15-4.11,17.23-4.11,17.23h86.79s-1.84-8.08-5.25-17.23Z"/></clipPath></defs><g id="a"/><g id="b"/><g id="c"><g><g><path class="ac" d="M562.37,60.29v1.31h-2.14c-3.69,0-6.69,2.57-6.92,6.18v51.74c0,20.52-14.14,34.19-35.34,34.19s-36.36-13.58-36.36-33.96v-51.67c-.07-3.76-3.14-6.48-6.93-6.48h-2.14v-1.31h26.63v1.31h-2.14c-3.72,0-6.75,2.62-6.91,6.28v49.94c0,19.06,11.14,31.77,27.84,31.77s29.19-12.03,29.22-30.08v-51.61c-.16-3.67-3.2-6.3-6.92-6.3h-2.14v-1.31h24.25Z"/><path class="ac" d="M671.62,60.29l-.02,1.31h-2.42c-4.39,0-7.95,3.48-8.09,7.82v67.6c0,8.43,1.19,16.69,1.19,16.69h-1.19l-71.5-76.11v65.15c.14,4.34,3.7,7.83,8.09,7.83h2.42l.02,1.31h-27.01l.02-1.31h2.42c4.42,0,8.01-3.53,8.09-7.92V74.68c0-8.93-1.21-16.34-1.21-16.34h1.29l71.4,76.08V69.53c-.08-4.39-3.67-7.93-8.09-7.93h-2.42l-.02-1.31h27.02Z"/><path class="ac" d="M712.73,151.88h-28.69l.02-1.31h1.66c4.59,0,8.31-3.67,8.4-8.23V69.76c-.11-4.53-3.83-8.17-8.4-8.17h-1.66l-.02-1.31h28.68l-.02,1.31h-1.66c-4.56,0-8.27,3.63-8.4,8.15v72.61c.09,4.56,3.81,8.23,8.4,8.23h1.66l.02,1.31Z"/><path class="ac" d="M782.36,61.74v10.94h-1.31v-1.94c0-3.52-2.83-6.38-6.34-6.45h-27.73v40.45h22.16c3.51-.07,6.34-2.92,6.34-6.45v-1.93l1.28-.02v20.71h-1.28v-1.94c0-3.48-2.75-6.31-6.2-6.44h-22.29v33.67c.09,4.56,3.81,8.23,8.4,8.23h1.66l.02,1.31h-28.68l.02-1.31h1.66c4.59,0,8.31-3.67,8.4-8.23V69.09c0-4.21-4.01-7.49-8.35-7.49h-1.66l-.02-1.3h38.31c5.65-.05,13.2-1.35,15.63-2.38v3.83Z"/><path class="ac" d="M853.67,151.88h-54.35l.02-1.31h1.66c4.59,0,8.31-3.67,8.4-8.23V69.09c-.45-4.21-4.01-7.5-8.35-7.5h-1.66l-.02-1.3h38.32c5.65-.06,13.2-1.36,15.63-2.38v16.52l-1.32-.02v-2.33c0-4.15-3.24-7.54-7.34-7.79h-26.73v40.45h22.16c3.51-.07,6.34-2.92,6.34-6.44v-1.93h1.28v20.69l-1.28-.02v-1.93c0-3.48-2.75-6.31-6.2-6.44h-22.29v39.2h18.8c13.89,0,19.23-7.17,23.27-17.13h1.31l-7.63,21.14Z"/><path class="ac" d="M915.31,113.29c5.24,4.83,6.59,10.67,6.59,15.95,0,14.47-9.47,24.47-24.55,24.47-6.42,0-17.04-1.83-22.2-7.15-.98-4.04-.48-12.37,1.52-18.24h1.15c-1.32,13.48,7.23,22.11,18.9,21.46,9.57-.53,17.57-7.07,17.57-17.53,0-5.11-1.87-9.16-5.14-12.19l-25.12-23.27c-5.3-4.83-7.1-11.15-7.1-16.21,0-11.03,8.1-22.11,23.04-22.11,3.44,0,7.76,.59,11.24,1.34h5.2v16.05h-1.26c.03-8.37-6.58-13.47-14.75-13.47-9.66,0-16.13,7.07-16.13,15.05,0,3.41,1.15,8.24,5.28,12.06l25.76,23.8Z"/><path class="ac" d="M971.45,60.3c16.76,0,27.03,9.6,27.03,25.27,0,19.94-21.69,30.56-38.14,21.91l-.02-1.24s21.57,4.64,27.49-14.1c.58-1.84,.92-5,.84-7.89-.33-12.02-6.52-20.03-17.68-20.03h-15.12v78.13c.09,4.56,3.81,8.23,8.4,8.23h1.66l.02,1.31h-28.7l.02-1.31h1.66c4.59,0,8.31-3.67,8.4-8.23V69.13c-.43-4.23-4-7.54-8.36-7.54h-1.66l-.02-1.3h34.16Z"/></g><g><path class="ac" d="M33.44,96.76c8.02,.91,14.58,3.83,19.68,8.76,5.43,5.27,8.14,11.72,8.14,19.37v.19c0,7.82-2.67,14.38-8.02,19.68-5.39,5.35-11.95,8.02-19.68,8.02s-14.38-2.67-19.68-8.02c-5.43-5.51-8.14-11.99-8.14-19.43v-.8l9.87-4.32v5.31c0,4.94,1.77,9.13,5.31,12.59,3.54,3.5,7.75,5.24,12.65,5.24s9.21-1.75,12.71-5.24c3.5-3.54,5.24-7.75,5.24-12.65,0-5.14-1.69-9.32-5.06-12.53-3.87-3.66-8.08-5.65-12.65-5.99-7.82-.62-13.94-3.15-18.39-7.59-4.61-4.57-6.91-10.08-6.91-16.54s2.26-11.99,6.79-16.47c4.52-4.53,10-6.79,16.41-6.79s11.99,2.26,16.47,6.79c4.57,4.61,6.85,10.08,6.85,16.41v.62l-9.87,4.44v-4.87c-.08-3.83-1.4-6.99-3.95-9.5-2.67-2.63-5.84-3.95-9.5-3.95s-6.77,1.27-9.32,3.83c-2.63,2.67-3.95,5.84-3.95,9.5s1.32,6.81,3.95,9.44c2.47,2.47,6.15,3.97,11.04,4.5Z"/><path class="ac" d="M76.63,125.32V63.87l9.87-4.32V125.51c.04,4.94,1.81,9.13,5.31,12.59,3.54,3.5,7.75,5.24,12.65,5.24s9.17-1.75,12.71-5.24c3.5-3.46,5.24-7.59,5.24-12.4V63.87l9.87-4.32V125.32c0,7.57-2.72,14.04-8.14,19.4-5.43,5.37-11.99,8.05-19.68,8.05s-14.25-2.68-19.68-8.05c-5.43-5.37-8.14-11.83-8.14-19.4Z"/><path class="ac" d="M147.58,152.78V87.01c0-7.57,2.71-14.04,8.14-19.4,5.43-5.37,11.99-8.05,19.68-8.05s14.25,2.68,19.68,8.05c5.43,5.37,8.14,11.84,8.14,19.4v61.45l-9.87,4.32v-41.65h-35.91v37.33l-9.87,4.32Zm9.87-51.52h35.91v-14.44c-.04-4.94-1.81-9.13-5.31-12.59-3.54-3.5-7.75-5.24-12.65-5.24s-9.17,1.75-12.71,5.24c-3.5,3.46-5.24,7.59-5.24,12.4v14.62Z"/></g><path class="ac" d="M454.59,67.28l-22.88-9.15-93.82-37.53-116.7,46.68,6.06-13.57L335.97,10.23c1.23-.49,2.61-.49,3.84,0l108.73,43.49,6.05,13.56Z"/><polygon class="ac" points="442.97 153.61 230.16 153.61 232.79 147.73 445.61 147.73 442.97 153.61"/><g><path class="ab" d="M28.68,197.49c2.43,2.25,3.06,4.96,3.06,7.42,0,6.73-4.4,11.38-11.4,11.38-2.98,0-7.91-.85-10.31-3.33-.45-1.88-.22-5.76,.7-8.49h.54c-.61,6.27,3.36,10.29,8.78,9.99,4.44-.25,8.16-3.29,8.16-8.16,0-2.38-.87-4.26-2.39-5.67l-11.66-10.83c-2.46-2.25-3.3-5.19-3.3-7.54,0-5.13,3.76-10.29,10.7-10.29,1.6,0,3.6,.27,5.22,.62h2.41v7.47h-.59c.01-3.89-3.06-6.27-6.85-6.27-4.48,0-7.49,3.29-7.49,7,0,1.59,.53,3.83,2.45,5.61l11.96,11.07Z"/><path class="ab" d="M63.28,215.44h-24.73v-.61h.85c1.96,0,3.44-1.44,3.51-3.23v-28.89c0-1.81-1.54-3.19-3.52-3.19h-.84v-.61h17.77c2.45-.02,5.74-.54,6.8-.95v6.89h-.66v-.94c0-1.71-1.2-3.09-3.05-3.13h-12.62v15.49h10.4c1.69-.03,2.47-1.18,2.47-2.58v-.77h.66v8.54h-.66v-.78c0-1.37-.74-2.49-2.32-2.58h-10.54v15.49h9.52c5.85-.08,7.93-2.93,9.66-6.87h.66l-3.35,8.74Z"/><path class="ab" d="M86.43,178.91c7.67,0,12.38,3.71,12.38,9.86,0,5.16-4,9.48-9.47,10.02,1.33,.6,3.39,2.92,4.69,4.77,0,0,2.81,3.82,5.33,6.64,2.48,2.78,4.18,4.6,7.56,4.62v.61h-1.92c-6.73,0-9.39-3.06-11.3-5.36-.69-.83-5.49-7.74-5.96-8.34-1.65-2.07-3.76-4.1-6.17-4.1v-.56s1.5,.03,3.49-.02c3.37-.08,7.2-.12,8.95-5.23,.29-.85,.46-2.14,.43-3.47-.13-4.56-3.2-7.24-8.1-7.49-3.42-.17-6.42-.02-7-.05v30.72c.04,1.83,1.5,3.3,3.46,3.3h.82v.61h-12.44v-.61h.83c1.93,0,3.38-1.43,3.46-3.22v-28.92c-.06-1.8-1.52-3.17-3.46-3.17h-.82v-.61h15.24Z"/><path class="ab" d="M144.22,178.91v.61h-.48c-1.63,0-3.54,1.04-4.79,3.55l-12.59,26.95s-2.22,4.68-2.34,6.27h-.58l-15.03-33.21c-1.24-2.51-3.08-3.56-4.71-3.56h-.46v-.61h12.5v.6h-.48c-1.4,0-2.91,1.34-2.13,3.7l10.89,26.53,11.17-26.42c.93-2.44-.67-3.82-2.09-3.82h-.48v-.6h11.6Z"/><path class="ab" d="M147.26,215.44v-.61h.82c2.26,0,4.09-1.47,4.14-3.3v-28.71c-.05-1.83-1.87-3.3-4.14-3.3h-.81v-.61h13.78v.61h-.82c-2.21,0-4.02,1.41-4.13,3.19v28.87c.07,1.8,1.89,3.25,4.13,3.25h.81v.61h-13.78Z"/><path class="ab" d="M203.97,200.1l-.65,8.34c-3.01,4.63-8.97,7.56-15.74,7.83l-2.45,2.88c2.13-.73,6.25-.67,6.38,3.53,.12,3.83-4.49,5.72-8.57,4.44l.04-.61c2.5,0,5.59-.97,5.48-3.9-.09-2.56-2.93-2.92-5.1-2.01l-.3-.61,2.83-3.72c-11.95-.31-19.43-7.52-19.43-19.1s7.76-19.11,20.09-19.11c5.07,0,10.5,1.4,14.26,3.69l1.35,8.6h-.54c-1.87-7.46-7.55-10.46-15.09-10.46-9.64,0-15.66,6.57-15.66,17.29s6.03,17.14,15.71,17.23c9.08,.08,16.2-4.32,16.85-14.3h.54Z"/><path class="ab" d="M251.7,197.17c0,11.31-9.18,19.11-20.54,19.11s-20.54-7.8-20.54-19.11,9.18-19.11,20.54-19.11,20.54,7.8,20.54,19.11Zm-4.51,0c0-10.29-7.08-17.29-16.03-17.29s-16.03,7-16.03,17.29,7.08,17.29,16.03,17.29,16.03-7,16.03-17.29Z"/><path class="ab" d="M276.76,199.95c1.88,1.58,2.74,4.17,2.76,6.54,.05,5.43-4.77,9.8-10.77,9.8-3.61,0-8.28-.88-10.5-2.87-.38-1.62-.23-5.21,.6-7.56h.7c-.54,5.48,3.15,8.75,8.53,8.6,5.03-.14,8.11-2.77,8.11-6.72,0-1.9-.65-3.44-2.22-4.82l-12.18-9.4c-2.27-1.94-2.88-4.47-2.91-6.58-.07-4.95,4.43-8.89,10.06-8.89,2.79,0,4.66,.25,6.02,.56h2.04l.09,6.62h-.7c0-3.37-2.26-5.38-7.03-5.38-4.07,0-7.34,2.57-7.32,5.81,.01,1.56,.48,3.26,2.39,4.79l12.32,9.49Z"/><path class="ab" d="M342.78,172.82v.61h-.99c-1.71,0-3.11,1.2-3.21,2.87v24.07c0,9.54-6.56,15.91-16.41,15.91s-16.88-6.32-16.88-15.8v-24.04c-.03-1.75-1.46-3.01-3.22-3.01h-.99v-.61h12.36v.61h-.99c-1.73,0-3.13,1.22-3.21,2.92v23.24c0,8.87,5.17,14.78,12.92,14.78s13.55-5.6,13.57-13.99v-24.01c-.08-1.71-1.49-2.93-3.22-2.93h-.99v-.61h11.26Z"/><path class="ab" d="M390.19,178.91v.61h-1.02c-1.8,0-3.28,1.35-3.38,3.05v25.96c0,3.92,.58,7.77,.58,7.77h-.58l-31.66-30.04v25.4c.03,1.76,1.54,3.18,3.39,3.18h1.01v.61h-11.5v-.61h1.02c1.85,0,3.35-1.42,3.39-3.18v-26.04c0-4.16-.58-7.6-.58-7.6l.65,.03,31.59,29.77v-25.24c-.11-1.7-1.58-3.04-3.38-3.04h-1.01v-.61h11.49Z"/><path class="ab" d="M395.66,215.44v-.61h.82c2.26,0,4.09-1.47,4.14-3.3v-28.71c-.05-1.83-1.87-3.3-4.14-3.3h-.81v-.61h13.78v.61h-.82c-2.21,0-4.02,1.41-4.13,3.19v28.87c.07,1.8,1.89,3.25,4.13,3.25h.81v.61h-13.78Z"/><path class="ab" d="M434.07,178.91c2.48-.02,5.81-.54,6.89-.95v6.89h-.67v-.94c0-1.71-1.2-3.09-3.06-3.13h-12.82v15.49h10.56c1.7-.04,2.47-1.18,2.47-2.58v-.77h.67v8.54h-.67v-.78c0-1.37-.73-2.48-2.33-2.58h-10.7v13.46c.05,1.82,1.55,3.28,3.56,3.28h.85v.61h-12.7v-.61h.86c1.99,0,3.48-1.44,3.56-3.23v-28.89c-.05-1.81-1.56-3.19-3.56-3.19h-.85v-.61h17.95Z"/><path class="ab" d="M447.94,215.44v-.61h.82c2.26,0,4.09-1.47,4.14-3.3v-28.71c-.05-1.83-1.87-3.3-4.14-3.3h-.81v-.61h13.78v.61h-.82c-2.21,0-4.02,1.41-4.13,3.19v28.87c.07,1.8,1.89,3.25,4.13,3.25h.81v.61h-13.78Z"/><path class="ab" d="M504.65,200.1l-.65,8.34c-3.16,4.87-9.57,7.85-16.76,7.85-12.33-.06-20.09-7.32-20.09-19.11s7.76-19.11,20.09-19.11c5.07,0,10.5,1.4,14.26,3.69l1.35,8.6h-.54c-1.87-7.46-7.55-10.46-15.09-10.46-9.64,0-15.66,6.57-15.66,17.29s6.03,17.14,15.71,17.23c9.08,.08,16.2-4.32,16.85-14.3h.53Z"/><path class="ab" d="M542.55,211.28c1.24,2.5,3.07,3.55,4.7,3.55h.46v.61h-12.5v-.6h.48c1.39,0,2.95-1.32,2.15-3.65l-3.33-8.1h-15.4l-3.35,7.93c-.93,2.44,.67,3.82,2.09,3.82h.48v.6h-11.6v-.61h.48c1.62,0,3.52-1.04,4.77-3.52l12.6-26.98s2.22-4.68,2.34-6.27h.58l15.03,33.22Zm-8.78-10.03l-6.84-16.66-7.04,16.66h13.88Z"/><path class="ab" d="M571.05,178.92c12.01,0,19.57,6.95,19.57,18.28s-7.56,18.24-19.57,18.24h-20.3v-.61h.82c1.92,0,3.36-1.49,3.42-3.3v-28.72c-.06-1.92-1.57-3.28-3.48-3.28h-.74v-.6h20.29Zm-12.11,34.68h12.14c9.35,0,15.14-6.23,15.14-16.39s-5.79-16.45-15.14-16.45h-12.14v32.84Z"/><path class="ab" d="M637.78,197.17c0,11.31-9.18,19.11-20.54,19.11s-20.54-7.8-20.54-19.11,9.18-19.11,20.54-19.11,20.54,7.8,20.54,19.11Zm-4.51,0c0-10.29-7.08-17.29-16.03-17.29s-16.03,7-16.03,17.29,7.08,17.29,16.03,17.29,16.03-7,16.03-17.29Z"/><path class="ab" d="M662.84,199.95c1.88,1.58,2.74,4.17,2.76,6.54,.05,5.43-4.77,9.8-10.77,9.8-3.61,0-8.28-.88-10.5-2.87-.38-1.62-.23-5.21,.6-7.56h.7c-.54,5.48,3.15,8.75,8.53,8.6,5.03-.14,8.11-2.77,8.11-6.72,0-1.9-.65-3.44-2.22-4.82l-12.18-9.4c-2.27-1.94-2.88-4.47-2.91-6.58-.07-4.95,4.43-8.89,10.06-8.89,2.79,0,4.66,.25,6.02,.56h2.04l.09,6.62h-.7c0-3.37-2.26-5.38-7.03-5.38-4.07,0-7.34,2.57-7.32,5.81,.01,1.56,.48,3.26,2.39,4.79l12.32,9.49Z"/><path class="ab" d="M722.26,211c1.23,2.71,3.48,3.83,5.35,3.83h.51v.61h-13.71v-.6h.54c1.57,0,3.2-1.39,2.31-3.82l-3.89-10.37h-16.4l-4.08,10.4c-.86,2.41,.76,3.78,2.33,3.78h.54v.6h-12.25v-.61h.55c1.85,0,4.1-1.12,5.33-3.83l13.8-32.76s2.25-4.93,2.25-6.27h.55l16.27,39.02Zm-9.58-12.18l-7.34-19.54-7.66,19.54h14.99Z"/><path class="ab" d="M766.45,200.1l-.65,8.34c-3.16,4.87-9.57,7.85-16.76,7.85-12.33-.06-20.09-7.32-20.09-19.11s7.76-19.11,20.09-19.11c5.07,0,10.5,1.4,14.26,3.69l1.35,8.6h-.54c-1.86-7.46-7.55-10.46-15.09-10.46-9.64,0-15.66,6.57-15.66,17.29s6.03,17.14,15.71,17.23c9.08,.08,16.2-4.32,16.85-14.3h.53Z"/><path class="ab" d="M796.92,215.44h-24.73v-.61h.85c1.96,0,3.44-1.44,3.51-3.23v-28.89c0-1.81-1.54-3.19-3.52-3.19h-.84v-.61h17.77c2.45-.02,5.74-.54,6.8-.95v6.89h-.66v-.94c0-1.71-1.2-3.09-3.05-3.13h-12.62v15.49h10.4c1.69-.03,2.47-1.18,2.47-2.58v-.77h.66v8.54h-.66v-.78c0-1.37-.74-2.49-2.33-2.58h-10.54v15.49h9.52c5.85-.08,7.93-2.93,9.66-6.87h.66l-3.35,8.74Z"/><path class="ab" d="M824.14,199.95c1.88,1.58,2.74,4.17,2.76,6.54,.05,5.43-4.77,9.8-10.77,9.8-3.61,0-8.28-.88-10.5-2.87-.38-1.62-.23-5.21,.6-7.56h.7c-.54,5.48,3.15,8.75,8.53,8.6,5.03-.14,8.11-2.77,8.11-6.72,0-1.9-.65-3.44-2.22-4.82l-12.18-9.4c-2.27-1.94-2.88-4.47-2.91-6.58-.07-4.95,4.43-8.89,10.06-8.89,2.79,0,4.66,.25,6.02,.56h2.04l.09,6.62h-.7c0-3.37-2.26-5.38-7.03-5.38-4.07,0-7.34,2.57-7.32,5.81,.01,1.56,.48,3.26,2.39,4.79l12.32,9.49Z"/><path class="ab" d="M852.26,199.95c1.88,1.58,2.74,4.17,2.76,6.54,.05,5.43-4.77,9.8-10.77,9.8-3.61,0-8.28-.88-10.5-2.87-.38-1.62-.23-5.21,.6-7.56h.7c-.54,5.48,3.15,8.75,8.53,8.6,5.03-.14,8.11-2.77,8.11-6.72,0-1.9-.65-3.44-2.22-4.82l-12.18-9.4c-2.27-1.94-2.88-4.47-2.91-6.58-.07-4.95,4.43-8.89,10.06-8.89,2.79,0,4.66,.25,6.02,.56h2.04l.09,6.62h-.7c0-3.37-2.26-5.38-7.03-5.38-4.07,0-7.34,2.57-7.32,5.81,.01,1.56,.48,3.26,2.39,4.79l12.32,9.49Z"/><path class="ab" d="M873.63,215.43h-11.96v-.61h.67c1.83,0,3.32-1.47,3.36-3.3v-28.71c-.03-1.83-1.52-3.3-3.36-3.3h-.66v-.61h11.96v.61h-.67c-1.8,0-3.27,1.42-3.36,3.2v28.85c.06,1.81,1.54,3.25,3.36,3.25h.66v.61Zm-6.39-40.84c2.58-2.78,5.15-5.49,7.73-7.97,.95,.95,1.84,2.01,2.49,3.2-3.26,1.91-6.53,3.58-9.79,5.19l-.43-.43Z"/><path class="ab" d="M917.6,178.91v.61h-.48c-1.63,0-3.54,1.04-4.79,3.55l-12.59,26.95s-2.22,4.68-2.34,6.27h-.58l-15.02-33.21c-1.24-2.51-3.08-3.56-4.71-3.56h-.46v-.61h12.5v.6h-.48c-1.4,0-2.91,1.34-2.13,3.7l10.89,26.53,11.17-26.42c.93-2.44-.67-3.82-2.09-3.82h-.48v-.6h11.6Z"/><path class="ab" d="M945.37,215.44h-24.73v-.61h.85c1.96,0,3.44-1.44,3.51-3.23v-28.89c0-1.81-1.54-3.19-3.52-3.19h-.84v-.61h17.77c2.45-.02,5.74-.54,6.8-.95v6.89h-.66v-.94c0-1.71-1.2-3.09-3.05-3.13h-12.62v15.49h10.4c1.69-.03,2.47-1.18,2.47-2.58v-.77h.66v8.54h-.66v-.78c0-1.37-.74-2.49-2.33-2.58h-10.54v15.49h9.52c5.85-.08,7.93-2.93,9.66-6.87h.66l-3.35,8.74Z"/><path class="ab" d="M953.26,215.44v-.61h.82c2.26,0,4.09-1.47,4.14-3.3v-28.71c-.05-1.83-1.87-3.3-4.14-3.3h-.81v-.61h13.78v.61h-.82c-2.21,0-4.02,1.41-4.13,3.19v28.87c.07,1.8,1.89,3.25,4.13,3.25h.81v.61h-13.78Z"/><path class="ab" d="M992.43,199.95c1.88,1.58,2.74,4.17,2.76,6.54,.05,5.43-4.77,9.8-10.77,9.8-3.61,0-8.28-.88-10.5-2.87-.38-1.62-.23-5.21,.6-7.56h.7c-.54,5.48,3.15,8.75,8.53,8.6,5.03-.14,8.11-2.77,8.11-6.72,0-1.9-.65-3.44-2.22-4.82l-12.18-9.4c-2.27-1.94-2.88-4.47-2.91-6.58-.07-4.95,4.43-8.89,10.06-8.89,2.79,0,4.66,.25,6.02,.56h2.04l.09,6.62h-.7c0-3.37-2.26-5.38-7.03-5.38-4.07,0-7.34,2.57-7.32,5.81,.01,1.56,.48,3.26,2.39,4.79l12.32,9.49Z"/></g><g><g><g><path class="y" d="M312,132.29c-3.03-8.16-21.6-12.05-24.85-14.42-4.17-3.03-2.85-13.09-2.85-13.09l-6.83,.18-6.83-.18s1.33,10.05-2.85,13.09c-3.25,2.36-21.81,6.26-24.85,14.42-3.03,8.16-4.17,15.36-4.17,15.36h77.39s-1.14-7.21-4.17-15.36Z"/><path class="u" d="M269.39,116c3.2-.33,6.41-.97,9.19-2.53,2.03-1.13,3.86-2.47,5.55-3.98-.1-2.58,.18-4.7,.18-4.7l-6.83,.18-6.83-.18s.94,7.15-1.27,11.21Z"/></g><g><path class="w" d="M312.54,132.17c-2.36-6.35-14.07-10.14-20.78-12.63-2.92,3.37-8.09,5.61-14,5.61s-11.08-2.24-14-5.61c-6.71,2.49-18.41,6.28-20.78,12.63-3.06,8.22-4.2,15.48-4.2,15.48h77.96s-1.15-7.26-4.2-15.48Z"/><path class="m" d="M277.74,127.75c7.49,0,13.92-2.98,16.68-7.24-.94-.34-1.83-.67-2.65-.97-2.92,3.37-8.09,5.61-14,5.61s-11.08-2.24-14-5.61c-.83,.31-1.74,.64-2.69,.99,2.76,4.25,9.18,7.22,16.67,7.22Z"/></g><g><path class="u" d="M266.02,89.11c-1.1-3.42-3.71-2.63-3.96-2.55-.26,.03-2.96,.43-2.49,4,.47,3.59,2.55,5.53,4.5,4.96,2.01-.32,3.06-2.96,1.95-6.41Z"/><path class="u" d="M288.1,89.11c1.1-3.42,3.71-2.63,3.96-2.55,.26,.03,2.96,.43,2.49,4-.47,3.59-2.55,5.53-4.5,4.96-2.01-.32-3.06-2.96-1.95-6.41Z"/><path class="y" d="M290.88,83.73c-1.37-15-12.77-14.16-13.85-14.05-1.08-.11-12.48-.95-13.85,14.05-1.37,15.09,5.35,24.94,13.85,24.4,8.5,.54,15.22-9.31,13.85-24.4Z"/></g><g><path class="g" d="M262.87,91.77s-3.57-14.8-1.53-19.05c2.04-4.25,4.42-2.89,4.42-2.89,0,0,3.23-8.85,10.04-7.15,6.81,1.7,10.72,4.76,14.29,1.7,0,0,0,2.72-2.04,3.91,0,0,4.25,0,5.95-4.08,0,0,2.54,8.73-3.07,11.79,0,0,.42,10.91,.01,14.92l-1.53-.17s-.85-5.78-1.36-13.1c0,0-8.85,4.76-19.57-3.57,0,0,1.53,5.61-4.59,9.19l.51,7.83-1.53,.68Z"/><path class="x" d="M284.66,78.72c-2.53-.17-5.07-.73-7.12-1.52-4.6-1.77-8.56-7.01-8.87-12.09-1.95,2.11-2.91,4.71-2.91,4.71,0,0-2.38-1.36-4.42,2.89-2.04,4.25,1.53,19.05,1.53,19.05l1.53-.68-.51-7.83c6.12-3.57,4.59-9.19,4.59-9.19,6.68,5.2,12.64,5.3,16.18,4.64Z"/></g><path class="l" d="M283.17,99.79c-3.14,3.05-8.46,2.88-12.49,.16"/><path class="a`" d="M267.73,85.22c-.41,.1-.65-.43-.32-.69,.25-.19,.53-.36,.81-.52,.69-.37,1.47-.6,2.28-.67,.8-.08,1.64,.06,2.39,.36,.31,.12,.61,.29,.87,.48,.34,.25,.11,.79-.3,.7-.29-.06-.57-.11-.86-.13-.67-.07-1.32-.1-1.99-.03-.66,.06-1.33,.16-2.01,.31-.29,.06-.57,.13-.87,.19Z"/><path class="a`" d="M286.71,85.22c.41,.1,.65-.43,.32-.69-.25-.19-.53-.36-.81-.52-.69-.37-1.47-.6-2.28-.67-.8-.08-1.64,.06-2.39,.36-.31,.12-.61,.29-.87,.48-.34,.25-.11,.79,.3,.7,.29-.06,.57-.11,.86-.13,.67-.07,1.32-.1,1.99-.03,.66,.06,1.33,.16,2.01,.31,.29,.06,.57,.13,.87,.19Z"/><ellipse class="a`" cx="271.16" cy="89.67" rx="1.08" ry="1.6"/><ellipse class="a`" cx="282.87" cy="89.67" rx="1.08" ry="1.6"/><ellipse class="x" cx="277.25" cy="96.56" rx="2.05" ry=".83"/><path class="l" d="M283.17,99.79c-3.14,3.05-8.46,2.88-12.49,.16"/><path class="a`" d="M267.73,85.22c-.41,.1-.65-.43-.32-.69,.25-.19,.53-.36,.81-.52,.69-.37,1.47-.6,2.28-.67,.8-.08,1.64,.06,2.39,.36,.31,.12,.61,.29,.87,.48,.34,.25,.11,.79-.3,.7-.29-.06-.57-.11-.86-.13-.67-.07-1.32-.1-1.99-.03-.66,.06-1.33,.16-2.01,.31-.29,.06-.57,.13-.87,.19Z"/><path class="a`" d="M286.71,85.22c.41,.1,.65-.43,.32-.69-.25-.19-.53-.36-.81-.52-.69-.37-1.47-.6-2.28-.67-.8-.08-1.64,.06-2.39,.36-.31,.12-.61,.29-.87,.48-.34,.25-.11,.79,.3,.7,.29-.06,.57-.11,.86-.13,.67-.07,1.32-.1,1.99-.03,.66,.06,1.33,.16,2.01,.31,.29,.06,.57,.13,.87,.19Z"/><ellipse class="a`" cx="271.16" cy="89.67" rx="1.08" ry="1.6"/><ellipse class="a`" cx="282.87" cy="89.67" rx="1.08" ry="1.6"/><ellipse class="u" cx="277.25" cy="96.56" rx="2.05" ry=".83"/></g><g><g><path class="a`" d="M388.58,97.62s-3.78-.84-4.34,2.38c-.56,3.22,1.68,3.92,1.68,3.92,0,0-3.36-3.78-5.73-1.12-2.38,2.66,1.54,4.89,1.54,4.89,0,0-4.34-2.38-5.17,.56-.84,2.94,2.66,4.75,2.66,4.75,0,0-3.78-.28-3.64,1.4,.14,1.68,3.78,.28,3.78,.28,0,0-5.31,.98-4.47,5.17,.84,4.2,5.03,1.82,5.03,1.82,0,0-3.22,1.68-2.38,6.99,.84,5.31,24.75-5.45,24.75-5.45l.42-14.4-14.12-11.19Z"/><path class="a`" d="M416.17,97.62s3.78-.84,4.34,2.38c.56,3.22-1.68,3.92-1.68,3.92,0,0,3.36-3.78,5.73-1.12,2.38,2.66-1.54,4.89-1.54,4.89,0,0,4.34-2.38,5.17,.56,.84,2.94-2.66,4.75-2.66,4.75,0,0,3.78-.28,3.64,1.4-.14,1.68-3.78,.28-3.78,.28,0,0,5.31,.98,4.47,5.17-.84,4.2-5.03,1.82-5.03,1.82,0,0,3.22,1.68,2.38,6.99-.84,5.31-24.75-5.45-24.75-5.45l-.42-14.4,14.12-11.19Z"/><path class="o" d="M388.58,97.62s-3.78-.84-4.34,2.38c-.56,3.22,1.68,3.92,1.68,3.92,0,0-3.36-3.78-5.73-1.12-2.38,2.66,1.54,4.89,1.54,4.89,0,0-4.34-2.38-5.17,.56-.84,2.94,2.66,4.75,2.66,4.75,0,0-3.78-.28-3.64,1.4,.14,1.68,3.78,.28,3.78,.28,0,0-5.31,.98-4.47,5.17,.84,4.2,5.03,1.82,5.03,1.82,0,0-3.22,1.68-2.38,6.99,.84,5.31,24.75-5.45,24.75-5.45l.42-14.4-14.12-11.19Z"/><path class="o" d="M416.17,97.62s3.78-.84,4.34,2.38c.56,3.22-1.68,3.92-1.68,3.92,0,0,3.36-3.78,5.73-1.12,2.38,2.66-1.54,4.89-1.54,4.89,0,0,4.34-2.38,5.17,.56,.84,2.94-2.66,4.75-2.66,4.75,0,0,3.78-.28,3.64,1.4-.14,1.68-3.78,.28-3.78,.28,0,0,5.31,.98,4.47,5.17-.84,4.2-5.03,1.82-5.03,1.82,0,0,3.22,1.68,2.38,6.99-.84,5.31-24.75-5.45-24.75-5.45l-.42-14.4,14.12-11.19Z"/></g><g><g><path class="g" d="M411.09,120.42c-3.94-2.15-2.87-12.54-2.87-12.54l-5.9,.38v-.38l-.63,.19-.63-.19v.38l-5.9-.38s1.07,10.39-2.87,12.54c-3.94,2.15-27.23,3.22-24.72,27.23h68.24c2.51-24.01-20.78-25.08-24.72-27.23Z"/><path class="x" d="M394.33,117.74c4.71-.7,9.43-1.43,14.13-2.18-.66-3.58-.24-7.69-.24-7.69l-5.9,.38v-.38l-.63,.19-.63-.19v.38l-5.9-.38s.62,6.04-.83,9.86Z"/></g><g><path class="q" d="M411.3,120.03c-1.57-.84-2.36-2.92-2.75-5.16-2.18,.49-4.54,.76-7.01,.76s-4.74-.26-6.88-.73c-.39,2.23-1.19,4.29-2.75,5.13-4.06,2.18-28.08,3.27-25.5,27.62h70.38c2.59-24.35-21.43-25.44-25.5-27.62Z"/><g class="n"><g class="v"><g><line class="h" x1="362.23" y1="118.13" x2="439.51" y2="118.13"/><line class="h" x1="362.23" y1="121.9" x2="439.51" y2="121.9"/><line class="h" x1="362.23" y1="125.67" x2="439.51" y2="125.67"/><line class="h" x1="362.23" y1="129.44" x2="439.51" y2="129.44"/><line class="h" x1="362.23" y1="133.21" x2="439.51" y2="133.21"/><line class="h" x1="362.23" y1="136.97" x2="439.51" y2="136.97"/><line class="h" x1="362.23" y1="140.74" x2="439.51" y2="140.74"/><line class="h" x1="362.23" y1="144.51" x2="439.51" y2="144.51"/></g></g></g><path class="p" d="M368.7,147.65h68.09c.85-7.99-1.17-13.47-4.4-17.32-21.37,5.23-42.4,11.78-63.69,17.32Z"/></g></g><g><path class="x" d="M390.15,92.67c-1.16-3.6-3.91-2.77-4.17-2.68-.27,.03-3.11,.45-2.62,4.21,.49,3.78,2.68,5.82,4.74,5.22,2.11-.34,3.22-3.12,2.05-6.75Z"/><path class="x" d="M413.34,92.67c1.16-3.6,3.91-2.77,4.17-2.68,.27,.03,3.11,.45,2.62,4.21-.49,3.78-2.68,5.82-4.74,5.22-2.11-.34-3.22-3.12-2.05-6.75Z"/><path class="g" d="M387.33,87.21c1.44-15.79,13.45-14.91,14.58-14.79,1.13-.12,13.14-1,14.58,14.79,1.45,15.89-5.63,26.26-14.58,25.69-8.95,.57-16.03-9.81-14.58-25.69Z"/></g><g><path class="a`" d="M402.38,72.42s.74,9.68-13.94,13.74c0,0,.42,4.89-.84,9.51,0,0-4.75-6.85-2.52-14.96,2.24-8.11,13.57-14.61,17.3-8.28Z"/><path class="a`" d="M401.22,72.42s-.28,9.68,14.41,13.74c0,0-.7,6.15,.56,10.77,0,0,5.03-8.11,2.8-16.22-2.24-8.11-14.04-14.61-17.76-8.28Z"/><path class="o" d="M390.65,85.46c-2.14-1.49-4.05-3.42-5.33-5.54-.09,.26-.17,.52-.25,.79-2.24,8.11,2.52,14.96,2.52,14.96,1.26-4.61,.84-9.51,.84-9.51,.79-.22,1.52-.45,2.22-.7Z"/></g><path class="l" d="M407.69,103.51c-3.15,2.78-8.48,2.62-12.52,.15"/><path class="a`" d="M392.21,90.24c-.41,.09-.66-.4-.32-.63,.26-.18,.53-.33,.81-.47,.7-.33,1.48-.55,2.28-.61,.81-.08,1.65,.05,2.39,.33,.31,.11,.61,.26,.87,.44,.34,.23,.11,.72-.3,.63-.29-.06-.57-.1-.86-.12-.67-.07-1.33-.09-1.99-.03-.66,.05-1.33,.15-2.02,.28-.29,.05-.58,.11-.87,.18Z"/><path class="a`" d="M411.24,90.24c.41,.09,.66-.4,.32-.63-.26-.18-.53-.33-.81-.47-.7-.33-1.48-.55-2.28-.61-.81-.08-1.65,.05-2.39,.33-.31,.11-.61,.26-.87,.44-.34,.23-.11,.72,.3,.63,.29-.06,.57-.1,.86-.12,.67-.07,1.33-.09,1.99-.03,.66,.05,1.33,.15,2.02,.28,.29,.05,.58,.11,.87,.18Z"/><ellipse class="a`" cx="395.64" cy="94.3" rx="1.08" ry="1.45"/><ellipse class="a`" cx="407.38" cy="94.3" rx="1.08" ry="1.45"/><ellipse class="x" cx="401.75" cy="100.56" rx="2.06" ry=".76"/></g><g><g><g><path class="r" d="M376.2,130.54c-3.38-9.08-23.48-13.42-27.1-16.05-4.65-3.38-3.74-14.57-3.74-14.57l-7.6,.2-7.6-.2s2.05,11.19-2.6,14.57c-3.62,2.63-24.85,6.97-28.23,16.05-3.38,9.08-4.65,17.11-4.65,17.11h86.16s-1.27-8.02-4.65-17.11Z"/><path class="aa" d="M328.75,112.41c3.56-.36,7.14-1.08,10.24-2.82,2.26-1.26,4.29-2.75,6.18-4.43-.11-2.88,.2-5.23,.2-5.23l-7.6,.2-7.6-.2s1.05,7.97-1.41,12.49Z"/></g><g><g><path class="q" d="M376.8,130.42c-3.29-8.85-22.3-13.22-26.88-15.9-.31,.18-.63,.35-.96,.51l-10.08,11.36-13.93-10.75c-6.89,2.75-22.72,7.07-25.59,14.78-3.4,9.15-4.11,17.23-4.11,17.23h86.79s-1.84-8.08-5.25-17.23Z"/><g class="s"><line class="k" x1="295.89" y1="141.07" x2="381.7" y2="141.07"/><line class="i" x1="295.89" y1="143.72" x2="381.7" y2="143.72"/></g></g><g><polygon class="ad" points="335.67 120.14 338.89 126.39 341.16 119.38 342.86 122.79 338.7 127.15 333.96 122.98 335.67 120.14"/><polygon class="t" points="324.11 115.78 332.64 128.09 335.67 120.14 326.2 111.23 324.11 115.78"/><polygon class="t" points="352.15 114.83 344.19 127.33 341.16 119.38 349.49 110.48 352.15 114.83"/></g></g></g><g><path class="aa" d="M326.7,83.61c-1.23-3.81-4.14-2.93-4.41-2.84-.29,.03-3.29,.48-2.77,4.45,.52,3.99,2.84,6.16,5.01,5.52,2.24-.35,3.4-3.3,2.17-7.13Z"/><path class="aa" d="M350.53,83.23c1.23-3.81,4.14-2.93,4.41-2.84,.29,.03,3.29,.48,2.77,4.45-.52,3.99-2.84,6.16-5.01,5.52-2.24-.35-3.4-3.3-2.17-7.13Z"/><path class="r" d="M354.39,77.62c-1.52-16.7-14.22-15.76-15.41-15.64-1.2-.13-13.89-1.06-15.41,15.64-1.53,16.8,5.95,27.77,15.41,27.17,9.46,.6,16.95-10.37,15.41-27.17Z"/></g><g><path class="a`" d="M328.4,71.84s4.58,6.02,11.78,6.97l-1.7-2.46s2.84,2.08,7.77,3.03c0,0,.95-3.41-1.33-7.01,0,0,3.22,7.01,7.01,9.66,0,0,1.52-4.92-.38-7.77,0,0,1.21,1.34,4.81,5.7,0,0,4.03-12.22-5.82-18.85-9.85-6.63-20.36-.65-23.77,2.95,0,0-6.07-2.05-7.46,6.07-1.15,6.72,1.39,11.89,1.39,11.89,0,0,2.13-1.41,2.13,2.95l.5,4.46h1.33l.19-8.9s3.37-1.28,3.56-8.67Z"/><path class="a`" d="M352.34,89.17c.48-.02,.95-.03,1.43-.05,1.3-4.68,.42-13.15,.42-13.15,0,0-4.43-8.8-2.65-1.7,1.47,5.86,.96,13.08,.8,14.91Z"/></g><path class="l" d="M345.17,96.71c-3.5,3.4-9.42,3.21-13.9,.18"/><path class="a`" d="M327.98,80.48c-.46,.11-.73-.48-.35-.77,.28-.21,.59-.4,.9-.58,.77-.41,1.64-.67,2.54-.75,.9-.09,1.83,.06,2.66,.4,.35,.13,.67,.32,.97,.54,.38,.28,.12,.88-.34,.77-.32-.07-.63-.13-.95-.15-.75-.08-1.47-.11-2.21-.04-.74,.06-1.48,.18-2.24,.35-.32,.07-.64,.14-.97,.22Z"/><path class="a`" d="M349.11,80.48c.46,.11,.73-.48,.35-.77-.28-.21-.59-.4-.9-.58-.77-.41-1.64-.67-2.54-.75-.9-.09-1.83,.06-2.66,.4-.35,.13-.67,.32-.97,.54-.38,.28-.12,.88,.34,.77,.32-.07,.63-.13,.95-.15,.75-.08,1.47-.11,2.21-.04,.74,.06,1.48,.18,2.24,.35,.32,.07,.64,.14,.97,.22Z"/><ellipse class="a`" cx="331.79" cy="85.44" rx="1.2" ry="1.78"/><ellipse class="a`" cx="344.83" cy="85.44" rx="1.2" ry="1.78"/><ellipse class="aa" cx="338.58" cy="93.1" rx="2.29" ry=".93"/></g></g></g></g><g id="f"/></svg>