<?xml version="1.0" encoding="UTF-8"?>
<svg id="logo" xmlns="http://www.w3.org/2000/svg" viewBox="0 0 585.53 868.4">
  <defs>
    <style>
      .cls-1 {
        fill: #fff;
        stroke-width: 0px;
      }
    </style>
  </defs>
  <g>
    <path class="cls-1" d="m276.32,792.97c-2.85-.85-5.56-2.12-6.8-4.94-.97-2.21-1.47-4.68-1.82-7.08-2.66-18.39-5.23-36.79-7.83-55.18-.97-6.83-1.93-13.67-2.89-20.5-.04-.27,0-.56,0-.91h81.78c-.37,2.7-.72,5.31-1.08,7.92-1.71,12.09-3.42,24.18-5.13,36.27-1.66,11.75-3.31,23.51-4.99,35.26-.66,4.6-3.08,7.71-7.7,8.91-.13.03-.23.16-.34.24h-43.19Z"/>
    <path class="cls-1" d="m250.34,696.04v-21.27h42.75v-20.85c12.9-3.13,25.67-6.23,38.61-9.36.82,3.13,1.63,6.18,2.46,9.35-10.46,2.59-20.75,5.14-31.09,7.7v13.09h42.7v21.34h-95.43Z"/>
  </g>
  <g>
    <g>
      <g>
        <path class="cls-1" d="m110.14,594.06c-1.09,2.81-2.59,5.36-4.49,7.66-1.9,2.3-4.14,4.24-6.69,5.81-2.56,1.58-5.29,2.62-8.18,3.13l-27.01,4.76v-87.98l27.01-4.76c2.9-.51,5.62-.43,8.18.24,2.56.67,4.79,1.82,6.69,3.45,1.9,1.63,3.4,3.66,4.49,6.11,1.09,2.45,1.64,5.16,1.64,8.15v44.73c0,2.99-.55,5.88-1.64,8.69Zm-6.04-52.07c0-1.96-.36-3.73-1.07-5.3-.71-1.57-1.7-2.89-2.95-3.96-1.25-1.07-2.7-1.82-4.34-2.27-1.65-.45-3.42-.5-5.33-.17l-18.98,3.35v72.89l18.98-3.35c1.9-.34,3.68-1.02,5.33-2.04,1.65-1.03,3.09-2.28,4.34-3.77,1.25-1.49,2.23-3.14,2.95-4.97.71-1.82,1.07-3.72,1.07-5.68v-44.73Z"/>
        <path class="cls-1" d="m166.91,587.18c-.93,2.41-2.21,4.6-3.84,6.57-1.63,1.96-3.53,3.62-5.71,4.96-2.18,1.35-4.5,2.24-6.96,2.67l-4.88.86c-2.46.43-4.78.36-6.96-.21-2.18-.58-4.09-1.56-5.71-2.95-1.63-1.39-2.91-3.13-3.84-5.21-.93-2.08-1.4-4.4-1.4-6.93v-28.34c0-2.54.47-5.01,1.4-7.42.93-2.41,2.21-4.6,3.84-6.57,1.63-1.96,3.53-3.62,5.71-4.96,2.18-1.35,4.5-2.24,6.96-2.67l4.88-.86c2.46-.43,4.78-.36,6.96.21,2.18.58,4.08,1.56,5.71,2.95,1.63,1.39,2.91,3.13,3.84,5.21.93,2.09,1.4,4.4,1.4,6.93v14.79l-33.38,5.89v13.99c0,1.51.28,2.89.83,4.12.55,1.23,1.31,2.25,2.26,3.07.95.81,2.07,1.39,3.36,1.74,1.29.35,2.67.39,4.13.13l4.88-.86c1.47-.26,2.85-.79,4.14-1.59,1.29-.8,2.41-1.78,3.36-2.92s1.71-2.44,2.26-3.86c.56-1.43.83-2.9.83-4.41v-4.17l7.32-.06v2.52c0,2.54-.47,5.01-1.4,7.42Zm-5.92-34.91c0-1.51-.28-2.89-.83-4.12-.56-1.23-1.31-2.25-2.26-3.07-.95-.81-2.07-1.39-3.36-1.74-1.29-.34-2.67-.39-4.14-.13l-4.88.86c-1.47.26-2.85.79-4.13,1.59-1.29.8-2.41,1.77-3.36,2.92-.95,1.15-1.71,2.44-2.26,3.87-.56,1.43-.83,2.9-.83,4.41v9.33l26.06-4.6v-9.33Z"/>
        <path class="cls-1" d="m224.83,571.07c0,2.54-.5,4.94-1.49,7.23-.99,2.28-2.34,4.33-4.05,6.14-1.71,1.81-3.68,3.34-5.92,4.57-2.24,1.23-4.59,2.07-7.05,2.5l-4.88.86c-2.46.43-4.81.37-7.05-.2-2.24-.56-4.21-1.54-5.89-2.92-1.69-1.38-3.03-3.1-4.05-5.18-1.01-2.07-1.52-4.37-1.52-6.91v-2.52l7.32-2.52v4.17c0,1.51.31,2.88.92,4.1.61,1.22,1.44,2.23,2.47,3.03,1.03.8,2.22,1.37,3.57,1.7,1.35.34,2.76.37,4.23.11l4.88-.86c1.47-.26,2.88-.73,4.23-1.42,1.35-.69,2.55-1.54,3.6-2.57,1.05-1.02,1.88-2.18,2.5-3.48.61-1.29.92-2.7.92-4.21,0-2.25-.48-4.01-1.43-5.27-.95-1.26-2.21-2.24-3.78-2.92-1.57-.68-3.35-1.17-5.36-1.45-2-.28-4.06-.55-6.16-.82-2.1-.26-4.16-.63-6.16-1.09-2-.46-3.79-1.22-5.35-2.28-1.57-1.05-2.83-2.5-3.78-4.33-.95-1.84-1.43-4.25-1.43-7.23,0-2.54.48-4.94,1.43-7.22.95-2.27,2.24-4.31,3.87-6.11,1.63-1.8,3.52-3.31,5.68-4.53,2.16-1.22,4.47-2.05,6.93-2.48l4.28-.76c2.46-.43,4.78-.36,6.96.21,2.18.58,4.08,1.56,5.71,2.95,1.63,1.39,2.91,3.13,3.84,5.21.93,2.09,1.4,4.4,1.4,6.93v.25l-7.32,2.52v-1.9c0-1.51-.28-2.89-.83-4.12-.56-1.23-1.31-2.25-2.26-3.07-.95-.81-2.07-1.39-3.36-1.74-1.29-.34-2.67-.39-4.14-.13l-4.28.76c-1.47.26-2.85.73-4.14,1.4-1.29.68-2.41,1.52-3.36,2.53-.95,1.01-1.71,2.15-2.26,3.44-.56,1.29-.83,2.68-.83,4.2,0,2.17.48,3.85,1.43,5.06.95,1.2,2.21,2.14,3.78,2.8,1.57.67,3.35,1.14,5.35,1.42,2,.28,4.05.57,6.13.88,2.08.31,4.12.71,6.13,1.22,2,.51,3.79,1.3,5.35,2.37,1.57,1.07,2.83,2.54,3.78,4.4.95,1.86,1.43,4.28,1.43,7.26Z"/>
        <path class="cls-1" d="m278.18,567.56c-.93,2.41-2.21,4.6-3.84,6.57-1.63,1.96-3.53,3.62-5.71,4.96-2.18,1.35-4.5,2.24-6.96,2.67l-4.88.86c-2.46.43-4.78.36-6.96-.21-2.18-.58-4.09-1.56-5.71-2.95-1.63-1.39-2.91-3.13-3.84-5.21-.93-2.08-1.4-4.4-1.4-6.93v-28.34c0-2.54.47-5.01,1.4-7.42.93-2.41,2.21-4.6,3.84-6.57,1.63-1.96,3.53-3.62,5.71-4.96,2.18-1.35,4.5-2.24,6.96-2.67l4.88-.86c2.46-.43,4.78-.36,6.96.21,2.18.58,4.08,1.56,5.71,2.95,1.63,1.39,2.91,3.13,3.84,5.21.93,2.09,1.4,4.4,1.4,6.93v2.52l-7.32,2.52v-4.17c0-1.51-.28-2.89-.83-4.12-.56-1.23-1.31-2.25-2.26-3.07-.95-.81-2.07-1.39-3.36-1.74-1.29-.34-2.67-.39-4.14-.13l-4.88.86c-1.47.26-2.85.79-4.13,1.59-1.29.8-2.41,1.77-3.36,2.92-.95,1.15-1.71,2.44-2.26,3.87-.56,1.43-.83,2.9-.83,4.41v29.2c0,1.51.28,2.89.83,4.12.55,1.23,1.31,2.25,2.26,3.07s2.07,1.39,3.36,1.74c1.29.35,2.67.39,4.13.13l4.88-.86c1.47-.26,2.85-.79,4.14-1.59,1.29-.8,2.41-1.77,3.36-2.92.95-1.15,1.71-2.44,2.26-3.86.56-1.43.83-2.9.83-4.41v-4.17l7.32-.06v2.52c0,2.54-.47,5.01-1.4,7.42Z"/>
        <path class="cls-1" d="m333.51,557.8c-.93,2.41-2.21,4.6-3.84,6.57-1.63,1.96-3.53,3.62-5.71,4.96-2.18,1.35-4.5,2.24-6.96,2.67l-4.88.86c-2.46.43-4.78.36-6.96-.21-2.18-.58-4.09-1.56-5.71-2.95-1.63-1.39-2.91-3.13-3.84-5.21-.93-2.08-1.4-4.4-1.4-6.93v-28.34c0-2.54.47-5.01,1.4-7.42.93-2.41,2.21-4.6,3.84-6.57,1.63-1.96,3.53-3.62,5.71-4.96,2.18-1.34,4.5-2.23,6.96-2.67l4.88-.86c2.46-.43,4.78-.36,6.96.21,2.18.58,4.09,1.56,5.71,2.95,1.63,1.39,2.91,3.13,3.84,5.21.93,2.09,1.4,4.4,1.4,6.93v28.34c0,2.54-.47,5.01-1.4,7.42Zm-5.92-34.91c0-1.51-.28-2.89-.83-4.12-.56-1.23-1.31-2.25-2.26-3.07-.95-.81-2.07-1.39-3.36-1.74-1.29-.34-2.67-.39-4.14-.13l-4.88.86c-1.47.26-2.85.79-4.13,1.59-1.29.8-2.41,1.77-3.36,2.92-.95,1.15-1.71,2.44-2.26,3.87-.56,1.43-.83,2.9-.83,4.41v29.2c0,1.51.28,2.89.83,4.12.55,1.23,1.31,2.25,2.26,3.07s2.07,1.39,3.36,1.74c1.29.35,2.67.39,4.13.13l4.88-.86c1.47-.26,2.85-.79,4.14-1.59,1.29-.8,2.41-1.77,3.36-2.92.95-1.15,1.71-2.44,2.26-3.87.56-1.43.83-2.9.83-4.41v-29.2Z"/>
        <path class="cls-1" d="m351.99,564.6v-87.98l7.32-1.29v87.98l-7.32,1.29Z"/>
        <path class="cls-1" d="m414.64,553.56l-4.05-5.54c-1.67,2.54-3.75,4.72-6.25,6.53-2.5,1.81-5.24,2.98-8.21,3.5l-1.84.33c-2.46.43-4.78.36-6.96-.21-2.18-.58-4.09-1.56-5.71-2.95-1.63-1.39-2.91-3.13-3.84-5.21-.93-2.08-1.4-4.4-1.4-6.93v-.61c0-2.54.47-5.01,1.4-7.42.93-2.41,2.21-4.6,3.84-6.57,1.63-1.96,3.53-3.62,5.71-4.96,2.18-1.34,4.5-2.24,6.96-2.67l15.47-2.73v-9.69c0-1.51-.28-2.89-.83-4.12-.56-1.23-1.31-2.25-2.26-3.07-.95-.81-2.07-1.39-3.36-1.74-1.29-.34-2.67-.39-4.14-.13l-4.28.76c-1.47.26-2.85.79-4.14,1.59-1.29.8-2.41,1.77-3.36,2.92-.95,1.15-1.71,2.44-2.26,3.87-.56,1.43-.83,2.9-.83,4.41v2.27l-7.32.06v-.61c0-2.54.47-5.01,1.4-7.42.93-2.41,2.21-4.6,3.84-6.57,1.63-1.96,3.53-3.62,5.71-4.96,2.18-1.34,4.5-2.24,6.96-2.67l4.28-.76c2.46-.43,4.78-.36,6.96.21,2.18.58,4.09,1.56,5.71,2.95,1.63,1.39,2.91,3.13,3.84,5.21.93,2.09,1.4,4.4,1.4,6.93v45.58l-2.44.43Zm-4.88-29.57l-15.47,2.73c-1.47.26-2.85.79-4.14,1.59-1.29.8-2.41,1.79-3.36,2.95-.95,1.17-1.71,2.47-2.26,3.9-.56,1.43-.83,2.9-.83,4.41v2.64c0,1.51.28,2.89.83,4.12.55,1.23,1.31,2.25,2.26,3.07.95.81,2.07,1.39,3.36,1.74,1.29.35,2.67.39,4.14.13l4.88-.86c1.47-.26,2.85-.79,4.14-1.59,1.29-.8,2.41-1.77,3.36-2.92s1.71-2.44,2.26-3.87c.56-1.43.83-2.9.83-4.41v-13.62Z"/>
        <path class="cls-1" d="m469.98,543.8l-4.05-5.67c-1.67,2.62-3.75,4.84-6.25,6.65-2.5,1.81-5.24,2.98-8.21,3.5l-1.84.33c-2.46.43-4.78.36-6.96-.21-2.18-.58-4.09-1.56-5.71-2.95-1.63-1.39-2.91-3.13-3.84-5.21-.93-2.08-1.4-4.4-1.4-6.93v-28.34c0-2.54.47-5.01,1.4-7.42.93-2.41,2.21-4.6,3.84-6.57,1.63-1.96,3.53-3.62,5.71-4.96,2.18-1.34,4.5-2.24,6.96-2.67l1.84-.33c2.74-.48,5.27-.36,7.62.37,2.34.73,4.34,1.97,6.01,3.73v-30.43l7.32-1.29v87.98l-2.44.43Zm-4.88-45.15c0-1.51-.28-2.88-.83-4.12-.56-1.23-1.31-2.25-2.26-3.07-.95-.81-2.07-1.39-3.36-1.74-1.29-.34-2.67-.39-4.13-.13l-4.88.86c-1.47.26-2.85.79-4.14,1.59-1.29.8-2.41,1.77-3.36,2.92-.95,1.15-1.71,2.44-2.26,3.87-.56,1.43-.83,2.9-.83,4.41v29.2c0,1.51.28,2.89.83,4.12.55,1.23,1.31,2.25,2.26,3.07.95.81,2.07,1.39,3.36,1.74,1.29.35,2.67.39,4.14.13l4.88-.86c1.47-.26,2.85-.79,4.13-1.59,1.29-.8,2.41-1.78,3.36-2.92.95-1.15,1.71-2.44,2.26-3.86.55-1.43.83-2.9.83-4.41v-29.2Z"/>
        <path class="cls-1" d="m526.36,523.8c-.93,2.41-2.21,4.6-3.84,6.57-1.63,1.96-3.53,3.62-5.71,4.96-2.18,1.35-4.5,2.24-6.96,2.67l-4.88.86c-2.46.43-4.78.36-6.96-.21-2.18-.58-4.09-1.56-5.71-2.95-1.63-1.39-2.91-3.13-3.84-5.21-.93-2.08-1.4-4.4-1.4-6.93v-28.34c0-2.54.46-5.01,1.4-7.42.93-2.41,2.21-4.6,3.84-6.57,1.63-1.96,3.53-3.62,5.71-4.96,2.18-1.34,4.5-2.24,6.96-2.67l4.88-.86c2.46-.43,4.78-.36,6.96.21,2.18.58,4.08,1.56,5.71,2.95,1.63,1.39,2.91,3.13,3.84,5.21.93,2.09,1.4,4.4,1.4,6.93v28.34c0,2.54-.47,5.01-1.4,7.42Zm-5.92-34.91c0-1.51-.28-2.88-.83-4.12-.56-1.23-1.31-2.25-2.26-3.07-.95-.81-2.07-1.39-3.36-1.74-1.29-.34-2.67-.39-4.13-.13l-4.88.86c-1.47.26-2.85.79-4.14,1.59-1.29.8-2.41,1.77-3.36,2.92-.95,1.15-1.71,2.44-2.26,3.87-.56,1.43-.83,2.9-.83,4.41v29.2c0,1.51.28,2.89.83,4.12.55,1.23,1.31,2.25,2.26,3.07.95.81,2.07,1.39,3.36,1.74,1.29.35,2.67.39,4.14.13l4.88-.86c1.47-.26,2.85-.79,4.13-1.59,1.29-.8,2.41-1.78,3.36-2.92.95-1.15,1.71-2.44,2.26-3.86.55-1.43.83-2.9.83-4.41v-29.2Z"/>
        <path class="cls-1" d="m584.28,507.69c0,2.54-.5,4.94-1.49,7.23-.99,2.28-2.34,4.33-4.05,6.14-1.71,1.81-3.68,3.34-5.92,4.57-2.24,1.23-4.59,2.07-7.05,2.5l-4.88.86c-2.46.43-4.81.37-7.05-.2-2.24-.56-4.21-1.54-5.89-2.92-1.69-1.38-3.04-3.1-4.05-5.18-1.01-2.07-1.52-4.37-1.52-6.91v-2.52l7.32-2.52v4.17c0,1.51.31,2.88.92,4.1.61,1.22,1.44,2.23,2.47,3.03,1.03.8,2.22,1.37,3.57,1.7,1.35.34,2.76.37,4.22.11l4.88-.86c1.47-.26,2.88-.73,4.22-1.42,1.35-.69,2.55-1.54,3.6-2.57,1.05-1.02,1.88-2.18,2.5-3.48.62-1.29.92-2.7.92-4.21,0-2.25-.48-4.01-1.43-5.27-.95-1.26-2.21-2.24-3.78-2.92-1.57-.68-3.35-1.17-5.36-1.45-2-.28-4.06-.55-6.16-.82-2.1-.26-4.16-.63-6.16-1.09-2-.46-3.79-1.22-5.35-2.28-1.57-1.05-2.83-2.5-3.78-4.33-.95-1.84-1.43-4.25-1.43-7.23,0-2.54.48-4.94,1.43-7.22.95-2.27,2.24-4.31,3.87-6.11,1.63-1.8,3.52-3.31,5.68-4.53,2.16-1.22,4.47-2.05,6.93-2.48l4.28-.76c2.46-.43,4.78-.36,6.96.21,2.18.58,4.09,1.56,5.71,2.95,1.63,1.39,2.91,3.13,3.84,5.21.93,2.09,1.4,4.4,1.4,6.93v.25l-7.32,2.52v-1.9c0-1.51-.28-2.88-.83-4.12-.56-1.23-1.31-2.25-2.26-3.07-.95-.81-2.07-1.39-3.36-1.74-1.29-.34-2.67-.39-4.14-.13l-4.28.76c-1.47.26-2.85.73-4.14,1.4-1.29.68-2.41,1.52-3.36,2.53-.95,1.01-1.71,2.15-2.26,3.44-.56,1.29-.83,2.68-.83,4.2,0,2.17.48,3.85,1.43,5.06.95,1.2,2.21,2.14,3.78,2.8,1.57.67,3.35,1.14,5.36,1.42,2,.28,4.05.58,6.13.88,2.08.31,4.12.71,6.13,1.22s3.79,1.29,5.36,2.37c1.57,1.07,2.83,2.54,3.78,4.4.95,1.86,1.43,4.28,1.43,7.26Z"/>
      </g>
      <g>
        <path class="cls-1" d="m249.15,374.69c-.16.55-.58,1.89-1.26,4.02-1.62,5.17-3.8,12.71-6.55,22.62-2.75,9.91-4.89,19.41-6.43,28.49-1.18,6.67-1.47,11.69-.88,15.08.84,3.26,3.09,4.41,6.76,3.45,3.67-.95,7.8-4.12,12.39-9.52,4.59-5.39,8.67-12.31,12.25-20.75,3.57-8.44,5.69-15.47,6.36-21.08.3-2.23.92-3.43,1.85-3.6.17-.03.64.04,1.41.21.77.17,1.69,1.56,2.76,4.16.45,1.06.78,2.22,1.01,3.49.31,1.78.4,3.77.27,5.97-1.31,11.4-5.59,24-12.84,37.8-7.25,13.8-15.58,24.24-24.98,31.3-5.34,3.39-10.38,5.49-15.12,6.33-6.18,1.09-11.19-.12-15.04-3.63-4.65-3.11-7.58-8.09-8.79-14.94-1.06-6.01-1.07-12.97-.02-20.88,1.05-7.91,2.51-15.21,4.38-21.91,2.27-7.9,4.35-16.39,6.25-25.45.24-1.09.48-2.22.71-3.4,2.28-9.83,4.01-21.08,5.17-33.77.55-5.77.42-10.98-.4-15.64-.97-5.5-2.93-10.17-5.88-14.02,2.53-2.45,6.49-4.29,11.86-5.5l1.27-.22c4.82-.85,9.73-.23,14.73,1.85,4.99,2.09,8.61,6.99,10.84,14.71.23.83.44,1.76.62,2.77,1.36,7.7.45,18.38-2.73,32.03Z"/>
        <path class="cls-1" d="m327.18,370.62c4.49-.6,8.98-3.1,12.61-6.26,4.97-4.32,23.02,4.16,17.06,23.8-.25.57-.59,1.59-1.03,3.06-.85,2.59-1.91,5.9-3.16,9.92-1.26,4.02-2.44,8.07-3.55,12.15-1.11,4.08-1.87,7.49-2.26,10.22-.39,2.73-.18,4.16.62,4.28,4.63-.47,9.42-3.62,14.36-9.47,4.95-5.85,8.93-12.57,11.96-20.17,3.02-7.6,9.83,5.79,5.52,17.94-4.32,12.15-10.78,23-19.39,32.54-7.05,7.53-14.58,12.21-22.59,14.06-6.84,1.58-12.98-1.05-18.41-7.88-1.7-2.14-2.06-5.06-1.02-7.59v-.03c.38-.89.65-1.59.82-2.11.17-.51.3-.99.4-1.45-2.38,3.82-5.45,7.94-9.21,12.36-3.76,4.42-7.46,7.91-11.11,10.47-14,6.22-24.28,6.07-30.84-.45-4.01-3.92-6.85-8.91-8.53-14.99-1.13-3.9-1.76-8.24-1.9-13.02-.86-7.88-.45-16.63,1.26-26.27,3.64-19.93,15.05-36.38,34.23-49.36,5.88-3.3,12.07-4.2,18.57-2.69,6.5,1.52,11.71,5.16,15.61,10.93Zm-3.52,31.25c-.41-2.81-1.36-6.11-2.86-9.9-1.5-3.79-3.65-6.6-6.46-8.42-2.81-1.82-6.45-1.07-10.92,2.25-8.1,7.01-13.06,15.39-14.88,25.14-1.82,9.74-1.27,17.66,1.63,23.73,2.9,6.08,7.36,7.12,13.38,3.14,6.02-3.98,12.72-15.96,20.1-35.94Z"/>
        <path class="cls-1" d="m550.06,370.2c-2.66,9.2-3.74,15.15-3.27,17.85.09.51.25.92.48,1.22.41.36.92.49,1.51.39,1.44-.25,3.73-2.45,6.89-6.58,3.15-4.13,6.48-10.04,9.96-17.73,3.49-7.68,5.71-15.01,6.66-21.99.09-.98,7.73,11.16-1.14,38.82-4.09,12.76-11.93,23.44-20.61,33.09-5.18,5.28-11.13,9.38-17.86,12.31-2.35,1.02-4.54,1.72-6.57,2.08-4.06.72-7.72.27-10.97-1.34-3.25-1.61-5.35-5.12-6.31-10.54-.46-2.62-.66-5.73-.6-9.32.89-9.32,3.12-18.44,6.69-27.36.88-2.42,1.68-4.83,2.39-7.23,2.08-6.04,3.34-10.97,3.8-14.81.14-1.16.14-2.16,0-3.01-.31-1.78-1.38-2.64-3.2-2.58-3.54.71-7.85,4.83-12.94,12.36-5.09,7.53-9.12,15.7-12.11,24.52-2.2,9.81-2.79,17.55-1.8,23.22.15.85.71,2.89,1.67,6.12.96,3.23,2.24,5.67,3.84,7.31.24.39.42.67.54.82-8.14,6.32-15,9.97-20.58,10.96-2.54.45-5.9-.03-10.07-1.43-4.18-1.4-7.09-6.32-8.75-14.75l-.2-1.14c-1.43-8.13-1.09-16.83,1.03-26.1.9-3.82,1.81-7.56,2.73-11.22.94-3.57,2.03-7.91,3.27-13.01,1.24-5.1,2.98-12.81,5.22-23.11,2.24-10.3,3.95-21.79,5.11-34.48.55-5.77.42-10.98-.4-15.64-.97-5.5-2.93-10.17-5.88-14.02,2.84-2.68,7.26-4.6,13.26-5.74l.38-.07c5.84-1.03,28.69-4.45,27.18,30.55-.26,5.94-2.51,19.07-9.46,39.5,6.38-9.85,14.23-18.78,23.55-26.8,5.92-5.06,11.33-8.02,16.24-8.88,2.79-.49,5.4-.3,7.83.58,4.64,2.58,7.48,6.8,8.51,12.64.16.93.42,3.5.77,7.72.35,4.21-.33,10.27-2.03,18.16-1.71,7.89-3.29,14.11-4.76,18.64Z"/>
        <path class="cls-1" d="m66.81,343.11c.15-1.29-1.18-2.24-2.35-1.7-27.58,12.58-33.39,34.4-30.31,51.89,1.62,9.18,5.91,17.46,10.8,23.54.5.63-1.09,2.39-1.62,3l-12.44,16.22c-6.55,6.25-10.22,3.75-10.91,3.2-12.27-9.93-16.4-22.22-18.95-36.69-6.91-39.17,21.08-80.32,86.36-91.83,47.24-8.33,90.1,2.96,96.46,39.04,3.31,18.77-4.61,36.86-21.97,48.86-1.07.74-.89,2.37.31,2.87,18.01,7.46,28.32,22.16,31.22,38.61,5.44,30.86-14.75,62.07-55.82,69.32-22.39,3.95-36.77,1.93-51.12-7.4-1-.65-2.34-.03-2.52,1.15h0c-.12.78-.77,1.37-1.56,1.41-19.39,1.02-33.07,2.58-35.13-.94-.02-.04-.05-.08-.08-.12-8.34-9.71,4.56-27.81,19.63-160.41Zm24.43,68.76l-3.36,64.26c-.03.56.22,1.1.67,1.43,8.66,6.3,19.43,7.48,33.06,5.07,26.35-4.65,37.56-25.71,34.38-43.75-2.03-11.53-10.81-23.08-25.56-27.62-.25-.08-.51-.09-.76-.05-11.25,1.9-24.04.59-36.59-.9-.95-.11-1.79.6-1.84,1.55Zm3.04-77.26l-1.8,58.37c-.03.93.71,1.68,1.63,1.7,7.1.16,15.55-.99,22.14-2.15,31.1-5.48,32.79-27.81,31.24-36.59-2.83-16.06-26.31-24.16-51.64-22.94-.86.04-1.54.75-1.57,1.61Z"/>
        <path class="cls-1" d="m355.18,422.42c-3.02-17.13,7.56-25.09,15.11-25.16,5.03-15.6,10.38-43.24,12.84-60.28l16.36,6.04c12.13,23.51,42.34,40.37,46.62,64.63.93,5.3,1.02,10.54.21,15.52,9.81-9.93,15.2-23.49,20.05-40.11,3.91-.48,10.16,1.57,12.63,3.66-8.64,33.27-24.89,60.31-66.69,67.68-29.77,5.25-53.51-11.38-57.14-31.97Zm36.18-54.73c-2.41,11.36-5.44,22.82-8.81,33.51,2.95,2.42,5.23,5.81,5.95,9.88,1.08,6.12-1.45,12.03-5.84,15.75,2.85,6.64,10.11,10.83,18.87,9.28,10.4-1.83,16.37-10.87,14.14-23.52-2.52-14.27-15.55-28.58-24.31-44.9Z"/>
      </g>
    </g>
    <path class="cls-1" d="m95.58,266.51c-9.59,0-17.36-7.77-17.36-17.36v-32.12C78.21,97.37,175.55.01,295.2,0c105.63,0,195.5,75.42,213.71,179.35,1.65,9.44-4.66,18.44-14.11,20.1-9.44,1.65-18.44-4.66-20.1-14.11-15.28-87.28-90.77-150.62-179.48-150.62h-.02c-100.51,0-182.28,81.79-182.27,182.3v32.12c0,9.59-7.77,17.36-17.36,17.36Z"/>
    <path class="cls-1" d="m296.53,868.4c-105.62,0-195.48-75.42-213.69-179.35-1.65-9.44,4.66-18.44,14.11-20.1,9.44-1.65,18.44,4.66,20.1,14.11,15.28,87.27,90.77,150.62,179.48,150.62h.02c48.69,0,94.46-18.97,128.89-53.4,34.43-34.43,53.38-80.21,53.38-128.9v-32.12c0-9.59,7.77-17.36,17.36-17.36,9.59,0,17.36,7.77,17.36,17.36v32.12c0,57.96-22.56,112.46-63.54,153.45-40.98,40.99-95.48,63.57-153.44,63.57h-.02Z"/>
    <polygon class="cls-1" points="294.94 79.4 314.31 118.64 357.62 124.93 326.28 155.48 333.68 198.61 294.94 178.24 256.21 198.61 263.61 155.48 232.27 124.93 275.58 118.64 294.94 79.4"/>
  </g>
</svg>