<?xml version="1.0" encoding="utf-8"?>
<!-- Generator: Adobe Illustrator 27.8.1, SVG Export Plug-In . SVG Version: 6.00 Build 0)  -->
<svg version="1.1" xmlns="http://www.w3.org/2000/svg" xmlns:xlink="http://www.w3.org/1999/xlink" x="0px" y="0px"
	 viewBox="0 0 236.4 178.5" style="enable-background:new 0 0 236.4 178.5;" xml:space="preserve">
<style type="text/css">
	.st0{display:none;}
	.st1{display:inline;}
	.st2{fill:#FFFFFF;}
	.st3{fill:#FF6699;}
</style>
<g id="Camada_2" class="st0">
	<rect class="st1" width="400" height="400"/>
</g>
<g id="Camada_1">
	<g>
		<path class="st2" d="M125.4,4.4l0.8,1.5c2.4-1.3,4.9-1.9,7.4-1.9c3.3,0,6.5,1.1,9.2,3c2.7,1.9,4.7,4.7,5.7,8.2l0,0
			c1.8,6.2,6.6,11,12.8,12.8c3.5,1,6.3,3.1,8.2,5.7c1.9,2.7,3,5.9,3,9.2c0,2.5-0.6,5-1.9,7.4l-0.2,0.4v0.4h1.7l-1.5-0.8
			c-1.5,2.8-2.3,5.9-2.3,9.1c0,3.1,0.8,6.2,2.3,9.1c1.3,2.4,1.9,4.9,1.9,7.4c0,3.3-1.1,6.5-3,9.2c-1.9,2.7-4.7,4.7-8.2,5.7
			c-6.2,1.8-11,6.6-12.8,12.8c-1,3.5-3.1,6.3-5.7,8.2c-2.7,1.9-5.9,3-9.2,3c-2.5,0-5-0.6-7.4-1.9c-2.8-1.5-5.9-2.3-9.1-2.3
			c-3.1,0-6.2,0.8-9.1,2.3c-2.4,1.3-4.9,1.9-7.4,1.9c-3.3,0-6.5-1.1-9.2-3c-2.7-1.9-4.7-4.7-5.7-8.2l-0.3-1.2h-1.2v1.7l1.6-0.5
			c-1.8-6.2-6.6-11-12.8-12.8c-3.5-1-6.3-3.1-8.2-5.7c-1.9-2.7-3-5.9-3-9.2c0-2.5,0.6-5,1.9-7.4l0,0c1.5-2.8,2.3-5.9,2.3-9.1
			c0-3.1-0.8-6.2-2.3-9.1l-1.5,0.8h1.7v-0.4l-0.2-0.4c-1.3-2.4-1.9-4.9-1.9-7.4c0-3.3,1.1-6.5,3-9.2c1.9-2.7,4.7-4.7,8.2-5.7
			c6.2-1.8,11-6.6,12.8-12.8l-1.6-0.5v1.7h1.2l0.3-1.2c1-3.5,3.1-6.3,5.7-8.2c2.7-1.9,5.9-3,9.2-3c2.5,0,5,0.6,7.4,1.9l0,0
			c2.8,1.5,5.9,2.3,9.1,2.3c3.1,0,6.2-0.8,9.1-2.3L125.4,4.4l-0.8-1.5c-2.3,1.3-4.9,1.9-7.5,1.9c-2.6,0-5.1-0.6-7.5-1.9l0,0
			c-2.9-1.6-6-2.3-9-2.3c-4,0-7.9,1.3-11.2,3.6c-3.2,2.3-5.7,5.8-7,9.9l1.6,0.5V13h-1.2l-0.3,1.2C81,19.3,77,23.2,71.9,24.7
			c-4.2,1.2-7.6,3.8-9.9,7c-2.3,3.2-3.6,7.1-3.6,11.2c0,3,0.7,6.1,2.3,9l1.5-0.8h-1.7v0.4l0.2,0.4c1.3,2.3,1.9,4.9,1.9,7.5
			c0,2.6-0.6,5.1-1.9,7.5h0c-1.6,2.9-2.3,6-2.3,9c0,4,1.3,7.9,3.6,11.2c2.3,3.2,5.8,5.7,9.9,7c5.1,1.5,9.1,5.5,10.6,10.6l0.3,1.2
			h1.2v-1.7l-1.6,0.5c1.2,4.2,3.8,7.6,7,9.9c3.2,2.3,7.1,3.6,11.2,3.6c3,0,6.1-0.7,9-2.3c2.3-1.3,4.9-1.9,7.5-1.9
			c2.6,0,5.1,0.6,7.5,1.9c2.9,1.6,6,2.3,9,2.3c4,0,7.9-1.3,11.2-3.6c3.2-2.3,5.7-5.8,7-9.9c1.5-5.1,5.5-9.1,10.6-10.6
			c4.2-1.2,7.6-3.8,9.9-7c2.3-3.2,3.6-7.1,3.6-11.2c0-3-0.7-6.1-2.3-9c-1.3-2.3-1.9-4.9-1.9-7.5s0.6-5.1,1.9-7.5l0.2-0.4v-0.4h-1.7
			l1.5,0.8c1.6-2.9,2.3-6,2.3-9c0-4-1.3-7.9-3.6-11.2c-2.3-3.2-5.8-5.7-9.9-7c-5.1-1.5-9.1-5.5-10.6-10.6v0c-1.2-4.2-3.8-7.6-7-9.9
			c-3.2-2.3-7.1-3.6-11.2-3.6c-3,0-6.1,0.7-9,2.3L125.4,4.4L125.4,4.4z"/>
		<path class="st3" d="M148.2,25.1c-0.1,0-4.3,0.7-9.6,2.7c-2.7,1-5.6,2.4-8.5,4.2c-2.9,1.8-5.7,4.1-8.1,7c-2.7,3.2-4.3,7-5.5,10.8
			c-1.7,5.8-2.3,11.8-3.3,17.3c-0.5,2.7-1.1,5.3-1.9,7.5c-0.8,2.3-1.9,4.2-3.3,5.8c-4.4,5-9.8,8.2-14.1,10.2c-2.1,1-4,1.7-5.3,2.1
			c-0.7,0.2-1.2,0.4-1.5,0.5c-0.2,0-0.3,0.1-0.4,0.1c0,0-0.1,0-0.1,0l0,0l0,0l0.1,0.6l-0.1-0.6l0,0l0.1,0.6l-0.1-0.6l0.7,3.2
			c0.1,0,3.4-0.8,8-2.9c4.6-2.1,10.3-5.5,15.2-11c1.2-1.3,2.1-2.8,2.9-4.4c1.4-2.8,2.2-5.9,2.8-9.1c1-4.8,1.5-10,2.6-14.9
			c0.5-2.4,1.2-4.8,2.2-7c0.9-2.2,2.1-4.2,3.6-6.1c2.1-2.5,4.6-4.6,7.3-6.3c4-2.5,8.2-4.2,11.5-5.1c1.6-0.5,3-0.8,3.9-1
			c0.5-0.1,0.9-0.2,1.1-0.2c0.1,0,0.2,0,0.3-0.1l0.1,0l0,0l0,0L148.2,25.1L148.2,25.1z"/>
		<path class="st2" d="M128.5,14.5c-0.1,0-4,0.4-9,2c-2.5,0.8-5.3,2-7.9,3.5c-2.7,1.6-5.3,3.6-7.4,6.2c-2.4,3-3.8,6.4-4.7,10
			c-0.7,2.7-1.1,5.4-1.4,8.1c-0.5,4.1-0.7,8.1-1.4,11.5c-0.3,1.7-0.8,3.3-1.3,4.7c-0.6,1.4-1.3,2.6-2.2,3.7
			c-3.9,4.4-8.8,7.1-12.7,8.7c-2,0.8-3.7,1.3-4.9,1.7c-0.6,0.2-1.1,0.3-1.4,0.3c-0.2,0-0.3,0.1-0.4,0.1l-0.1,0l0,0h0l0.6,3.3
			c0.1,0,3.2-0.6,7.5-2.3c4.2-1.7,9.6-4.7,13.9-9.5c1.1-1.2,1.9-2.6,2.6-4.1c1.2-2.6,1.8-5.5,2.2-8.5c0.6-4.5,0.9-9.3,1.7-13.8
			c0.4-2.2,0.9-4.4,1.7-6.4c0.8-2,1.7-3.8,3-5.4c1.8-2.2,4.1-4,6.5-5.4c3.6-2.1,7.5-3.4,10.6-4.2c1.5-0.4,2.8-0.6,3.7-0.8
			c0.4-0.1,0.8-0.1,1-0.1c0.1,0,0.2,0,0.3,0l0.1,0l0,0h0L128.5,14.5L128.5,14.5z"/>
		<path class="st2" d="M160.9,41.7c-0.1,0-4.1,0.4-9.1,2.1c-2.5,0.8-5.3,2-8,3.6c-2.7,1.6-5.3,3.6-7.4,6.3c-2.4,3-3.8,6.5-4.8,10.1
			c-0.7,2.7-1.1,5.5-1.4,8.2c-0.5,4.1-0.8,8.1-1.5,11.6c-0.3,1.7-0.8,3.4-1.4,4.8c-0.6,1.4-1.3,2.7-2.3,3.7c-4,4.4-8.9,7.2-12.9,8.8
			c-2,0.8-3.7,1.4-4.9,1.7c-0.6,0.2-1.1,0.3-1.4,0.4c-0.2,0-0.3,0.1-0.4,0.1l-0.1,0l0,0l0,0l0.6,3.3c0.1,0,3.3-0.6,7.5-2.4
			c4.3-1.8,9.6-4.8,14.1-9.7c1.1-1.2,1.9-2.6,2.6-4.1c1.2-2.6,1.8-5.5,2.3-8.5c0.7-4.5,0.9-9.4,1.8-13.9c0.4-2.3,0.9-4.4,1.7-6.5
			c0.8-2,1.8-3.9,3.1-5.5c1.8-2.2,4.1-4.1,6.5-5.5c3.7-2.2,7.6-3.5,10.7-4.3c1.5-0.4,2.8-0.6,3.7-0.8c0.4-0.1,0.8-0.1,1-0.2
			c0.1,0,0.2,0,0.3,0l0.1,0l0,0h0L160.9,41.7L160.9,41.7z"/>
		<path class="st2" d="M71.2,60.3h-1.7c0,13.1,5.3,25,13.9,33.6c8.6,8.6,20.5,13.9,33.6,13.9c13.1,0,25-5.3,33.6-13.9
			c8.6-8.6,13.9-20.5,13.9-33.6c0-13.1-5.3-25-13.9-33.6c-8.6-8.6-20.5-13.9-33.6-13.9c-13.1,0-25,5.3-33.6,13.9
			c-8.6,8.6-13.9,20.5-13.9,33.6h3.3c0-12.2,4.9-23.3,13-31.3c8-8,19.1-13,31.3-13c12.2,0,23.3,4.9,31.3,13c8,8,13,19.1,13,31.3
			c0,12.2-4.9,23.3-13,31.3c-8,8-19.1,13-31.3,13c-12.2,0-23.3-4.9-31.3-13c-8-8-13-19.1-13-31.3H71.2L71.2,60.3z"/>
		<path class="st2" d="M0.7,150.8l2.4-1.4c1.7,3.1,3.6,4.6,5.8,4.6c0.9,0,1.8-0.2,2.6-0.7c0.8-0.4,1.4-1,1.9-1.7
			c0.4-0.7,0.6-1.5,0.6-2.3c0-0.9-0.3-1.8-0.9-2.7c-0.9-1.2-2.5-2.7-4.8-4.5c-2.3-1.8-3.8-3-4.3-3.8c-1-1.3-1.5-2.7-1.5-4.3
			c0-1.2,0.3-2.3,0.9-3.3c0.6-1,1.4-1.8,2.5-2.3c1.1-0.6,2.2-0.9,3.4-0.9c1.3,0,2.5,0.3,3.7,1c1.1,0.6,2.4,1.8,3.6,3.6l-2.3,1.7
			c-1.1-1.4-1.9-2.3-2.7-2.7c-0.7-0.4-1.5-0.7-2.4-0.7c-1.1,0-2.1,0.3-2.8,1c-0.7,0.7-1.1,1.5-1.1,2.5c0,0.6,0.1,1.2,0.4,1.8
			c0.3,0.6,0.7,1.2,1.4,1.9c0.4,0.3,1.6,1.3,3.6,2.8c2.4,1.8,4.1,3.4,5,4.7c0.9,1.4,1.3,2.8,1.3,4.2c0,2-0.8,3.8-2.3,5.3
			c-1.5,1.5-3.4,2.2-5.6,2.2c-1.7,0-3.2-0.5-4.6-1.4C3.2,154.4,1.9,152.9,0.7,150.8L0.7,150.8z"/>
		<path class="st2" d="M34.3,128.2l13,27.8h-3l-4.3-9.1h-12l-4.3,9.1h-3.1l13.1-27.8H34.3L34.3,128.2z M33.9,134l-4.8,10.1h9.5
			L33.9,134L33.9,134z"/>
		<polygon class="st2" points="51.6,156 51.6,128.2 52.2,128.2 70.6,149.4 70.6,128.2 73.4,128.2 73.4,156 72.8,156 54.4,134.9 
			54.4,156 51.6,156 		"/>
		<path class="st2" d="M80.2,156v-27.8h5.8c4.2,0,7.2,0.3,9.1,1c2.7,0.9,4.8,2.6,6.3,4.9c1.5,2.3,2.3,5.1,2.3,8.3
			c0,2.8-0.6,5.2-1.8,7.3c-1.2,2.1-2.8,3.7-4.7,4.7c-1.9,1-4.6,1.5-8.1,1.5H80.2L80.2,156z M82.8,153.3H86c3.8,0,6.5-0.2,8-0.7
			c2.1-0.7,3.7-1.9,4.9-3.7c1.2-1.8,1.8-3.9,1.8-6.5c0-2.7-0.6-5-1.9-6.9c-1.3-1.9-3.1-3.2-5.4-3.9c-1.7-0.5-4.6-0.8-8.6-0.8h-2
			V153.3L82.8,153.3z"/>
		<polygon class="st2" points="106.8,128.2 110,128.2 117.2,139.8 124.2,128.2 127.4,128.2 118.6,142.7 118.6,156 115.8,156 
			115.8,142.7 106.8,128.2 		"/>
		<polygon class="st3" points="142.4,128.2 157.6,128.2 157.6,133.3 147.7,133.3 147.7,138.3 157.6,138.3 157.6,143.4 147.7,143.4 
			147.7,150.8 157.6,150.8 157.6,156 142.4,156 142.4,128.2 		"/>
		<polygon class="st3" points="162.6,128.2 167.6,128.2 179.6,146.4 179.6,128.2 184.8,128.2 184.8,156 179.8,156 167.8,137.7 
			167.8,156 162.6,156 162.6,128.2 		"/>
		<path class="st3" d="M191.2,128.2h6.3c4,0,7,0.5,9,1.5c2,1,3.6,2.6,4.9,4.9c1.3,2.3,1.9,4.9,1.9,7.9c0,2.1-0.4,4.1-1.1,5.9
			c-0.7,1.8-1.7,3.3-2.9,4.5c-1.3,1.2-2.6,2-4.1,2.5c-1.5,0.5-4,0.7-7.6,0.7h-6.4V128.2L191.2,128.2z M196.5,133.3v17.5h2.5
			c2.4,0,4.2-0.3,5.3-0.8c1.1-0.6,2-1.5,2.7-2.8c0.7-1.3,1-2.9,1-4.8c0-2.9-0.8-5.2-2.5-6.9c-1.5-1.5-3.9-2.2-7.2-2.2H196.5
			L196.5,133.3z"/>
		<polygon class="st3" points="218.3,128.2 233.5,128.2 233.5,133.3 223.6,133.3 223.6,138.3 233.5,138.3 233.5,143.4 223.6,143.4 
			223.6,150.8 233.5,150.8 233.5,156 218.3,156 218.3,128.2 		"/>
		<path class="st2" d="M30.1,170.9c0,2.9,1.4,4.3,3.7,4.3c1.4,0,2.3-0.6,2.7-1c0.2-0.2,0.2-0.3,0.2-0.4c0-0.3-0.2-0.5-0.5-0.5
			c-0.1,0-0.2,0-0.3,0.1c-0.4,0.3-1,0.8-2.1,0.8c-1.6,0-2.5-1-2.5-3.3c0-2.2,0.9-3.2,2.5-3.2c1.2,0,1.7,0.5,1.9,0.8
			c0.1,0.1,0.2,0.2,0.4,0.2c0.3,0,0.5-0.2,0.5-0.5c0-0.1,0-0.2-0.1-0.3c-0.3-0.4-1.2-1.2-2.7-1.2C31.4,166.6,30.1,168,30.1,170.9
			L30.1,170.9z"/>
		<path class="st2" d="M41.6,166.6c-2.3,0-3.7,1.4-3.7,4.3c0,2.9,1.4,4.3,3.7,4.3c2.3,0,3.7-1.4,3.7-4.3
			C45.4,168,44,166.6,41.6,166.6L41.6,166.6z M41.6,174.2c-1.6,0-2.6-1-2.6-3.3c0-2.2,0.9-3.2,2.6-3.2c1.6,0,2.6,1,2.6,3.2
			C44.2,173.2,43.3,174.2,41.6,174.2L41.6,174.2z"/>
		<path class="st2" d="M50.7,166.6c-1.2,0-2,0.6-2.4,1.2v-0.6c0-0.3-0.2-0.6-0.6-0.6c-0.3,0-0.6,0.2-0.6,0.6v7.2
			c0,0.3,0.2,0.6,0.6,0.6c0.3,0,0.6-0.2,0.6-0.6v-4.4c0-1.4,0.6-2.5,2.4-2.5c1.7,0,2.1,1,2.1,2.4v4.5c0,0.3,0.2,0.6,0.6,0.6
			c0.3,0,0.6-0.2,0.6-0.6v-4.8C53.9,168.3,53.4,166.6,50.7,166.6L50.7,166.6z"/>
		<path class="st2" d="M58.6,167.7c0.9,0,1.5,0.3,1.9,0.7c0.1,0.1,0.3,0.2,0.4,0.2c0.3,0,0.5-0.2,0.5-0.5c0-0.2-0.1-0.3-0.1-0.3
			c-0.6-0.7-1.5-1.1-2.7-1.1c-1.5,0-2.7,0.7-2.7,2.2c0,2.9,4.7,2.2,4.7,4c0,0.9-0.9,1.3-1.9,1.3c-1,0-1.7-0.3-2.3-0.9
			c-0.1-0.1-0.3-0.2-0.4-0.2c-0.3,0-0.5,0.2-0.5,0.5c0,0.1,0,0.2,0.1,0.3c0.5,0.6,1.6,1.3,3,1.3c1.7,0,3-0.7,3-2.3
			c0-2.8-4.7-2.2-4.7-4C57,168,57.8,167.7,58.6,167.7L58.6,167.7z"/>
		<path class="st2" d="M64,166.7c-0.3,0-0.6,0.2-0.6,0.6v4.6c0,1.7,0.6,3.2,3.3,3.2c2.8,0,3.3-1.5,3.3-3.2v-4.6
			c0-0.3-0.2-0.6-0.6-0.6c-0.3,0-0.6,0.2-0.6,0.6v4.6c0,1.2-0.4,2.2-2.2,2.2c-1.8,0-2.2-1-2.2-2.2v-4.6
			C64.6,167,64.3,166.7,64,166.7L64,166.7z"/>
		<path class="st2" d="M72.8,162.3c-0.3,0-0.6,0.3-0.6,0.6V173c0,1.4,0.7,2.1,1.9,2.1c0.3,0,0.5-0.2,0.5-0.5S74.3,174,74,174
			c-0.5,0-0.7-0.3-0.7-1v-10.2C73.3,162.6,73.1,162.3,72.8,162.3L72.8,162.3z"/>
		<path class="st2" d="M76.5,166.9h-0.7c-0.3,0-0.5,0.2-0.5,0.5c0,0.3,0.2,0.5,0.5,0.5h0.7v4.9c0,1.3,0.8,2.2,2.2,2.2
			c0.3,0,0.6-0.2,0.6-0.5S79,174,78.7,174c-0.6,0-1-0.4-1-1.2V168h1.2c0.3,0,0.5-0.2,0.5-0.5c0-0.3-0.2-0.5-0.5-0.5h-1.2V165
			c0-0.3-0.2-0.6-0.6-0.6c-0.3,0-0.6,0.3-0.6,0.6V166.9L76.5,166.9z"/>
		<path class="st2" d="M84.3,166.6c-2.3,0-3.7,1.4-3.7,4.3c0,2.9,1.4,4.3,3.7,4.3c2.3,0,3.7-1.4,3.7-4.3
			C88,168,86.6,166.6,84.3,166.6L84.3,166.6z M84.3,174.2c-1.6,0-2.6-1-2.6-3.3c0-2.2,0.9-3.2,2.6-3.2c1.6,0,2.6,1,2.6,3.2
			C86.8,173.2,85.9,174.2,84.3,174.2L84.3,174.2z"/>
		<path class="st2" d="M90.9,167.3c0-0.3-0.2-0.6-0.6-0.6c-0.3,0-0.6,0.2-0.6,0.6v7.2c0,0.3,0.2,0.6,0.6,0.6c0.3,0,0.6-0.2,0.6-0.6
			v-4c0-1.6,0.8-2.8,2.5-2.8c0.3,0,0.6-0.2,0.6-0.6s-0.2-0.6-0.6-0.6c-1.2,0-2.1,0.6-2.5,1.4V167.3L90.9,167.3z"/>
		<path class="st2" d="M96.4,167.3c0-0.3-0.2-0.6-0.6-0.6c-0.3,0-0.6,0.2-0.6,0.6v7.2c0,0.3,0.2,0.6,0.6,0.6c0.3,0,0.6-0.2,0.6-0.6
			V167.3L96.4,167.3z M95.8,165.1c0.4,0,0.7-0.2,0.7-0.7c0-0.5-0.2-0.7-0.7-0.7c-0.4,0-0.7,0.2-0.7,0.7
			C95.1,164.8,95.4,165.1,95.8,165.1L95.8,165.1z"/>
		<path class="st2" d="M101.7,167.7c1.3,0,2.1,0.7,2.1,2v0.5h-2.5c-1.9,0-3.1,0.9-3.1,2.5c0,1.6,1.2,2.5,3.1,2.5
			c1.1,0,2.1-0.4,2.5-1.3v0.6c0,0.3,0.2,0.6,0.6,0.6c0.3,0,0.6-0.2,0.6-0.6v-4.9c0-1.8-1.1-3-3.2-3c-1.5,0-2.5,0.6-3,1.4
			c-0.1,0.1-0.1,0.2-0.1,0.3c0,0.3,0.2,0.5,0.5,0.5c0.2,0,0.3-0.1,0.5-0.2C100.2,168,100.7,167.7,101.7,167.7L101.7,167.7z
			 M101.3,174.2c-1.4,0-2-0.6-2-1.5c0-1,0.8-1.5,2-1.5h2.5v0.7C103.8,173.4,102.6,174.2,101.3,174.2L101.3,174.2z"/>
		<path class="st2" d="M114.2,166.6c-2.1,0-3.3,1.2-3.3,3c0,0.8,0.2,1.4,0.6,1.9c-0.4,0.3-0.7,0.7-0.7,1.2c0,0.7,0.4,1.2,1.1,1.4
			c-0.8,0.3-1.4,1-1.4,1.8c0,2,2,2.5,3.8,2.5c2.2,0,3.8-0.7,3.8-2.6c0-1.7-1.4-2.4-3.1-2.4h-1.8c-1.1,0-1.3-0.4-1.3-0.7
			c0-0.3,0.1-0.5,0.3-0.6c0.5,0.3,1.2,0.4,1.9,0.4c2.1,0,3.3-1.2,3.3-3c0-0.8-0.2-1.4-0.6-1.9c0.1-0.3,0.3-0.6,0.9-0.6
			c0.3,0,0.5-0.2,0.5-0.5c0-0.3-0.2-0.5-0.5-0.5c-0.9,0-1.3,0.4-1.6,1C115.6,166.8,114.9,166.6,114.2,166.6L114.2,166.6z
			 M114.2,171.6c-1.4,0-2.1-0.8-2.1-2c0-1.2,0.7-2,2.1-2c1.4,0,2.1,0.8,2.1,2C116.3,170.8,115.5,171.6,114.2,171.6L114.2,171.6z
			 M117,176c0,1.2-1.2,1.6-2.7,1.6c-1.4,0-2.7-0.4-2.7-1.5c0-0.7,0.5-1.2,1.5-1.4h1.9C116.2,174.6,117,175,117,176L117,176z"/>
		<path class="st2" d="M122.7,167.7c1.3,0,2.1,0.7,2.1,2v0.5h-2.5c-1.9,0-3.1,0.9-3.1,2.5c0,1.6,1.2,2.5,3.1,2.5
			c1.1,0,2.1-0.4,2.5-1.3v0.6c0,0.3,0.2,0.6,0.6,0.6s0.6-0.2,0.6-0.6v-4.9c0-1.8-1.1-3-3.2-3c-1.5,0-2.5,0.6-3,1.4
			c-0.1,0.1-0.1,0.2-0.1,0.3c0,0.3,0.2,0.5,0.5,0.5c0.2,0,0.3-0.1,0.5-0.2C121.2,168,121.8,167.7,122.7,167.7L122.7,167.7z
			 M122.4,174.2c-1.4,0-2-0.6-2-1.5c0-1,0.8-1.5,2-1.5h2.5v0.7C124.8,173.4,123.6,174.2,122.4,174.2L122.4,174.2z"/>
		<path class="st2" d="M130.6,167.7c0.9,0,1.5,0.3,1.9,0.7c0.1,0.1,0.3,0.2,0.4,0.2c0.3,0,0.5-0.2,0.5-0.5c0-0.2-0.1-0.3-0.1-0.3
			c-0.6-0.7-1.5-1.1-2.7-1.1c-1.5,0-2.7,0.7-2.7,2.2c0,2.9,4.7,2.2,4.7,4c0,0.9-0.9,1.3-1.9,1.3c-1,0-1.7-0.3-2.3-0.9
			c-0.1-0.1-0.3-0.2-0.4-0.2c-0.3,0-0.5,0.2-0.5,0.5c0,0.1,0,0.2,0.1,0.3c0.5,0.6,1.6,1.3,3,1.3c1.7,0,3-0.7,3-2.3
			c0-2.8-4.7-2.2-4.7-4C129,168,129.8,167.7,130.6,167.7L130.6,167.7z"/>
		<path class="st2" d="M136,166.9h-0.7c-0.3,0-0.5,0.2-0.5,0.5c0,0.3,0.2,0.5,0.5,0.5h0.7v4.9c0,1.3,0.8,2.2,2.2,2.2
			c0.3,0,0.6-0.2,0.6-0.5s-0.2-0.5-0.6-0.5c-0.6,0-1-0.4-1-1.2V168h1.2c0.3,0,0.5-0.2,0.5-0.5c0-0.3-0.2-0.5-0.5-0.5h-1.2V165
			c0-0.3-0.2-0.6-0.6-0.6c-0.3,0-0.6,0.3-0.6,0.6V166.9L136,166.9z"/>
		<path class="st2" d="M141.7,167.3c0-0.3-0.2-0.6-0.6-0.6c-0.3,0-0.6,0.2-0.6,0.6v7.2c0,0.3,0.2,0.6,0.6,0.6c0.3,0,0.6-0.2,0.6-0.6
			v-4c0-1.6,0.8-2.8,2.5-2.8c0.3,0,0.6-0.2,0.6-0.6s-0.2-0.6-0.6-0.6c-1.2,0-2.1,0.6-2.5,1.4V167.3L141.7,167.3z"/>
		<path class="st2" d="M149.2,166.6c-2.3,0-3.7,1.4-3.7,4.3c0,2.9,1.4,4.3,3.7,4.3c2.3,0,3.7-1.4,3.7-4.3
			C152.9,168,151.5,166.6,149.2,166.6L149.2,166.6z M149.2,174.2c-1.6,0-2.6-1-2.6-3.3c0-2.2,0.9-3.2,2.6-3.2c1.6,0,2.6,1,2.6,3.2
			C151.8,173.2,150.8,174.2,149.2,174.2L149.2,174.2z"/>
		<path class="st2" d="M158.2,166.6c-1.2,0-2,0.6-2.4,1.2v-0.6c0-0.3-0.2-0.6-0.6-0.6c-0.3,0-0.6,0.2-0.6,0.6v7.2
			c0,0.3,0.2,0.6,0.6,0.6c0.3,0,0.6-0.2,0.6-0.6v-4.4c0-1.4,0.6-2.5,2.4-2.5c1.7,0,2.1,1,2.1,2.4v4.5c0,0.3,0.2,0.6,0.6,0.6
			c0.3,0,0.6-0.2,0.6-0.6v-4.8C161.5,168.3,160.9,166.6,158.2,166.6L158.2,166.6z"/>
		<path class="st2" d="M166.8,166.6c-2.3,0-3.7,1.4-3.7,4.3c0,2.9,1.4,4.3,3.7,4.3c2.3,0,3.7-1.4,3.7-4.3
			C170.5,168,169.1,166.6,166.8,166.6L166.8,166.6z M166.8,174.2c-1.6,0-2.6-1-2.6-3.3c0-2.2,0.9-3.2,2.6-3.2c1.6,0,2.6,1,2.6,3.2
			C169.4,173.2,168.4,174.2,166.8,174.2L166.8,174.2z M168.3,165.6c0,0,0.1,0.1,0.3,0.1c0.2,0,0.4-0.2,0.4-0.4
			c0-0.1-0.1-0.2-0.2-0.3l-1.7-1.4c-0.1-0.1-0.1-0.1-0.3-0.1c-0.1,0-0.2,0.1-0.3,0.1l-1.7,1.4c-0.1,0.1-0.2,0.2-0.2,0.3
			c0,0.2,0.2,0.4,0.4,0.4c0.2,0,0.2-0.1,0.3-0.1l1.4-1.2L168.3,165.6L168.3,165.6z"/>
		<path class="st2" d="M181.2,166.6c-1.4,0-2.2,0.6-2.6,1.2c-0.4-0.7-1.4-1.2-2.8-1.2c-1.2,0-2,0.6-2.3,1.2v-0.6
			c0-0.3-0.2-0.6-0.6-0.6c-0.3,0-0.6,0.2-0.6,0.6v7.2c0,0.3,0.2,0.6,0.6,0.6c0.3,0,0.6-0.2,0.6-0.6v-4.4c0-1.5,0.5-2.5,2.2-2.5
			c1.7,0,2.2,1,2.2,2.4v4.5c0,0.3,0.2,0.6,0.6,0.6c0.3,0,0.6-0.2,0.6-0.6v-4.8c0-1.3,0.7-2.1,2.2-2.1c1.7,0,2.2,1,2.2,2.4v4.5
			c0,0.3,0.2,0.6,0.6,0.6c0.3,0,0.6-0.2,0.6-0.6v-4.8C184.6,168.3,183.9,166.6,181.2,166.6L181.2,166.6z"/>
		<path class="st2" d="M187.8,167.3c0-0.3-0.2-0.6-0.6-0.6c-0.3,0-0.6,0.2-0.6,0.6v7.2c0,0.3,0.2,0.6,0.6,0.6c0.3,0,0.6-0.2,0.6-0.6
			V167.3L187.8,167.3z M187.3,165.1c0.4,0,0.7-0.2,0.7-0.7c0-0.5-0.2-0.7-0.7-0.7c-0.4,0-0.7,0.2-0.7,0.7
			C186.6,164.8,186.8,165.1,187.3,165.1L187.3,165.1z"/>
		<path class="st2" d="M189.6,170.9c0,2.9,1.4,4.3,3.7,4.3c1.4,0,2.3-0.6,2.7-1c0.2-0.2,0.2-0.3,0.2-0.4c0-0.3-0.2-0.5-0.5-0.5
			c-0.1,0-0.2,0-0.3,0.1c-0.4,0.3-1,0.8-2.1,0.8c-1.6,0-2.5-1-2.5-3.3c0-2.2,0.9-3.2,2.5-3.2c1.2,0,1.7,0.5,1.9,0.8
			c0.1,0.1,0.2,0.2,0.4,0.2c0.3,0,0.5-0.2,0.5-0.5c0-0.1,0-0.2-0.1-0.3c-0.3-0.4-1.2-1.2-2.7-1.2C191,166.6,189.6,168,189.6,170.9
			L189.6,170.9z"/>
		<path class="st2" d="M201,167.7c1.3,0,2.1,0.7,2.1,2v0.5h-2.5c-1.9,0-3.1,0.9-3.1,2.5c0,1.6,1.2,2.5,3.1,2.5
			c1.1,0,2.1-0.4,2.5-1.3v0.6c0,0.3,0.2,0.6,0.6,0.6c0.3,0,0.6-0.2,0.6-0.6v-4.9c0-1.8-1.1-3-3.2-3c-1.5,0-2.5,0.6-3,1.4
			c-0.1,0.1-0.1,0.2-0.1,0.3c0,0.3,0.2,0.5,0.5,0.5c0.2,0,0.3-0.1,0.5-0.2C199.4,168,200,167.7,201,167.7L201,167.7z M200.6,174.2
			c-1.4,0-2-0.6-2-1.5c0-1,0.8-1.5,2-1.5h2.5v0.7C203.1,173.4,201.9,174.2,200.6,174.2L200.6,174.2z"/>
	</g>
</g>
</svg>
