<?xml version="1.0" encoding="utf-8"?>
<!-- Generator: Adobe Illustrator 27.8.1, SVG Export Plug-In . SVG Version: 6.00 Build 0)  -->
<svg version="1.1" id="Layer_1" xmlns="http://www.w3.org/2000/svg" xmlns:xlink="http://www.w3.org/1999/xlink" x="0px" y="0px"
	 viewBox="0 0 478.4 120.3" style="enable-background:new 0 0 478.4 120.3;" xml:space="preserve">
<style type="text/css">
	.st0{fill:#FFFFFF;}
	.st1{fill:#089B87;}
	.st2{fill:#E74011;}
	.st3{fill:#1488CA;}
	.st4{fill:#CF124D;}
</style>
<g>
	<path class="st0" d="M218.2,22l0.5-0.7c0.3-0.4,1.1-0.5,1.6-0.1c1.2,1.1,3.4,2.1,5,2.1c3.4,0,5.9-1.9,5.9-5c0-2.2-1.7-3.8-5.7-5.5
		c-4.4-1.7-6.4-3.8-6.4-6.5c0-3.7,2.9-6.3,7-6.3c2,0,4.4,0.9,5.9,2.5l-0.3,0.6c-0.4,0.6-1,0.8-1.6,0.4c-1.4-1.1-2.9-1.4-4-1.4
		c-2.9,0-4.9,1.7-4.9,4.2c0,1.9,1.5,3.2,4.9,4.5c5,1.8,7.2,4.2,7.2,7.5c0,4.2-3.3,7.1-8,7.1C222.6,25.4,219.8,23.9,218.2,22z"/>
	<path class="st0" d="M249.6,0c7,0,12.7,5.6,12.7,12.7s-5.6,12.7-12.7,12.7c-7.1,0-12.7-5.6-12.7-12.7S242.5,0,249.6,0z M249.6,23.3
		c5.9,0,10.6-4.7,10.6-10.6s-4.7-10.6-10.6-10.6c-5.9,0-10.6,4.7-10.6,10.6S243.7,23.3,249.6,23.3z"/>
	<path class="st0" d="M265.8,12.7c0-7.1,5.6-12.7,12.7-12.7c3.2,0,6.3,1.3,8.5,3.4l-0.5,0.4c-0.5,0.5-1.2,0.7-1.8,0.4
		c-1.7-1.3-3.9-2.1-6.2-2.1c-5.9,0-10.6,4.7-10.6,10.6c0,6,4.7,10.6,10.6,10.6c2.3,0,4.5-0.8,6.3-2.1c0.6-0.4,1.3-0.2,1.8,0.3
		l0.5,0.5c-2.2,2.1-5.4,3.5-8.6,3.5C271.4,25.4,265.8,19.8,265.8,12.7z"/>
	<path class="st0" d="M293,25.1V0.3h2.1v24.8H293z"/>
	<path class="st0" d="M302.6,25.1V0.3h14.7v2.1h-12.6v9h10.3v2.1h-10.3V23h12.6v2.1H302.6z"/>
	<path class="st0" d="M323.1,0.3h8.9c6.9,0,12.3,5.5,12.3,12.4s-5.4,12.4-12.3,12.4h-8.9V0.3z M342.2,12.7c0-5.8-4.5-10.5-10.2-10.5
		h-6.8v20.9h6.8C337.7,23.2,342.2,18.6,342.2,12.7z"/>
	<path class="st0" d="M368.9,25.1h-1.3c-0.6,0-1.2-0.3-1.4-0.9l-2.2-5h-13.7l-2.2,5c-0.3,0.6-0.8,0.9-1.4,0.9h-1.3l10.8-24.8h1.9
		L368.9,25.1z M363.1,17.1l-5.5-12.7c-0.3-0.8-0.3-1.1-0.4-1.4h-0.1c0,0.3,0,0.6-0.4,1.4l-5.5,12.7H363.1z"/>
	<path class="st0" d="M372.8,0.3h8.9c6.9,0,12.3,5.5,12.3,12.4s-5.4,12.4-12.3,12.4h-8.9V0.3z M391.9,12.7c0-5.8-4.5-10.5-10.2-10.5
		h-6.8v20.9h6.8C387.4,23.2,391.9,18.6,391.9,12.7z"/>
	<path class="st0" d="M399.5,25.1V0.3h14.7v2.1h-12.6v9h10.3v2.1h-10.3V23h12.6v2.1H399.5z"/>
	<path class="st0" d="M421.7,24.1c0,2.1-1,4-2.7,5.4l-0.4-0.3c-0.4-0.4-0.2-0.8,0-1c0.8-0.8,1.4-1.7,1.5-2.9
		c-0.2,0.1-0.4,0.2-0.7,0.2c-0.9,0-1.6-0.8-1.6-1.8c0-1.1,0.8-1.9,1.9-1.9C421,21.6,421.7,22.6,421.7,24.1z"/>
	<path class="st0" d="M229.4,54c3.3,0,5.6-2.2,5.6-5.5V33.3h4.7v15.2c0,6-4.1,10.2-10.2,10.2c-6.1,0-10.2-4.1-10.2-10.2V33.3h4.7
		v15.2C223.9,51.8,226.1,54,229.4,54z"/>
	<path class="st0" d="M266.3,33.3v25h-3.5c-0.6,0-1.1-0.3-1.6-1l-11.9-17.6h-0.1c0.4,1.1,0.6,2,0.6,3.1l0,15.6h-4.7v-25h3.7
		c1.1,0,1.8,0.4,2.5,1.4L262.3,51h0.1c-0.6-1.3-0.7-2.4-0.7-3.2l0-14.4H266.3z"/>
	<path class="st0" d="M272.6,58.4v-25h4.7v25H272.6z"/>
	<path class="st0" d="M305.8,33.3l-10.7,25h-4.1l-10.7-25h3.3c1.2,0,2,0.6,2.5,1.7l6.2,14.6c0.5,1.1,0.7,2.3,0.7,3.5h0.1
		c0.1-1.2,0.3-2.4,0.7-3.5L300,35c0.5-1.1,1.3-1.7,2.5-1.7H305.8z"/>
	<path class="st0" d="M308.8,58.4v-25h16v4.6h-11.4v5.5h9.2v4.4h-9.2v6h11.4v4.6H308.8z"/>
	<path class="st0" d="M329.6,58.4v-25h9.3c4.5,0,8,3.2,8,7.9c0,3.9-3.3,6.6-5.8,6.6l-0.6,0v0c1.3,0.1,2.1,0.6,2.6,1.4l6.5,9.1h-3.9
		c-1,0-1.9-0.2-2.7-1.4l-5.6-7.9h-3.2v9.3H329.6z M334.3,44.5h4.4c2,0,3.5-1.4,3.5-3.3c0-2-1.6-3.3-3.5-3.3h-4.4V44.5z"/>
	<path class="st0" d="M350.8,54.8l1-1.8c0.6-1.1,2.1-1.3,3.3-0.5c1.2,0.8,2.9,1.7,4.1,1.7c2.4,0,4.1-1,4.1-3.2c0-1.4-1.3-2.5-4-3.6
		c-5-1.8-7.2-4.1-7.2-7.4c0-4.1,3.1-7,7.7-7c2.3,0,5.2,0.9,6.9,2.7l-0.9,1.5c-0.8,1.3-2.1,1.6-3.1,1.1c-1-0.6-2.2-0.9-2.9-0.9
		c-1.8,0-3.1,0.9-3.1,2.4c0,1.2,1.2,2.1,3.8,3c5,1.5,7.4,4.1,7.4,8c0,4.6-3.6,7.8-8.8,7.8C355.8,58.7,352.8,56.9,350.8,54.8z"/>
	<path class="st0" d="M372.6,58.4v-25h4.7v25H372.6z"/>
	<path class="st0" d="M383.5,33.3h10c7,0,12.5,5.5,12.5,12.5c0,7-5.5,12.5-12.5,12.5h-10V33.3z M401.3,45.9c0-4.6-3.5-8.2-7.8-8.2
		h-5.3V54h5.3C397.9,54,401.3,50.5,401.3,45.9z"/>
	<path class="st0" d="M432.3,58.4H429c-1.1,0-2-0.6-2.5-1.7l-1.5-3.4h-11.2l-1.5,3.4c-0.5,1.1-1.4,1.7-2.5,1.7h-3.3l10.9-25h4.1
		L432.3,58.4z M423.3,49.3l-3.1-7.3c-0.5-1.2-0.7-2-0.7-3.1h-0.2c0,1.1-0.2,1.9-0.7,3.1l-3.1,7.3H423.3z"/>
	<path class="st0" d="M435.3,33.3h10c7,0,12.5,5.5,12.5,12.5c0,7-5.5,12.5-12.5,12.5h-10V33.3z M453.1,45.9c0-4.6-3.5-8.2-7.8-8.2
		H440V54h5.3C449.6,54,453.1,50.5,453.1,45.9z"/>
	<path class="st0" d="M462.4,58.4v-25h16v4.6h-11.4v5.5h9.2v4.4h-9.2v6h11.4v4.6H462.4z"/>
	<path class="st0" d="M220.6,91.7V66.8h14.7v2.1h-12.6v9h10.3v2.1h-10.3v9.5h12.6v2.1H220.6z"/>
	<path class="st0" d="M249.4,79.2c0-7.3,5.6-12.9,12.9-12.9c3.5,0,7.1,1.7,9.2,4.2l-1.1,1.3c-0.9,1-2.4,1.3-3.5,0.6
		c-1.3-0.9-2.9-1.5-4.6-1.5c-4.6,0-8.1,3.6-8.1,8.3s3.5,8.3,8.1,8.3c1.7,0,3.3-0.5,4.6-1.5c1.2-0.8,2.7-0.5,3.6,0.5l1.1,1.3
		c-2.1,2.5-5.7,4.3-9.3,4.3C255,92,249.4,86.5,249.4,79.2z"/>
	<path class="st0" d="M275.8,91.7v-25h4.7v25H275.8z"/>
	<path class="st0" d="M291.5,71.2v5.5h9.2v4.4h-9.2v6h11.4v4.6h-16v-25h16v4.6H291.5z M291.4,64.7h-2.6l3.1-3.1
		c0.5-0.5,1-0.8,1.9-0.8h1.9c1,0,1.4,0.3,1.9,0.8l3.1,3.1h-2.6c-0.9,0-1.6-0.2-1.9-0.5l-1.2-1.3c-0.2-0.2-0.3-0.4-0.3-0.6
		c0,0.3-0.1,0.5-0.3,0.6l-1.2,1.3C293,64.5,292.4,64.7,291.4,64.7z"/>
	<path class="st0" d="M328.8,66.6v25h-3.5c-0.6,0-1.1-0.3-1.6-1L311.8,73h-0.1c0.4,1.1,0.6,2,0.6,3.1l0,15.6h-4.7v-25h3.7
		c1.1,0,1.8,0.4,2.5,1.4l10.9,16.2h0.1c-0.6-1.3-0.7-2.4-0.7-3.2l0-14.4H328.8z"/>
	<path class="st0" d="M333.5,79.2c0-7.3,5.6-12.9,12.9-12.9c3.5,0,7.1,1.7,9.2,4.2l-1.1,1.3c-0.9,1-2.4,1.3-3.5,0.6
		c-1.3-0.9-2.9-1.5-4.6-1.5c-4.6,0-8.1,3.6-8.1,8.3s3.5,8.3,8.1,8.3c1.7,0,3.3-0.5,4.6-1.5c1.2-0.8,2.7-0.5,3.6,0.5l1.1,1.3
		c-2.1,2.5-5.7,4.3-9.3,4.3C339,92,333.5,86.5,333.5,79.2z"/>
	<path class="st0" d="M359.9,91.7v-25h4.7v25H359.9z"/>
	<path class="st0" d="M393.4,91.7h-3.3c-1.1,0-2-0.6-2.5-1.7l-1.5-3.4h-11.2l-1.5,3.4c-0.5,1.1-1.4,1.7-2.5,1.7h-3.3l10.9-25h4.1
		L393.4,91.7z M384.4,82.6l-3.1-7.3c-0.5-1.2-0.7-2-0.7-3.1h-0.2c0,1.1-0.2,1.9-0.7,3.1l-3.1,7.3H384.4z"/>
</g>
<g>
	<path class="st0" d="M220.7,111.6c0-4.9,3.9-8.9,8.9-8.9c2.2,0,4.4,0.9,5.9,2.3l-0.3,0.3c-0.4,0.4-0.8,0.5-1.3,0.3
		c-1.2-0.9-2.7-1.4-4.4-1.4c-4.1,0-7.4,3.3-7.4,7.4c0,4.1,3.3,7.4,7.4,7.4c1.6,0,3.2-0.5,4.4-1.5c0.4-0.3,0.9-0.1,1.3,0.2l0.3,0.3
		c-1.5,1.5-3.8,2.4-6,2.4C224.7,120.4,220.7,116.5,220.7,111.6z"/>
	<path class="st0" d="M251,113.8c0,0.5-0.3,0.8-0.7,0.8h-9.8c0.2,2.6,2.2,4.4,4.9,4.4c0.8,0,1.8-0.3,2.7-0.9
		c0.4-0.2,0.9-0.1,1.1,0.2l0.4,0.5c-1.1,1-2.6,1.6-4.1,1.6c-3.6,0-6.3-2.7-6.3-6.4c0-3.6,2.6-6.3,6.1-6.3
		C248.5,107.8,251,110.2,251,113.8z M249.6,113.2c-0.3-2.4-2.1-4-4.4-4c-2.5,0-4.4,1.8-4.7,4.3h0c0.2-0.2,0.4-0.3,0.7-0.3H249.6z"/>
	<path class="st0" d="M265,112.8v7.4h-1.4V113c0-2.7-1.1-3.8-3.1-3.8c-1.5,0-2.9,0.8-4,2v9.1H255V108h0.9c0.4,0,0.5,0.3,0.5,0.7v0.9
		c1-1,2.5-1.8,4.3-1.8C263.5,107.7,265,109.5,265,112.8z"/>
	<path class="st0" d="M277.8,119.3c-0.7,0.4-2.2,1.1-3.4,1.1c-2.1,0-3.6-1.4-3.6-3.7v-7.4h-2.4v-0.9c0-0.4,0.3-0.5,0.6-0.5h1.8v-3.8
		c0-0.4,0.2-0.7,0.6-0.7h0.9v4.5h3.8v1.4h-3.8v7.1c0,1.7,1,2.6,2.4,2.6c0.9,0,1.6-0.5,1.9-0.6c0.4-0.2,0.8-0.1,0.9,0.2L277.8,119.3z
		"/>
	<path class="st0" d="M288.6,108.1l-0.1,0.6c-0.1,0.4-0.5,0.6-0.9,0.5c-0.3,0-0.5-0.1-0.9-0.1c-1.6,0-2.9,1.1-3.6,2.2v8.8h-1.4V108
		h0.7c0.5,0,0.7,0.4,0.7,0.8v1.1c0.9-1.3,2.2-2.1,3.8-2.1C287.7,107.7,288.2,108,288.6,108.1z"/>
	<path class="st0" d="M296.8,107.8c3.6,0,6.3,2.7,6.3,6.3s-2.7,6.3-6.3,6.3c-3.6,0-6.4-2.7-6.4-6.3S293.2,107.8,296.8,107.8z
		 M296.8,119c2.8,0,4.9-2.1,4.9-4.9c0-2.8-2.1-4.9-4.9-4.9c-2.8,0-4.9,2.1-4.9,4.9C291.9,116.9,294,119,296.8,119z"/>
	<path class="st0" d="M326,102.3v18h-0.9c-0.5,0-0.5-0.4-0.5-0.7v-0.9c-1,1.1-2.3,1.9-4.2,1.9c-3.4,0-5.8-2.6-5.8-6.3
		c0-3.7,2.6-6.3,6.2-6.3c1.5,0,2.8,0.7,3.7,1.6v-7.1H326z M324.5,116.8v-5.7c-0.4-0.8-2-1.9-3.7-1.9c-2.8,0-4.8,2-4.8,4.9
		s1.9,4.9,4.6,4.9C322.5,119,323.7,117.9,324.5,116.8z"/>
	<path class="st0" d="M342,113.8c0,0.5-0.3,0.8-0.7,0.8h-9.8c0.2,2.6,2.2,4.4,4.9,4.4c0.8,0,1.8-0.3,2.7-0.9
		c0.4-0.2,0.9-0.1,1.1,0.2l0.4,0.5c-1.1,1-2.6,1.6-4.1,1.6c-3.6,0-6.3-2.7-6.3-6.4c0-3.6,2.6-6.3,6.1-6.3
		C339.6,107.8,342,110.2,342,113.8z M340.7,113.2c-0.3-2.4-2.1-4-4.4-4c-2.5,0-4.4,1.8-4.7,4.3h0c0.2-0.2,0.4-0.3,0.7-0.3H340.7z"/>
	<path class="st0" d="M355,120.2v-17.3h10.3v1.5h-8.9v6.3h7.2v1.5h-7.2v6.6h8.9v1.5H355z"/>
	<path class="st0" d="M368.5,118.7l0.3-0.5c0.3-0.4,0.8-0.4,1.2-0.1c0.6,0.5,1.6,0.9,2.6,0.9c1.5,0,2.5-0.8,2.5-2.2
		c0-1-0.8-1.7-2.7-2.5c-2.5-1-3.1-1.9-3.1-3.3c0-1.9,1.4-3.2,3.6-3.2c1.1,0,2.4,0.5,3.2,1.3l-0.3,0.5c-0.2,0.4-0.7,0.5-1.2,0.3
		c-0.5-0.4-1.1-0.6-1.7-0.6c-1.4,0-2.2,0.7-2.2,1.8c0,0.8,0.5,1.4,2.1,2c2.6,1,3.7,2.1,3.7,3.8c0,2.2-1.7,3.6-4.1,3.6
		C370.9,120.4,369.4,119.7,368.5,118.7z"/>
	<path class="st0" d="M388.2,119.3c-0.7,0.4-2.2,1.1-3.4,1.1c-2.1,0-3.6-1.4-3.6-3.7v-7.4h-2.4v-0.9c0-0.4,0.3-0.5,0.6-0.5h1.8v-3.8
		c0-0.4,0.2-0.7,0.6-0.7h0.9v4.5h3.8v1.4h-3.8v7.1c0,1.7,1,2.6,2.4,2.6c0.9,0,1.6-0.5,1.9-0.6c0.4-0.2,0.8-0.1,0.9,0.2L388.2,119.3z
		"/>
	<path class="st0" d="M401.8,108v12.3h-0.9c-0.4,0-0.5-0.3-0.5-0.7v-0.9c-1,1-2.5,1.8-4.3,1.8c-2.8,0-4.2-1.8-4.2-5V108h1.4v7.2
		c0,2.7,1.1,3.8,3.1,3.8c1.5,0,2.9-0.8,4-1.9V108H401.8z"/>
	<path class="st0" d="M417.4,102.3v18h-0.9c-0.5,0-0.5-0.4-0.5-0.7v-0.9c-1,1.1-2.3,1.9-4.2,1.9c-3.4,0-5.8-2.6-5.8-6.3
		c0-3.7,2.6-6.3,6.2-6.3c1.5,0,2.8,0.7,3.7,1.6v-7.1H417.4z M416,116.8v-5.7c-0.4-0.8-2-1.9-3.7-1.9c-2.8,0-4.8,2-4.8,4.9
		s1.9,4.9,4.6,4.9C413.9,119,415.1,117.9,416,116.8z"/>
	<path class="st0" d="M427.9,107.8c3.6,0,6.3,2.7,6.3,6.3s-2.7,6.3-6.3,6.3c-3.6,0-6.4-2.7-6.4-6.3S424.3,107.8,427.9,107.8z
		 M427.9,119c2.8,0,4.9-2.1,4.9-4.9c0-2.8-2.1-4.9-4.9-4.9c-2.8,0-4.9,2.1-4.9,4.9C423,116.9,425.1,119,427.9,119z"/>
	<path class="st0" d="M437,118.7l0.3-0.5c0.3-0.4,0.8-0.4,1.2-0.1c0.6,0.5,1.6,0.9,2.6,0.9c1.5,0,2.5-0.8,2.5-2.2
		c0-1-0.8-1.7-2.7-2.5c-2.5-1-3.1-1.9-3.1-3.3c0-1.9,1.4-3.2,3.6-3.2c1.1,0,2.4,0.5,3.2,1.3l-0.3,0.5c-0.2,0.4-0.7,0.5-1.2,0.3
		c-0.5-0.4-1.1-0.6-1.7-0.6c-1.4,0-2.2,0.7-2.2,1.8c0,0.8,0.5,1.4,2.1,2c2.6,1,3.7,2.1,3.7,3.8c0,2.2-1.7,3.6-4.1,3.6
		C439.4,120.4,437.9,119.7,437,118.7z"/>
</g>
<g>
	<path class="st1" d="M60,60.3c0-33.1-26.9-60-60-60v60c0,33.1,26.9,60,60,60c10.9,0,21.2-2.9,30-8C72.1,101.9,60,82.5,60,60.3z"/>
	<path class="st2" d="M120,60.3c0,22.2-12.1,41.6-30,52c8.8,5.1,19.1,8,30,8h60C180,87.1,153.1,60.3,120,60.3z"/>
	<path class="st3" d="M180,0.3h-60v60C153.1,60.3,180,33.4,180,0.3z"/>
	<path class="st4" d="M120,60.3v-60c-33.1,0-60,26.9-60,60c0,22.2,12.1,41.6,30,52C107.9,101.9,120,82.5,120,60.3z"/>
</g>
</svg>
