<?xml version="1.0" encoding="utf-8"?>
<!-- Generator: Adobe Illustrator 27.8.1, SVG Export Plug-In . SVG Version: 6.00 Build 0)  -->
<svg version="1.1" id="Camada_2" xmlns="http://www.w3.org/2000/svg" xmlns:xlink="http://www.w3.org/1999/xlink" x="0px" y="0px"
	 viewBox="0 0 250 132.3" style="enable-background:new 0 0 250 132.3;" xml:space="preserve">
<style type="text/css">
	.st0{fill:#FFFFFF;}
	.st1{font-family:'Lato-Black';}
	.st2{font-size:84.2904px;}
	.st3{opacity:0.8;fill:#50B6E2;}
	.st4{font-family:'Lato-Regular';}
	.st5{font-size:8.2286px;}
	.st6{fill:#FEFFFD;}
	.st7{font-size:9.8744px;}
	.st8{fill:#678243;}
	.st9{fill:#A72B45;}
	.st10{fill:#0472A7;}
	.st11{fill:#027E3F;}
	.st12{fill:#CA4C2C;}
	.st13{fill:#184F88;}
	.st14{fill:#E3A711;}
</style>
<g>
	<text transform="matrix(1 0 0 1 129.0724 96.0602)" class="st0 st1 st2">STI</text>
	<polygon class="st0" points="96.3,112.3 247.8,112.3 247.8,123.3 78.1,123.3 	"/>
	<text transform="matrix(1 0 0 1 114.8488 120.904)" class="st3 st4 st5">TECNOLOGIA DA INFORMAÇÃO</text>
	<text transform="matrix(1 0 0 1 125.7804 109.7409)" class="st6 st4 st7">SUPERINTENDÊNCIA DE</text>
	<g id="lines_1_">
		<g>
			<path class="st0" d="M60.2,68.3c2.7-0.6,3,0.6,3,2.7c0,7.3,0,14.6,0,21.9c0,1.5,0.3,2.1,2.1,2.1c13.1,0,26.4,0,39.5,0
				c0.6,0,1.8-0.6,2.1,0.9c0.3,1.5,0,2.1-1.8,2.1c-13.1,0-25.8,0-38.9,0c-3.3,0-2.7-0.3-2.7,3c0,5.2,0,10.3,0,15.5
				c0,2.1-1.2,1.5-2.1,1.8c-1.5,0.3-0.9-0.9-0.9-1.5c0-5.5,0-10.9,0-16.4c0-1.5-0.3-2.1-2.1-2.1c-13.1,0-26.4,0-39.5,0
				c-0.6,0-1.8,0.6-2.1-0.9c-0.3-1.8,0-2.1,1.8-2.1c13.1,0,26.4,0,39.5,0c1.8,0,2.1-0.6,2.1-2.1C60.2,85,60.2,76.8,60.2,68.3z"/>
			<path class="st0" d="M106.9,93.2c-3.6-6.7-7.6-13.4-11.2-20s-7.6-13.4-10.9-20c-0.6-1.2-1.2-1.5-2.7-0.9c-3.3,1.8-7,3.3-10.3,5.2
				c-0.9,0.3-1.5,0.6-1.8-0.6c-0.3-0.9-0.9-1.5,0.3-2.1c3.6-1.5,7-3.3,10.6-5.2c1.2-0.6,1.2-1.2,0.6-2.1
				c-5.8-10.3-11.5-20.9-17.6-31.6c-0.3-0.3-0.3-0.6-0.6-0.9c2.7-1.2,2.7-1.2,3.9,1.2c5.5,10,10.9,19.7,16.4,29.7
				c0.9,1.5,1.5,1.5,3,0.9c6.4-3,12.7-6.1,18.8-9.4c1.8-0.9,1.8,0.3,2.4,1.2c0.9,1.2-0.6,1.2-0.9,1.5c-6.1,3-12.4,6.1-18.8,9.1
				c-1.5,0.6-1.8,1.2-0.9,3c6.7,11.8,13.1,23.7,19.7,35.5C108.5,89.6,109.1,91.4,106.9,93.2z"/>
			<path class="st0" d="M16.2,94.1c-2.1-1.5-1.8-3-0.9-4.9c6.7-11.8,13.4-24,20-36.1c0.9-1.5,0.6-1.8-0.9-2.7
				c-5.2-2.1-10.3-4.6-15.8-6.7c-1.8-0.6-1.5-1.5-0.9-3s1.5-0.3,2.1,0c5.5,2.4,10.9,4.6,16.4,7c1.5,0.6,2.1,0.3,3-1.2
				C45,35.8,51.1,25.2,56.9,14.6c0.9-1.5,1.8-1.8,3-0.6c0.9,0.6,0,1.2-0.3,1.8C54.4,25.2,49.3,34.6,44.1,44c-0.9,1.8-3,3.6-2.4,5.5
				c0.6,1.2,3.3,1.8,5.2,2.7c2.4,0.9,4.6,2.1,7,3c1.5,0.6,1.5,1.2,0.9,2.7c-0.6,1.8-1.5,0.6-2.1,0.3c-3.6-1.5-7.3-3-10.6-4.6
				c-1.8-0.9-2.7-0.6-3.6,1.2c-7.3,12.4-14.3,25.2-21.2,37.6C16.8,93.2,16.5,93.8,16.2,94.1z"/>
			<path class="st0" d="M117,65c0,7,0,14.3,0,21.2c0,0.9,0.3,1.8-1.5,1.8c-1.5,0-1.8-0.6-1.8-1.8c0-14.3,0-28.2,0-42.5
				c0-1.8,0.9-1.8,2.1-1.8c1.8,0,0.9,1.2,0.9,1.8C117,51,117,58,117,65z"/>
			<path class="st0" d="M6.8,68.3c0-6.7,0-13.4,0-20c0-0.6-0.9-1.8,0.9-1.8c0.9,0,2.1-0.3,2.1,1.8c0,13.4,0,26.7,0,40.4
				c0,1.8-1.2,1.2-2.1,1.5c-1.2,0.3-1.2-0.6-1.2-1.5C6.8,82,6.8,75.3,6.8,68.3z"/>
			<path class="st0" d="M14.7,31.9C27.4,24.6,40.2,17,52.9,9.7c0.3-0.3,1.2-1.5,1.8,0c0.3,0.9,1.5,1.8-0.3,2.7
				c-7.9,4.6-15.8,9.1-23.7,13.7c-3.9,2.1-7.9,4.2-11.5,7C17.1,34,15.9,34.3,14.7,31.9z"/>
			<path class="st0" d="M14.4,104.4c1.5-2.4,1.5-2.7,3.9-1.2c11.5,6.1,23.4,12.4,34.9,18.5c1.5,0.9,1.8,2.1,0.9,3.3
				c-0.6,0.9-1.2,0-1.5-0.3c-10-5.2-20-10.6-30.1-15.8C19.8,107.5,17.1,106,14.4,104.4z"/>
			<path class="st0" d="M70.5,124.5c-1.5-2.7-1.5-2.7,1.2-4.2c11.2-6.7,22.5-13.1,33.7-19.7c1.5-0.9,2.1-0.9,3,0.6
				c0.9,1.5-0.3,1.5-0.9,1.8c-7.6,4.2-14.9,8.8-22.5,13.1C80.2,119,75.4,121.7,70.5,124.5z"/>
			<path class="st0" d="M108.2,29.2c0,1.8-1.5,2.4-2.7,1.8C93.9,24.9,82,18.8,70.5,12.5c-1.2-0.6-1.5-0.9-0.9-2.4s1.5-0.9,2.1-0.3
				c11.8,6.1,23.4,12.4,35.2,18.5C107.2,28.6,107.9,28.9,108.2,29.2z"/>
		</g>
	</g>
	<g id="circles_1_">
		<path class="st8" d="M9.5,45.2c-3.6,0-6.4-2.7-6.4-6.4c0-3.6,2.7-6.4,6.4-6.4s6.4,3,6.4,6.7C15.9,42.5,13.1,45.2,9.5,45.2z"/>
		<path class="st9" d="M68.7,60.1c0,3.6-2.7,6.4-6.4,6.4c-3.6,0-6.4-3-6.4-6.4c0-3.6,2.7-6.4,6.4-6.4C66,53.7,68.7,56.5,68.7,60.1z"
			/>
		<path class="st10" d="M121.2,96.2c0,3.6-2.7,6.4-6.4,6.4c-3.6,0-6.4-2.7-6.4-6.7c0-3.6,3-6.4,6.4-6.4
			C118.5,89.9,121.2,92.6,121.2,96.2z"/>
		<path class="st11" d="M8.6,104.4c-3.6,0-6.4-3-6.4-6.7c0-3.3,3-6.4,6.4-6.4c3.6,0,6.4,3,6.4,6.7C15,101.7,11.9,104.7,8.6,104.4z"
			/>
		<path class="st12" d="M62.3,13.1c-3.6,0-6.4-2.7-6.4-6.4s3-6.4,6.4-6.4c3.6,0,6.4,2.7,6.4,6.4S66,13.1,62.3,13.1z"/>
		<path class="st13" d="M108.5,33.7c0-3.6,2.7-6.4,6.4-6.4c3.6,0,6.4,2.7,6.4,6.4c0,3.6-3,6.4-6.4,6.4
			C111.2,40.4,108.5,37.4,108.5,33.7z"/>
		<path class="st14" d="M62.3,132.7c-3.6,0-6.4-2.7-6.4-6.4c0-3.6,2.7-6.4,6.4-6.4c3.6,0,6.4,2.7,6.4,6.4
			C68.7,130.2,66,132.7,62.3,132.7z"/>
	</g>
</g>
</svg>
