<?xml version="1.0" encoding="utf-8"?>
<!-- Generator: Adobe Illustrator 27.8.1, SVG Export Plug-In . SVG Version: 6.00 Build 0)  -->
<svg version="1.1" id="Layer_1" xmlns="http://www.w3.org/2000/svg" xmlns:xlink="http://www.w3.org/1999/xlink" x="0px" y="0px"
	 viewBox="0 0 940 580" style="enable-background:new 0 0 940 580;" xml:space="preserve">
<style type="text/css">
	.st0{fill-rule:evenodd;clip-rule:evenodd;fill:#FFFFFF;}
	.st1{fill:#FFFFFF;}
</style>
<g>
	<polygon class="st0" points="537.1,402.1 537.1,402.2 402.8,402.2 402.8,402.1 402.8,392.6 67,392.6 67,411.1 67,411.4 
		872.8,411.4 872.8,411.1 872.8,392.6 537.1,392.6 	"/>
	<g>
		<rect x="537.1" y="377.3" class="st0" width="335.8" height="9.2"/>
		<rect x="67" y="377.3" class="st0" width="335.8" height="9.2"/>
		<rect x="537.1" y="300.9" class="st0" width="335.8" height="9.2"/>
		<rect x="427.2" y="300.9" class="st0" width="85.4" height="9.2"/>
		<rect x="427.2" y="316.2" class="st0" width="9.2" height="78"/>
		<rect x="503.4" y="316.2" class="st0" width="9.2" height="78"/>
		<rect x="67" y="300.9" class="st0" width="335.8" height="9.2"/>
		<rect x="459.6" y="361.9" class="st0" width="9.2" height="9.2"/>
		<rect x="448.1" y="361.9" class="st0" width="9.2" height="9.2"/>
		<rect x="471" y="361.9" class="st0" width="9.2" height="9.2"/>
		<rect x="482.4" y="361.9" class="st0" width="9.2" height="9.2"/>
		<rect x="459.6" y="373.3" class="st0" width="9.2" height="9.2"/>
		<rect x="448.1" y="373.3" class="st0" width="9.2" height="9.2"/>
		<rect x="471" y="373.3" class="st0" width="9.2" height="9.2"/>
		<rect x="482.4" y="373.3" class="st0" width="9.2" height="9.2"/>
		<rect x="459.6" y="384.8" class="st0" width="9.2" height="9.2"/>
		<rect x="448.1" y="384.8" class="st0" width="9.2" height="9.2"/>
		<rect x="471" y="384.8" class="st0" width="9.2" height="9.2"/>
		<rect x="482.4" y="384.8" class="st0" width="9.2" height="9.2"/>
		<rect x="459.6" y="327.7" class="st0" width="9.2" height="9.2"/>
		<rect x="448.1" y="327.7" class="st0" width="9.2" height="9.2"/>
		<rect x="471" y="327.7" class="st0" width="9.2" height="9.2"/>
		<rect x="482.4" y="327.7" class="st0" width="9.2" height="9.2"/>
		<rect x="459.6" y="316.2" class="st0" width="9.2" height="9.2"/>
		<rect x="448.1" y="316.2" class="st0" width="9.2" height="9.2"/>
		<rect x="471" y="316.2" class="st0" width="9.2" height="9.2"/>
		<rect x="482.4" y="316.2" class="st0" width="9.2" height="9.2"/>
		<rect x="459.6" y="339.1" class="st0" width="9.2" height="9.2"/>
		<rect x="448.1" y="339.1" class="st0" width="9.2" height="9.2"/>
		<rect x="471" y="339.1" class="st0" width="9.2" height="9.2"/>
		<rect x="482.4" y="339.1" class="st0" width="9.2" height="9.2"/>
		<rect x="459.6" y="350.5" class="st0" width="9.2" height="9.2"/>
		<rect x="448.1" y="350.5" class="st0" width="9.2" height="9.2"/>
		<rect x="471" y="350.5" class="st0" width="9.2" height="9.2"/>
		<rect x="482.4" y="350.5" class="st0" width="9.2" height="9.2"/>
		<rect x="834.6" y="361.9" class="st0" width="9.2" height="9.2"/>
		<rect x="823.2" y="361.9" class="st0" width="9.2" height="9.2"/>
		<rect x="846.1" y="361.9" class="st0" width="9.2" height="9.2"/>
		<rect x="834.6" y="327.6" class="st0" width="9.2" height="9.2"/>
		<rect x="823.2" y="327.6" class="st0" width="9.2" height="9.2"/>
		<rect x="846.1" y="327.6" class="st0" width="9.2" height="9.2"/>
		<rect x="834.6" y="316.2" class="st0" width="9.2" height="9.2"/>
		<rect x="823.2" y="316.2" class="st0" width="9.2" height="9.2"/>
		<rect x="846.1" y="316.2" class="st0" width="9.2" height="9.2"/>
		<rect x="834.6" y="339.1" class="st0" width="9.2" height="9.2"/>
		<rect x="823.2" y="339.1" class="st0" width="9.2" height="9.2"/>
		<rect x="846.1" y="339.1" class="st0" width="9.2" height="9.2"/>
		<rect x="834.6" y="350.5" class="st0" width="9.2" height="9.2"/>
		<rect x="823.2" y="350.5" class="st0" width="9.2" height="9.2"/>
		<rect x="846.1" y="350.5" class="st0" width="9.2" height="9.2"/>
		<rect x="767.5" y="361.9" class="st0" width="9.2" height="9.2"/>
		<rect x="756.1" y="361.9" class="st0" width="9.2" height="9.2"/>
		<rect x="778.9" y="361.9" class="st0" width="9.2" height="9.2"/>
		<rect x="767.5" y="327.6" class="st0" width="9.2" height="9.2"/>
		<rect x="756.1" y="327.6" class="st0" width="9.2" height="9.2"/>
		<rect x="778.9" y="327.6" class="st0" width="9.2" height="9.2"/>
		<rect x="767.5" y="316.2" class="st0" width="9.2" height="9.2"/>
		<rect x="756.1" y="316.2" class="st0" width="9.2" height="9.2"/>
		<rect x="778.9" y="316.2" class="st0" width="9.2" height="9.2"/>
		<rect x="767.5" y="339.1" class="st0" width="9.2" height="9.2"/>
		<rect x="756.1" y="339.1" class="st0" width="9.2" height="9.2"/>
		<rect x="778.9" y="339.1" class="st0" width="9.2" height="9.2"/>
		<rect x="767.5" y="350.5" class="st0" width="9.2" height="9.2"/>
		<rect x="756.1" y="350.5" class="st0" width="9.2" height="9.2"/>
		<rect x="778.9" y="350.5" class="st0" width="9.2" height="9.2"/>
		<rect x="95.9" y="249.6" class="st0" width="9.2" height="9.2"/>
		<rect x="84.5" y="249.6" class="st0" width="9.2" height="9.2"/>
		<rect x="107.4" y="249.6" class="st0" width="9.2" height="9.2"/>
		<rect x="95.9" y="261.1" class="st0" width="9.2" height="9.2"/>
		<rect x="84.5" y="261.1" class="st0" width="9.2" height="9.2"/>
		<rect x="107.4" y="261.1" class="st0" width="9.2" height="9.2"/>
		<rect x="95.9" y="272.5" class="st0" width="9.2" height="9.2"/>
		<rect x="84.5" y="272.5" class="st0" width="9.2" height="9.2"/>
		<rect x="107.4" y="272.5" class="st0" width="9.2" height="9.2"/>
		<rect x="95.9" y="226.8" class="st0" width="9.2" height="9.2"/>
		<rect x="84.5" y="226.8" class="st0" width="9.2" height="9.2"/>
		<rect x="107.4" y="226.8" class="st0" width="9.2" height="9.2"/>
		<rect x="95.9" y="238.2" class="st0" width="9.2" height="9.2"/>
		<rect x="84.5" y="238.2" class="st0" width="9.2" height="9.2"/>
		<rect x="107.4" y="238.2" class="st0" width="9.2" height="9.2"/>
		<path class="st0" d="M93.7,215.8c-3.4,0.8-6.5,2.3-9.2,4.3v4.5h9.2V215.8z"/>
		<path class="st0" d="M116.6,220.1c-2.7-2-5.9-3.4-9.2-4.3v8.8h9.2V220.1z"/>
		<path class="st0" d="M105.2,215.3c-1.5-0.3-3-0.4-4.6-0.4s-3.1,0.2-4.6,0.4v9.3h9.2V215.3z"/>
		<rect x="95.9" y="361.9" class="st0" width="9.2" height="9.2"/>
		<rect x="107.4" y="361.9" class="st0" width="9.2" height="9.2"/>
		<rect x="84.5" y="361.9" class="st0" width="9.2" height="9.2"/>
		<rect x="95.9" y="327.6" class="st0" width="9.2" height="9.2"/>
		<rect x="107.4" y="327.6" class="st0" width="9.2" height="9.2"/>
		<rect x="84.5" y="327.6" class="st0" width="9.2" height="9.2"/>
		<rect x="95.9" y="316.2" class="st0" width="9.2" height="9.2"/>
		<rect x="107.4" y="316.2" class="st0" width="9.2" height="9.2"/>
		<rect x="84.5" y="316.2" class="st0" width="9.2" height="9.2"/>
		<rect x="95.9" y="339.1" class="st0" width="9.2" height="9.2"/>
		<rect x="107.4" y="339.1" class="st0" width="9.2" height="9.2"/>
		<rect x="84.5" y="339.1" class="st0" width="9.2" height="9.2"/>
		<rect x="95.9" y="350.5" class="st0" width="9.2" height="9.2"/>
		<rect x="107.4" y="350.5" class="st0" width="9.2" height="9.2"/>
		<rect x="84.5" y="350.5" class="st0" width="9.2" height="9.2"/>
		<rect x="163.1" y="361.9" class="st0" width="9.2" height="9.2"/>
		<rect x="174.5" y="361.9" class="st0" width="9.2" height="9.2"/>
		<rect x="151.7" y="361.9" class="st0" width="9.2" height="9.2"/>
		<rect x="163.1" y="327.6" class="st0" width="9.2" height="9.2"/>
		<rect x="174.5" y="327.6" class="st0" width="9.2" height="9.2"/>
		<rect x="151.7" y="327.6" class="st0" width="9.2" height="9.2"/>
		<rect x="163.1" y="316.2" class="st0" width="9.2" height="9.2"/>
		<rect x="174.5" y="316.2" class="st0" width="9.2" height="9.2"/>
		<rect x="151.7" y="316.2" class="st0" width="9.2" height="9.2"/>
		<rect x="163.1" y="339.1" class="st0" width="9.2" height="9.2"/>
		<rect x="174.5" y="339.1" class="st0" width="9.2" height="9.2"/>
		<rect x="151.7" y="339.1" class="st0" width="9.2" height="9.2"/>
		<rect x="163.1" y="350.5" class="st0" width="9.2" height="9.2"/>
		<rect x="174.5" y="350.5" class="st0" width="9.2" height="9.2"/>
		<rect x="151.7" y="350.5" class="st0" width="9.2" height="9.2"/>
		<rect x="353.1" y="316.2" class="st0" width="49.6" height="54.9"/>
		<rect x="218.8" y="316.2" class="st0" width="49.6" height="54.9"/>
		<rect x="286" y="316.2" class="st0" width="49.6" height="54.9"/>
		<rect x="671.4" y="316.2" class="st0" width="49.6" height="54.9"/>
		<rect x="537.1" y="316.2" class="st0" width="49.6" height="54.9"/>
		<rect x="604.2" y="316.2" class="st0" width="49.6" height="54.9"/>
		<path class="st0" d="M469.9,215.3h-37.8l0,0l0,0c0,0.4,0,0.8,0,1.3c-0.1,14,1.9,26.6,6.1,38.2c0.9,2.6,1.8,5.2,2.9,7.8
			c6,14.2,15.6,25.3,28.8,33.1l0,0l0,0c13.2-7.8,22.8-18.9,28.8-33.1c1.1-2.5,2-5.1,2.9-7.8c4.1-11.5,6.2-24.2,6.1-38.2
			c0-0.4,0-0.8,0-1.3l0,0l0,0H469.9z"/>
		<polygon class="st0" points="414.6,206.3 525.1,206.3 469.9,172.1 		"/>
		<polygon class="st0" points="402.7,196.1 469.8,154.5 469.9,154.5 537.1,196.1 537.1,196.1 940,196.1 798.5,108.4 739,145.3 
			201,145.3 141.5,108.4 0,196.1 		"/>
		<rect x="163.1" y="249.6" class="st0" width="9.2" height="9.2"/>
		<rect x="151.7" y="249.6" class="st0" width="9.2" height="9.2"/>
		<rect x="174.5" y="249.6" class="st0" width="9.2" height="9.2"/>
		<rect x="163.1" y="261.1" class="st0" width="9.2" height="9.2"/>
		<rect x="151.7" y="261.1" class="st0" width="9.2" height="9.2"/>
		<rect x="174.5" y="261.1" class="st0" width="9.2" height="9.2"/>
		<rect x="163.1" y="272.5" class="st0" width="9.2" height="9.2"/>
		<rect x="151.7" y="272.5" class="st0" width="9.2" height="9.2"/>
		<rect x="174.5" y="272.5" class="st0" width="9.2" height="9.2"/>
		<rect x="163.1" y="226.8" class="st0" width="9.2" height="9.2"/>
		<rect x="151.7" y="226.8" class="st0" width="9.2" height="9.2"/>
		<rect x="174.5" y="226.8" class="st0" width="9.2" height="9.2"/>
		<rect x="163.1" y="238.2" class="st0" width="9.2" height="9.2"/>
		<rect x="151.7" y="238.2" class="st0" width="9.2" height="9.2"/>
		<rect x="174.5" y="238.2" class="st0" width="9.2" height="9.2"/>
		<path class="st0" d="M160.9,215.8c-3.4,0.8-6.5,2.3-9.2,4.3v4.5h9.2V215.8z"/>
		<path class="st0" d="M183.7,220.1c-2.7-2-5.9-3.4-9.2-4.3v8.8h9.2V220.1z"/>
		<path class="st0" d="M172.3,215.3c-1.5-0.3-3-0.4-4.6-0.4s-3.1,0.2-4.6,0.4v9.3h9.2L172.3,215.3L172.3,215.3z"/>
		<rect x="230.3" y="249.6" class="st0" width="9.2" height="9.2"/>
		<rect x="218.8" y="249.6" class="st0" width="9.2" height="9.2"/>
		<rect x="241.7" y="249.6" class="st0" width="9.2" height="9.2"/>
		<rect x="230.3" y="261.1" class="st0" width="9.2" height="9.2"/>
		<rect x="218.8" y="261.1" class="st0" width="9.2" height="9.2"/>
		<rect x="241.7" y="261.1" class="st0" width="9.2" height="9.2"/>
		<rect x="230.3" y="272.5" class="st0" width="9.2" height="9.2"/>
		<rect x="218.8" y="272.5" class="st0" width="9.2" height="9.2"/>
		<rect x="241.7" y="272.5" class="st0" width="9.2" height="9.2"/>
		<rect x="230.3" y="226.8" class="st0" width="9.2" height="9.2"/>
		<rect x="218.8" y="226.8" class="st0" width="9.2" height="9.2"/>
		<rect x="241.7" y="226.8" class="st0" width="9.2" height="9.2"/>
		<rect x="230.3" y="238.2" class="st0" width="9.2" height="9.2"/>
		<rect x="218.8" y="238.2" class="st0" width="9.2" height="9.2"/>
		<rect x="241.7" y="238.2" class="st0" width="9.2" height="9.2"/>
		<path class="st0" d="M228.1,215.8c-3.4,0.8-6.5,2.3-9.2,4.3v4.5h9.2V215.8z"/>
		<path class="st0" d="M250.9,220.1c-2.7-2-5.9-3.4-9.2-4.3v8.8h9.2V220.1z"/>
		<path class="st0" d="M239.5,215.3c-1.5-0.3-3-0.4-4.6-0.4s-3.1,0.2-4.6,0.4v9.3h9.2L239.5,215.3L239.5,215.3z"/>
		<rect x="297.4" y="249.6" class="st0" width="9.2" height="9.2"/>
		<rect x="286" y="249.6" class="st0" width="9.2" height="9.2"/>
		<rect x="308.8" y="249.6" class="st0" width="9.2" height="9.2"/>
		<rect x="297.4" y="261.1" class="st0" width="9.2" height="9.2"/>
		<rect x="286" y="261.1" class="st0" width="9.2" height="9.2"/>
		<rect x="308.8" y="261.1" class="st0" width="9.2" height="9.2"/>
		<rect x="297.4" y="272.5" class="st0" width="9.2" height="9.2"/>
		<rect x="286" y="272.5" class="st0" width="9.2" height="9.2"/>
		<rect x="308.8" y="272.5" class="st0" width="9.2" height="9.2"/>
		<rect x="297.4" y="226.8" class="st0" width="9.2" height="9.2"/>
		<rect x="286" y="226.8" class="st0" width="9.2" height="9.2"/>
		<rect x="308.8" y="226.8" class="st0" width="9.2" height="9.2"/>
		<rect x="297.4" y="238.2" class="st0" width="9.2" height="9.2"/>
		<rect x="286" y="238.2" class="st0" width="9.2" height="9.2"/>
		<rect x="308.8" y="238.2" class="st0" width="9.2" height="9.2"/>
		<path class="st0" d="M295.2,215.8c-3.4,0.8-6.5,2.3-9.2,4.3v4.5h9.2V215.8z"/>
		<path class="st0" d="M318.1,220.1c-2.7-2-5.9-3.4-9.2-4.3v8.8h9.2V220.1z"/>
		<path class="st0" d="M306.6,215.3c-1.5-0.3-3-0.4-4.6-0.4s-3.1,0.2-4.6,0.4v9.3h9.2V215.3z"/>
		<rect x="364.6" y="249.6" class="st0" width="9.2" height="9.2"/>
		<rect x="353.1" y="249.6" class="st0" width="9.2" height="9.2"/>
		<rect x="376" y="249.6" class="st0" width="9.2" height="9.2"/>
		<rect x="364.6" y="261.1" class="st0" width="9.2" height="9.2"/>
		<rect x="353.1" y="261.1" class="st0" width="9.2" height="9.2"/>
		<rect x="376" y="261.1" class="st0" width="9.2" height="9.2"/>
		<rect x="364.6" y="272.5" class="st0" width="9.2" height="9.2"/>
		<rect x="353.1" y="272.5" class="st0" width="9.2" height="9.2"/>
		<rect x="376" y="272.5" class="st0" width="9.2" height="9.2"/>
		<rect x="364.6" y="226.8" class="st0" width="9.2" height="9.2"/>
		<rect x="353.1" y="226.8" class="st0" width="9.2" height="9.2"/>
		<rect x="376" y="226.8" class="st0" width="9.2" height="9.2"/>
		<rect x="364.6" y="238.2" class="st0" width="9.2" height="9.2"/>
		<rect x="353.1" y="238.2" class="st0" width="9.2" height="9.2"/>
		<rect x="376" y="238.2" class="st0" width="9.2" height="9.2"/>
		<path class="st0" d="M362.4,215.8c-3.4,0.8-6.5,2.3-9.2,4.3v4.5h9.2V215.8z"/>
		<path class="st0" d="M385.2,220.1c-2.7-2-5.9-3.4-9.2-4.3v8.8h9.2V220.1z"/>
		<path class="st0" d="M373.8,215.3c-1.5-0.3-3-0.4-4.6-0.4s-3.1,0.2-4.6,0.4v9.3h9.2V215.3z"/>
		<rect x="566" y="249.6" class="st0" width="9.2" height="9.2"/>
		<rect x="554.6" y="249.6" class="st0" width="9.2" height="9.2"/>
		<rect x="577.5" y="249.6" class="st0" width="9.2" height="9.2"/>
		<rect x="566" y="261.1" class="st0" width="9.2" height="9.2"/>
		<rect x="554.6" y="261.1" class="st0" width="9.2" height="9.2"/>
		<rect x="577.5" y="261.1" class="st0" width="9.2" height="9.2"/>
		<rect x="566" y="272.5" class="st0" width="9.2" height="9.2"/>
		<rect x="554.6" y="272.5" class="st0" width="9.2" height="9.2"/>
		<rect x="577.5" y="272.5" class="st0" width="9.2" height="9.2"/>
		<rect x="566" y="226.8" class="st0" width="9.2" height="9.2"/>
		<rect x="554.6" y="226.8" class="st0" width="9.2" height="9.2"/>
		<rect x="577.5" y="226.8" class="st0" width="9.2" height="9.2"/>
		<rect x="566" y="238.2" class="st0" width="9.2" height="9.2"/>
		<rect x="554.6" y="238.2" class="st0" width="9.2" height="9.2"/>
		<rect x="577.5" y="238.2" class="st0" width="9.2" height="9.2"/>
		<path class="st0" d="M563.8,215.8c-3.4,0.8-6.5,2.3-9.2,4.3v4.5h9.2V215.8z"/>
		<path class="st0" d="M586.7,220.1c-2.7-2-5.9-3.4-9.2-4.3v8.8h9.2V220.1z"/>
		<path class="st0" d="M575.3,215.3c-1.5-0.3-3-0.4-4.6-0.4s-3.1,0.2-4.6,0.4v9.3h9.2L575.3,215.3L575.3,215.3z"/>
		<rect x="633.2" y="249.6" class="st0" width="9.2" height="9.2"/>
		<rect x="621.8" y="249.6" class="st0" width="9.2" height="9.2"/>
		<rect x="644.6" y="249.6" class="st0" width="9.2" height="9.2"/>
		<rect x="633.2" y="261.1" class="st0" width="9.2" height="9.2"/>
		<rect x="621.8" y="261.1" class="st0" width="9.2" height="9.2"/>
		<rect x="644.6" y="261.1" class="st0" width="9.2" height="9.2"/>
		<rect x="633.2" y="272.5" class="st0" width="9.2" height="9.2"/>
		<rect x="621.8" y="272.5" class="st0" width="9.2" height="9.2"/>
		<rect x="644.6" y="272.5" class="st0" width="9.2" height="9.2"/>
		<rect x="633.2" y="226.8" class="st0" width="9.2" height="9.2"/>
		<rect x="621.8" y="226.8" class="st0" width="9.2" height="9.2"/>
		<rect x="644.6" y="226.8" class="st0" width="9.2" height="9.2"/>
		<rect x="633.2" y="238.2" class="st0" width="9.2" height="9.2"/>
		<rect x="621.8" y="238.2" class="st0" width="9.2" height="9.2"/>
		<rect x="644.6" y="238.2" class="st0" width="9.2" height="9.2"/>
		<path class="st0" d="M631,215.8c-3.4,0.8-6.5,2.3-9.2,4.3v4.5h9.2V215.8z"/>
		<path class="st0" d="M653.8,220.1c-2.7-2-5.9-3.4-9.2-4.3v8.8h9.2V220.1z"/>
		<path class="st0" d="M642.4,215.3c-1.5-0.3-3-0.4-4.6-0.4s-3.1,0.2-4.6,0.4v9.3h9.2L642.4,215.3L642.4,215.3z"/>
		<rect x="700.3" y="249.6" class="st0" width="9.2" height="9.2"/>
		<rect x="688.9" y="249.6" class="st0" width="9.2" height="9.2"/>
		<rect x="711.8" y="249.6" class="st0" width="9.2" height="9.2"/>
		<rect x="700.3" y="261.1" class="st0" width="9.2" height="9.2"/>
		<rect x="688.9" y="261.1" class="st0" width="9.2" height="9.2"/>
		<rect x="711.8" y="261.1" class="st0" width="9.2" height="9.2"/>
		<rect x="700.3" y="272.5" class="st0" width="9.2" height="9.2"/>
		<rect x="688.9" y="272.5" class="st0" width="9.2" height="9.2"/>
		<rect x="711.8" y="272.5" class="st0" width="9.2" height="9.2"/>
		<rect x="700.3" y="226.8" class="st0" width="9.2" height="9.2"/>
		<rect x="688.9" y="226.8" class="st0" width="9.2" height="9.2"/>
		<rect x="711.8" y="226.8" class="st0" width="9.2" height="9.2"/>
		<rect x="700.3" y="238.2" class="st0" width="9.2" height="9.2"/>
		<rect x="688.9" y="238.2" class="st0" width="9.2" height="9.2"/>
		<rect x="711.8" y="238.2" class="st0" width="9.2" height="9.2"/>
		<path class="st0" d="M698.1,215.8c-3.4,0.8-6.5,2.3-9.2,4.3v4.5h9.2V215.8z"/>
		<path class="st0" d="M721,220.1c-2.7-2-5.9-3.4-9.2-4.3v8.8h9.2V220.1z"/>
		<path class="st0" d="M709.6,215.3c-1.5-0.3-3-0.4-4.6-0.4s-3.1,0.2-4.6,0.4v9.3h9.2L709.6,215.3L709.6,215.3z"/>
		<rect x="767.5" y="249.6" class="st0" width="9.2" height="9.2"/>
		<rect x="756.1" y="249.6" class="st0" width="9.2" height="9.2"/>
		<rect x="778.9" y="249.6" class="st0" width="9.2" height="9.2"/>
		<rect x="767.5" y="261.1" class="st0" width="9.2" height="9.2"/>
		<rect x="756.1" y="261.1" class="st0" width="9.2" height="9.2"/>
		<rect x="778.9" y="261.1" class="st0" width="9.2" height="9.2"/>
		<rect x="767.5" y="272.5" class="st0" width="9.2" height="9.2"/>
		<rect x="756.1" y="272.5" class="st0" width="9.2" height="9.2"/>
		<rect x="778.9" y="272.5" class="st0" width="9.2" height="9.2"/>
		<rect x="767.5" y="226.8" class="st0" width="9.2" height="9.2"/>
		<rect x="756.1" y="226.8" class="st0" width="9.2" height="9.2"/>
		<rect x="778.9" y="226.8" class="st0" width="9.2" height="9.2"/>
		<rect x="767.5" y="238.2" class="st0" width="9.2" height="9.2"/>
		<rect x="756.1" y="238.2" class="st0" width="9.2" height="9.2"/>
		<rect x="778.9" y="238.2" class="st0" width="9.2" height="9.2"/>
		<path class="st0" d="M765.3,215.8c-3.4,0.8-6.5,2.3-9.2,4.3v4.5h9.2V215.8z"/>
		<path class="st0" d="M788.1,220.1c-2.7-2-5.9-3.4-9.2-4.3v8.8h9.2V220.1z"/>
		<path class="st0" d="M776.7,215.3c-1.5-0.3-3-0.4-4.6-0.4s-3.1,0.2-4.6,0.4v9.3h9.2L776.7,215.3L776.7,215.3z"/>
		<rect x="834.6" y="249.6" class="st0" width="9.2" height="9.2"/>
		<rect x="823.2" y="249.6" class="st0" width="9.2" height="9.2"/>
		<rect x="846.1" y="249.6" class="st0" width="9.2" height="9.2"/>
		<rect x="834.6" y="261.1" class="st0" width="9.2" height="9.2"/>
		<rect x="823.2" y="261.1" class="st0" width="9.2" height="9.2"/>
		<rect x="846.1" y="261.1" class="st0" width="9.2" height="9.2"/>
		<rect x="834.6" y="272.5" class="st0" width="9.2" height="9.2"/>
		<rect x="823.2" y="272.5" class="st0" width="9.2" height="9.2"/>
		<rect x="846.1" y="272.5" class="st0" width="9.2" height="9.2"/>
		<rect x="834.6" y="226.8" class="st0" width="9.2" height="9.2"/>
		<rect x="823.2" y="226.8" class="st0" width="9.2" height="9.2"/>
		<rect x="846.1" y="226.8" class="st0" width="9.2" height="9.2"/>
		<rect x="834.6" y="238.2" class="st0" width="9.2" height="9.2"/>
		<rect x="823.2" y="238.2" class="st0" width="9.2" height="9.2"/>
		<rect x="846.1" y="238.2" class="st0" width="9.2" height="9.2"/>
		<path class="st0" d="M832.5,215.8c-3.4,0.8-6.5,2.3-9.2,4.3v4.5h9.2V215.8z"/>
		<path class="st0" d="M855.3,220.1c-2.7-2-5.9-3.4-9.2-4.3v8.8h9.2V220.1z"/>
		<path class="st0" d="M843.9,215.3c-1.5-0.3-3-0.4-4.6-0.4s-3.1,0.2-4.6,0.4v9.3h9.2L843.9,215.3L843.9,215.3z"/>
	</g>
	<g>
		<path class="st1" d="M191.3,11.9v59.6c0,23.5,16.7,39.2,41.9,39.2c24.4,0,40.7-15.8,40.7-39.5V11.6c0.3-4.2,3.7-7.1,8-7.1h2.5V2.9
			h-27.9v1.5h2.5c4.3,0,7.8,3,8,7.3v59.6c0,20.8-13.5,34.7-33.6,34.7c-19.2,0-32.1-14.7-32.1-36.7V11.7c0.2-4.2,3.7-7.3,8-7.3h2.5
			V2.9h-30.7v1.5h2.5C187.7,4.4,191.2,7.6,191.3,11.9z"/>
		<path class="st1" d="M319.7,107.1h-2.8c-5.1,0-9.2-4-9.3-9V22.9l82.3,87.8h1.4c0,0-1.4-9.5-1.4-19.3v-78c0.2-5,4.3-9,9.3-9h2.8
			V2.9h-31.1v1.5h2.8c5.1,0,9.2,4.1,9.3,9.2v74.9L300.8,0.7h-1.5c0,0,1.4,8.6,1.4,18.9V98c-0.1,5.1-4.2,9.1-9.3,9.1h-2.8v1.5h31.1
			V107.1z"/>
		<path class="st1" d="M416.7,107.1h-1.9v1.5h33v-1.5h-1.9c-5.3,0-9.6-4.2-9.7-9.5V13.8c0.1-5.2,4.4-9.4,9.7-9.4h1.9V2.9h-33v1.5
			h1.9c5.3,0,9.5,4.2,9.7,9.4v83.7C426.3,102.9,422,107.1,416.7,107.1z"/>
		<path class="st1" d="M497.3,107.1h-1.9c-5.3,0-9.6-4.2-9.7-9.5V58.8h25.7c4,0.2,7.1,3.4,7.1,7.4v2.2h1.5V44.5h-1.5v2.2
			c0,4.1-3.3,7.4-7.3,7.4h-25.5V7.5h31.9c4,0.1,7.3,3.4,7.3,7.4v2.2h1.5v-10V4.6V0.2c-2.8,1.2-11.5,2.7-18,2.7h-44.1v1.5h1.9
			c5,0,9.6,3.8,9.6,8.6v84.5c-0.1,5.3-4.4,9.5-9.7,9.5h-1.9v1.5h33L497.3,107.1z"/>
		<path class="st1" d="M615.8,84.2h-1.5c-4.7,11.5-10.8,19.8-26.8,19.8h-21.7V58.7h25.7c4,0.2,7.1,3.4,7.1,7.4v2.2h1.5V44.5h-1.5
			v2.2c0,4.1-3.3,7.4-7.3,7.4h-25.5V7.5h30.8c4.7,0.3,8.5,4.2,8.5,9v2.7h1.5V7.1V4.6V0.2c-2.8,1.2-11.5,2.7-18,2.7h-44.1v1.5h1.9
			c5,0,9.1,3.8,9.6,8.6v84.5c-0.1,5.3-4.4,9.5-9.7,9.5h-1.9v1.5H607L615.8,84.2z"/>
		<path class="st1" d="M655.8,110.7c17.4,0,28.3-11.5,28.3-28.2c0-6.1-1.5-12.8-7.6-18.4l-29.7-27.5c-4.8-4.4-6.1-10-6.1-13.9
			c0-9.2,7.4-17.4,18.6-17.4c9.4,0,17,5.9,17,15.5h1.5V4.2V2.4h-6c-4-0.9-9-1.5-12.9-1.5c-17.2,0-26.5,12.8-26.5,25.5
			c0,5.8,2.1,13.1,8.2,18.7L669.5,72c3.8,3.5,5.9,8.2,5.9,14.1c0,12.1-9.2,19.6-20.2,20.2c-13.4,0.7-23.3-9.2-21.8-24.8H632
			c-2.3,6.8-2.9,16.4-1.7,21C636.2,108.6,648.4,110.7,655.8,110.7z"/>
		<path class="st1" d="M730,107.1h-1.9c-5.3,0-9.6-4.2-9.7-9.5V7.5h17.4c12.8,0,20,9.2,20.4,23.1c0.1,3.3-0.3,7-1,9.1
			C748.4,61.3,723.6,56,723.6,56v1.4c18.9,10,43.9-2.3,43.9-25.3c0-18.1-11.8-29.2-31.1-29.2h-39.3v1.5h1.9c5,0,9.1,3.8,9.6,8.7
			v84.5c-0.1,5.3-4.4,9.5-9.7,9.5H697v1.5h33V107.1z"/>
		<path class="st1" d="M65,445.2h1.3c2.2,0,4,1.5,4.1,3.7v30.3c0,10.6-6.9,17.7-17.1,17.7c-9.8,0-16.3-7.5-16.3-18.7v-29.4
			c0.1-2.2,1.9-3.7,4.1-3.7h1.3v-0.8H26.6v0.8h1.3c2.2,0,4,1.6,4.1,3.8v30.4c0,12,8.5,20,21.3,20c12.4,0,20.7-8,20.7-20.1v-30.4
			c0.1-2.1,1.9-3.6,4.1-3.6h1.3v-0.8H65V445.2z"/>
		<path class="st1" d="M124.6,452.9h1.3c2.3,0,4.1,1.7,4.3,3.8v31.9L90.3,451h-0.8c0,0,0.7,4.4,0.7,9.6v32.9c0,2.2-1.9,4-4.3,4h-1.3
			v0.8h14.5v-0.8h-1.3c-2.3,0-4.2-1.8-4.3-4v-32.1l40,38h0.7c0,0-0.7-4.9-0.7-9.8v-32.8c0.1-2.1,2-3.8,4.3-3.8h1.3v-0.8h-14.5
			L124.6,452.9z"/>
		<path class="st1" d="M162.4,497.5c-2.8,0-5.1-1.8-5.2-4.1v-36.5c0.1-2.2,2.4-4,5.2-4h1v-0.8H146v0.8h1c2.9,0,5.2,1.9,5.2,4.2v36.3
			c-0.1,2.3-2.4,4.2-5.2,4.2h-1v0.8h17.4v-0.8h-1V497.5z"/>
		<path class="st1" d="M218.4,452.9h0.6v-0.8h-14.7v0.8h0.6c1.8,0,3.8,1.8,2.6,4.8l-14.1,33.4l-13.8-33.5c-1-3,0.9-4.7,2.7-4.7h0.6
			v-0.8h-15.8v0.8h0.6c2.1,0,4.4,1.3,5.9,4.5l19,42h0.7c0.2-2,3-7.9,3-7.9l15.9-34C213.9,454.2,216.3,452.9,218.4,452.9z"/>
		<path class="st1" d="M223.9,497.5h-1.1v0.8H254l4.2-11h-0.8c-2.2,5-4.8,8.6-12.2,8.7h-12v-19.6h13.3c2,0.1,2.9,1.5,2.9,3.3v1h0.8
			v-10.8h-0.8v1c0,1.8-1,3.2-3.1,3.3h-13.1v-19.6h15.9c2.3,0,3.9,1.8,3.9,4v1.2h0.8v-8.7c-1.3,0.5-5.5,1.2-8.6,1.2h-22.5v0.8h1.1
			c2.5,0,4.4,1.7,4.4,4v36.5C228.3,495.7,226.4,497.5,223.9,497.5z"/>
		<path class="st1" d="M299.7,491.6c-3.2-3.6-6.7-8.4-6.7-8.4c-1.6-2.3-4.2-5.3-5.9-6c6.9-0.7,12-6.1,12-12.7
			c0-7.8-5.9-12.5-15.6-12.5h-19.3v0.8h1c2.4,0,4.3,1.7,4.4,4v36.5c-0.1,2.3-1.9,4.1-4.4,4.1h-1v0.8h15.7v-0.8h-1
			c-2.5,0-4.3-1.9-4.4-4.2v-38.8c0.7,0,4.5-0.2,8.8,0.1c6.2,0.3,10.1,3.7,10.2,9.5c0.1,1.7-0.2,3.3-0.5,4.4
			c-2.2,6.5-7.1,6.5-11.3,6.6c-2.5,0.1-4.4,0-4.4,0v0.7c3,0,5.7,2.6,7.8,5.2c0.6,0.8,6.7,9.5,7.5,10.5c2.4,2.9,5.8,6.8,14.3,6.8h2.4
			v-0.8C304.9,497.4,302.8,495.1,299.7,491.6z"/>
		<path class="st1" d="M339.4,486.9c0-3-1.1-6.3-3.5-8.3l-15.6-12c-2.4-1.9-3-4.1-3-6.1c0-4.1,4.1-7.3,9.2-7.3c6,0,8.9,2.5,8.9,6.8
			h0.9l-0.1-8.4h-2.6c-1.7-0.4-4.1-0.7-7.6-0.7c-7.1,0-12.8,5-12.7,11.2c0,2.7,0.8,5.9,3.7,8.3l15.4,11.9c2,1.7,2.8,3.7,2.8,6.1
			c0,5-3.9,8.3-10.2,8.5c-6.8,0.2-11.5-3.9-10.8-10.9h-0.9c-1,3-1.2,7.5-0.8,9.6c2.8,2.5,8.7,3.6,13.3,3.6
			C333.4,499.3,339.4,493.8,339.4,486.9z"/>
		<path class="st1" d="M348.8,497.5h-1v0.8h17.4v-0.8h-1c-2.8,0-5.1-1.8-5.2-4.1v-36.5c0.1-2.2,2.4-4,5.2-4h1v-0.8h-17.4v0.8h1
			c2.9,0,5.2,1.9,5.2,4.2v36.3C354,495.6,351.7,497.5,348.8,497.5z"/>
		<path class="st1" d="M424,475.2c0-14.3-9.6-23.1-24.7-23.1h-25.7v0.8h0.9c2.4,0,4.3,1.7,4.4,4.1v36.3c-0.1,2.3-1.9,4.2-4.3,4.2h-1
			v0.8h25.7C414.4,498.2,424,489.5,424,475.2z M384,454.4h15.3c11.8,0,19.1,7.9,19.1,20.8c0,12.8-7.3,20.7-19.1,20.7H384V454.4z"/>
		<path class="st1" d="M471.5,493l-19-42h-0.7c-0.2,2-3,7.9-3,7.9L432.9,493c-1.6,3.1-4,4.4-6,4.4h-0.6v0.8H441v-0.8h-0.6
			c-1.8,0-3.8-1.8-2.6-4.8l4.2-10h19.5l4.2,10.2c1,2.9-1,4.6-2.7,4.6h-0.6v0.8H478v-0.8h-0.6C475.4,497.5,473.1,496.2,471.5,493z
			 M442.9,480.3l8.9-21.1l8.6,21.1H442.9z"/>
		<path class="st1" d="M482.9,497.5h-1v0.8h25.7c15.2,0,24.7-8.8,24.7-23c0-14.3-9.6-23.1-24.7-23.1h-25.7v0.8h0.9
			c2.4,0,4.3,1.7,4.4,4.1v36.3C487.1,495.6,485.3,497.5,482.9,497.5z M492.2,454.4h15.3c11.8,0,19.1,7.9,19.1,20.8
			c0,12.8-7.3,20.7-19.1,20.7h-15.3L492.2,454.4L492.2,454.4z"/>
		<path class="st1" d="M540.2,452.9c2.5,0,4.4,1.7,4.4,4v36.5c-0.1,2.3-2,4.1-4.4,4.1h-1.1v0.8h31.2l4.2-11h-0.8
			c-2.2,5-4.8,8.6-12.2,8.7h-12v-19.6h13.3c2,0.1,2.9,1.5,2.9,3.3v1h0.8v-10.8h-0.8v1c0,1.8-1,3.2-3.1,3.3h-13.1v-19.6h15.9
			c2.3,0,3.9,1.8,3.9,4v1.2h0.8v-8.7c-1.3,0.5-5.5,1.2-8.6,1.2H539v0.8h1.2V452.9z"/>
		<path class="st1" d="M600.7,444.4v0.8h1c2.5,0,4.9,1.9,4.9,4.4v43.1c0,2.7-2.2,4.8-4.9,4.8h-1v0.8h16.8v-0.8h-1
			c-2.7,0-4.9-2.2-4.9-4.8v-19.8h13.1c2,0.1,3.6,1.7,3.6,3.8v1.1h0.8v-12.2h-0.8v1.1c0,2.1-1.7,3.7-3.7,3.8h-13v-23.8h16.3
			c2.1,0,3.7,1.7,3.7,3.8v1.1h0.8v-5.1v-1.3V443c-1.4,0.6-5.9,1.4-9.2,1.4H600.7z"/>
		<path class="st1" d="M661.3,495.9h-12v-19.6h13.3c2,0.1,2.9,1.5,2.9,3.3v1h0.8v-10.8h-0.8v1c0,1.8-1,3.2-3.1,3.3h-13.1v-19.6h15.9
			c2.3,0,3.9,1.8,3.9,4v1.2h0.8V451c-1.3,0.5-5.5,1.2-8.6,1.2h-22.5v0.8h1.1c2.5,0,4.4,1.7,4.4,4v36.5c-0.1,2.3-2,4.1-4.4,4.1h-1.1
			v0.8H670l4.2-11h-0.8C671.3,492.2,668.7,495.8,661.3,495.9z"/>
		<path class="st1" d="M705.7,452.1H680v0.8h0.9c2.4,0,4.3,1.7,4.4,4.1v36.3c-0.1,2.3-1.9,4.2-4.3,4.2h-1v0.8h25.7
			c15.2,0,24.7-8.8,24.7-23C730.4,460.9,720.9,452.1,705.7,452.1z M705.8,495.9h-15.3v-41.5h15.3c11.8,0,19.1,7.9,19.1,20.8
			C724.9,488,717.6,495.9,705.8,495.9z"/>
		<path class="st1" d="M759.8,495.9h-12v-19.6h13.3c2,0.1,2.9,1.5,2.9,3.3v1h0.8v-10.8H764v1c0,1.8-1,3.2-3.1,3.3h-13.1v-19.6h15.9
			c2.3,0,3.9,1.8,3.9,4v1.2h0.8V451c-1.3,0.5-5.5,1.2-8.6,1.2h-22.5v0.8h1.1c2.5,0,4.4,1.7,4.4,4v36.5c-0.1,2.3-2,4.1-4.4,4.1h-1.1
			v0.8h31.2l4.2-11H772C769.8,492.2,767.2,495.8,759.8,495.9z"/>
		<path class="st1" d="M867.4,493l-19-42h-0.7c-0.2,2-3,7.9-3,7.9L828.8,493c-1.5,2.9-3.6,4.2-5.6,4.4c-3.9-0.2-6.1-2.4-9.1-5.8
			c-3.2-3.6-6.7-8.4-6.7-8.4c-1.6-2.3-4.2-5.3-5.9-6c6.9-0.7,12-6.1,12-12.7c0-7.8-5.9-12.5-15.6-12.5h-19.3v0.8h1
			c2.5,0,4.3,1.7,4.4,4v36.5c-0.1,2.3-1.9,4.1-4.4,4.1h-1v0.8h15.7v-0.8h-1c-2.5,0-4.3-1.9-4.4-4.2v-38.8c0.7,0,4.5-0.2,8.8,0.1
			c6.2,0.3,10.1,3.7,10.2,9.5c0.1,1.7-0.2,3.3-0.5,4.4c-2.2,6.5-7.1,6.5-11.3,6.6c-2.5,0.1-4.4,0-4.4,0v0.7c3,0,5.7,2.6,7.8,5.2
			c0.6,0.8,6.7,9.5,7.5,10.5c2.4,2.9,5.8,6.8,14.3,6.8h0.9h1.6h13.1v-0.8h-0.6c-1.8,0-3.8-1.8-2.6-4.8l4.2-10h19.5l4.2,10.2
			c1,2.9-1,4.6-2.7,4.6h-0.6v0.8h15.8v-0.8h-0.6C871.3,497.5,868.9,496.2,867.4,493z M838.7,480.3l8.9-21.1l8.6,21.1H838.7z"/>
		<path class="st1" d="M912.4,487.2c-2.2,5-4.8,8.6-12.2,8.7h-12V457c0-2.3,2.1-4.2,4.6-4.2h0.9V452h-15.9v0.8h0.9
			c2.5,0,4.5,1.9,4.6,4.2v36.4c-0.1,2.3-2,4.1-4.4,4.1h-1.1v0.8H909l4.2-11L912.4,487.2L912.4,487.2z"/>
		<path class="st1" d="M238.4,532.6h-25.7v0.8h0.9c2.4,0,4.3,1.7,4.4,4.1v36.3c-0.1,2.3-1.9,4.2-4.3,4.2h-1v0.8h25.7
			c15.2,0,24.7-8.8,24.7-23C263.1,541.4,253.6,532.6,238.4,532.6z M238.4,576.4h-15.3v-41.5h15.3c11.8,0,19.1,7.9,19.1,20.8
			C257.6,568.5,250.2,576.4,238.4,576.4z"/>
		<path class="st1" d="M292.5,576.4h-12v-19.6h13.3c2,0.1,2.9,1.5,2.9,3.3v1h0.8v-10.8h-0.8v1c0,1.8-1,3.2-3.1,3.3h-13.1V535h15.9
			c2.3,0,3.9,1.8,3.9,4v1.2h0.8v-8.7c-1.3,0.5-5.5,1.2-8.6,1.2H270v0.8h1.1c2.5,0,4.4,1.7,4.4,4V574c-0.1,2.3-2,4.1-4.4,4.1H270v0.8
			h31.2l4.2-11h-0.8C302.5,572.7,299.9,576.3,292.5,576.4z"/>
		<path class="st1" d="M340.2,542.1c-2.4-2.2-3.1-5.1-3.1-7.1c0-4.7,3.8-8.8,9.5-8.8c4.8,0,8.7,3,8.7,7.9h0.7v-8.5v-0.9h-3
			c-2-0.4-4.6-0.8-6.6-0.8c-8.8,0-13.5,6.5-13.5,13c0,3,1.1,6.7,4.2,9.5l14.7,13.7c1.9,1.8,3,4.2,3,7.2c0,6.1-4.7,10-10.3,10.3
			c-6.8,0.4-11.9-4.7-11.1-12.6h-0.7c-1.2,3.4-1.5,8.3-0.9,10.7c3,3.1,9.3,4.2,13,4.2c8.8,0,14.4-5.9,14.4-14.4
			c0-3.1-0.8-6.5-3.9-9.4L340.2,542.1z"/>
		<path class="st1" d="M407.6,573.5l-19-42h-0.7c-0.2,2-3,7.9-3,7.9L369,573.5c-1.6,3.1-4,4.4-6,4.4h-0.6v0.8H377V578h-0.6
			c-1.8,0-3.8-1.8-2.6-4.8l4.2-10h19.5l4.2,10.2c1,2.9-1,4.6-2.7,4.6h-0.6v0.8h15.8V578h-0.6C411.5,578,409.2,576.7,407.6,573.5z
			 M379,560.8l8.9-21l8.6,21H379z"/>
		<path class="st1" d="M393.7,524.2c-2.6,0-5.8-3.3-9.3-3.3c-2.5,0-4.4,2.5-4.9,6.5h0.8c0.9-2.1,2.2-3.1,4.2-3.1
			c2.5,0,6,3.4,9.3,3.4c2.7,0,4.6-2.3,5-6H398C397.2,523.4,395.9,524.2,393.7,524.2z"/>
		<path class="st1" d="M442.4,531.5c-14.4,0-26,9.9-26,24.2s11.6,24.1,26,24.1c14.3,0,26-9.9,26-24.1
			C468.3,541.4,456.7,531.5,442.4,531.5z M442.4,577.5c-11.3,0-20.3-8.8-20.3-21.8s8.9-21.8,20.3-21.8c11.3,0,20.3,8.8,20.3,21.8
			C462.6,568.7,453.7,577.5,442.4,577.5z"/>
		<path class="st1" d="M516,524.9h-20v0.8h1c2.6,0,4.6,1.9,4.9,4.4v43c-0.1,2.7-2.2,4.8-4.9,4.8h-1v0.8h16.8v-0.8h-1
			c-2.7,0-4.9-2.2-4.9-4.8v-45.9h8.9c6.5,0,10.2,4.7,10.4,11.8c0,1.7-0.2,3.6-0.5,4.6c-3.5,11-16.1,8.3-16.1,8.3v0.7
			c9.6,5.1,22.4-1.2,22.4-12.9C531.8,530.6,525.8,524.9,516,524.9z"/>
		<path class="st1" d="M573.6,573.5l-19-42h-0.7c-0.2,2-3,7.9-3,7.9L535,573.5c-1.6,3.1-4,4.4-6,4.4h-0.6v0.8H543V578h-0.6
			c-1.8,0-3.8-1.8-2.6-4.8l4.2-10h19.5l4.2,10.2c1,2.9-1,4.6-2.7,4.6h-0.6v0.8h15.8V578h-0.6C577.5,578,575.2,576.7,573.6,573.5z
			 M545,560.8l8.9-21.1l8.6,21.1H545z"/>
		<path class="st1" d="M614.6,533.4h1.1c2,0,3.6,1.4,3.7,3.3v25.8c0,9.5-6,15.2-15.7,15.2c-8.8,0-14.3-6.1-14.3-16.1v-24.9
			c0-1.9,1.7-3.3,3.7-3.3h1.1v-0.8h-14.6v0.8h1.1c2,0,3.7,1.4,3.7,3.3v25.9c0,10.7,7.4,17.2,19.2,17.2s19.2-6.6,19.2-17.3v-25.9
			c0.1-1.9,1.7-3.2,3.7-3.2h1.1v-0.8h-13.2v0.8H614.6z"/>
		<path class="st1" d="M657.1,576.4h-12v-38.9c0.1-2.3,2.1-4.2,4.6-4.2h0.9v-0.8h-15.9v0.8h0.9c2.5,0,4.5,1.9,4.6,4.2v36.4
			c-0.1,2.3-2,4.1-4.4,4.1h-1.1v0.8h31.2l4.2-11h-0.8C667.1,572.7,664.5,576.3,657.1,576.4z"/>
		<path class="st1" d="M701.1,531.5c-14.4,0-26,9.9-26,24.2s11.6,24.1,26,24.1c14.3,0,25.9-9.9,25.9-24.1
			C727,541.4,715.4,531.5,701.1,531.5z M701.1,577.5c-11.3,0-20.3-8.8-20.3-21.8s8.9-21.8,20.3-21.8c11.3,0,20.3,8.8,20.3,21.8
			C721.3,568.7,712.4,577.5,701.1,577.5z"/>
	</g>
</g>
</svg>
